<svg width="84" height="84" viewBox="0 0 84 84" fill="none" xmlns="http://www.w3.org/2000/svg">
<circle cx="42" cy="42" r="40" fill="#F2F2F2" stroke="#F5BD00" stroke-width="4"/>
<path d="M26.7748 66.0999L27.3539 64.4839H30.4195L30.9986 66.0999H32.5264L29.7005 58.745H28.1228L25.3069 66.0999H26.7748ZM29.9502 63.1787H27.8232L28.8817 60.2471L29.9502 63.1787ZM35.5221 68.265C35.9215 68.265 36.286 68.1976 36.6155 68.063C36.945 67.9283 37.2296 67.7367 37.4693 67.488C37.7089 67.2394 37.8937 66.9425 38.0235 66.5972C38.1533 66.2519 38.2182 65.8686 38.2182 65.4473V60.6304H36.9301L36.9001 61.3037C36.7204 61.0344 36.494 60.8289 36.2211 60.6873C35.9481 60.5458 35.6419 60.475 35.3024 60.475C34.9562 60.475 34.635 60.5458 34.3388 60.6873C34.0426 60.8289 33.7829 61.024 33.5599 61.2726C33.3369 61.5212 33.1638 61.813 33.0407 62.148C32.9175 62.4829 32.856 62.8472 32.856 63.2408C32.856 63.6207 32.9159 63.9746 33.0357 64.3026C33.1555 64.6307 33.3219 64.9173 33.535 65.1624C33.748 65.4076 33.9993 65.5992 34.2889 65.7374C34.5785 65.8755 34.8897 65.9445 35.2225 65.9445C35.5554 65.9445 35.8599 65.8738 36.1362 65.7322C36.4125 65.5906 36.6405 65.3955 36.8202 65.1469V65.5923C36.8202 65.8824 36.767 66.1362 36.6604 66.3537C36.5539 66.5713 36.4058 66.7405 36.2161 66.8613C36.0264 66.9822 35.8017 67.0426 35.5421 67.0426C35.3024 67.0426 35.0877 66.9856 34.898 66.8717C34.7083 66.7577 34.5535 66.6006 34.4337 66.4003L33.0956 66.7422C33.2287 67.0461 33.4118 67.3119 33.6448 67.5398C33.8778 67.7677 34.1507 67.9456 34.4636 68.0733C34.7765 68.2011 35.1293 68.265 35.5221 68.265ZM35.562 64.66C35.3157 64.66 35.0977 64.5961 34.908 64.4684C34.7183 64.3406 34.5668 64.168 34.4536 63.9504C34.3405 63.7329 34.2839 63.486 34.2839 63.2098C34.2839 62.9335 34.3405 62.6866 34.4536 62.4691C34.5668 62.2515 34.7183 62.0789 34.908 61.9511C35.0977 61.8234 35.3157 61.7595 35.562 61.7595C35.8083 61.7595 36.0264 61.8234 36.2161 61.9511C36.4058 62.0789 36.5573 62.2515 36.6704 62.4691C36.7836 62.6866 36.8402 62.9335 36.8402 63.2098C36.8402 63.486 36.7836 63.7329 36.6704 63.9504C36.5573 64.168 36.4058 64.3406 36.2161 64.4684C36.0264 64.5961 35.8083 64.66 35.562 64.66ZM41.833 66.2553C42.1924 66.2553 42.5319 66.1949 42.8515 66.074C43.171 65.9532 43.4506 65.7823 43.6903 65.5613C43.9299 65.3403 44.1097 65.0744 44.2295 64.7636L42.9813 64.3493C42.8548 64.5702 42.6934 64.7394 42.497 64.8568C42.3006 64.9743 42.0826 65.033 41.8429 65.033C41.4968 65.033 41.2105 64.9173 40.9842 64.6859C40.7578 64.4546 40.6147 64.1352 40.5548 63.7277H44.3393V63.3651C44.3393 62.9301 44.2777 62.5364 44.1546 62.1842C44.0314 61.832 43.8567 61.5281 43.6303 61.2726C43.404 61.0171 43.1327 60.8203 42.8165 60.6822C42.5003 60.544 42.1492 60.475 41.7631 60.475C41.3903 60.475 41.0441 60.5475 40.7246 60.6925C40.405 60.8375 40.1271 61.0395 39.8908 61.2985C39.6544 61.5575 39.4697 61.8631 39.3366 62.2153C39.2034 62.5675 39.1369 62.9473 39.1369 63.3548C39.1369 63.7761 39.2034 64.1645 39.3366 64.5202C39.4697 64.8758 39.6561 65.1832 39.8958 65.4421C40.1354 65.7011 40.42 65.9014 40.7495 66.043C41.079 66.1845 41.4402 66.2553 41.833 66.2553ZM42.9014 62.754H40.5748C40.6413 62.3948 40.7795 62.1117 40.9892 61.9045C41.1989 61.6973 41.4568 61.5937 41.7631 61.5937C42.0626 61.5937 42.3139 61.6973 42.517 61.9045C42.72 62.1117 42.8482 62.3948 42.9014 62.754ZM46.606 66.0999V62.9611C46.606 62.7332 46.6526 62.5295 46.7458 62.35C46.839 62.1704 46.9655 62.0306 47.1253 61.9304C47.2851 61.8303 47.4715 61.7802 47.6845 61.7802C47.9774 61.7802 48.2071 61.889 48.3735 62.1065C48.5399 62.3241 48.6231 62.6227 48.6231 63.0026V66.0999H50.0211V62.8161C50.0211 62.3396 49.9412 61.9252 49.7814 61.573C49.6217 61.2208 49.397 60.9498 49.1074 60.7598C48.8178 60.5699 48.48 60.475 48.0939 60.475C47.7477 60.475 47.4398 60.5527 47.1702 60.708C46.9006 60.8634 46.6893 61.0723 46.5361 61.3348L46.4962 60.6304H45.2081V66.0999H46.606ZM53.5859 66.2553C53.972 66.2553 54.3315 66.1828 54.6644 66.0378C54.9972 65.8928 55.2818 65.6856 55.5181 65.4162C55.7545 65.1469 55.9159 64.8292 56.0024 64.4632L54.6744 64.1939C54.5812 64.4356 54.438 64.622 54.245 64.7533C54.0519 64.8845 53.8356 64.9501 53.5959 64.9501C53.3563 64.9501 53.1432 64.8827 52.9568 64.7481C52.7704 64.6134 52.6257 64.4287 52.5225 64.1939C52.4193 63.9591 52.3677 63.6897 52.3677 63.3859C52.3677 63.082 52.421 62.8075 52.5275 62.5623C52.634 62.3172 52.7788 62.1255 52.9618 61.9874C53.1449 61.8493 53.3563 61.7802 53.5959 61.7802C53.8223 61.7802 54.0253 61.8475 54.205 61.9822C54.3848 62.1169 54.5246 62.3016 54.6244 62.5364L55.9525 62.2671C55.866 61.908 55.7112 61.5937 55.4882 61.3244C55.2652 61.0551 54.9939 60.8462 54.6744 60.6977C54.3548 60.5492 54.0053 60.475 53.6259 60.475C53.2464 60.475 52.8936 60.5492 52.5674 60.6977C52.2412 60.8462 51.9566 61.0533 51.7136 61.3192C51.4707 61.5851 51.2809 61.8959 51.1445 62.2515C51.008 62.6072 50.9398 62.9922 50.9398 63.4066C50.9398 63.814 51.0063 64.1921 51.1395 64.5409C51.2726 64.8896 51.4573 65.1918 51.6937 65.4473C51.93 65.7028 52.2096 65.9014 52.5325 66.043C52.8553 66.1845 53.2065 66.2553 53.5859 66.2553ZM57.5901 68.2132C58.0295 68.2132 58.404 68.0854 58.7135 67.8299C59.0231 67.5744 59.2777 67.1704 59.4774 66.6179L61.6443 60.6304H60.1664L59.038 64.5046L57.7898 60.6304H56.2621L58.389 66.0481L58.2991 66.2864C58.2059 66.5212 58.0877 66.6921 57.9446 66.7992C57.8015 66.9062 57.6334 66.9597 57.4403 66.9597C57.3538 66.9597 57.2606 66.9476 57.1608 66.9235C57.0609 66.8993 56.9744 66.87 56.9011 66.8354L56.6315 67.9749C56.7713 68.0578 56.9211 68.1182 57.0809 68.1562C57.2406 68.1942 57.4104 68.2132 57.5901 68.2132Z" fill="#F6BC18"/>
<path d="M47.0657 26.5024C47.1471 27.1334 47.1471 27.7723 47.0657 28.4034C46.5619 32.6309 42.7451 35.654 38.5286 35.1653C37.4595 35.0378 36.4898 35.8037 36.3627 36.8761C36.2356 37.9485 36.9992 38.9211 38.0683 39.0486C41.126 39.4183 44.2046 38.5508 46.623 36.638C49.0414 34.7252 50.6005 31.9247 50.9552 28.856C51.0107 28.3692 51.0349 27.8794 51.0274 27.3895C50.037 26.7887 48.8999 26.4753 47.7425 26.4843C47.5162 26.4859 47.2902 26.501 47.0657 26.5296" fill="#F6BC18"/>
<path d="M56.3136 24.9804C56.2281 24.8406 56.1283 24.7102 56.0158 24.5912C53.8479 22.4023 50.8976 21.1736 47.8216 21.1786H47.7043C41.3194 21.2084 36.1579 26.406 36.153 32.8105C36.1491 32.8617 36.1491 32.9132 36.153 32.9644V47.3753C36.153 48.6002 35.1631 49.5931 33.942 49.5931C32.7209 49.5931 31.731 48.6002 31.731 47.3753V39.9617C31.731 39.9164 31.731 39.8621 31.731 39.8168V27.687C31.7053 23.3963 35.1161 19.8784 39.3928 19.7845H39.6093C39.844 19.7845 40.0786 19.7845 40.3132 19.7845C41.2642 19.9136 42.1826 20.2206 43.0206 20.6898C44.5092 20.0994 46.0945 19.7924 47.6952 19.7845H48.0923L47.966 19.6488C46.0934 17.5641 43.5258 16.2378 40.7464 15.9193C40.4125 15.874 40.0245 15.874 39.6454 15.874H39.3296C33.5004 15.9417 28.6244 20.3331 27.9317 26.1391C27.9183 26.2594 27.9183 26.3809 27.9317 26.5012C27.9317 26.8904 27.8776 27.2887 27.8776 27.687V37.8797C27.8726 37.9278 27.8726 37.9764 27.8776 38.0245V47.3753C27.7916 49.6193 28.936 51.7307 30.8603 52.8783C32.7846 54.026 35.1806 54.026 37.1049 52.8783C39.0292 51.7307 40.1737 49.6193 40.0876 47.3753V32.9915C40.0624 28.6766 43.5111 25.1487 47.8125 25.0891C50.818 25.0963 53.5444 26.8573 54.7945 29.5988C56.0445 32.3402 55.5897 35.5608 53.6297 37.8461C51.6697 40.1314 48.5629 41.0636 45.6738 40.2332C44.6371 39.9408 43.5603 40.5466 43.2687 41.5865C42.9772 42.6264 43.5812 43.7064 44.6179 43.9989C49.598 45.4185 54.9128 43.3521 57.6379 38.9365C60.363 34.5209 59.8371 28.8278 56.3497 24.9895" fill="#F6BC18"/>
</svg>
