<svg width="84" height="84" viewBox="0 0 84 84" fill="none" xmlns="http://www.w3.org/2000/svg">
<circle cx="42" cy="42" r="41.5" fill="#F2F2F2" stroke="white"/>
<path d="M26.7746 66.0999L27.3538 64.4839H30.4194L30.9985 66.0999H32.5263L29.7004 58.745H28.1227L25.3068 66.0999H26.7746ZM29.95 63.1787H27.8231L28.8816 60.2471L29.95 63.1787ZM35.522 68.265C35.9214 68.265 36.2859 68.1976 36.6154 68.063C36.9449 67.9283 37.2295 67.7367 37.4691 67.488C37.7088 67.2394 37.8935 66.9425 38.0233 66.5972C38.1532 66.2519 38.2181 65.8686 38.2181 65.4473V60.6304H36.9299L36.9 61.3037C36.7202 61.0344 36.4939 60.8289 36.221 60.6873C35.948 60.5458 35.6418 60.475 35.3023 60.475C34.9561 60.475 34.6349 60.5458 34.3387 60.6873C34.0424 60.8289 33.7828 61.024 33.5598 61.2726C33.3368 61.5212 33.1637 61.813 33.0406 62.148C32.9174 62.4829 32.8558 62.8472 32.8558 63.2408C32.8558 63.6207 32.9157 63.9746 33.0356 64.3026C33.1554 64.6307 33.3218 64.9173 33.5348 65.1624C33.7479 65.4076 33.9992 65.5992 34.2888 65.7374C34.5783 65.8755 34.8896 65.9445 35.2224 65.9445C35.5553 65.9445 35.8598 65.8738 36.1361 65.7322C36.4123 65.5906 36.6403 65.3955 36.8201 65.1469V65.5923C36.8201 65.8824 36.7668 66.1362 36.6603 66.3537C36.5538 66.5713 36.4057 66.7405 36.216 66.8613C36.0262 66.9822 35.8016 67.0426 35.5419 67.0426C35.3023 67.0426 35.0876 66.9856 34.8979 66.8717C34.7081 66.7577 34.5534 66.6006 34.4335 66.4003L33.0955 66.7422C33.2286 67.0461 33.4117 67.3119 33.6447 67.5398C33.8777 67.7677 34.1506 67.9456 34.4635 68.0733C34.7764 68.2011 35.1292 68.265 35.522 68.265ZM35.5619 64.66C35.3156 64.66 35.0976 64.5961 34.9079 64.4684C34.7181 64.3406 34.5667 64.168 34.4535 63.9504C34.3403 63.7329 34.2838 63.486 34.2838 63.2098C34.2838 62.9335 34.3403 62.6866 34.4535 62.4691C34.5667 62.2515 34.7181 62.0789 34.9079 61.9511C35.0976 61.8234 35.3156 61.7595 35.5619 61.7595C35.8082 61.7595 36.0262 61.8234 36.216 61.9511C36.4057 62.0789 36.5571 62.2515 36.6703 62.4691C36.7835 62.6866 36.8401 62.9335 36.8401 63.2098C36.8401 63.486 36.7835 63.7329 36.6703 63.9504C36.5571 64.168 36.4057 64.3406 36.216 64.4684C36.0262 64.5961 35.8082 64.66 35.5619 64.66ZM41.8328 66.2553C42.1923 66.2553 42.5318 66.1949 42.8514 66.074C43.1709 65.9532 43.4505 65.7823 43.6901 65.5613C43.9298 65.3403 44.1095 65.0744 44.2294 64.7636L42.9812 64.3493C42.8547 64.5702 42.6933 64.7394 42.4969 64.8568C42.3005 64.9743 42.0825 65.033 41.8428 65.033C41.4967 65.033 41.2104 64.9173 40.9841 64.6859C40.7577 64.4546 40.6146 64.1352 40.5547 63.7277H44.3392V63.3651C44.3392 62.9301 44.2776 62.5364 44.1545 62.1842C44.0313 61.832 43.8566 61.5281 43.6302 61.2726C43.4039 61.0171 43.1326 60.8203 42.8164 60.6822C42.5002 60.544 42.149 60.475 41.7629 60.475C41.3901 60.475 41.044 60.5475 40.7244 60.6925C40.4049 60.8375 40.127 61.0395 39.8906 61.2985C39.6543 61.5575 39.4696 61.8631 39.3364 62.2153C39.2033 62.5675 39.1367 62.9473 39.1367 63.3548C39.1367 63.7761 39.2033 64.1645 39.3364 64.5202C39.4696 64.8758 39.656 65.1832 39.8956 65.4421C40.1353 65.7011 40.4199 65.9014 40.7494 66.043C41.0789 66.1845 41.4401 66.2553 41.8328 66.2553ZM42.9013 62.754H40.5747C40.6412 62.3948 40.7794 62.1117 40.9891 61.9045C41.1987 61.6973 41.4567 61.5937 41.7629 61.5937C42.0625 61.5937 42.3138 61.6973 42.5168 61.9045C42.7199 62.1117 42.848 62.3948 42.9013 62.754ZM46.6059 66.0999V62.9611C46.6059 62.7332 46.6525 62.5295 46.7457 62.35C46.8389 62.1704 46.9654 62.0306 47.1252 61.9304C47.2849 61.8303 47.4713 61.7802 47.6844 61.7802C47.9773 61.7802 48.2069 61.889 48.3734 62.1065C48.5398 62.3241 48.623 62.6227 48.623 63.0026V66.0999H50.021V62.8161C50.021 62.3396 49.9411 61.9252 49.7813 61.573C49.6216 61.2208 49.3969 60.9498 49.1073 60.7598C48.8177 60.5699 48.4799 60.475 48.0938 60.475C47.7476 60.475 47.4397 60.5527 47.1701 60.708C46.9005 60.8634 46.6891 61.0723 46.536 61.3348L46.4961 60.6304H45.2079V66.0999H46.6059ZM53.5858 66.2553C53.9719 66.2553 54.3314 66.1828 54.6642 66.0378C54.9971 65.8928 55.2817 65.6856 55.518 65.4162C55.7543 65.1469 55.9158 64.8292 56.0023 64.4632L54.6742 64.1939C54.581 64.4356 54.4379 64.622 54.2449 64.7533C54.0518 64.8845 53.8354 64.9501 53.5958 64.9501C53.3561 64.9501 53.1431 64.8827 52.9567 64.7481C52.7703 64.6134 52.6255 64.4287 52.5224 64.1939C52.4192 63.9591 52.3676 63.6897 52.3676 63.3859C52.3676 63.082 52.4208 62.8075 52.5273 62.5623C52.6339 62.3172 52.7786 62.1255 52.9617 61.9874C53.1448 61.8493 53.3561 61.7802 53.5958 61.7802C53.8221 61.7802 54.0252 61.8475 54.2049 61.9822C54.3847 62.1169 54.5245 62.3016 54.6243 62.5364L55.9524 62.2671C55.8658 61.908 55.7111 61.5937 55.4881 61.3244C55.265 61.0551 54.9938 60.8462 54.6742 60.6977C54.3547 60.5492 54.0052 60.475 53.6258 60.475C53.2463 60.475 52.8935 60.5492 52.5673 60.6977C52.2411 60.8462 51.9565 61.0533 51.7135 61.3192C51.4705 61.5851 51.2808 61.8959 51.1443 62.2515C51.0079 62.6072 50.9396 62.9922 50.9396 63.4066C50.9396 63.814 51.0062 64.1921 51.1394 64.5409C51.2725 64.8896 51.4572 65.1918 51.6936 65.4473C51.9299 65.7028 52.2095 65.9014 52.5323 66.043C52.8552 66.1845 53.2064 66.2553 53.5858 66.2553ZM57.59 68.2132C58.0294 68.2132 58.4038 68.0854 58.7134 67.8299C59.0229 67.5744 59.2776 67.1704 59.4773 66.6179L61.6441 60.6304H60.1663L59.0379 64.5046L57.7897 60.6304H56.2619L58.3889 66.0481L58.299 66.2864C58.2058 66.5212 58.0876 66.6921 57.9445 66.7992C57.8014 66.9062 57.6333 66.9597 57.4402 66.9597C57.3537 66.9597 57.2605 66.9476 57.1606 66.9235C57.0608 66.8993 56.9742 66.87 56.901 66.8354L56.6314 67.9749C56.7712 68.0578 56.921 68.1182 57.0808 68.1562C57.2405 68.1942 57.4103 68.2132 57.59 68.2132Z" fill="#C4C4C4"/>
<path d="M47.0655 26.5024C47.147 27.1334 47.147 27.7723 47.0655 28.4034C46.5618 32.6309 42.745 35.654 38.5284 35.1653C37.4594 35.0378 36.4897 35.8038 36.3626 36.8761C36.2355 37.9485 36.9991 38.9211 38.0682 39.0486C41.1259 39.4183 44.2044 38.5508 46.6229 36.638C49.0413 34.7252 50.6003 31.9247 50.9551 28.856C51.0106 28.3692 51.0347 27.8794 51.0273 27.3895C50.0369 26.7887 48.8998 26.4753 47.7424 26.4843C47.5161 26.4859 47.2901 26.501 47.0655 26.5296" fill="#C4C4C4"/>
<path d="M56.3134 24.9804C56.228 24.8406 56.1282 24.7102 56.0156 24.5912C53.8478 22.4023 50.8974 21.1736 47.8215 21.1786H47.7041C41.3193 21.2084 36.1578 26.406 36.1529 32.8105C36.1489 32.8617 36.1489 32.9132 36.1529 32.9644V47.3753C36.1529 48.6002 35.163 49.5931 33.9419 49.5931C32.7208 49.5931 31.7309 48.6002 31.7309 47.3753V39.9617C31.7309 39.9164 31.7309 39.8621 31.7309 39.8168V27.687C31.7052 23.3963 35.116 19.8784 39.3926 19.7845H39.6092C39.8439 19.7845 40.0785 19.7845 40.3131 19.7845C41.2641 19.9136 42.1825 20.2206 43.0205 20.6898C44.5091 20.0994 46.0944 19.7924 47.6951 19.7845H48.0922L47.9658 19.6488C46.0933 17.5641 43.5257 16.2378 40.7463 15.9193C40.4124 15.874 40.0243 15.874 39.6453 15.874H39.3295C33.5003 15.9417 28.6242 20.3331 27.9316 26.1391C27.9182 26.2594 27.9182 26.3809 27.9316 26.5012C27.9316 26.8904 27.8775 27.2887 27.8775 27.687V37.8797C27.8725 37.9278 27.8725 37.9764 27.8775 38.0245V47.3753C27.7914 49.6193 28.9359 51.7307 30.8602 52.8783C32.7845 54.026 35.1805 54.026 37.1048 52.8783C39.0291 51.7307 40.1735 49.6193 40.0875 47.3753V32.9915C40.0623 28.6766 43.511 25.1487 47.8124 25.0891C50.8178 25.0963 53.5442 26.8573 54.7943 29.5988C56.0444 32.3402 55.5896 35.5608 53.6296 37.8461C51.6695 40.1314 48.5628 41.0636 45.6736 40.2332C44.637 39.9408 43.5602 40.5466 43.2686 41.5865C42.9771 42.6264 43.5811 43.7064 44.6178 43.9989C49.5979 45.4185 54.9126 43.3521 57.6378 38.9365C60.3629 34.5209 59.837 28.8278 56.3495 24.9895" fill="#C4C4C4"/>
</svg>
