<svg width="161" height="54" viewBox="0 0 161 54" fill="none" xmlns="http://www.w3.org/2000/svg">
<g clip-path="url(#clip0_60_48)">
<path d="M120.452 52.589L121.121 50.7893H124.663L125.332 52.589H127.097L123.832 44.3984H122.009L118.756 52.589H120.452ZM124.12 49.3358H121.663L122.886 46.0711L124.12 49.3358ZM130.557 55C131.019 55 131.44 54.925 131.821 54.775C132.201 54.625 132.53 54.4116 132.807 54.1348C133.084 53.8579 133.297 53.5272 133.447 53.1427C133.597 52.7581 133.672 52.3313 133.672 51.8622V46.498H132.184L132.149 47.2478C131.942 46.9479 131.68 46.7191 131.365 46.5614C131.05 46.4038 130.696 46.3249 130.304 46.3249C129.904 46.3249 129.533 46.4038 129.19 46.5614C128.848 46.7191 128.548 46.9363 128.291 47.2132C128.033 47.4901 127.833 47.815 127.691 48.188C127.548 48.561 127.477 48.9667 127.477 49.405C127.477 49.828 127.546 50.2222 127.685 50.5875C127.823 50.9528 128.016 51.2719 128.262 51.545C128.508 51.818 128.798 52.0314 129.133 52.1852C129.467 52.339 129.827 52.4159 130.211 52.4159C130.596 52.4159 130.948 52.3371 131.267 52.1794C131.586 52.0218 131.849 51.8045 132.057 51.5276V52.0237C132.057 52.3467 131.996 52.6293 131.872 52.8716C131.749 53.1138 131.578 53.3023 131.359 53.4368C131.14 53.5714 130.88 53.6387 130.58 53.6387C130.304 53.6387 130.056 53.5753 129.836 53.4484C129.617 53.3215 129.438 53.1465 129.3 52.9235L127.754 53.3042C127.908 53.6426 128.119 53.9387 128.389 54.1925C128.658 54.4462 128.973 54.6443 129.335 54.7865C129.696 54.9288 130.104 55 130.557 55ZM130.604 50.9855C130.319 50.9855 130.067 50.9143 129.848 50.772C129.629 50.6298 129.454 50.4375 129.323 50.1952C129.192 49.953 129.127 49.6781 129.127 49.3704C129.127 49.0628 129.192 48.7879 129.323 48.5456C129.454 48.3034 129.629 48.1111 129.848 47.9688C130.067 47.8265 130.319 47.7554 130.604 47.7554C130.888 47.7554 131.14 47.8265 131.359 47.9688C131.578 48.1111 131.753 48.3034 131.884 48.5456C132.015 48.7879 132.08 49.0628 132.08 49.3704C132.08 49.6781 132.015 49.953 131.884 50.1952C131.753 50.4375 131.578 50.6298 131.359 50.772C131.14 50.9143 130.888 50.9855 130.604 50.9855ZM137.848 52.762C138.263 52.762 138.656 52.6947 139.025 52.5601C139.394 52.4255 139.717 52.2352 139.994 51.9891C140.271 51.743 140.478 51.4469 140.617 51.1008L139.175 50.6394C139.029 50.8855 138.842 51.0739 138.615 51.2046C138.388 51.3354 138.136 51.4008 137.86 51.4008C137.46 51.4008 137.129 51.2719 136.868 51.0143C136.606 50.7567 136.441 50.401 136.371 49.9472H140.744V49.5435C140.744 49.059 140.672 48.6206 140.53 48.2284C140.388 47.8361 140.186 47.4978 139.925 47.2132C139.663 46.9287 139.35 46.7095 138.984 46.5557C138.619 46.4018 138.213 46.3249 137.767 46.3249C137.337 46.3249 136.937 46.4057 136.568 46.5672C136.198 46.7287 135.877 46.9536 135.604 47.242C135.331 47.5304 135.118 47.8708 134.964 48.263C134.81 48.6552 134.733 49.0782 134.733 49.5319C134.733 50.0011 134.81 50.4337 134.964 50.8297C135.118 51.2258 135.333 51.568 135.61 51.8564C135.887 52.1448 136.216 52.3679 136.596 52.5255C136.977 52.6832 137.394 52.762 137.848 52.762ZM139.082 48.8628H136.395C136.471 48.4629 136.631 48.1476 136.873 47.9169C137.116 47.6862 137.414 47.5708 137.767 47.5708C138.113 47.5708 138.404 47.6862 138.638 47.9169C138.873 48.1476 139.021 48.4629 139.082 48.8628ZM143.362 52.589V49.0936C143.362 48.8398 143.416 48.6129 143.524 48.4129C143.631 48.213 143.778 48.0573 143.962 47.9457C144.147 47.8342 144.362 47.7785 144.608 47.7785C144.947 47.7785 145.212 47.8996 145.404 48.1418C145.596 48.3841 145.693 48.7167 145.693 49.1397V52.589H147.308V48.9321C147.308 48.4014 147.215 47.94 147.031 47.5477C146.846 47.1555 146.587 46.8537 146.252 46.6422C145.917 46.4307 145.527 46.3249 145.081 46.3249C144.681 46.3249 144.326 46.4115 144.014 46.5845C143.703 46.7575 143.458 46.9902 143.282 47.2824L143.235 46.498H141.747V52.589H143.362ZM151.426 52.762C151.872 52.762 152.287 52.6812 152.672 52.5197C153.056 52.3582 153.385 52.1275 153.658 51.8276C153.931 51.5276 154.118 51.1739 154.218 50.7663L152.683 50.4663C152.576 50.7355 152.41 50.9432 152.187 51.0893C151.964 51.2354 151.714 51.3085 151.437 51.3085C151.161 51.3085 150.914 51.2335 150.699 51.0835C150.484 50.9335 150.317 50.7278 150.197 50.4663C150.078 50.2049 150.018 49.9049 150.018 49.5665C150.018 49.2282 150.08 48.9224 150.203 48.6494C150.326 48.3764 150.493 48.163 150.705 48.0092C150.916 47.8554 151.161 47.7785 151.437 47.7785C151.699 47.7785 151.933 47.8535 152.141 48.0034C152.349 48.1534 152.51 48.3591 152.626 48.6206L154.16 48.3207C154.06 47.9207 153.881 47.5708 153.623 47.2709C153.366 46.971 153.052 46.7383 152.683 46.573C152.314 46.4076 151.91 46.3249 151.472 46.3249C151.034 46.3249 150.626 46.4076 150.249 46.573C149.872 46.7383 149.544 46.969 149.263 47.2651C148.982 47.5612 148.763 47.9073 148.605 48.3034C148.448 48.6994 148.369 49.1282 148.369 49.5896C148.369 50.0434 148.446 50.4644 148.6 50.8528C148.753 51.2412 148.967 51.5776 149.24 51.8622C149.513 52.1467 149.836 52.3679 150.209 52.5255C150.582 52.6832 150.988 52.762 151.426 52.762ZM156.052 54.9423C156.559 54.9423 156.992 54.8 157.35 54.5155C157.707 54.2309 158.001 53.781 158.232 53.1658L160.735 46.498H159.028L157.725 50.8124L156.283 46.498H154.518L156.975 52.5313L156.871 52.7966C156.763 53.0581 156.627 53.2484 156.461 53.3676C156.296 53.4868 156.102 53.5464 155.879 53.5464C155.779 53.5464 155.671 53.533 155.556 53.5061C155.44 53.4791 155.34 53.4465 155.256 53.408L154.944 54.677C155.106 54.7692 155.279 54.8365 155.463 54.8788C155.648 54.9211 155.844 54.9423 156.052 54.9423Z" fill="white"/>
<path d="M67.9247 19.7583C67.8846 22.5468 65.6338 24.7976 62.8454 24.8376H56.9216V14.679H62.8578C65.6582 14.6859 67.9247 16.9579 67.9247 19.7583ZM62.8578 11.1769H55.1581C54.2172 11.1903 53.4577 11.9498 53.4443 12.8907V38.2375C53.4443 39.1977 54.2227 39.9762 55.183 39.9762C56.1432 39.9762 56.9216 39.1977 56.9216 38.2375V28.3025L62.8578 28.228C67.4398 28.053 71.0641 24.2878 71.0641 19.7024C71.0641 15.1171 67.4398 11.3518 62.8578 11.1769ZM86.9006 29.6561C87.1135 32.0619 85.9503 34.3819 83.895 35.6505C81.8398 36.9191 79.2446 36.9191 77.1894 35.6505C75.1341 34.3819 73.9709 32.0619 74.1838 29.6561C73.9709 27.2503 75.1341 24.9304 77.1894 23.6617C79.2446 22.3931 81.8398 22.3931 83.895 23.6617C85.9503 24.9304 87.1135 27.2503 86.9006 29.6561ZM88.6268 19.3607C88.1626 19.3539 87.7156 19.537 87.3897 19.8677C87.0637 20.1983 86.887 20.6479 86.9006 21.112V21.8695C85.1589 20.2875 82.8951 19.4032 80.5422 19.3858C75.0106 19.5348 70.638 24.1237 70.7562 29.6561C70.6241 35.2002 74.9987 39.808 80.5422 39.9637C82.8957 39.9498 85.1608 39.065 86.9006 37.48V38.2624C86.8454 38.9117 87.1606 39.5369 87.7156 39.8786C88.2706 40.2203 88.9707 40.2203 89.5257 39.8786C90.0806 39.5369 90.3959 38.9117 90.3406 38.2624V21.112C90.344 20.6564 90.1645 20.2186 89.8424 19.8965C89.5202 19.5743 89.0824 19.3948 88.6268 19.3982V19.3607ZM109.925 19.7832L109.726 19.6341C109.525 19.5281 109.313 19.4448 109.093 19.3858H108.671C108.576 19.369 108.48 19.369 108.385 19.3858H108.236C107.549 19.6209 107.082 20.2613 107.069 20.9878V31.3078C107.161 33.1801 106.215 34.9513 104.608 35.9152C103 36.8792 100.992 36.8792 99.3839 35.9152C97.7761 34.9513 96.8299 33.1801 96.9226 31.3078V21.0375C96.8466 20.144 96.0993 19.4575 95.2026 19.4575C94.306 19.4575 93.5586 20.144 93.4826 21.0375V31.3699C93.4589 34.5916 95.2626 37.5486 98.1379 39.0021C101.013 40.4555 104.464 40.1545 107.044 38.2251C106.831 40.3022 105.613 42.1427 103.783 43.1491C101.954 44.1555 99.747 44.1996 97.8789 43.2671H97.7547C96.9112 42.9883 95.9939 43.395 95.6343 44.2073C95.2747 45.0196 95.5903 45.9722 96.3638 46.4091C97.6932 47.0342 99.142 47.3646 100.611 47.3778C103.213 47.4042 105.718 46.3934 107.573 44.5687C109.428 42.7441 110.48 40.2558 110.496 37.6538V21.0375C110.492 20.7765 110.424 20.5206 110.298 20.2923C110.208 20.0964 110.077 19.9225 109.913 19.7832H109.925ZM127.249 21.112C127.253 20.6543 127.072 20.2145 126.747 19.892C126.422 19.5695 125.981 19.3915 125.523 19.398C122.766 19.4489 120.172 20.7119 118.432 22.8506V21.112C118.356 20.2185 117.609 19.532 116.712 19.532C115.815 19.532 115.068 20.2185 114.992 21.112V38.2375C114.937 38.8869 115.252 39.512 115.807 39.8537C116.362 40.1954 117.062 40.1954 117.617 39.8537C118.172 39.512 118.487 38.8869 118.432 38.2375V29.9169V29.8424C118.949 28.3412 119.681 26.9231 120.605 25.6324C121.669 23.9504 123.497 22.9041 125.486 22.8382C126.448 22.8451 127.236 22.0742 127.249 21.112ZM142.264 29.6561C142.447 32.0462 141.275 34.3374 139.23 35.5884C137.186 36.8395 134.612 36.8395 132.568 35.5884C130.523 34.3374 129.351 32.0462 129.534 29.6561C129.351 27.266 130.523 24.9749 132.568 23.7238C134.612 22.4728 137.186 22.4728 139.23 23.7238C141.275 24.9749 142.447 27.266 142.264 29.6561ZM144.027 19.3609C143.555 19.3398 143.096 19.517 142.761 19.8497C142.426 20.1824 142.246 20.6401 142.264 21.112V21.8695C140.516 20.2897 138.249 19.406 135.893 19.3858C130.354 19.5415 125.982 24.1416 126.107 29.681C125.975 35.2251 130.349 39.8329 135.893 39.9886C138.25 39.9742 140.519 39.0897 142.264 37.5048V38.2872C142.264 39.2337 143.031 40.001 143.978 40.001C144.924 40.001 145.691 39.2337 145.691 38.2872V21.112C145.705 20.6586 145.536 20.2186 145.224 19.8899C144.911 19.5611 144.481 19.3707 144.027 19.3609ZM151.044 13.1515C150.088 13.1651 149.323 13.9471 149.33 14.9026V15.7967C149.275 16.4507 149.592 17.0801 150.151 17.4241C150.71 17.7682 151.415 17.7682 151.974 17.4241C152.533 17.0801 152.85 16.4507 152.795 15.7967V14.9026C152.781 13.9472 151.999 13.1818 151.044 13.1888V13.1515ZM151.044 19.3607C150.581 19.3538 150.135 19.5372 149.811 19.8683C149.487 20.1994 149.313 20.649 149.33 21.112V38.2375C149.406 39.1376 150.159 39.8293 151.062 39.8293C151.966 39.8293 152.719 39.1376 152.795 38.2375V21.112C152.802 20.6488 152.619 20.203 152.287 19.8789C151.956 19.5549 151.507 19.3811 151.044 19.3982V19.3607ZM158.458 11.1767C157.517 11.1903 156.757 11.9498 156.744 12.8907V38.2375C156.744 39.1977 157.522 39.9762 158.483 39.9762C159.443 39.9762 160.221 39.1977 160.221 38.2375V12.9156C160.221 12.4501 160.035 12.0041 159.703 11.6773C159.372 11.3505 158.923 11.1703 158.458 11.1767Z" fill="white"/>
<path d="M26.4089 14.5796C26.5209 15.4453 26.5209 16.3219 26.4089 17.1876C25.7156 22.9874 20.4632 27.135 14.6607 26.4644C13.1895 26.2895 11.855 27.3404 11.6802 28.8116C11.5053 30.2828 12.5561 31.6172 14.0273 31.7921C18.2351 32.2993 22.4716 31.1092 25.7997 28.4849C29.1278 25.8607 31.2732 22.0186 31.7614 17.8085C31.8378 17.1407 31.871 16.4687 31.8607 15.7967C30.4979 14.9724 28.933 14.5425 27.3403 14.5548C27.0289 14.5569 26.7178 14.5777 26.4089 14.6169" fill="white"/>
<path d="M39.1379 12.4933C39.0203 12.3015 38.8829 12.1226 38.7281 11.9593C35.7448 8.95632 31.6848 7.27061 27.4518 7.27743H27.2904C18.504 7.31842 11.401 14.4491 11.3943 23.2356C11.3889 23.3059 11.3889 23.3765 11.3943 23.4467V43.2175C11.3943 44.8979 10.0321 46.2601 8.35168 46.2601C6.67129 46.2601 5.30907 44.8979 5.30907 43.2175V33.0465C5.30907 32.9844 5.30907 32.9099 5.30907 32.8478V16.2066C5.27375 10.32 9.96739 5.49368 15.8526 5.36493H16.1507C16.4736 5.36493 16.7965 5.36493 17.1194 5.36493C18.4281 5.54191 19.6919 5.96318 20.845 6.60681C22.8936 5.7969 25.0751 5.37576 27.278 5.36493H27.8244L27.6505 5.17865C25.0736 2.31865 21.5403 0.498996 17.7155 0.0620941C17.256 0 16.722 0 16.2004 0H15.7657C7.74402 0.0927732 1.0339 6.11753 0.0807472 14.0829C0.0622918 14.248 0.0622918 14.4146 0.0807472 14.5797C0.0807472 15.1137 0.00623428 15.6601 0.00623428 16.2066V30.1901C-0.000576878 30.2562 -0.000576878 30.3228 0.00623428 30.3888V43.2175C-0.11215 46.296 1.46274 49.1928 4.11086 50.7672C6.75897 52.3417 10.0562 52.3417 12.7043 50.7672C15.3524 49.1928 16.9273 46.296 16.8089 43.2175V23.484C16.7742 17.5642 21.52 12.7241 27.4394 12.6424C31.5752 12.6523 35.3271 15.0682 37.0474 18.8293C38.7677 22.5904 38.1418 27.0088 35.4445 30.1441C32.7473 33.2794 28.472 34.5582 24.4961 33.419C23.0695 33.0178 21.5878 33.849 21.1865 35.2756C20.7853 36.7023 21.6165 38.184 23.0431 38.5853C29.8965 40.5329 37.2102 37.6979 40.9603 31.64C44.7105 25.5821 43.9868 17.7716 39.1876 12.5057" fill="white"/>
</g>
<defs>
<clipPath id="clip0_60_48">
<rect width="160.939" height="53.11" fill="white"/>
</clipPath>
</defs>
</svg>
