<svg width="166" height="84" viewBox="0 0 166 84" fill="none" xmlns="http://www.w3.org/2000/svg">
<path d="M2 55.1224C25.6961 46.6324 51.2843 42 77.9752 42C108.484 42 137.552 48.0523 164 59" stroke="#F6BC18" stroke-width="4" stroke-linecap="round" stroke-linejoin="round"/>
<circle cx="85" cy="42" r="40" fill="#F2F2F2" stroke="#F5BD00" stroke-width="4"/>
<path d="M69.7748 66.0999L70.3539 64.4839H73.4195L73.9986 66.0999H75.5264L72.7005 58.745H71.1228L68.3069 66.0999H69.7748ZM72.9502 63.1787H70.8232L71.8817 60.2471L72.9502 63.1787ZM78.5221 68.265C78.9215 68.265 79.286 68.1976 79.6155 68.063C79.945 67.9283 80.2296 67.7367 80.4693 67.488C80.7089 67.2394 80.8937 66.9425 81.0235 66.5972C81.1533 66.2519 81.2182 65.8686 81.2182 65.4473V60.6304H79.9301L79.9001 61.3037C79.7204 61.0344 79.494 60.8289 79.2211 60.6873C78.9481 60.5458 78.6419 60.475 78.3024 60.475C77.9562 60.475 77.635 60.5458 77.3388 60.6873C77.0426 60.8289 76.7829 61.024 76.5599 61.2726C76.3369 61.5212 76.1638 61.813 76.0407 62.148C75.9175 62.4829 75.856 62.8472 75.856 63.2408C75.856 63.6207 75.9159 63.9746 76.0357 64.3026C76.1555 64.6307 76.3219 64.9173 76.535 65.1624C76.748 65.4076 76.9993 65.5992 77.2889 65.7374C77.5785 65.8755 77.8897 65.9445 78.2225 65.9445C78.5554 65.9445 78.8599 65.8738 79.1362 65.7322C79.4125 65.5906 79.6405 65.3955 79.8202 65.1469V65.5923C79.8202 65.8824 79.767 66.1362 79.6604 66.3537C79.5539 66.5713 79.4058 66.7405 79.2161 66.8613C79.0264 66.9822 78.8017 67.0426 78.5421 67.0426C78.3024 67.0426 78.0877 66.9856 77.898 66.8717C77.7083 66.7577 77.5535 66.6006 77.4337 66.4003L76.0956 66.7422C76.2287 67.0461 76.4118 67.3119 76.6448 67.5398C76.8778 67.7677 77.1507 67.9456 77.4636 68.0733C77.7765 68.2011 78.1293 68.265 78.5221 68.265ZM78.562 64.66C78.3157 64.66 78.0977 64.5961 77.908 64.4684C77.7183 64.3406 77.5668 64.168 77.4536 63.9504C77.3405 63.7329 77.2839 63.486 77.2839 63.2098C77.2839 62.9335 77.3405 62.6866 77.4536 62.4691C77.5668 62.2515 77.7183 62.0789 77.908 61.9511C78.0977 61.8234 78.3157 61.7595 78.562 61.7595C78.8083 61.7595 79.0264 61.8234 79.2161 61.9511C79.4058 62.0789 79.5573 62.2515 79.6704 62.4691C79.7836 62.6866 79.8402 62.9335 79.8402 63.2098C79.8402 63.486 79.7836 63.7329 79.6704 63.9504C79.5573 64.168 79.4058 64.3406 79.2161 64.4684C79.0264 64.5961 78.8083 64.66 78.562 64.66ZM84.833 66.2553C85.1924 66.2553 85.5319 66.1949 85.8515 66.074C86.171 65.9532 86.4506 65.7823 86.6903 65.5613C86.9299 65.3403 87.1097 65.0744 87.2295 64.7636L85.9813 64.3493C85.8548 64.5702 85.6934 64.7394 85.497 64.8568C85.3006 64.9743 85.0826 65.033 84.8429 65.033C84.4968 65.033 84.2105 64.9173 83.9842 64.6859C83.7578 64.4546 83.6147 64.1352 83.5548 63.7277H87.3393V63.3651C87.3393 62.9301 87.2777 62.5364 87.1546 62.1842C87.0314 61.832 86.8567 61.5281 86.6303 61.2726C86.404 61.0171 86.1327 60.8203 85.8165 60.6822C85.5003 60.544 85.1492 60.475 84.7631 60.475C84.3903 60.475 84.0441 60.5475 83.7246 60.6925C83.405 60.8375 83.1271 61.0395 82.8908 61.2985C82.6544 61.5575 82.4697 61.8631 82.3366 62.2153C82.2034 62.5675 82.1369 62.9473 82.1369 63.3548C82.1369 63.7761 82.2034 64.1645 82.3366 64.5202C82.4697 64.8758 82.6561 65.1832 82.8958 65.4421C83.1354 65.7011 83.42 65.9014 83.7495 66.043C84.079 66.1845 84.4402 66.2553 84.833 66.2553ZM85.9014 62.754H83.5748C83.6413 62.3948 83.7795 62.1117 83.9892 61.9045C84.1989 61.6973 84.4568 61.5937 84.7631 61.5937C85.0626 61.5937 85.3139 61.6973 85.517 61.9045C85.72 62.1117 85.8482 62.3948 85.9014 62.754ZM89.606 66.0999V62.9611C89.606 62.7332 89.6526 62.5295 89.7458 62.35C89.839 62.1704 89.9655 62.0306 90.1253 61.9304C90.2851 61.8303 90.4715 61.7802 90.6845 61.7802C90.9774 61.7802 91.2071 61.889 91.3735 62.1065C91.5399 62.3241 91.6231 62.6227 91.6231 63.0026V66.0999H93.0211V62.8161C93.0211 62.3396 92.9412 61.9252 92.7814 61.573C92.6217 61.2208 92.397 60.9498 92.1074 60.7598C91.8178 60.5699 91.48 60.475 91.0939 60.475C90.7477 60.475 90.4398 60.5527 90.1702 60.708C89.9006 60.8634 89.6893 61.0723 89.5361 61.3348L89.4962 60.6304H88.2081V66.0999H89.606ZM96.5859 66.2553C96.972 66.2553 97.3315 66.1828 97.6644 66.0378C97.9972 65.8928 98.2818 65.6856 98.5181 65.4162C98.7545 65.1469 98.9159 64.8292 99.0024 64.4632L97.6744 64.1939C97.5812 64.4356 97.438 64.622 97.245 64.7533C97.0519 64.8845 96.8356 64.9501 96.5959 64.9501C96.3563 64.9501 96.1432 64.8827 95.9568 64.7481C95.7704 64.6134 95.6257 64.4287 95.5225 64.1939C95.4193 63.9591 95.3677 63.6897 95.3677 63.3859C95.3677 63.082 95.421 62.8075 95.5275 62.5623C95.634 62.3172 95.7788 62.1255 95.9618 61.9874C96.1449 61.8493 96.3563 61.7802 96.5959 61.7802C96.8223 61.7802 97.0253 61.8475 97.205 61.9822C97.3848 62.1169 97.5246 62.3016 97.6244 62.5364L98.9525 62.2671C98.866 61.908 98.7112 61.5937 98.4882 61.3244C98.2652 61.0551 97.9939 60.8462 97.6744 60.6977C97.3548 60.5492 97.0053 60.475 96.6259 60.475C96.2464 60.475 95.8936 60.5492 95.5674 60.6977C95.2412 60.8462 94.9566 61.0533 94.7136 61.3192C94.4707 61.5851 94.2809 61.8959 94.1445 62.2515C94.008 62.6072 93.9398 62.9922 93.9398 63.4066C93.9398 63.814 94.0063 64.1921 94.1395 64.5409C94.2726 64.8896 94.4573 65.1918 94.6937 65.4473C94.93 65.7028 95.2096 65.9014 95.5325 66.043C95.8553 66.1845 96.2065 66.2553 96.5859 66.2553ZM100.59 68.2132C101.03 68.2132 101.404 68.0854 101.714 67.8299C102.023 67.5744 102.278 67.1704 102.477 66.6179L104.644 60.6304H103.166L102.038 64.5046L100.79 60.6304H99.2621L101.389 66.0481L101.299 66.2864C101.206 66.5212 101.088 66.6921 100.945 66.7992C100.801 66.9062 100.633 66.9597 100.44 66.9597C100.354 66.9597 100.261 66.9476 100.161 66.9235C100.061 66.8993 99.9744 66.87 99.9011 66.8354L99.6315 67.9749C99.7713 68.0578 99.9211 68.1182 100.081 68.1562C100.241 68.1942 100.41 68.2132 100.59 68.2132Z" fill="#F6BC18"/>
<path d="M90.0657 26.5024C90.1471 27.1334 90.1471 27.7723 90.0657 28.4034C89.5619 32.6309 85.7451 35.654 81.5286 35.1653C80.4595 35.0378 79.4898 35.8037 79.3627 36.8761C79.2356 37.9485 79.9992 38.9211 81.0683 39.0486C84.126 39.4183 87.2046 38.5508 89.623 36.638C92.0414 34.7252 93.6005 31.9247 93.9552 28.856C94.0107 28.3692 94.0349 27.8794 94.0274 27.3895C93.037 26.7887 91.8999 26.4753 90.7425 26.4843C90.5162 26.4859 90.2902 26.501 90.0657 26.5296" fill="#F6BC18"/>
<path d="M99.3136 24.9804C99.2281 24.8406 99.1283 24.7102 99.0158 24.5912C96.8479 22.4023 93.8976 21.1736 90.8216 21.1786H90.7043C84.3194 21.2084 79.1579 26.406 79.153 32.8105C79.1491 32.8617 79.1491 32.9132 79.153 32.9644V47.3753C79.153 48.6002 78.1631 49.5931 76.942 49.5931C75.7209 49.5931 74.731 48.6002 74.731 47.3753V39.9617C74.731 39.9164 74.731 39.8621 74.731 39.8168V27.687C74.7053 23.3963 78.1161 19.8784 82.3928 19.7845H82.6093C82.844 19.7845 83.0786 19.7845 83.3132 19.7845C84.2642 19.9136 85.1826 20.2206 86.0206 20.6898C87.5092 20.0994 89.0945 19.7924 90.6952 19.7845H91.0923L90.966 19.6488C89.0934 17.5641 86.5258 16.2378 83.7464 15.9193C83.4125 15.874 83.0245 15.874 82.6454 15.874H82.3296C76.5004 15.9417 71.6244 20.3331 70.9317 26.1391C70.9183 26.2594 70.9183 26.3809 70.9317 26.5012C70.9317 26.8904 70.8776 27.2887 70.8776 27.687V37.8797C70.8726 37.9278 70.8726 37.9764 70.8776 38.0245V47.3753C70.7916 49.6193 71.936 51.7307 73.8603 52.8783C75.7846 54.026 78.1806 54.026 80.1049 52.8783C82.0292 51.7307 83.1737 49.6193 83.0876 47.3753V32.9915C83.0624 28.6766 86.5111 25.1487 90.8126 25.0891C93.818 25.0963 96.5444 26.8573 97.7945 29.5988C99.0445 32.3402 98.5897 35.5608 96.6297 37.8461C94.6697 40.1314 91.5629 41.0636 88.6738 40.2332C87.6371 39.9408 86.5603 40.5466 86.2687 41.5865C85.9772 42.6264 86.5812 43.7064 87.6179 43.9989C92.598 45.4185 97.9128 43.3521 100.638 38.9365C103.363 34.5209 102.837 28.8278 99.3497 24.9895" fill="#F6BC18"/>
</svg>
