<svg width="129" height="40" viewBox="0 0 129 40" fill="none" xmlns="http://www.w3.org/2000/svg">
<rect x="0.911804" width="127.288" height="40" rx="20" fill="#F9F9F9"/>
<rect x="1.4118" y="0.5" width="126.288" height="39" rx="19.5" stroke="#777777" stroke-opacity="0.2"/>
<path fill-rule="evenodd" clip-rule="evenodd" d="M59.8382 10.3999H60.535V14.0819C60.535 14.2049 60.5667 14.3013 60.63 14.3713C60.6934 14.4412 60.7821 14.4762 60.8961 14.4762C60.9425 14.4762 60.9964 14.4677 61.0576 14.4508C61.1188 14.4338 61.1769 14.4147 61.2318 14.3935L61.3332 14.9404C61.2318 14.9871 61.1115 15.0242 60.9721 15.0517C60.8327 15.0793 60.7082 15.0931 60.5984 15.0931C60.3577 15.0931 60.1708 15.0274 60.0378 14.8959C59.9048 14.7645 59.8382 14.578 59.8382 14.3363V10.3999ZM43.3118 10.5271V15.0422H44.908C45.2417 15.0422 45.5436 14.9881 45.8139 14.88C46.0841 14.7719 46.3143 14.6193 46.5043 14.4222C46.6943 14.225 46.8411 13.9876 46.9446 13.7099C47.048 13.4322 47.0997 13.1217 47.0997 12.7783C47.0997 12.4688 47.0533 12.1773 46.9604 11.9039C46.8675 11.6304 46.7292 11.392 46.5455 11.1885C46.3618 10.985 46.1337 10.8239 45.8614 10.7051C45.589 10.5864 45.2712 10.5271 44.908 10.5271H43.3118ZM46.2794 12.1233C46.3449 12.3225 46.3776 12.5409 46.3776 12.7783C46.3776 13.0115 46.3459 13.2277 46.2826 13.4269C46.2193 13.6262 46.1253 13.7989 46.0007 13.9452C45.8761 14.0915 45.722 14.2059 45.5383 14.2886C45.3546 14.3713 45.1445 14.4126 44.908 14.4126H44.0212V11.1567H44.908C45.1403 11.1567 45.3472 11.1969 45.5288 11.2775C45.7104 11.358 45.8645 11.4693 45.9912 11.6113C46.1179 11.7534 46.214 11.924 46.2794 12.1233ZM49.0824 15.1058C48.8206 15.1058 48.5852 15.0592 48.3761 14.9659C48.1671 14.8726 47.9887 14.7475 47.8409 14.5907C47.6931 14.4338 47.579 14.2505 47.4988 14.0406C47.4186 13.8307 47.3785 13.6114 47.3785 13.3824C47.3785 13.1535 47.4186 12.9341 47.4988 12.7242C47.579 12.5144 47.6941 12.331 47.844 12.1741C47.994 12.0173 48.1734 11.8922 48.3825 11.7989C48.5915 11.7057 48.8248 11.659 49.0824 11.659C49.34 11.659 49.5733 11.7057 49.7824 11.7989C49.9914 11.8922 50.1709 12.0173 50.3208 12.1741C50.4707 12.331 50.5858 12.5144 50.666 12.7242C50.7463 12.9341 50.7864 13.1535 50.7864 13.3824C50.7864 13.6114 50.7463 13.8307 50.666 14.0406C50.5858 14.2505 50.4707 14.4338 50.3208 14.5907C50.1709 14.7475 49.9914 14.8726 49.7824 14.9659C49.5733 15.0592 49.34 15.1058 49.0824 15.1058ZM48.1703 13.8339C48.1196 13.6983 48.0942 13.5499 48.0942 13.3888C48.0942 13.2319 48.1206 13.0846 48.1734 12.9468C48.2262 12.809 48.2969 12.6893 48.3856 12.5875C48.4743 12.4858 48.5788 12.4052 48.6992 12.3458C48.8195 12.2865 48.9473 12.2568 49.0824 12.2568C49.2218 12.2568 49.3516 12.2854 49.472 12.3427C49.5923 12.3999 49.6969 12.4794 49.7855 12.5811C49.8742 12.6829 49.9439 12.8027 49.9946 12.9404C50.0452 13.0782 50.0706 13.2256 50.0706 13.3824C50.0706 13.5435 50.0452 13.6919 49.9946 13.8276C49.9439 13.9632 49.8742 14.0819 49.7855 14.1837C49.6969 14.2854 49.5923 14.3649 49.472 14.4222C49.3516 14.4794 49.2218 14.508 49.0824 14.508C48.9431 14.508 48.8132 14.4794 48.6928 14.4222C48.5725 14.3649 48.468 14.2865 48.3793 14.1869C48.2906 14.0872 48.2209 13.9696 48.1703 13.8339ZM55.2521 11.7163H55.9172L54.5237 15.0422H53.9472L53.3328 13.4969L52.7184 15.0422H52.1419L50.742 11.7163H51.4071L52.4777 14.3681L52.9591 13.1344L52.3826 11.7226H52.9527L53.3328 12.7656L53.7065 11.7226H54.2766L53.7065 13.1344L54.1879 14.3681L55.2521 11.7163ZM58.489 15.0422H59.1858V13.0136C59.1858 12.8313 59.171 12.6585 59.1415 12.4953C59.1119 12.3321 59.0602 12.1879 58.9863 12.0629C58.9124 11.9378 58.8121 11.8392 58.6854 11.7672C58.5587 11.6951 58.3961 11.659 58.1976 11.659C57.9062 11.659 57.6402 11.7237 57.3995 11.853C57.1588 11.9823 56.9751 12.1593 56.8484 12.384V11.7163H56.215V15.0422H56.9117V13.0644C56.9497 12.95 57.0036 12.8451 57.0733 12.7497C57.1429 12.6543 57.2221 12.5716 57.3108 12.5017C57.3995 12.4317 57.4945 12.3776 57.5959 12.3395C57.6972 12.3013 57.7986 12.2823 57.8999 12.2823C58.0942 12.2823 58.2409 12.3533 58.3402 12.4953C58.4394 12.6373 58.489 12.8652 58.489 13.1789V15.0422ZM62.3562 14.9659C62.5652 15.0592 62.8006 15.1058 63.0625 15.1058C63.3201 15.1058 63.5534 15.0592 63.7624 14.9659C63.9714 14.8726 64.1509 14.7475 64.3008 14.5907C64.4507 14.4338 64.5658 14.2505 64.6461 14.0406C64.7263 13.8307 64.7664 13.6114 64.7664 13.3824C64.7664 13.1535 64.7263 12.9341 64.6461 12.7242C64.5658 12.5144 64.4507 12.331 64.3008 12.1741C64.1509 12.0173 63.9714 11.8922 63.7624 11.7989C63.5534 11.7057 63.3201 11.659 63.0625 11.659C62.8049 11.659 62.5715 11.7057 62.3625 11.7989C62.1535 11.8922 61.974 12.0173 61.8241 12.1741C61.6742 12.331 61.5591 12.5144 61.4789 12.7242C61.3986 12.9341 61.3585 13.1535 61.3585 13.3824C61.3585 13.6114 61.3986 13.8307 61.4789 14.0406C61.5591 14.2505 61.6731 14.4338 61.8209 14.5907C61.9687 14.7475 62.1471 14.8726 62.3562 14.9659ZM62.0743 13.3888C62.0743 13.5499 62.0996 13.6983 62.1503 13.8339C62.201 13.9696 62.2707 14.0872 62.3593 14.1869C62.448 14.2865 62.5525 14.3649 62.6729 14.4222C62.7932 14.4794 62.9231 14.508 63.0625 14.508C63.2018 14.508 63.3317 14.4794 63.452 14.4222C63.5724 14.3649 63.6769 14.2854 63.7656 14.1837C63.8543 14.0819 63.9239 13.9632 63.9746 13.8276C64.0253 13.6919 64.0506 13.5435 64.0506 13.3824C64.0506 13.2256 64.0253 13.0782 63.9746 12.9404C63.9239 12.8027 63.8543 12.6829 63.7656 12.5811C63.6769 12.4794 63.5724 12.3999 63.452 12.3427C63.3317 12.2854 63.2018 12.2568 63.0625 12.2568C62.9273 12.2568 62.7996 12.2865 62.6792 12.3458C62.5589 12.4052 62.4543 12.4858 62.3657 12.5875C62.277 12.6893 62.2063 12.809 62.1535 12.9468C62.1007 13.0846 62.0743 13.2319 62.0743 13.3888ZM65.6564 15.0263C65.7936 15.0793 65.9425 15.1058 66.103 15.1058C66.3521 15.1058 66.5854 15.0539 66.8029 14.95C67.0204 14.8461 67.203 14.6967 67.3508 14.5017L67.3699 14.7115C67.3867 14.8175 67.4321 14.9044 67.506 14.9722C67.5799 15.0401 67.6845 15.074 67.8196 15.074C67.866 15.074 67.9136 15.0719 67.9621 15.0676C68.0107 15.0634 68.0687 15.0549 68.1363 15.0422V14.4444C68.0138 14.4402 67.9526 14.3639 67.9526 14.2155V13.0136C67.9526 12.5769 67.8259 12.242 67.5726 12.0088C67.3192 11.7756 66.9645 11.659 66.5084 11.659C66.0481 11.659 65.6047 11.8032 65.1781 12.0915L65.3935 12.5366C65.5751 12.4137 65.7514 12.3194 65.9224 12.2536C66.0935 12.1879 66.2677 12.1551 66.445 12.1551C66.7069 12.1551 66.9074 12.224 67.0468 12.3617C67.1862 12.4995 67.2558 12.6914 67.2558 12.9373V13.1662C67.1334 13.1196 66.9961 13.0825 66.8441 13.0549C66.6921 13.0274 66.5379 13.0136 66.3817 13.0136C66.1748 13.0136 65.9858 13.039 65.8148 13.0899C65.6437 13.1408 65.4959 13.2128 65.3713 13.3061C65.2468 13.3994 65.1507 13.5096 65.0831 13.6368C65.0156 13.764 64.9818 13.906 64.9818 14.0629C64.9818 14.2112 65.0103 14.349 65.0673 14.4762C65.1243 14.6034 65.2024 14.7136 65.3017 14.8069C65.4009 14.9002 65.5191 14.9733 65.6564 15.0263ZM66.293 14.5907C66.4619 14.5907 66.6213 14.5599 66.7712 14.4985C66.9212 14.437 67.0383 14.3511 67.1228 14.2409C67.2115 14.1646 67.2558 14.0841 67.2558 13.9993V13.5605C67.1376 13.5138 67.012 13.4778 66.8789 13.4524C66.7459 13.4269 66.6161 13.4142 66.4894 13.4142C66.2402 13.4142 66.0365 13.4683 65.8781 13.5764C65.7197 13.6845 65.6406 13.8276 65.6406 14.0056C65.6406 14.171 65.7018 14.3098 65.8243 14.4222C65.9467 14.5345 66.103 14.5907 66.293 14.5907ZM69.3589 14.9691C69.5489 15.0602 69.7558 15.1058 69.9796 15.1058C70.2372 15.1058 70.4716 15.0464 70.6827 14.9277C70.8939 14.809 71.0607 14.6458 71.1832 14.4381L71.1958 14.6861C71.2043 14.8005 71.2528 14.8938 71.3415 14.9659C71.4302 15.038 71.5442 15.074 71.6836 15.074C71.7131 15.074 71.7501 15.0719 71.7944 15.0676C71.8388 15.0634 71.8968 15.0549 71.9686 15.0422V14.4444C71.8968 14.4402 71.8472 14.4211 71.8198 14.3872C71.7923 14.3533 71.7786 14.296 71.7786 14.2155V10.3999H71.0818V12.3458C70.9678 12.1466 70.8094 11.9823 70.6067 11.853C70.404 11.7237 70.1697 11.659 69.9036 11.659C69.6882 11.659 69.4908 11.7046 69.3113 11.7958C69.1319 11.8869 68.9756 12.0109 68.8426 12.1678C68.7096 12.3247 68.6061 12.5059 68.5322 12.7115C68.4583 12.9171 68.4214 13.1365 68.4214 13.3697C68.4214 13.6114 68.4604 13.8371 68.5385 14.047C68.6167 14.2568 68.7254 14.4402 68.8648 14.597C69.0041 14.7539 69.1688 14.8779 69.3589 14.9691ZM70.1507 14.508C70.252 14.508 70.3534 14.4911 70.4547 14.4571C70.5561 14.4232 70.649 14.3766 70.7334 14.3172C70.8179 14.2579 70.8907 14.1879 70.952 14.1074C71.0132 14.0268 71.0565 13.9399 71.0818 13.8466V12.9754C71.0438 12.8694 70.99 12.7719 70.9203 12.6829C70.8506 12.5939 70.7714 12.5175 70.6827 12.454C70.5941 12.3904 70.5001 12.3416 70.4009 12.3077C70.3016 12.2738 70.2013 12.2568 70.1 12.2568C69.9606 12.2568 69.8329 12.2886 69.7167 12.3522C69.6006 12.4158 69.5003 12.5006 69.4159 12.6066C69.3314 12.7126 69.2649 12.8334 69.2163 12.9691C69.1678 13.1047 69.1435 13.2446 69.1435 13.3888C69.1435 13.5414 69.1699 13.6855 69.2227 13.8212C69.2755 13.9569 69.3483 14.0756 69.4412 14.1773C69.5341 14.2791 69.6407 14.3596 69.7611 14.419C69.8814 14.4783 70.0113 14.508 70.1507 14.508ZM74.6829 14.9659C74.892 15.0592 75.1274 15.1058 75.3892 15.1058C75.6468 15.1058 75.8801 15.0592 76.0892 14.9659C76.2982 14.8726 76.4777 14.7475 76.6276 14.5907C76.7775 14.4338 76.8926 14.2505 76.9728 14.0406C77.0531 13.8307 77.0932 13.6114 77.0932 13.3824C77.0932 13.1535 77.0531 12.9341 76.9728 12.7242C76.8926 12.5144 76.7775 12.331 76.6276 12.1741C76.4777 12.0173 76.2982 11.8922 76.0892 11.7989C75.8801 11.7057 75.6468 11.659 75.3892 11.659C75.1316 11.659 74.8983 11.7057 74.6893 11.7989C74.4802 11.8922 74.3007 12.0173 74.1508 12.1741C74.0009 12.331 73.8858 12.5144 73.8056 12.7242C73.7254 12.9341 73.6853 13.1535 73.6853 13.3824C73.6853 13.6114 73.7254 13.8307 73.8056 14.0406C73.8858 14.2505 73.9999 14.4338 74.1477 14.5907C74.2955 14.7475 74.4739 14.8726 74.6829 14.9659ZM74.401 13.3888C74.401 13.5499 74.4264 13.6983 74.4771 13.8339C74.5277 13.9696 74.5974 14.0872 74.6861 14.1869C74.7748 14.2865 74.8793 14.3649 74.9996 14.4222C75.12 14.4794 75.2499 14.508 75.3892 14.508C75.5286 14.508 75.6584 14.4794 75.7788 14.4222C75.8991 14.3649 76.0036 14.2854 76.0923 14.1837C76.181 14.0819 76.2507 13.9632 76.3014 13.8276C76.352 13.6919 76.3774 13.5435 76.3774 13.3824C76.3774 13.2256 76.352 13.0782 76.3014 12.9404C76.2507 12.8027 76.181 12.6829 76.0923 12.5811C76.0036 12.4794 75.8991 12.3999 75.7788 12.3427C75.6584 12.2854 75.5286 12.2568 75.3892 12.2568C75.2541 12.2568 75.1263 12.2865 75.006 12.3458C74.8856 12.4052 74.7811 12.4858 74.6924 12.5875C74.6037 12.6893 74.533 12.809 74.4802 12.9468C74.4274 13.0846 74.401 13.2319 74.401 13.3888ZM79.8233 15.0422H80.5201V13.0136C80.5201 12.8313 80.5053 12.6585 80.4757 12.4953C80.4462 12.3321 80.3945 12.1879 80.3205 12.0629C80.2466 11.9378 80.1464 11.8392 80.0197 11.7672C79.893 11.6951 79.7304 11.659 79.5319 11.659C79.2405 11.659 78.9745 11.7237 78.7338 11.853C78.4931 11.9823 78.3094 12.1593 78.1827 12.384V11.7163H77.5492V15.0422H78.246V13.0644C78.284 12.95 78.3379 12.8451 78.4076 12.7497C78.4772 12.6543 78.5564 12.5716 78.6451 12.5017C78.7338 12.4317 78.8288 12.3776 78.9301 12.3395C79.0315 12.3013 79.1328 12.2823 79.2342 12.2823C79.4285 12.2823 79.5752 12.3533 79.6744 12.4953C79.7737 12.6373 79.8233 12.8652 79.8233 13.1789V15.0422ZM84.4094 14.8705C84.3207 14.9129 84.1983 14.9606 84.042 15.0136C83.8858 15.0666 83.719 15.0931 83.5416 15.0931C83.4318 15.0931 83.3283 15.0782 83.2312 15.0486C83.1341 15.0189 83.0486 14.9744 82.9747 14.915C82.9008 14.8557 82.8427 14.7783 82.8005 14.6829C82.7582 14.5875 82.7371 14.472 82.7371 14.3363V12.2568H82.3001V11.7163H82.7371V10.6225H83.4339V11.7163H84.156V12.2568H83.4339V14.1137C83.4424 14.2324 83.4793 14.3183 83.5448 14.3713C83.6102 14.4243 83.6915 14.4508 83.7886 14.4508C83.8858 14.4508 83.9787 14.4338 84.0674 14.3999C84.156 14.366 84.2215 14.3384 84.2637 14.3172L84.4094 14.8705ZM87.0002 15.0422H87.697V13.0136C87.697 12.8313 87.6811 12.6585 87.6495 12.4953C87.6178 12.3321 87.5618 12.189 87.4816 12.066C87.4014 11.9431 87.2947 11.8445 87.1617 11.7703C87.0287 11.6961 86.8587 11.659 86.6518 11.659C86.3942 11.659 86.1567 11.7226 85.9392 11.8498C85.7217 11.977 85.5496 12.1551 85.4229 12.384V10.3999H84.7261V15.0422H85.4229V13.0644C85.4567 12.95 85.5074 12.8451 85.5749 12.7497C85.6425 12.6543 85.7196 12.5716 85.8061 12.5017C85.8927 12.4317 85.9846 12.3776 86.0817 12.3395C86.1788 12.3013 86.2759 12.2823 86.3731 12.2823C86.5758 12.2823 86.731 12.3554 86.8387 12.5017C86.9463 12.6479 87.0002 12.8737 87.0002 13.1789V15.0422ZM89.8443 15.1058C89.5867 15.1058 89.3524 15.0602 89.1412 14.9691C88.9301 14.8779 88.7495 14.7539 88.5996 14.597C88.4497 14.4402 88.3336 14.2579 88.2512 14.0501C88.1689 13.8424 88.1277 13.6219 88.1277 13.3888C88.1277 13.1556 88.1689 12.9341 88.2512 12.7242C88.3336 12.5144 88.4497 12.33 88.5996 12.171C88.7495 12.012 88.9301 11.8869 89.1412 11.7958C89.3524 11.7046 89.5888 11.659 89.8507 11.659C90.1083 11.659 90.3416 11.7057 90.5506 11.7989C90.7597 11.8922 90.9381 12.0162 91.0859 12.171C91.2337 12.3257 91.3466 12.5059 91.4248 12.7115C91.5029 12.9171 91.542 13.1323 91.542 13.357C91.542 13.4079 91.5398 13.4555 91.5356 13.5001C91.5314 13.5446 91.5272 13.5817 91.523 13.6113H88.8688C88.8815 13.7597 88.9163 13.8933 88.9734 14.012C89.0304 14.1307 89.1043 14.2335 89.1951 14.3204C89.2859 14.4073 89.3893 14.4741 89.5054 14.5207C89.6216 14.5674 89.743 14.5907 89.8697 14.5907C89.9626 14.5907 90.0544 14.579 90.1452 14.5557C90.236 14.5324 90.3194 14.4985 90.3954 14.454C90.4714 14.4094 90.539 14.3554 90.5981 14.2918C90.6572 14.2282 90.7037 14.1582 90.7375 14.0819L91.3329 14.2536C91.2189 14.5038 91.0299 14.7083 90.766 14.8673C90.5021 15.0263 90.1948 15.1058 89.8443 15.1058ZM90.747 12.7401C90.804 12.8588 90.8388 12.9881 90.8515 13.128H88.8498C88.8625 12.9881 88.8963 12.8588 88.9512 12.7401C89.0061 12.6214 89.0779 12.5207 89.1665 12.4381C89.2552 12.3554 89.3576 12.2907 89.4738 12.2441C89.5899 12.1975 89.7134 12.1741 89.8443 12.1741C89.9752 12.1741 90.0998 12.1975 90.2181 12.2441C90.3363 12.2907 90.4398 12.3554 90.5285 12.4381C90.6171 12.5207 90.69 12.6214 90.747 12.7401Z" fill="#6E7883"/>
<path fill-rule="evenodd" clip-rule="evenodd" d="M46.5279 17.6001H48.3359L52.3373 28.4598H50.2329L49.2548 25.7525H45.5795L44.6162 28.4598H42.5118L46.5279 17.6001ZM48.8843 24.2689L47.4319 20.0015L45.9203 24.2689H48.8843ZM56.5299 28.1922C56.9843 28.4726 57.5178 28.6128 58.1304 28.6128C58.6244 28.6128 59.0788 28.5057 59.4938 28.2916C59.9088 28.0774 60.2669 27.7817 60.5682 27.4044C60.8696 27.0272 61.1042 26.5836 61.2722 26.0737C61.4401 25.5639 61.5241 25.0184 61.5241 24.4371C61.5241 23.8763 61.4327 23.3435 61.2499 22.8388C61.0672 22.334 60.8152 21.8956 60.4941 21.5234C60.173 21.1512 59.7902 20.8555 59.3456 20.6362C58.901 20.417 58.4169 20.3074 57.8933 20.3074C57.3005 20.3074 56.7768 20.4425 56.3224 20.7127C55.8679 20.9829 55.4974 21.3526 55.2109 21.8216V20.445H53.477V31.7177H55.4628V27.0527C55.7197 27.5319 56.0754 27.9117 56.5299 28.1922ZM57.4635 26.8691C57.7599 26.8691 58.0341 26.8028 58.286 26.6703C58.5379 26.5377 58.7528 26.3593 58.9307 26.1349C59.1085 25.9106 59.2468 25.6506 59.3456 25.3549C59.4444 25.0591 59.4938 24.7532 59.4938 24.4371C59.4938 24.1006 59.4395 23.7871 59.3308 23.4965C59.2221 23.2059 59.0714 22.9535 58.8788 22.7393C58.6861 22.5252 58.4589 22.357 58.1971 22.2346C57.9353 22.1122 57.6512 22.0511 57.3449 22.0511C57.1572 22.0511 56.9646 22.0842 56.767 22.1505C56.5694 22.2168 56.3866 22.3111 56.2186 22.4334C56.0507 22.5558 55.9 22.6986 55.7666 22.8617C55.6333 23.0249 55.532 23.2033 55.4628 23.3971V25.2784C55.6407 25.7372 55.9124 26.1171 56.2779 26.4179C56.6435 26.7187 57.0387 26.8691 57.4635 26.8691ZM66.102 28.1922C66.5565 28.4726 67.09 28.6128 67.7025 28.6128C68.1965 28.6128 68.651 28.5057 69.0659 28.2916C69.4809 28.0774 69.839 27.7817 70.1404 27.4044C70.4417 27.0272 70.6764 26.5836 70.8443 26.0737C71.0123 25.5639 71.0963 25.0184 71.0963 24.4371C71.0963 23.8763 71.0049 23.3435 70.8221 22.8388C70.6393 22.334 70.3874 21.8956 70.0663 21.5234C69.7452 21.1512 69.3623 20.8555 68.9177 20.6362C68.4732 20.417 67.989 20.3074 67.4654 20.3074C66.8726 20.3074 66.349 20.4425 65.8945 20.7127C65.44 20.9829 65.0696 21.3526 64.783 21.8216V20.445H63.0491V31.7177H65.035V27.0527C65.2919 27.5319 65.6475 27.9117 66.102 28.1922ZM67.0356 26.8691C67.332 26.8691 67.6062 26.8028 67.8581 26.6703C68.1101 26.5377 68.325 26.3593 68.5028 26.1349C68.6806 25.9106 68.819 25.6506 68.9177 25.3549C69.0165 25.0591 69.0659 24.7532 69.0659 24.4371C69.0659 24.1006 69.0116 23.7871 68.9029 23.4965C68.7943 23.2059 68.6436 22.9535 68.4509 22.7393C68.2583 22.5252 68.031 22.357 67.7692 22.2346C67.5074 22.1122 67.2234 22.0511 66.9171 22.0511C66.7294 22.0511 66.5367 22.0842 66.3391 22.1505C66.1415 22.2168 65.9587 22.3111 65.7908 22.4334C65.6228 22.5558 65.4722 22.6986 65.3388 22.8617C65.2054 23.0249 65.1041 23.2033 65.035 23.3971V25.2784C65.2128 25.7372 65.4845 26.1171 65.8501 26.4179C66.2156 26.7187 66.6108 26.8691 67.0356 26.8691ZM77.377 28.2916C77.9994 28.5057 78.6367 28.6128 79.2887 28.6128C80.257 28.6128 81.0227 28.3859 81.5858 27.9321C82.149 27.4784 82.4305 26.8589 82.4305 26.0737C82.4305 25.7372 82.3737 25.4492 82.2601 25.2096C82.1465 24.9699 81.9687 24.7583 81.7266 24.5748C81.4845 24.3913 81.1733 24.2281 80.793 24.0853C80.4126 23.9426 79.9556 23.7998 79.4221 23.6571C79.1356 23.5857 78.896 23.5169 78.7034 23.4506C78.5107 23.3843 78.3551 23.3155 78.2365 23.2441C78.118 23.1727 78.0315 23.0911 77.9772 22.9994C77.9229 22.9076 77.8957 22.7903 77.8957 22.6476C77.8957 22.3315 78.0093 22.102 78.2365 21.9593C78.4638 21.8165 78.7454 21.7451 79.0813 21.7451C79.4468 21.7451 79.8148 21.8165 80.1853 21.9593C80.5558 22.102 80.9387 22.3264 81.3339 22.6323L82.1341 21.3934C81.7093 21.0059 81.2425 20.7255 80.7337 20.5521C80.2249 20.3788 79.679 20.2921 79.0961 20.2921C78.6614 20.2921 78.2588 20.3533 77.8883 20.4756C77.5178 20.598 77.1942 20.7739 76.9176 21.0033C76.641 21.2328 76.4261 21.5106 76.2729 21.8369C76.1198 22.1632 76.0432 22.5303 76.0432 22.9382C76.0432 23.2441 76.0926 23.5067 76.1914 23.7259C76.2902 23.9451 76.4483 24.1389 76.6657 24.3071C76.883 24.4754 77.1695 24.6258 77.5252 24.7583C77.8809 24.8909 78.3106 25.0286 78.8145 25.1713C79.4172 25.3447 79.8519 25.4976 80.1187 25.6302C80.3854 25.7627 80.5188 25.9718 80.5188 26.2573C80.5188 26.5428 80.4052 26.762 80.1779 26.915C79.9507 27.0679 79.6395 27.1444 79.2443 27.1444C78.7997 27.1444 78.3526 27.0552 77.9031 26.8768C77.4536 26.6983 76.9917 26.4357 76.5175 26.089L75.7765 27.3739C76.2211 27.7715 76.7546 28.0774 77.377 28.2916ZM88.5497 28.0469C88.2829 28.1692 87.9569 28.2916 87.5716 28.4139C87.1863 28.5363 86.7812 28.5975 86.3564 28.5975C86.0797 28.5975 85.8204 28.5618 85.5783 28.4904C85.3363 28.419 85.1239 28.3043 84.9411 28.1463C84.7583 27.9882 84.6126 27.7843 84.5039 27.5345C84.3952 27.2846 84.3409 26.9813 84.3409 26.6244V22.0205H83.3183V20.445H84.3409V17.8448H86.3267V20.445H87.9569V22.0205H86.3267V25.9361C86.3267 26.2216 86.3983 26.423 86.5416 26.5403C86.6849 26.6575 86.8602 26.7162 87.0677 26.7162C87.2752 26.7162 87.4777 26.6805 87.6753 26.6091C87.8729 26.5377 88.031 26.4765 88.1495 26.4255L88.5497 28.0469ZM91.4529 28.2763C91.9568 28.5006 92.5249 28.6128 93.1572 28.6128C93.7895 28.6128 94.3576 28.5006 94.8615 28.2763C95.3654 28.0519 95.7902 27.7486 96.136 27.3662C96.4818 26.9838 96.7485 26.5428 96.9362 26.0432C97.124 25.5435 97.2178 25.0184 97.2178 24.4677C97.2178 23.9069 97.124 23.3767 96.9362 22.877C96.7485 22.3774 96.4793 21.9363 96.1286 21.554C95.7778 21.1716 95.353 20.8682 94.8541 20.6439C94.3551 20.4195 93.7895 20.3074 93.1572 20.3074C92.5249 20.3074 91.9568 20.4195 91.4529 20.6439C90.9491 20.8682 90.5218 21.1716 90.171 21.554C89.8203 21.9363 89.5511 22.3774 89.3634 22.877C89.1756 23.3767 89.0818 23.9069 89.0818 24.4677C89.0818 25.0184 89.1756 25.5435 89.3634 26.0432C89.5511 26.5428 89.8203 26.9838 90.171 27.3662C90.5218 27.7486 90.9491 28.0519 91.4529 28.2763ZM91.1269 24.4677C91.1269 24.8246 91.1788 25.1484 91.2825 25.439C91.3863 25.7296 91.5295 25.982 91.7123 26.1961C91.8951 26.4102 92.11 26.5759 92.3569 26.6932C92.6039 26.8105 92.8707 26.8691 93.1572 26.8691C93.4437 26.8691 93.7105 26.8105 93.9575 26.6932C94.2045 26.5759 94.4194 26.4102 94.6021 26.1961C94.7849 25.982 94.9282 25.7271 95.0319 25.4313C95.1357 25.1356 95.1875 24.8093 95.1875 24.4524C95.1875 24.1057 95.1357 23.7845 95.0319 23.4888C94.9282 23.1931 94.7849 22.9382 94.6021 22.7241C94.4194 22.5099 94.2045 22.3442 93.9575 22.227C93.7105 22.1097 93.4437 22.0511 93.1572 22.0511C92.8707 22.0511 92.6039 22.1122 92.3569 22.2346C92.11 22.357 91.8951 22.5252 91.7123 22.7393C91.5295 22.9535 91.3863 23.2084 91.2825 23.5041C91.1788 23.7998 91.1269 24.121 91.1269 24.4677ZM101.736 22.5787C102.211 22.3493 102.749 22.2295 103.352 22.2193V20.3533C103.302 20.3431 103.251 20.338 103.196 20.338H102.952C102.744 20.338 102.529 20.3813 102.307 20.468C102.085 20.5547 101.865 20.6796 101.648 20.8427C101.43 21.0059 101.228 21.1971 101.04 21.4163C100.852 21.6355 100.689 21.8828 100.551 22.1581V20.445H98.728V28.4598H100.714V23.6112C100.921 23.1523 101.262 22.8082 101.736 22.5787ZM107.856 28.6128C107.233 28.6128 106.67 28.5032 106.166 28.2839C105.662 28.0647 105.232 27.7664 104.877 27.3891C104.521 27.0119 104.247 26.5734 104.054 26.0737C103.862 25.5741 103.765 25.049 103.765 24.4983C103.765 23.9273 103.859 23.3894 104.047 22.8847C104.235 22.3799 104.506 21.9363 104.862 21.554C105.218 21.1716 105.65 20.8682 106.159 20.6439C106.668 20.4195 107.238 20.3074 107.87 20.3074C108.503 20.3074 109.068 20.4195 109.567 20.6439C110.066 20.8682 110.491 21.169 110.842 21.5463C111.192 21.9236 111.459 22.3621 111.642 22.8617C111.825 23.3614 111.916 23.8814 111.916 24.4218C111.916 24.5544 111.914 24.6819 111.909 24.8042C111.904 24.9266 111.891 25.0286 111.872 25.1101H105.87C105.899 25.4262 105.973 25.7067 106.092 25.9514C106.211 26.1961 106.364 26.4051 106.551 26.5785C106.739 26.7518 106.952 26.8844 107.189 26.9762C107.426 27.0679 107.673 27.1138 107.93 27.1138C108.325 27.1138 108.698 27.0144 109.049 26.8156C109.399 26.6167 109.639 26.3542 109.767 26.0279L111.472 26.5173C111.185 27.1291 110.728 27.6313 110.101 28.0239C109.473 28.4165 108.725 28.6128 107.856 28.6128ZM109.226 22.334C109.607 22.696 109.822 23.1778 109.871 23.7794H105.84C105.86 23.4837 105.927 23.2135 106.04 22.9688C106.154 22.7241 106.3 22.515 106.477 22.3417C106.655 22.1683 106.86 22.0332 107.092 21.9363C107.325 21.8395 107.574 21.791 107.841 21.791C108.384 21.791 108.846 21.972 109.226 22.334Z" fill="#6E7883"/>
<path fill-rule="evenodd" clip-rule="evenodd" d="M29.9933 8.42431C29.9933 9.48536 29.6357 10.4754 28.9204 11.395C28.044 12.498 27.0458 12.9933 25.9259 12.8804C25.9126 12.8091 25.9057 12.7422 25.9057 12.678V12.477C25.9057 11.4584 26.2702 10.5043 26.9982 9.61238C27.363 9.1606 27.8249 8.78525 28.3844 8.48769C28.9446 8.19121 29.4737 8.02829 29.9731 8C29.9864 8.07072 29.9933 8.14116 29.9933 8.21243V8.42431ZM33.6552 15.2138C32.1715 16.1756 31.4427 17.5193 31.4704 19.2453C31.4839 20.5748 31.9359 21.6927 32.8251 22.5966C33.2295 23.007 33.6815 23.3266 34.1806 23.5524C34.1267 23.7224 34.0727 23.888 34.019 24.0506C33.9645 24.2133 33.9038 24.3721 33.8371 24.5277C33.694 24.8987 33.5285 25.2601 33.3415 25.61C33.1671 25.9349 32.9815 26.2533 32.7849 26.5647C32.5491 26.9258 32.3026 27.2795 32.046 27.6255C31.8237 27.9225 31.6177 28.1556 31.4297 28.3261C30.8894 28.8489 30.3097 29.125 29.6891 29.1527C29.2711 29.1527 28.7311 29.0115 28.0706 28.7279C27.4763 28.4597 26.9036 28.3259 26.3508 28.3259C25.757 28.3259 25.163 28.4605 24.5701 28.7279C23.9359 29.0115 23.4238 29.1598 23.0329 29.1745C22.4251 29.2033 21.8324 28.9199 21.2517 28.3261C20.8483 27.9437 20.3745 27.3355 19.8355 26.5008C19.2293 25.5822 18.7294 24.5144 18.3382 23.2978C17.9203 22.024 17.7118 20.7514 17.7118 19.4784C17.7118 18.0643 17.9944 16.8477 18.5616 15.8288C19.0064 15.0093 19.5997 14.3617 20.3415 13.8876C21.0831 13.414 21.8861 13.1701 22.7492 13.1556C23.2619 13.1556 23.8827 13.3112 24.6105 13.6224C25.3398 13.9344 25.832 14.0891 26.0883 14.0891C26.2096 14.0891 26.7563 13.9061 27.7273 13.5378C28.63 13.1978 29.3722 13.0575 29.9526 13.1132C31.5844 13.2696 32.8184 13.9692 33.6552 15.2138Z" fill="#C92135"/>
</svg>
