<svg width="192" height="60" viewBox="0 0 192 60" fill="none" xmlns="http://www.w3.org/2000/svg">
<rect x="0.932251" width="190.932" height="60" rx="30" fill="#F9F9F9"/>
<rect x="1.43225" y="0.5" width="189.932" height="59" rx="29.5" stroke="#777777" stroke-opacity="0.2"/>
<path fill-rule="evenodd" clip-rule="evenodd" d="M89.3221 15.6H90.3672V21.123C90.3672 21.3074 90.4147 21.4521 90.5098 21.5571C90.6048 21.662 90.7378 21.7144 90.9088 21.7144C90.9785 21.7144 91.0593 21.7017 91.1511 21.6763C91.243 21.6508 91.3301 21.6222 91.4124 21.5904L91.5644 22.4108C91.4124 22.4807 91.2319 22.5364 91.0228 22.5777C90.8138 22.6191 90.6269 22.6397 90.4622 22.6397C90.1012 22.6397 89.8209 22.5412 89.6214 22.344C89.4218 22.1469 89.3221 21.8671 89.3221 21.5046V15.6ZM64.5323 15.7908V22.5634H66.9268C67.4272 22.5634 67.8801 22.4823 68.2855 22.3202C68.6909 22.158 69.0361 21.9291 69.3212 21.6334C69.6062 21.3377 69.8263 20.9815 69.9815 20.565C70.1367 20.1485 70.2143 19.6826 70.2143 19.1675C70.2143 18.7033 70.1446 18.2661 70.0053 17.8559C69.8659 17.4458 69.6585 17.0881 69.3829 16.7828C69.1074 16.4776 68.7653 16.2359 68.3567 16.0578C67.9482 15.8798 67.4715 15.7908 66.9268 15.7908H64.5323ZM68.9839 18.185C69.082 18.4839 69.1311 18.8114 69.1311 19.1675C69.1311 19.5173 69.0836 19.8416 68.9886 20.1405C68.8936 20.4394 68.7526 20.6985 68.5658 20.9179C68.3789 21.1373 68.1477 21.309 67.8722 21.433C67.5966 21.5571 67.2815 21.6191 66.9268 21.6191H65.5965V16.7351H66.9268C67.2751 16.7351 67.5855 16.7955 67.8579 16.9164C68.1303 17.0372 68.3615 17.2041 68.5515 17.4171C68.7416 17.6302 68.8857 17.8861 68.9839 18.185ZM73.1883 22.6588C72.7956 22.6588 72.4424 22.5888 72.1289 22.4489C71.8153 22.309 71.5477 22.1214 71.326 21.8861C71.1043 21.6508 70.9333 21.3758 70.8129 21.061C70.6926 20.7462 70.6324 20.4171 70.6324 20.0737C70.6324 19.7303 70.6926 19.4012 70.8129 19.0865C70.9333 18.7717 71.1059 18.4966 71.3308 18.2613C71.5556 18.026 71.8248 17.8385 72.1384 17.6985C72.4519 17.5586 72.8019 17.4887 73.1883 17.4887C73.5747 17.4887 73.9247 17.5586 74.2382 17.6985C74.5518 17.8385 74.821 18.026 75.0459 18.2613C75.2708 18.4966 75.4434 18.7717 75.5637 19.0865C75.6841 19.4012 75.7443 19.7303 75.7443 20.0737C75.7443 20.4171 75.6841 20.7462 75.5637 21.061C75.4434 21.3758 75.2708 21.6508 75.0459 21.8861C74.821 22.1214 74.5518 22.309 74.2382 22.4489C73.9247 22.5888 73.5747 22.6588 73.1883 22.6588ZM71.8201 20.751C71.7441 20.5475 71.7061 20.3249 71.7061 20.0833C71.7061 19.848 71.7457 19.627 71.8248 19.4203C71.904 19.2136 72.0101 19.034 72.1431 18.8814C72.2762 18.7288 72.4329 18.6079 72.6135 18.5189C72.794 18.4299 72.9856 18.3853 73.1883 18.3853C73.3974 18.3853 73.5921 18.4283 73.7727 18.5141C73.9532 18.6 74.11 18.7192 74.243 18.8718C74.376 19.0245 74.4805 19.2041 74.5566 19.4108C74.6326 19.6175 74.6706 19.8384 74.6706 20.0737C74.6706 20.3154 74.6326 20.538 74.5566 20.7415C74.4805 20.945 74.376 21.123 74.243 21.2757C74.11 21.4283 73.9532 21.5475 73.7727 21.6334C73.5921 21.7192 73.3974 21.7621 73.1883 21.7621C72.9793 21.7621 72.7845 21.7192 72.604 21.6334C72.4234 21.5475 72.2667 21.4299 72.1336 21.2804C72.0006 21.131 71.8961 20.9545 71.8201 20.751ZM82.4429 17.5745H83.4406L81.3502 22.5634H80.4856L79.5639 20.2454L78.6422 22.5634H77.7776L75.6777 17.5745H76.6754L78.2812 21.5523L79.0033 19.7017L78.1387 17.5841H78.9938L79.5639 19.1485L80.1245 17.5841H80.9796L80.1245 19.7017L80.8466 21.5523L82.4429 17.5745ZM87.2982 22.5634H88.3434V19.5205C88.3434 19.247 88.3212 18.9879 88.2769 18.7431C88.2325 18.4982 88.1549 18.282 88.0441 18.0944C87.9332 17.9068 87.7828 17.759 87.5928 17.6509C87.4027 17.5427 87.1589 17.4887 86.8611 17.4887C86.4241 17.4887 86.025 17.5857 85.6639 17.7796C85.3029 17.9736 85.0273 18.2391 84.8373 18.5761V17.5745H83.8871V22.5634H84.9323V19.5968C84.9893 19.4251 85.0701 19.2677 85.1746 19.1246C85.2791 18.9815 85.3979 18.8575 85.5309 18.7526C85.6639 18.6477 85.8065 18.5666 85.9585 18.5094C86.1105 18.4521 86.2625 18.4235 86.4146 18.4235C86.7059 18.4235 86.9261 18.53 87.0749 18.7431C87.2238 18.9561 87.2982 19.2979 87.2982 19.7685V22.5634ZM93.0989 22.4489C93.4125 22.5888 93.7656 22.6588 94.1584 22.6588C94.5448 22.6588 94.8948 22.5888 95.2083 22.4489C95.5219 22.309 95.7911 22.1214 96.0159 21.8861C96.2408 21.6508 96.4134 21.3758 96.5338 21.061C96.6541 20.7462 96.7143 20.4171 96.7143 20.0737C96.7143 19.7303 96.6541 19.4012 96.5338 19.0865C96.4134 18.7717 96.2408 18.4966 96.0159 18.2613C95.7911 18.026 95.5219 17.8385 95.2083 17.6985C94.8948 17.5586 94.5448 17.4887 94.1584 17.4887C93.772 17.4887 93.422 17.5586 93.1084 17.6985C92.7949 17.8385 92.5257 18.026 92.3008 18.2613C92.0759 18.4966 91.9033 18.7717 91.783 19.0865C91.6626 19.4012 91.6024 19.7303 91.6024 20.0737C91.6024 20.4171 91.6626 20.7462 91.783 21.061C91.9033 21.3758 92.0744 21.6508 92.2961 21.8861C92.5178 22.1214 92.7854 22.309 93.0989 22.4489ZM92.6761 20.0833C92.6761 20.3249 92.7141 20.5475 92.7901 20.751C92.8662 20.9545 92.9707 21.131 93.1037 21.2804C93.2367 21.4299 93.3935 21.5475 93.574 21.6334C93.7546 21.7192 93.9493 21.7621 94.1584 21.7621C94.3674 21.7621 94.5622 21.7192 94.7427 21.6334C94.9233 21.5475 95.08 21.4283 95.2131 21.2757C95.3461 21.123 95.4506 20.945 95.5266 20.7415C95.6026 20.538 95.6406 20.3154 95.6406 20.0737C95.6406 19.8384 95.6026 19.6175 95.5266 19.4108C95.4506 19.2041 95.3461 19.0245 95.2131 18.8718C95.08 18.7192 94.9233 18.6 94.7427 18.5141C94.5622 18.4283 94.3674 18.3853 94.1584 18.3853C93.9557 18.3853 93.7641 18.4299 93.5835 18.5189C93.403 18.6079 93.2462 18.7288 93.1132 18.8814C92.9802 19.034 92.8741 19.2136 92.7949 19.4203C92.7157 19.627 92.6761 19.848 92.6761 20.0833ZM98.0493 22.5396C98.2552 22.6191 98.4784 22.6588 98.7192 22.6588C99.0929 22.6588 99.4429 22.5809 99.7691 22.4251C100.095 22.2693 100.369 22.0451 100.591 21.7526L100.619 22.0674C100.645 22.2264 100.713 22.3567 100.824 22.4585C100.935 22.5602 101.091 22.6111 101.294 22.6111C101.364 22.6111 101.435 22.6079 101.508 22.6016C101.581 22.5952 101.668 22.5825 101.769 22.5634V21.6667C101.585 21.6604 101.494 21.5459 101.494 21.3233V19.5205C101.494 18.8655 101.304 18.3631 100.924 18.0133C100.543 17.6636 100.011 17.4887 99.3273 17.4887C98.6368 17.4887 97.9717 17.7049 97.3319 18.1373L97.655 18.8051C97.9273 18.6206 98.1918 18.4791 98.4484 18.3806C98.7049 18.282 98.9662 18.2327 99.2322 18.2327C99.625 18.2327 99.9259 18.3361 100.135 18.5427C100.344 18.7494 100.448 19.0372 100.448 19.406V19.7494C100.265 19.6795 100.059 19.6238 99.8308 19.5825C99.6028 19.5412 99.3716 19.5205 99.1372 19.5205C98.8268 19.5205 98.5434 19.5586 98.2868 19.635C98.0303 19.7113 97.8086 19.8194 97.6217 19.9593C97.4348 20.0992 97.2907 20.2645 97.1894 20.4553C97.088 20.6461 97.0374 20.8591 97.0374 21.0944C97.0374 21.317 97.0801 21.5237 97.1656 21.7144C97.2512 21.9052 97.3683 22.0706 97.5172 22.2105C97.6661 22.3504 97.8434 22.4601 98.0493 22.5396ZM99.0042 21.8861C99.2576 21.8861 99.4967 21.84 99.7216 21.7478C99.9464 21.6556 100.122 21.5268 100.249 21.3615C100.382 21.247 100.448 21.1262 100.448 20.999V20.3408C100.271 20.2709 100.083 20.2168 99.8831 20.1787C99.6836 20.1405 99.4888 20.1214 99.2987 20.1214C98.925 20.1214 98.6194 20.2025 98.3818 20.3647C98.1443 20.5268 98.0255 20.7415 98.0255 21.0086C98.0255 21.2566 98.1174 21.4648 98.3011 21.6334C98.4848 21.8019 98.7191 21.8861 99.0042 21.8861ZM103.603 22.4537C103.888 22.5904 104.198 22.6588 104.534 22.6588C104.921 22.6588 105.272 22.5698 105.589 22.3917C105.906 22.2136 106.156 21.9688 106.339 21.6572L106.358 22.0292C106.371 22.2009 106.444 22.3408 106.577 22.4489C106.71 22.5571 106.881 22.6111 107.09 22.6111C107.134 22.6111 107.19 22.6079 107.256 22.6016C107.323 22.5952 107.41 22.5825 107.518 22.5634V21.6667C107.41 21.6604 107.336 21.6318 107.294 21.5809C107.253 21.53 107.233 21.4442 107.233 21.3233V15.6H106.187V18.5189C106.016 18.22 105.779 17.9736 105.475 17.7796C105.171 17.5857 104.819 17.4887 104.42 17.4887C104.097 17.4887 103.801 17.557 103.532 17.6938C103.263 17.8305 103.028 18.0165 102.829 18.2518C102.629 18.4871 102.474 18.759 102.363 19.0674C102.252 19.3758 102.197 19.7049 102.197 20.0547C102.197 20.4171 102.255 20.7558 102.373 21.0706C102.49 21.3854 102.653 21.6604 102.862 21.8957C103.071 22.131 103.318 22.317 103.603 22.4537ZM104.791 21.7621C104.943 21.7621 105.095 21.7367 105.247 21.6858C105.399 21.635 105.538 21.565 105.665 21.476C105.792 21.3869 105.901 21.282 105.993 21.1612C106.084 21.0404 106.149 20.91 106.187 20.7701V19.4633C106.13 19.3043 106.05 19.158 105.945 19.0245C105.841 18.8909 105.722 18.7764 105.589 18.6811C105.456 18.5857 105.315 18.5125 105.166 18.4617C105.017 18.4108 104.867 18.3853 104.715 18.3853C104.506 18.3853 104.314 18.433 104.14 18.5284C103.966 18.6238 103.815 18.751 103.688 18.91C103.562 19.069 103.462 19.2502 103.389 19.4537C103.316 19.6572 103.28 19.8671 103.28 20.0833C103.28 20.3122 103.32 20.5284 103.399 20.7319C103.478 20.9354 103.587 21.1135 103.727 21.2661C103.866 21.4187 104.026 21.5396 104.206 21.6286C104.387 21.7176 104.582 21.7621 104.791 21.7621ZM111.589 22.4489C111.903 22.5888 112.256 22.6588 112.649 22.6588C113.035 22.6588 113.385 22.5888 113.698 22.4489C114.012 22.309 114.281 22.1214 114.506 21.8861C114.731 21.6508 114.904 21.3758 115.024 21.061C115.144 20.7462 115.204 20.4171 115.204 20.0737C115.204 19.7303 115.144 19.4012 115.024 19.0865C114.904 18.7717 114.731 18.4966 114.506 18.2613C114.281 18.026 114.012 17.8385 113.698 17.6985C113.385 17.5586 113.035 17.4887 112.649 17.4887C112.262 17.4887 111.912 17.5586 111.599 17.6985C111.285 17.8385 111.016 18.026 110.791 18.2613C110.566 18.4966 110.393 18.7717 110.273 19.0865C110.153 19.4012 110.093 19.7303 110.093 20.0737C110.093 20.4171 110.153 20.7462 110.273 21.061C110.393 21.3758 110.564 21.6508 110.786 21.8861C111.008 22.1214 111.276 22.309 111.589 22.4489ZM111.166 20.0833C111.166 20.3249 111.204 20.5475 111.28 20.751C111.356 20.9545 111.461 21.131 111.594 21.2804C111.727 21.4299 111.884 21.5475 112.064 21.6334C112.245 21.7192 112.439 21.7621 112.649 21.7621C112.858 21.7621 113.052 21.7192 113.233 21.6334C113.413 21.5475 113.57 21.4283 113.703 21.2757C113.836 21.123 113.941 20.945 114.017 20.7415C114.093 20.538 114.131 20.3154 114.131 20.0737C114.131 19.8384 114.093 19.6175 114.017 19.4108C113.941 19.2041 113.836 19.0245 113.703 18.8718C113.57 18.7192 113.413 18.6 113.233 18.5141C113.052 18.4283 112.858 18.3853 112.649 18.3853C112.446 18.3853 112.254 18.4299 112.074 18.5189C111.893 18.6079 111.736 18.7288 111.603 18.8814C111.47 19.034 111.364 19.2136 111.285 19.4203C111.206 19.627 111.166 19.848 111.166 20.0833ZM119.3 22.5634H120.345V19.5205C120.345 19.247 120.323 18.9879 120.278 18.7431C120.234 18.4982 120.156 18.282 120.046 18.0944C119.935 17.9068 119.784 17.759 119.594 17.6509C119.404 17.5427 119.16 17.4887 118.863 17.4887C118.425 17.4887 118.026 17.5857 117.665 17.7796C117.304 17.9736 117.029 18.2391 116.839 18.5761V17.5745H115.889V22.5634H116.934V19.5968C116.991 19.4251 117.072 19.2677 117.176 19.1246C117.281 18.9815 117.399 18.8575 117.532 18.7526C117.665 18.6477 117.808 18.5666 117.96 18.5094C118.112 18.4521 118.264 18.4235 118.416 18.4235C118.707 18.4235 118.927 18.53 119.076 18.7431C119.225 18.9561 119.3 19.2979 119.3 19.7685V22.5634ZM126.179 22.3059C126.046 22.3695 125.862 22.441 125.628 22.5205C125.393 22.6 125.143 22.6397 124.877 22.6397C124.712 22.6397 124.557 22.6175 124.412 22.5729C124.266 22.5284 124.138 22.4617 124.027 22.3726C123.916 22.2836 123.829 22.1675 123.765 22.0245C123.702 21.8814 123.67 21.7081 123.67 21.5046V18.3853H123.015V17.5745H123.67V15.9338H124.716V17.5745H125.799V18.3853H124.716V21.1707C124.728 21.3488 124.784 21.4776 124.882 21.5571C124.98 21.6365 125.102 21.6763 125.248 21.6763C125.393 21.6763 125.533 21.6509 125.666 21.6C125.799 21.5491 125.897 21.5078 125.96 21.476L126.179 22.3059ZM130.065 22.5634H131.11V19.5205C131.11 19.247 131.086 18.9879 131.039 18.7431C130.991 18.4982 130.907 18.2836 130.787 18.0992C130.667 17.9148 130.507 17.7669 130.307 17.6556C130.108 17.5443 129.853 17.4887 129.542 17.4887C129.156 17.4887 128.8 17.5841 128.473 17.7749C128.147 17.9656 127.889 18.2327 127.699 18.5761V15.6H126.654V22.5634H127.699V19.5968C127.75 19.4251 127.826 19.2677 127.927 19.1246C128.028 18.9815 128.144 18.8575 128.274 18.7526C128.404 18.6477 128.542 18.5666 128.687 18.5094C128.833 18.4521 128.979 18.4235 129.124 18.4235C129.428 18.4235 129.661 18.5332 129.823 18.7526C129.984 18.972 130.065 19.3106 130.065 19.7685V22.5634ZM134.331 22.6588C133.945 22.6588 133.593 22.5904 133.277 22.4537C132.96 22.317 132.689 22.131 132.464 21.8957C132.239 21.6604 132.065 21.3869 131.942 21.0753C131.818 20.7637 131.756 20.433 131.756 20.0833C131.756 19.7335 131.818 19.4012 131.942 19.0865C132.065 18.7717 132.239 18.495 132.464 18.2566C132.689 18.0181 132.96 17.8305 133.277 17.6938C133.593 17.557 133.948 17.4887 134.341 17.4887C134.727 17.4887 135.077 17.5586 135.391 17.6985C135.704 17.8385 135.972 18.0245 136.194 18.2566C136.415 18.4887 136.585 18.759 136.702 19.0674C136.819 19.3758 136.878 19.6985 136.878 20.0356C136.878 20.1119 136.874 20.1834 136.868 20.2502C136.862 20.317 136.855 20.3726 136.849 20.4171H132.868C132.887 20.6397 132.939 20.84 133.025 21.0181C133.11 21.1962 133.221 21.3504 133.357 21.4807C133.493 21.6111 133.649 21.7113 133.823 21.7812C133.997 21.8512 134.179 21.8861 134.369 21.8861C134.509 21.8861 134.646 21.8687 134.783 21.8337C134.919 21.7987 135.044 21.7478 135.158 21.6811C135.272 21.6143 135.373 21.5332 135.462 21.4378C135.551 21.3424 135.62 21.2375 135.671 21.123L136.564 21.3806C136.393 21.7558 136.11 22.0626 135.714 22.3011C135.318 22.5396 134.857 22.6588 134.331 22.6588ZM135.685 19.1103C135.771 19.2884 135.823 19.4823 135.842 19.6922H132.839C132.858 19.4823 132.909 19.2884 132.991 19.1103C133.074 18.9322 133.181 18.7812 133.315 18.6572C133.448 18.5332 133.601 18.4362 133.775 18.3663C133.95 18.2963 134.135 18.2613 134.331 18.2613C134.528 18.2613 134.714 18.2963 134.892 18.3663C135.069 18.4362 135.224 18.5332 135.357 18.6572C135.49 18.7812 135.6 18.9322 135.685 19.1103Z" fill="#6E7883"/>
<path fill-rule="evenodd" clip-rule="evenodd" d="M69.3565 26.4H72.0685L78.0705 42.6896H74.9139L73.4468 38.6287H67.9338L66.4889 42.6896H63.3323L69.3565 26.4ZM72.891 36.4032L70.7125 30.0021L68.4451 36.4032H72.891ZM84.3594 42.2881C85.0411 42.7087 85.8414 42.919 86.7602 42.919C87.5012 42.919 88.1829 42.7584 88.8053 42.4372C89.4277 42.116 89.9649 41.6725 90.417 41.1065C90.869 40.5406 91.2209 39.8753 91.4729 39.1105C91.7248 38.3457 91.8508 37.5274 91.8508 36.6556C91.8508 35.8143 91.7137 35.0152 91.4395 34.258C91.1653 33.5009 90.7874 32.8432 90.3058 32.2849C89.8242 31.7266 89.2499 31.2831 88.583 30.9542C87.9161 30.6254 87.19 30.461 86.4045 30.461C85.5153 30.461 84.7299 30.6636 84.0482 31.0689C83.3665 31.4743 82.8107 32.0287 82.3809 32.7323V30.6674H79.7801V47.5765H82.7588V40.5789C83.1442 41.2977 83.6777 41.8675 84.3594 42.2881ZM85.7598 40.3035C86.2044 40.3035 86.6157 40.2041 86.9936 40.0053C87.3715 39.8064 87.6938 39.5388 87.9606 39.2023C88.2273 38.8658 88.4348 38.4757 88.583 38.0322C88.7312 37.5886 88.8053 37.1297 88.8053 36.6556C88.8053 36.1508 88.7238 35.6805 88.5608 35.2446C88.3978 34.8087 88.1718 34.4301 87.8828 34.1089C87.5938 33.7877 87.2529 33.5353 86.8602 33.3518C86.4675 33.1682 86.0414 33.0765 85.582 33.0765C85.3004 33.0765 85.0115 33.1262 84.7151 33.2256C84.4187 33.325 84.1445 33.4665 83.8926 33.65C83.6406 33.8336 83.4146 34.0477 83.2146 34.2924C83.0145 34.5372 82.8626 34.8048 82.7589 35.0955V37.9175C83.0256 38.6058 83.4331 39.1755 83.9815 39.6267C84.5298 40.0779 85.1226 40.3035 85.7598 40.3035ZM98.7176 42.2881C99.3993 42.7087 100.2 42.919 101.118 42.919C101.859 42.919 102.541 42.7584 103.164 42.4372C103.786 42.116 104.323 41.6725 104.775 41.1065C105.227 40.5406 105.579 39.8753 105.831 39.1105C106.083 38.3457 106.209 37.5274 106.209 36.6556C106.209 35.8143 106.072 35.0152 105.798 34.258C105.524 33.5009 105.146 32.8432 104.664 32.2849C104.182 31.7266 103.608 31.2831 102.941 30.9542C102.274 30.6254 101.548 30.461 100.763 30.461C99.8735 30.461 99.0881 30.6636 98.4064 31.0689C97.7247 31.4743 97.1689 32.0287 96.7392 32.7323V30.6674H94.1383V47.5765H97.1171V40.5789C97.5024 41.2977 98.0359 41.8675 98.7176 42.2881ZM100.118 40.3035C100.563 40.3035 100.974 40.2041 101.352 40.0053C101.73 39.8064 102.052 39.5388 102.319 39.2023C102.586 38.8658 102.793 38.4757 102.941 38.0322C103.089 37.5886 103.164 37.1297 103.164 36.6556C103.164 36.1508 103.082 35.6805 102.919 35.2446C102.756 34.8087 102.53 34.4301 102.241 34.1089C101.952 33.7877 101.611 33.5353 101.218 33.3518C100.826 33.1682 100.4 33.0765 99.9402 33.0765C99.6587 33.0765 99.3697 33.1262 99.0733 33.2256C98.7769 33.325 98.5027 33.4665 98.2508 33.65C97.9988 33.8336 97.7728 34.0477 97.5728 34.2924C97.3727 34.5372 97.2208 34.8048 97.1171 35.0955V37.9175C97.3838 38.6058 97.7914 39.1755 98.3397 39.6267C98.888 40.0779 99.4808 40.3035 100.118 40.3035ZM115.63 42.4372C116.564 42.7584 117.52 42.919 118.498 42.919C119.95 42.919 121.099 42.5787 121.943 41.8981C122.788 41.2174 123.21 40.2882 123.21 39.1105C123.21 38.6057 123.125 38.1737 122.955 37.8142C122.784 37.4548 122.518 37.1374 122.155 36.8621C121.791 36.5868 121.325 36.342 120.754 36.1279C120.183 35.9138 119.498 35.6996 118.698 35.4855C118.268 35.3784 117.909 35.2752 117.62 35.1758C117.331 35.0763 117.097 34.9731 116.919 34.866C116.742 34.759 116.612 34.6366 116.53 34.4989C116.449 34.3613 116.408 34.1854 116.408 33.9712C116.408 33.4971 116.579 33.1529 116.919 32.9388C117.26 32.7247 117.683 32.6176 118.187 32.6176C118.735 32.6176 119.287 32.7247 119.843 32.9388C120.398 33.1529 120.973 33.4894 121.565 33.9483L122.766 32.0899C122.129 31.5087 121.428 31.0881 120.665 30.828C119.902 30.568 119.083 30.438 118.209 30.438C117.557 30.438 116.953 30.5298 116.397 30.7133C115.841 30.8969 115.356 31.1607 114.941 31.5049C114.526 31.849 114.204 32.2658 113.974 32.7553C113.744 33.2447 113.629 33.7953 113.629 34.4072C113.629 34.866 113.704 35.2599 113.852 35.5887C114 35.9176 114.237 36.2082 114.563 36.4606C114.889 36.7129 115.319 36.9385 115.852 37.1374C116.386 37.3362 117.031 37.5427 117.786 37.7569C118.69 38.0169 119.342 38.2463 119.743 38.4451C120.143 38.644 120.343 38.9575 120.343 39.3858C120.343 39.8141 120.172 40.1429 119.832 40.3724C119.491 40.6018 119.024 40.7165 118.431 40.7165C117.764 40.7165 117.094 40.5827 116.419 40.315C115.745 40.0473 115.052 39.6535 114.341 39.1334L113.229 41.0607C113.896 41.6572 114.696 42.116 115.63 42.4372ZM132.389 42.0702C131.989 42.2537 131.5 42.4372 130.922 42.6208C130.344 42.8043 129.736 42.8961 129.099 42.8961C128.684 42.8961 128.295 42.8426 127.932 42.7355C127.569 42.6284 127.25 42.4564 126.976 42.2193C126.702 41.9822 126.483 41.6763 126.32 41.3016C126.157 40.9268 126.076 40.4718 126.076 39.9364V33.0306H124.542V30.6674H126.076V26.7671H129.055V30.6674H131.5V33.0306H129.055V38.904C129.055 39.3323 129.162 39.6344 129.377 39.8103C129.592 39.9862 129.855 40.0741 130.166 40.0741C130.477 40.0741 130.781 40.0206 131.078 39.9135C131.374 39.8064 131.611 39.7147 131.789 39.6382L132.389 42.0702ZM136.744 42.4143C137.5 42.7508 138.352 42.919 139.3 42.919C140.249 42.919 141.101 42.7508 141.857 42.4143C142.613 42.0778 143.25 41.6228 143.769 41.0492C144.287 40.4756 144.687 39.8141 144.969 39.0646C145.251 38.3151 145.391 37.5274 145.391 36.7015C145.391 35.8602 145.251 35.0649 144.969 34.3154C144.687 33.5659 144.284 32.9044 143.757 32.3308C143.231 31.7572 142.594 31.3022 141.846 30.9657C141.097 30.6292 140.249 30.461 139.3 30.461C138.352 30.461 137.5 30.6292 136.744 30.9657C135.988 31.3022 135.347 31.7572 134.821 32.3308C134.295 32.9044 133.891 33.5659 133.61 34.3154C133.328 35.0649 133.187 35.8602 133.187 36.7015C133.187 37.5274 133.328 38.3151 133.61 39.0646C133.891 39.8141 134.295 40.4756 134.821 41.0492C135.347 41.6228 135.988 42.0778 136.744 42.4143ZM136.255 36.7015C136.255 37.2368 136.333 37.7224 136.488 38.1584C136.644 38.5943 136.859 38.9728 137.133 39.294C137.407 39.6152 137.73 39.8638 138.1 40.0397C138.471 40.2156 138.871 40.3035 139.3 40.3035C139.73 40.3035 140.13 40.2156 140.501 40.0397C140.871 39.8638 141.194 39.6152 141.468 39.294C141.742 38.9728 141.957 38.5905 142.112 38.1469C142.268 37.7033 142.346 37.2139 142.346 36.6785C142.346 36.1585 142.268 35.6767 142.112 35.2331C141.957 34.7895 141.742 34.4072 141.468 34.086C141.194 33.7648 140.871 33.5162 140.501 33.3403C140.13 33.1644 139.73 33.0765 139.3 33.0765C138.871 33.0765 138.471 33.1682 138.1 33.3518C137.73 33.5353 137.407 33.7877 137.133 34.1089C136.859 34.4301 136.644 34.8125 136.488 35.2561C136.333 35.6996 136.255 36.1814 136.255 36.7015ZM152.169 33.868C152.881 33.5239 153.688 33.3441 154.592 33.3288V30.5298C154.518 30.5145 154.44 30.5068 154.359 30.5068H153.992C153.681 30.5068 153.359 30.5718 153.025 30.7019C152.692 30.8319 152.362 31.0192 152.036 31.264C151.71 31.5087 151.406 31.7955 151.124 32.1243C150.843 32.4532 150.598 32.8241 150.391 33.2371V30.6674H147.657V42.6896H150.635V35.4167C150.947 34.7284 151.458 34.2121 152.169 33.868ZM161.348 42.919C160.414 42.919 159.57 42.7546 158.814 42.4258C158.058 42.0969 157.413 41.6495 156.88 41.0836C156.346 40.5177 155.935 39.86 155.646 39.1105C155.357 38.361 155.213 37.5733 155.213 36.7474C155.213 35.8908 155.353 35.084 155.635 34.3269C155.917 33.5697 156.324 32.9044 156.858 32.3308C157.391 31.7572 158.039 31.3022 158.803 30.9657C159.566 30.6292 160.422 30.461 161.37 30.461C162.319 30.461 163.167 30.6292 163.915 30.9657C164.664 31.3022 165.301 31.7534 165.827 32.3193C166.353 32.8853 166.753 33.543 167.028 34.2924C167.302 35.0419 167.439 35.822 167.439 36.6326C167.439 36.8315 167.435 37.0227 167.428 37.2062C167.42 37.3898 167.402 37.5427 167.372 37.6651H158.369C158.414 38.1392 158.525 38.5599 158.703 38.927C158.88 39.294 159.11 39.6076 159.392 39.8676C159.673 40.1276 159.992 40.3265 160.348 40.4641C160.703 40.6018 161.074 40.6706 161.459 40.6706C162.052 40.6706 162.611 40.5215 163.137 40.2232C163.664 39.925 164.023 39.5311 164.216 39.0417L166.772 39.7758C166.342 40.6936 165.657 41.4469 164.716 42.0357C163.775 42.6246 162.652 42.919 161.348 42.919ZM163.404 33.5009C163.975 34.0439 164.297 34.7666 164.371 35.669H158.325C158.354 35.2255 158.454 34.8201 158.625 34.453C158.795 34.086 159.014 33.7724 159.281 33.5124C159.547 33.2524 159.855 33.0497 160.203 32.9044C160.551 32.7591 160.926 32.6864 161.326 32.6864C162.141 32.6864 162.834 32.9579 163.404 33.5009Z" fill="#6E7883"/>
<path fill-rule="evenodd" clip-rule="evenodd" d="M44.5546 12.6365C44.5546 14.228 44.0181 15.7131 42.9452 17.0925C41.6306 18.747 40.1334 19.4899 38.4534 19.3206C38.4335 19.2137 38.4231 19.1133 38.4231 19.017V18.7155C38.4231 17.1876 38.9699 15.7564 40.062 14.4186C40.6092 13.7409 41.302 13.1779 42.1412 12.7315C42.9815 12.2868 43.7752 12.0424 44.5243 12C44.5442 12.1061 44.5546 12.2117 44.5546 12.3186V12.6365ZM50.0475 22.8207C47.8219 24.2634 46.7287 26.2789 46.7702 28.868C46.7905 30.8623 47.4685 32.5391 48.8023 33.8948C49.4089 34.5105 50.087 34.9899 50.8356 35.3285C50.7546 35.5835 50.6737 35.832 50.5931 36.076C50.5113 36.32 50.4204 36.5582 50.3203 36.7916C50.1057 37.348 49.8574 37.8902 49.5768 38.415C49.3153 38.9023 49.0369 39.38 48.7421 39.847C48.3882 40.3886 48.0186 40.9193 47.6337 41.4382C47.3002 41.8837 46.9911 42.2334 46.7091 42.4892C45.8987 43.2733 45.0292 43.6875 44.0983 43.7291C43.4713 43.7291 42.6613 43.5173 41.6705 43.0918C40.7791 42.6895 39.92 42.4888 39.0908 42.4888C38.2002 42.4888 37.3092 42.6907 36.4197 43.0918C35.4685 43.5173 34.7003 43.7397 34.114 43.7617C33.2023 43.805 32.3132 43.3798 31.4421 42.4892C30.8371 41.9156 30.1264 41.0033 29.3179 39.7512C28.4085 38.3734 27.6587 36.7716 27.072 34.9467C26.445 33.036 26.1323 31.127 26.1323 29.2176C26.1323 27.0965 26.5563 25.2715 27.407 23.7432C28.0743 22.5139 28.9641 21.5425 30.0769 20.8314C31.1893 20.1211 32.3938 19.7551 33.6884 19.7335C34.4574 19.7335 35.3887 19.9668 36.4804 20.4336C37.5744 20.9016 38.3127 21.1337 38.6971 21.1337C38.879 21.1337 39.699 20.8591 41.1556 20.3067C42.5097 19.7967 43.6229 19.5862 44.4936 19.6698C46.9413 19.9044 48.7923 20.9538 50.0475 22.8207Z" fill="#E99E24"/>
</svg>
