<svg width="192" height="60" viewBox="0 0 192 60" fill="none" xmlns="http://www.w3.org/2000/svg">
<rect x="0.932617" width="190.932" height="60" rx="30" fill="white"/>
<rect x="1.43262" y="0.5" width="189.932" height="59" rx="29.5" stroke="#777777" stroke-opacity="0.2"/>
<path fill-rule="evenodd" clip-rule="evenodd" d="M89.3229 15.6001H90.3681V21.1232C90.3681 21.3076 90.4156 21.4522 90.5106 21.5572C90.6056 21.6621 90.7386 21.7146 90.9097 21.7146C90.9794 21.7146 91.0601 21.7018 91.152 21.6764C91.2438 21.651 91.3309 21.6224 91.4133 21.5906L91.5653 22.4109C91.4133 22.4809 91.2327 22.5365 91.0237 22.5778C90.8147 22.6192 90.6278 22.6398 90.4631 22.6398C90.102 22.6398 89.8217 22.5413 89.6222 22.3441C89.4227 22.147 89.3229 21.8672 89.3229 21.5047V15.6001ZM64.5332 15.7909V22.5635H66.9276C67.428 22.5635 67.8809 22.4825 68.2863 22.3203C68.6917 22.1581 69.037 21.9292 69.322 21.6335C69.6071 21.3378 69.8272 20.9817 69.9824 20.5651C70.1376 20.1486 70.2152 19.6828 70.2152 19.1677C70.2152 18.7034 70.1455 18.2662 70.0061 17.8561C69.8668 17.4459 69.6593 17.0882 69.3838 16.7829C69.1082 16.4777 68.7662 16.236 68.3576 16.058C67.949 15.8799 67.4724 15.7909 66.9276 15.7909H64.5332ZM68.9847 18.1852C69.0829 18.484 69.132 18.8115 69.132 19.1677C69.132 19.5174 69.0845 19.8417 68.9895 20.1406C68.8944 20.4395 68.7535 20.6987 68.5666 20.9181C68.3798 21.1375 68.1486 21.3092 67.873 21.4332C67.5975 21.5572 67.2823 21.6192 66.9276 21.6192H65.5974V16.7352H66.9276C67.276 16.7352 67.5864 16.7956 67.8588 16.9165C68.1311 17.0373 68.3624 17.2042 68.5524 17.4173C68.7424 17.6303 68.8865 17.8863 68.9847 18.1852ZM73.1892 22.6589C72.7964 22.6589 72.4433 22.589 72.1297 22.4491C71.8162 22.3092 71.5486 22.1216 71.3269 21.8863C71.1052 21.651 70.9341 21.3759 70.8138 21.0611C70.6934 20.7464 70.6332 20.4173 70.6332 20.0739C70.6332 19.7305 70.6934 19.4014 70.8138 19.0866C70.9341 18.7718 71.1067 18.4968 71.3316 18.2615C71.5565 18.0262 71.8257 17.8386 72.1392 17.6987C72.4528 17.5588 72.8028 17.4888 73.1892 17.4888C73.5756 17.4888 73.9255 17.5588 74.2391 17.6987C74.5527 17.8386 74.8219 18.0262 75.0467 18.2615C75.2716 18.4968 75.4442 18.7718 75.5646 19.0866C75.6849 19.4014 75.7451 19.7305 75.7451 20.0739C75.7451 20.4173 75.6849 20.7464 75.5646 21.0611C75.4442 21.3759 75.2716 21.651 75.0467 21.8863C74.8219 22.1216 74.5527 22.3092 74.2391 22.4491C73.9255 22.589 73.5756 22.6589 73.1892 22.6589ZM71.8209 20.7511C71.7449 20.5476 71.7069 20.3251 71.7069 20.0834C71.7069 19.8481 71.7465 19.6271 71.8257 19.4204C71.9049 19.2138 72.011 19.0341 72.144 18.8815C72.277 18.7289 72.4338 18.608 72.6143 18.519C72.7949 18.43 72.9865 18.3855 73.1892 18.3855C73.3982 18.3855 73.593 18.4284 73.7735 18.5142C73.9541 18.6001 74.1108 18.7193 74.2439 18.872C74.3769 19.0246 74.4814 19.2042 74.5574 19.4109C74.6334 19.6176 74.6714 19.8386 74.6714 20.0739C74.6714 20.3155 74.6334 20.5381 74.5574 20.7416C74.4814 20.9451 74.3769 21.1231 74.2439 21.2758C74.1108 21.4284 73.9541 21.5476 73.7735 21.6335C73.593 21.7193 73.3982 21.7623 73.1892 21.7623C72.9801 21.7623 72.7854 21.7193 72.6048 21.6335C72.4243 21.5476 72.2675 21.43 72.1345 21.2805C72.0015 21.1311 71.897 20.9546 71.8209 20.7511ZM82.4437 17.5747H83.4414L81.3511 22.5635H80.4864L79.5648 20.2456L78.6431 22.5635H77.7785L75.6786 17.5747H76.6763L78.282 21.5524L79.0042 19.7018L78.1395 17.5842H78.9947L79.5648 19.1486L80.1253 17.5842H80.9805L80.1253 19.7018L80.8475 21.5524L82.4437 17.5747ZM87.2991 22.5635H88.3442V19.5206C88.3442 19.2472 88.3221 18.988 88.2777 18.7432C88.2334 18.4983 88.1558 18.2821 88.0449 18.0945C87.9341 17.9069 87.7836 17.7591 87.5936 17.651C87.4036 17.5429 87.1597 17.4888 86.862 17.4888C86.4249 17.4888 86.0259 17.5858 85.6648 17.7797C85.3037 17.9737 85.0282 18.2392 84.8381 18.5763V17.5747H83.888V22.5635H84.9332V19.5969C84.9902 19.4252 85.0709 19.2678 85.1755 19.1247C85.28 18.9817 85.3987 18.8577 85.5318 18.7527C85.6648 18.6478 85.8073 18.5667 85.9593 18.5095C86.1114 18.4522 86.2634 18.4236 86.4154 18.4236C86.7068 18.4236 86.9269 18.5301 87.0758 18.7432C87.2246 18.9562 87.2991 19.298 87.2991 19.7686V22.5635ZM93.0998 22.4491C93.4134 22.589 93.7665 22.6589 94.1592 22.6589C94.5456 22.6589 94.8956 22.589 95.2092 22.4491C95.5227 22.3092 95.7919 22.1216 96.0168 21.8863C96.2417 21.651 96.4143 21.3759 96.5346 21.0611C96.655 20.7464 96.7152 20.4173 96.7152 20.0739C96.7152 19.7305 96.655 19.4014 96.5346 19.0866C96.4143 18.7718 96.2417 18.4968 96.0168 18.2615C95.7919 18.0262 95.5227 17.8386 95.2092 17.6987C94.8956 17.5588 94.5456 17.4888 94.1592 17.4888C93.7728 17.4888 93.4229 17.5588 93.1093 17.6987C92.7957 17.8386 92.5265 18.0262 92.3017 18.2615C92.0768 18.4968 91.9042 18.7718 91.7838 19.0866C91.6635 19.4014 91.6033 19.7305 91.6033 20.0739C91.6033 20.4173 91.6635 20.7464 91.7838 21.0611C91.9042 21.3759 92.0752 21.651 92.2969 21.8863C92.5186 22.1216 92.7862 22.3092 93.0998 22.4491ZM92.677 20.0834C92.677 20.3251 92.715 20.5476 92.791 20.7511C92.867 20.9546 92.9715 21.1311 93.1046 21.2805C93.2376 21.43 93.3944 21.5476 93.5749 21.6335C93.7554 21.7193 93.9502 21.7623 94.1592 21.7623C94.3683 21.7623 94.563 21.7193 94.7436 21.6335C94.9241 21.5476 95.0809 21.4284 95.2139 21.2758C95.3469 21.1231 95.4515 20.9451 95.5275 20.7416C95.6035 20.5381 95.6415 20.3155 95.6415 20.0739C95.6415 19.8386 95.6035 19.6176 95.5275 19.4109C95.4515 19.2042 95.3469 19.0246 95.2139 18.872C95.0809 18.7193 94.9241 18.6001 94.7436 18.5142C94.563 18.4284 94.3683 18.3855 94.1592 18.3855C93.9565 18.3855 93.7649 18.43 93.5844 18.519C93.4039 18.608 93.2471 18.7289 93.1141 18.8815C92.981 19.0341 92.8749 19.2138 92.7957 19.4204C92.7166 19.6271 92.677 19.8481 92.677 20.0834ZM98.0501 22.5397C98.256 22.6192 98.4793 22.6589 98.72 22.6589C99.0937 22.6589 99.4437 22.581 99.7699 22.4252C100.096 22.2694 100.37 22.0452 100.592 21.7527L100.62 22.0675C100.646 22.2265 100.714 22.3569 100.825 22.4586C100.935 22.5604 101.092 22.6112 101.295 22.6112C101.365 22.6112 101.436 22.608 101.509 22.6017C101.582 22.5953 101.669 22.5826 101.77 22.5635V21.6669C101.586 21.6605 101.494 21.546 101.494 21.3235V19.5206C101.494 18.8656 101.304 18.3632 100.924 18.0135C100.544 17.6637 100.012 17.4888 99.3281 17.4888C98.6377 17.4888 97.9725 17.705 97.3328 18.1375L97.6558 18.8052C97.9282 18.6208 98.1927 18.4793 98.4492 18.3807C98.7058 18.2821 98.967 18.2328 99.2331 18.2328C99.6258 18.2328 99.9267 18.3362 100.136 18.5429C100.345 18.7495 100.449 19.0373 100.449 19.4061V19.7495C100.266 19.6796 100.06 19.6239 99.8317 19.5826C99.6037 19.5413 99.3725 19.5206 99.1381 19.5206C98.8277 19.5206 98.5442 19.5588 98.2877 19.6351C98.0311 19.7114 97.8094 19.8195 97.6226 19.9594C97.4357 20.0993 97.2916 20.2646 97.1902 20.4554C97.0889 20.6462 97.0382 20.8592 97.0382 21.0945C97.0382 21.3171 97.081 21.5238 97.1665 21.7146C97.252 21.9053 97.3692 22.0707 97.5181 22.2106C97.6669 22.3505 97.8443 22.4602 98.0501 22.5397ZM99.0051 21.8863C99.2584 21.8863 99.4976 21.8402 99.7224 21.748C99.9473 21.6557 100.123 21.527 100.25 21.3616C100.383 21.2472 100.449 21.1263 100.449 20.9991V20.341C100.272 20.271 100.083 20.2169 99.884 20.1788C99.6844 20.1406 99.4896 20.1216 99.2996 20.1216C98.9259 20.1216 98.6202 20.2026 98.3827 20.3648C98.1452 20.527 98.0264 20.7416 98.0264 21.0087C98.0264 21.2567 98.1182 21.465 98.3019 21.6335C98.4856 21.802 98.72 21.8863 99.0051 21.8863ZM103.604 22.4538C103.889 22.5906 104.199 22.6589 104.535 22.6589C104.921 22.6589 105.273 22.5699 105.59 22.3918C105.906 22.2138 106.157 21.9689 106.34 21.6573L106.359 22.0294C106.372 22.2011 106.445 22.341 106.578 22.4491C106.711 22.5572 106.882 22.6112 107.091 22.6112C107.135 22.6112 107.191 22.608 107.257 22.6017C107.324 22.5953 107.411 22.5826 107.518 22.5635V21.6669C107.411 21.6605 107.336 21.6319 107.295 21.581C107.254 21.5301 107.233 21.4443 107.233 21.3235V15.6001H106.188V18.519C106.017 18.2201 105.78 17.9737 105.476 17.7797C105.172 17.5858 104.82 17.4888 104.421 17.4888C104.098 17.4888 103.802 17.5572 103.533 17.6939C103.263 17.8306 103.029 18.0166 102.829 18.2519C102.63 18.4872 102.475 18.7591 102.364 19.0675C102.253 19.3759 102.198 19.705 102.198 20.0548C102.198 20.4173 102.256 20.7559 102.373 21.0707C102.491 21.3855 102.654 21.6605 102.863 21.8958C103.072 22.1311 103.319 22.3171 103.604 22.4538ZM104.792 21.7623C104.944 21.7623 105.096 21.7368 105.248 21.6859C105.4 21.6351 105.539 21.5651 105.666 21.4761C105.792 21.3871 105.902 21.2821 105.993 21.1613C106.085 21.0405 106.15 20.9101 106.188 20.7702V19.4634C106.131 19.3044 106.051 19.1581 105.946 19.0246C105.841 18.891 105.723 18.7766 105.59 18.6812C105.457 18.5858 105.316 18.5127 105.167 18.4618C105.018 18.4109 104.868 18.3855 104.716 18.3855C104.506 18.3855 104.315 18.4332 104.141 18.5286C103.966 18.6239 103.816 18.7511 103.689 18.9101C103.563 19.0691 103.463 19.2503 103.39 19.4538C103.317 19.6573 103.281 19.8672 103.281 20.0834C103.281 20.3123 103.32 20.5286 103.4 20.7321C103.479 20.9356 103.588 21.1136 103.727 21.2662C103.867 21.4189 104.027 21.5397 104.207 21.6287C104.388 21.7177 104.583 21.7623 104.792 21.7623ZM111.59 22.4491C111.903 22.589 112.257 22.6589 112.649 22.6589C113.036 22.6589 113.386 22.589 113.699 22.4491C114.013 22.3092 114.282 22.1216 114.507 21.8863C114.732 21.651 114.904 21.3759 115.025 21.0611C115.145 20.7464 115.205 20.4173 115.205 20.0739C115.205 19.7305 115.145 19.4014 115.025 19.0866C114.904 18.7718 114.732 18.4968 114.507 18.2615C114.282 18.0262 114.013 17.8386 113.699 17.6987C113.386 17.5588 113.036 17.4888 112.649 17.4888C112.263 17.4888 111.913 17.5588 111.599 17.6987C111.286 17.8386 111.017 18.0262 110.792 18.2615C110.567 18.4968 110.394 18.7718 110.274 19.0866C110.154 19.4014 110.093 19.7305 110.093 20.0739C110.093 20.4173 110.154 20.7464 110.274 21.0611C110.394 21.3759 110.565 21.651 110.787 21.8863C111.009 22.1216 111.276 22.3092 111.59 22.4491ZM111.167 20.0834C111.167 20.3251 111.205 20.5476 111.281 20.7511C111.357 20.9546 111.462 21.1311 111.595 21.2805C111.728 21.43 111.884 21.5476 112.065 21.6335C112.246 21.7193 112.44 21.7623 112.649 21.7623C112.858 21.7623 113.053 21.7193 113.234 21.6335C113.414 21.5476 113.571 21.4284 113.704 21.2758C113.837 21.1231 113.942 20.9451 114.018 20.7416C114.094 20.5381 114.132 20.3155 114.132 20.0739C114.132 19.8386 114.094 19.6176 114.018 19.4109C113.942 19.2042 113.837 19.0246 113.704 18.872C113.571 18.7193 113.414 18.6001 113.234 18.5142C113.053 18.4284 112.858 18.3855 112.649 18.3855C112.447 18.3855 112.255 18.43 112.075 18.519C111.894 18.608 111.737 18.7289 111.604 18.8815C111.471 19.0341 111.365 19.2138 111.286 19.4204C111.207 19.6271 111.167 19.8481 111.167 20.0834ZM119.3 22.5635H120.346V19.5206C120.346 19.2472 120.324 18.988 120.279 18.7432C120.235 18.4983 120.157 18.2821 120.046 18.0945C119.936 17.9069 119.785 17.7591 119.595 17.651C119.405 17.5429 119.161 17.4888 118.863 17.4888C118.426 17.4888 118.027 17.5858 117.666 17.7797C117.305 17.9737 117.03 18.2392 116.84 18.5763V17.5747H115.889V22.5635H116.935V19.5969C116.992 19.4252 117.072 19.2678 117.177 19.1247C117.281 18.9817 117.4 18.8577 117.533 18.7527C117.666 18.6478 117.809 18.5667 117.961 18.5095C118.113 18.4522 118.265 18.4236 118.417 18.4236C118.708 18.4236 118.928 18.5301 119.077 18.7432C119.226 18.9562 119.3 19.298 119.3 19.7686V22.5635ZM126.18 22.306C126.047 22.3696 125.863 22.4411 125.629 22.5206C125.394 22.6001 125.144 22.6398 124.878 22.6398C124.713 22.6398 124.558 22.6176 124.412 22.5731C124.267 22.5286 124.138 22.4618 124.028 22.3728C123.917 22.2837 123.83 22.1677 123.766 22.0246C123.703 21.8815 123.671 21.7082 123.671 21.5047V18.3855H123.016V17.5747H123.671V15.934H124.716V17.5747H125.8V18.3855H124.716V21.1708C124.729 21.3489 124.785 21.4777 124.883 21.5572C124.981 21.6367 125.103 21.6764 125.249 21.6764C125.394 21.6764 125.534 21.651 125.667 21.6001C125.8 21.5492 125.898 21.5079 125.961 21.4761L126.18 22.306ZM130.066 22.5635H131.111V19.5206C131.111 19.2472 131.087 18.988 131.04 18.7432C130.992 18.4983 130.908 18.2837 130.788 18.0993C130.668 17.9149 130.508 17.767 130.308 17.6557C130.109 17.5445 129.854 17.4888 129.543 17.4888C129.157 17.4888 128.801 17.5842 128.474 17.775C128.148 17.9658 127.89 18.2328 127.7 18.5763V15.6001H126.655V22.5635H127.7V19.5969C127.751 19.4252 127.827 19.2678 127.928 19.1247C128.029 18.9817 128.145 18.8576 128.275 18.7527C128.405 18.6478 128.542 18.5667 128.688 18.5095C128.834 18.4522 128.979 18.4236 129.125 18.4236C129.429 18.4236 129.662 18.5333 129.824 18.7527C129.985 18.9721 130.066 19.3107 130.066 19.7686V22.5635ZM134.332 22.6589C133.946 22.6589 133.594 22.5906 133.277 22.4538C132.961 22.3171 132.69 22.1311 132.465 21.8958C132.24 21.6605 132.066 21.3871 131.942 21.0755C131.819 20.7638 131.757 20.4332 131.757 20.0834C131.757 19.7336 131.819 19.4014 131.942 19.0866C132.066 18.7718 132.24 18.4952 132.465 18.2567C132.69 18.0182 132.961 17.8306 133.277 17.6939C133.594 17.5572 133.949 17.4888 134.342 17.4888C134.728 17.4888 135.078 17.5588 135.391 17.6987C135.705 17.8386 135.973 18.0246 136.194 18.2567C136.416 18.4888 136.586 18.7591 136.703 19.0675C136.82 19.3759 136.878 19.6987 136.878 20.0357C136.878 20.112 136.875 20.1836 136.869 20.2503C136.863 20.3171 136.856 20.3728 136.85 20.4173H132.869C132.888 20.6398 132.94 20.8402 133.026 21.0182C133.111 21.1963 133.222 21.3505 133.358 21.4809C133.494 21.6112 133.65 21.7114 133.824 21.7813C133.998 21.8513 134.18 21.8863 134.37 21.8863C134.509 21.8863 134.647 21.8688 134.783 21.8338C134.92 21.7988 135.045 21.748 135.159 21.6812C135.273 21.6144 135.374 21.5333 135.463 21.4379C135.551 21.3425 135.621 21.2376 135.672 21.1232L136.565 21.3807C136.394 21.7559 136.11 22.0627 135.715 22.3012C135.319 22.5397 134.858 22.6589 134.332 22.6589ZM135.686 19.1104C135.772 19.2885 135.824 19.4824 135.843 19.6923H132.84C132.859 19.4824 132.91 19.2885 132.992 19.1104C133.075 18.9324 133.182 18.7813 133.315 18.6573C133.448 18.5333 133.602 18.4363 133.776 18.3664C133.95 18.2964 134.136 18.2615 134.332 18.2615C134.528 18.2615 134.715 18.2964 134.893 18.3664C135.07 18.4363 135.225 18.5333 135.358 18.6573C135.491 18.7813 135.601 18.9324 135.686 19.1104Z" fill="black"/>
<path fill-rule="evenodd" clip-rule="evenodd" d="M69.3572 26.3999H72.0693L78.0712 42.6895H74.9146L73.4475 38.6286H67.9345L66.4896 42.6895H63.333L69.3572 26.3999ZM72.8917 36.4031L70.7132 30.002L68.4458 36.4031H72.8917ZM84.3601 42.288C85.0418 42.7086 85.8421 42.9189 86.7609 42.9189C87.5019 42.9189 88.1836 42.7583 88.806 42.4371C89.4285 42.1159 89.9657 41.6724 90.4177 41.1064C90.8697 40.5405 91.2217 39.8751 91.4736 39.1104C91.7255 38.3456 91.8515 37.5273 91.8515 36.6555C91.8515 35.8142 91.7144 35.015 91.4402 34.2579C91.1661 33.5008 90.7882 32.8431 90.3065 32.2848C89.8249 31.7265 89.2506 31.283 88.5837 30.9541C87.9169 30.6253 87.1907 30.4608 86.4052 30.4608C85.5161 30.4608 84.7306 30.6635 84.0489 31.0688C83.3672 31.4742 82.8115 32.0286 82.3817 32.7322V30.6673H79.7808V47.5764H82.7596V40.5787C83.1449 41.2976 83.6784 41.8674 84.3601 42.288ZM85.7606 40.3034C86.2052 40.3034 86.6164 40.204 86.9943 40.0052C87.3722 39.8063 87.6946 39.5386 87.9613 39.2021C88.2281 38.8656 88.4355 38.4756 88.5837 38.032C88.7319 37.5885 88.806 37.1296 88.806 36.6555C88.806 36.1507 88.7245 35.6804 88.5615 35.2445C88.3985 34.8085 88.1725 34.43 87.8835 34.1088C87.5945 33.7876 87.2537 33.5352 86.8609 33.3517C86.4682 33.1681 86.0422 33.0763 85.5827 33.0763C85.3012 33.0763 85.0122 33.1261 84.7158 33.2255C84.4194 33.3249 84.1452 33.4664 83.8933 33.6499C83.6414 33.8335 83.4154 34.0476 83.2153 34.2923C83.0152 34.5371 82.8633 34.8047 82.7596 35.0953V37.9173C83.0263 38.6056 83.4339 39.1754 83.9822 39.6266C84.5305 40.0778 85.1233 40.3034 85.7606 40.3034ZM98.7183 42.288C99.4 42.7086 100.2 42.9189 101.119 42.9189C101.86 42.9189 102.542 42.7583 103.164 42.4371C103.787 42.1159 104.324 41.6724 104.776 41.1064C105.228 40.5405 105.58 39.8751 105.832 39.1104C106.084 38.3456 106.21 37.5273 106.21 36.6555C106.21 35.8142 106.073 35.015 105.798 34.2579C105.524 33.5008 105.146 32.8431 104.665 32.2848C104.183 31.7265 103.609 31.283 102.942 30.9541C102.275 30.6253 101.549 30.4608 100.763 30.4608C99.8743 30.4608 99.0888 30.6635 98.4071 31.0688C97.7254 31.4742 97.1697 32.0286 96.7399 32.7322V30.6673H94.139V47.5764H97.1178V40.5787C97.5031 41.2976 98.0366 41.8674 98.7183 42.288ZM100.119 40.3034C100.563 40.3034 100.975 40.204 101.353 40.0052C101.73 39.8063 102.053 39.5386 102.32 39.2021C102.586 38.8656 102.794 38.4756 102.942 38.032C103.09 37.5885 103.164 37.1296 103.164 36.6555C103.164 36.1507 103.083 35.6804 102.92 35.2445C102.757 34.8085 102.531 34.43 102.242 34.1088C101.953 33.7876 101.612 33.5352 101.219 33.3517C100.826 33.1681 100.4 33.0763 99.941 33.0763C99.6594 33.0763 99.3704 33.1261 99.074 33.2255C98.7776 33.3249 98.5034 33.4664 98.2515 33.6499C97.9996 33.8335 97.7736 34.0476 97.5735 34.2923C97.3734 34.5371 97.2215 34.8047 97.1178 35.0953V37.9173C97.3846 38.6056 97.7921 39.1754 98.3404 39.6266C98.8888 40.0778 99.4815 40.3034 100.119 40.3034ZM115.631 42.4371C116.564 42.7583 117.52 42.9189 118.498 42.9189C119.951 42.9189 121.099 42.5786 121.944 41.898C122.789 41.2173 123.211 40.2881 123.211 39.1104C123.211 38.6056 123.126 38.1735 122.956 37.8141C122.785 37.4546 122.518 37.1373 122.155 36.8619C121.792 36.5866 121.325 36.3419 120.755 36.1278C120.184 35.9136 119.499 35.6995 118.699 35.4854C118.269 35.3783 117.909 35.2751 117.62 35.1756C117.331 35.0762 117.098 34.973 116.92 34.8659C116.742 34.7588 116.613 34.6365 116.531 34.4988C116.45 34.3612 116.409 34.1853 116.409 33.9711C116.409 33.497 116.579 33.1528 116.92 32.9387C117.261 32.7245 117.683 32.6175 118.187 32.6175C118.736 32.6175 119.288 32.7245 119.843 32.9387C120.399 33.1528 120.973 33.4893 121.566 33.9482L122.767 32.0898C122.129 31.5086 121.429 31.0879 120.666 30.8279C119.903 30.5679 119.084 30.4379 118.209 30.4379C117.557 30.4379 116.954 30.5297 116.398 30.7132C115.842 30.8967 115.357 31.1606 114.942 31.5047C114.527 31.8489 114.204 32.2657 113.975 32.7551C113.745 33.2446 113.63 33.7952 113.63 34.407C113.63 34.8659 113.704 35.2598 113.852 35.5886C114.001 35.9175 114.238 36.2081 114.564 36.4604C114.89 36.7128 115.32 36.9384 115.853 37.1373C116.387 37.3361 117.031 37.5426 117.787 37.7567C118.691 38.0168 119.343 38.2462 119.743 38.445C120.143 38.6439 120.344 38.9574 120.344 39.3857C120.344 39.814 120.173 40.1428 119.832 40.3722C119.491 40.6017 119.025 40.7164 118.432 40.7164C117.765 40.7164 117.094 40.5826 116.42 40.3149C115.746 40.0472 115.053 39.6534 114.342 39.1333L113.23 41.0605C113.897 41.6571 114.697 42.1159 115.631 42.4371ZM132.39 42.07C131.99 42.2536 131.501 42.4371 130.923 42.6207C130.345 42.8042 129.737 42.896 129.1 42.896C128.685 42.896 128.296 42.8424 127.933 42.7354C127.57 42.6283 127.251 42.4562 126.977 42.2192C126.703 41.9821 126.484 41.6762 126.321 41.3014C126.158 40.9267 126.077 40.4717 126.077 39.9363V33.0305H124.543V30.6673H126.077V26.767H129.055V30.6673H131.501V33.0305H129.055V38.9039C129.055 39.3322 129.163 39.6342 129.378 39.8101C129.593 39.986 129.856 40.074 130.167 40.074C130.478 40.074 130.782 40.0204 131.078 39.9134C131.375 39.8063 131.612 39.7145 131.79 39.6381L132.39 42.07ZM136.745 42.4142C137.501 42.7507 138.353 42.9189 139.301 42.9189C140.25 42.9189 141.102 42.7507 141.858 42.4142C142.613 42.0777 143.251 41.6226 143.769 41.0491C144.288 40.4755 144.688 39.814 144.97 39.0645C145.251 38.315 145.392 37.5273 145.392 36.7013C145.392 35.8601 145.251 35.0647 144.97 34.3153C144.688 33.5658 144.284 32.9043 143.758 32.3307C143.232 31.7571 142.595 31.3021 141.846 30.9656C141.098 30.6291 140.25 30.4608 139.301 30.4608C138.353 30.4608 137.501 30.6291 136.745 30.9656C135.989 31.3021 135.348 31.7571 134.822 32.3307C134.296 32.9043 133.892 33.5658 133.61 34.3153C133.329 35.0647 133.188 35.8601 133.188 36.7013C133.188 37.5273 133.329 38.315 133.61 39.0645C133.892 39.814 134.296 40.4755 134.822 41.0491C135.348 41.6226 135.989 42.0777 136.745 42.4142ZM136.256 36.7013C136.256 37.2367 136.334 37.7223 136.489 38.1582C136.645 38.5942 136.86 38.9727 137.134 39.2939C137.408 39.6151 137.73 39.8637 138.101 40.0396C138.471 40.2155 138.871 40.3034 139.301 40.3034C139.731 40.3034 140.131 40.2155 140.502 40.0396C140.872 39.8637 141.194 39.6151 141.469 39.2939C141.743 38.9727 141.958 38.5903 142.113 38.1468C142.269 37.7032 142.347 37.2137 142.347 36.6784C142.347 36.1584 142.269 35.6766 142.113 35.233C141.958 34.7894 141.743 34.407 141.469 34.0858C141.194 33.7646 140.872 33.5161 140.502 33.3402C140.131 33.1643 139.731 33.0763 139.301 33.0763C138.871 33.0763 138.471 33.1681 138.101 33.3517C137.73 33.5352 137.408 33.7876 137.134 34.1088C136.86 34.43 136.645 34.8124 136.489 35.2559C136.334 35.6995 136.256 36.1813 136.256 36.7013ZM152.17 33.8679C152.881 33.5237 153.689 33.344 154.593 33.3287V30.5297C154.519 30.5144 154.441 30.5067 154.36 30.5067H153.993C153.682 30.5067 153.359 30.5717 153.026 30.7017C152.692 30.8317 152.363 31.0191 152.037 31.2638C151.711 31.5086 151.407 31.7954 151.125 32.1242C150.844 32.4531 150.599 32.824 150.392 33.2369V30.6673H147.657V42.6895H150.636V35.4165C150.947 34.7282 151.459 34.212 152.17 33.8679ZM161.349 42.9189C160.415 42.9189 159.57 42.7545 158.815 42.4256C158.059 42.0968 157.414 41.6494 156.881 41.0835C156.347 40.5175 155.936 39.8599 155.647 39.1104C155.358 38.3609 155.213 37.5732 155.213 36.7472C155.213 35.8907 155.354 35.0839 155.636 34.3267C155.917 33.5696 156.325 32.9043 156.858 32.3307C157.392 31.7571 158.04 31.3021 158.803 30.9656C159.567 30.6291 160.422 30.4608 161.371 30.4608C162.319 30.4608 163.168 30.6291 163.916 30.9656C164.665 31.3021 165.302 31.7533 165.828 32.3192C166.354 32.8852 166.754 33.5428 167.028 34.2923C167.303 35.0418 167.44 35.8219 167.44 36.6325C167.44 36.8314 167.436 37.0226 167.429 37.2061C167.421 37.3896 167.403 37.5426 167.373 37.665H158.37C158.414 38.1391 158.526 38.5597 158.703 38.9268C158.881 39.2939 159.111 39.6075 159.393 39.8675C159.674 40.1275 159.993 40.3264 160.348 40.464C160.704 40.6017 161.075 40.6705 161.46 40.6705C162.053 40.6705 162.612 40.5214 163.138 40.2231C163.664 39.9249 164.024 39.531 164.216 39.0415L166.773 39.7757C166.343 40.6935 165.658 41.4467 164.716 42.0356C163.775 42.6245 162.653 42.9189 161.349 42.9189ZM163.405 33.5008C163.976 34.0438 164.298 34.7665 164.372 35.6689H158.325C158.355 35.2253 158.455 34.82 158.626 34.4529C158.796 34.0858 159.015 33.7723 159.281 33.5123C159.548 33.2522 159.856 33.0496 160.204 32.9043C160.552 32.759 160.926 32.6863 161.326 32.6863C162.142 32.6863 162.834 32.9578 163.405 33.5008Z" fill="black"/>
<path fill-rule="evenodd" clip-rule="evenodd" d="M44.5551 12.6365C44.5551 14.228 44.0186 15.7131 42.9457 17.0925C41.6311 18.747 40.1339 19.4899 38.4539 19.3206C38.434 19.2137 38.4236 19.1133 38.4236 19.017V18.7155C38.4236 17.1876 38.9704 15.7564 40.0625 14.4186C40.6097 13.7409 41.3025 13.1779 42.1417 12.7315C42.982 12.2868 43.7757 12.0424 44.5248 12C44.5447 12.1061 44.5551 12.2117 44.5551 12.3186V12.6365ZM50.048 22.8207C47.8224 24.2634 46.7292 26.2789 46.7707 28.868C46.791 30.8623 47.469 32.5391 48.8028 33.8948C49.4094 34.5105 50.0874 34.9899 50.8361 35.3285C50.7551 35.5835 50.6741 35.832 50.5936 36.076C50.5118 36.32 50.4209 36.5582 50.3208 36.7916C50.1062 37.348 49.8579 37.8902 49.5773 38.415C49.3158 38.9023 49.0374 39.38 48.7425 39.847C48.3887 40.3886 48.0191 40.9193 47.6341 41.4382C47.3007 41.8837 46.9916 42.2334 46.7096 42.4892C45.8992 43.2733 45.0297 43.6875 44.0988 43.7291C43.4718 43.7291 42.6617 43.5173 41.671 43.0918C40.7796 42.6895 39.9205 42.4888 39.0913 42.4888C38.2007 42.4888 37.3096 42.6907 36.4202 43.0918C35.469 43.5173 34.7008 43.7397 34.1145 43.7617C33.2027 43.805 32.3137 43.3798 31.4426 42.4892C30.8376 41.9156 30.1268 41.0033 29.3184 39.7512C28.409 38.3734 27.6592 36.7716 27.0725 34.9467C26.4455 33.036 26.1328 31.127 26.1328 29.2176C26.1328 27.0965 26.5568 25.2715 27.4075 23.7432C28.0748 22.5139 28.9646 21.5425 30.0774 20.8314C31.1898 20.1211 32.3943 19.7551 33.6889 19.7335C34.4579 19.7335 35.3892 19.9668 36.4808 20.4336C37.5749 20.9016 38.3131 21.1337 38.6976 21.1337C38.8795 21.1337 39.6995 20.8591 41.1561 20.3067C42.5102 19.7967 43.6234 19.5862 44.494 19.6698C46.9418 19.9044 48.7928 20.9538 50.048 22.8207Z" fill="#C92135"/>
</svg>
