<svg width="129" height="41" viewBox="0 0 129 41" fill="none" xmlns="http://www.w3.org/2000/svg">
<rect x="0.912109" y="0.722168" width="127.288" height="40" rx="20" fill="#F9F9F9"/>
<rect x="1.41211" y="1.22217" width="126.288" height="39" rx="19.5" stroke="#777777" stroke-opacity="0.2"/>
<path fill-rule="evenodd" clip-rule="evenodd" d="M59.838 11.1221H60.5348V14.8041C60.5348 14.9271 60.5665 15.0235 60.6298 15.0935C60.6931 15.1634 60.7818 15.1984 60.8958 15.1984C60.9423 15.1984 60.9961 15.1899 61.0574 15.1729C61.1186 15.156 61.1767 15.1369 61.2316 15.1157L61.3329 15.6626C61.2316 15.7092 61.1112 15.7463 60.9719 15.7739C60.8325 15.8015 60.7079 15.8152 60.5981 15.8152C60.3574 15.8152 60.1706 15.7495 60.0375 15.6181C59.9045 15.4867 59.838 15.3001 59.838 15.0585V11.1221ZM43.3115 11.2493V15.7644H44.9078C45.2414 15.7644 45.5433 15.7103 45.8136 15.6022C46.0839 15.4941 46.314 15.3415 46.5041 15.1443C46.6941 14.9472 46.8408 14.7098 46.9443 14.4321C47.0478 14.1544 47.0995 13.8439 47.0995 13.5004C47.0995 13.191 47.053 12.8995 46.9601 12.626C46.8672 12.3526 46.7289 12.1141 46.5452 11.9106C46.3615 11.7071 46.1335 11.546 45.8611 11.4273C45.5887 11.3086 45.271 11.2493 44.9078 11.2493H43.3115ZM46.2792 12.8454C46.3446 13.0447 46.3774 13.263 46.3774 13.5004C46.3774 13.7336 46.3457 13.9498 46.2824 14.1491C46.219 14.3484 46.1251 14.5211 46.0005 14.6674C45.8759 14.8136 45.7218 14.9281 45.5381 15.0108C45.3544 15.0935 45.1443 15.1348 44.9078 15.1348H44.021V11.8788H44.9078C45.1401 11.8788 45.347 11.9191 45.5286 11.9997C45.7102 12.0802 45.8643 12.1915 45.991 12.3335C46.1177 12.4755 46.2137 12.6462 46.2792 12.8454ZM49.0822 15.828C48.8203 15.828 48.5849 15.7813 48.3759 15.688C48.1668 15.5948 47.9884 15.4697 47.8406 15.3128C47.6928 15.156 47.5788 14.9726 47.4986 14.7628C47.4183 14.5529 47.3782 14.3335 47.3782 14.1046C47.3782 13.8756 47.4183 13.6563 47.4986 13.4464C47.5788 13.2365 47.6939 13.0532 47.8438 12.8963C47.9937 12.7395 48.1732 12.6144 48.3822 12.5211C48.5913 12.4278 48.8246 12.3812 49.0822 12.3812C49.3398 12.3812 49.5731 12.4278 49.7821 12.5211C49.9912 12.6144 50.1706 12.7395 50.3205 12.8963C50.4705 13.0532 50.5855 13.2365 50.6658 13.4464C50.746 13.6563 50.7861 13.8756 50.7861 14.1046C50.7861 14.3335 50.746 14.5529 50.6658 14.7628C50.5855 14.9726 50.4705 15.156 50.3205 15.3128C50.1706 15.4697 49.9912 15.5948 49.7821 15.688C49.5731 15.7813 49.3398 15.828 49.0822 15.828ZM48.17 14.5561C48.1193 14.4204 48.094 14.272 48.094 14.1109C48.094 13.9541 48.1204 13.8068 48.1732 13.669C48.226 13.5312 48.2967 13.4114 48.3854 13.3097C48.4741 13.2079 48.5786 13.1274 48.6989 13.068C48.8193 13.0087 48.947 12.979 49.0822 12.979C49.2215 12.979 49.3514 13.0076 49.4717 13.0648C49.5921 13.1221 49.6966 13.2016 49.7853 13.3033C49.874 13.4051 49.9436 13.5248 49.9943 13.6626C50.045 13.8004 50.0703 13.9477 50.0703 14.1046C50.0703 14.2657 50.045 14.4141 49.9943 14.5497C49.9436 14.6854 49.874 14.8041 49.7853 14.9059C49.6966 15.0076 49.5921 15.0871 49.4717 15.1443C49.3514 15.2016 49.2215 15.2302 49.0822 15.2302C48.9428 15.2302 48.813 15.2016 48.6926 15.1443C48.5722 15.0871 48.4677 15.0087 48.3791 14.909C48.2904 14.8094 48.2207 14.6918 48.17 14.5561ZM55.2519 12.4384H55.917L54.5234 15.7644H53.947L53.3326 14.219L52.7181 15.7644H52.1417L50.7418 12.4384H51.4069L52.4774 15.0903L52.9588 13.8566L52.3824 12.4448H52.9525L53.3326 13.4877L53.7063 12.4448H54.2764L53.7063 13.8566L54.1877 15.0903L55.2519 12.4384ZM58.4888 15.7644H59.1856V13.7357C59.1856 13.5534 59.1708 13.3807 59.1412 13.2175C59.1116 13.0542 59.0599 12.9101 58.986 12.785C58.9121 12.66 58.8118 12.5614 58.6851 12.4893C58.5584 12.4172 58.3959 12.3812 58.1974 12.3812C57.906 12.3812 57.64 12.4459 57.3992 12.5752C57.1585 12.7045 56.9748 12.8815 56.8482 13.1062V12.4384H56.2147V15.7644H56.9115V13.7866C56.9495 13.6721 57.0033 13.5672 57.073 13.4718C57.1427 13.3764 57.2219 13.2938 57.3106 13.2238C57.3992 13.1539 57.4943 13.0998 57.5956 13.0617C57.697 13.0235 57.7983 13.0044 57.8997 13.0044C58.0939 13.0044 58.2407 13.0754 58.3399 13.2175C58.4391 13.3595 58.4888 13.5874 58.4888 13.9011V15.7644ZM62.3559 15.688C62.565 15.7813 62.8004 15.828 63.0622 15.828C63.3198 15.828 63.5531 15.7813 63.7622 15.688C63.9712 15.5948 64.1507 15.4697 64.3006 15.3128C64.4505 15.156 64.5656 14.9726 64.6458 14.7628C64.726 14.5529 64.7662 14.3335 64.7662 14.1046C64.7662 13.8756 64.726 13.6563 64.6458 13.4464C64.5656 13.2365 64.4505 13.0532 64.3006 12.8963C64.1507 12.7395 63.9712 12.6144 63.7622 12.5211C63.5531 12.4278 63.3198 12.3812 63.0622 12.3812C62.8046 12.3812 62.5713 12.4278 62.3623 12.5211C62.1532 12.6144 61.9737 12.7395 61.8238 12.8963C61.6739 13.0532 61.5588 13.2365 61.4786 13.4464C61.3984 13.6563 61.3583 13.8756 61.3583 14.1046C61.3583 14.3335 61.3984 14.5529 61.4786 14.7628C61.5588 14.9726 61.6729 15.156 61.8207 15.3128C61.9685 15.4697 62.1469 15.5948 62.3559 15.688ZM62.074 14.1109C62.074 14.272 62.0994 14.4204 62.1501 14.5561C62.2007 14.6918 62.2704 14.8094 62.3591 14.909C62.4478 15.0087 62.5523 15.0871 62.6726 15.1443C62.793 15.2016 62.9229 15.2302 63.0622 15.2302C63.2016 15.2302 63.3314 15.2016 63.4518 15.1443C63.5721 15.0871 63.6766 15.0076 63.7653 14.9059C63.854 14.8041 63.9237 14.6854 63.9744 14.5497C64.025 14.4141 64.0504 14.2657 64.0504 14.1046C64.0504 13.9477 64.025 13.8004 63.9744 13.6626C63.9237 13.5248 63.854 13.4051 63.7653 13.3033C63.6766 13.2016 63.5721 13.1221 63.4518 13.0648C63.3314 13.0076 63.2016 12.979 63.0622 12.979C62.9271 12.979 62.7993 13.0087 62.679 13.068C62.5586 13.1274 62.4541 13.2079 62.3654 13.3097C62.2767 13.4114 62.206 13.5312 62.1532 13.669C62.1004 13.8068 62.074 13.9541 62.074 14.1109ZM65.6561 15.7485C65.7934 15.8015 65.9423 15.828 66.1027 15.828C66.3519 15.828 66.5852 15.776 66.8027 15.6721C67.0202 15.5683 67.2028 15.4188 67.3506 15.2238L67.3696 15.4337C67.3865 15.5397 67.4319 15.6266 67.5058 15.6944C67.5797 15.7622 67.6842 15.7962 67.8193 15.7962C67.8658 15.7962 67.9133 15.794 67.9619 15.7898C68.0104 15.7856 68.0685 15.7771 68.1361 15.7644V15.1666C68.0136 15.1623 67.9524 15.086 67.9524 14.9377V13.7357C67.9524 13.2991 67.8257 12.9641 67.5723 12.731C67.3189 12.4978 66.9642 12.3812 66.5081 12.3812C66.0478 12.3812 65.6044 12.5254 65.1779 12.8136L65.3933 13.2588C65.5749 13.1358 65.7512 13.0415 65.9222 12.9758C66.0932 12.9101 66.2674 12.8772 66.4448 12.8772C66.7066 12.8772 66.9072 12.9461 67.0466 13.0839C67.1859 13.2217 67.2556 13.4135 67.2556 13.6594V13.8884C67.1331 13.8417 66.9959 13.8046 66.8439 13.7771C66.6918 13.7495 66.5377 13.7357 66.3814 13.7357C66.1745 13.7357 65.9855 13.7612 65.8145 13.8121C65.6435 13.8629 65.4957 13.935 65.3711 14.0283C65.2465 14.1215 65.1505 14.2318 65.0829 14.359C65.0153 14.4861 64.9815 14.6282 64.9815 14.785C64.9815 14.9334 65.01 15.0712 65.067 15.1984C65.1241 15.3256 65.2022 15.4358 65.3014 15.5291C65.4007 15.6223 65.5189 15.6955 65.6561 15.7485ZM66.2928 15.3128C66.4617 15.3128 66.6211 15.2821 66.771 15.2206C66.9209 15.1592 67.0381 15.0733 67.1226 14.9631C67.2112 14.8868 67.2556 14.8062 67.2556 14.7214V14.2826C67.1373 14.236 67.0117 14.2 66.8787 14.1745C66.7457 14.1491 66.6158 14.1364 66.4891 14.1364C66.24 14.1364 66.0362 14.1904 65.8779 14.2985C65.7195 14.4066 65.6403 14.5497 65.6403 14.7278C65.6403 14.8931 65.7015 15.032 65.824 15.1443C65.9465 15.2567 66.1027 15.3128 66.2928 15.3128ZM69.3586 15.6912C69.5486 15.7824 69.7556 15.828 69.9794 15.828C70.237 15.828 70.4714 15.7686 70.6825 15.6499C70.8937 15.5312 71.0605 15.368 71.1829 15.1602L71.1956 15.4082C71.204 15.5227 71.2526 15.616 71.3413 15.688C71.43 15.7601 71.544 15.7962 71.6833 15.7962C71.7129 15.7962 71.7498 15.794 71.7942 15.7898C71.8385 15.7856 71.8966 15.7771 71.9684 15.7644V15.1666C71.8966 15.1623 71.847 15.1433 71.8195 15.1094C71.7921 15.0754 71.7784 15.0182 71.7784 14.9377V11.1221H71.0816V13.068C70.9675 12.8688 70.8092 12.7045 70.6065 12.5752C70.4038 12.4459 70.1694 12.3812 69.9034 12.3812C69.688 12.3812 69.4906 12.4268 69.3111 12.5179C69.1316 12.6091 68.9754 12.7331 68.8424 12.89C68.7093 13.0468 68.6059 13.2281 68.532 13.4337C68.4581 13.6393 68.4211 13.8587 68.4211 14.0919C68.4211 14.3335 68.4602 14.5593 68.5383 14.7691C68.6164 14.979 68.7252 15.1623 68.8645 15.3192C69.0039 15.4761 69.1686 15.6001 69.3586 15.6912ZM70.1504 15.2302C70.2518 15.2302 70.3531 15.2132 70.4545 15.1793C70.5558 15.1454 70.6487 15.0988 70.7332 15.0394C70.8176 14.98 70.8905 14.9101 70.9517 14.8295C71.0129 14.749 71.0562 14.6621 71.0816 14.5688V13.6976C71.0436 13.5916 70.9897 13.4941 70.92 13.4051C70.8504 13.316 70.7712 13.2397 70.6825 13.1761C70.5938 13.1125 70.4999 13.0638 70.4006 13.0299C70.3014 12.9959 70.2011 12.979 70.0997 12.979C69.9604 12.979 69.8326 13.0108 69.7165 13.0744C69.6004 13.138 69.5001 13.2228 69.4156 13.3287C69.3312 13.4347 69.2647 13.5556 69.2161 13.6912C69.1675 13.8269 69.1432 13.9668 69.1432 14.1109C69.1432 14.2636 69.1696 14.4077 69.2224 14.5434C69.2752 14.679 69.3481 14.7977 69.441 14.8995C69.5339 15.0012 69.6405 15.0818 69.7608 15.1411C69.8812 15.2005 70.0111 15.2302 70.1504 15.2302ZM74.6827 15.688C74.8917 15.7813 75.1271 15.828 75.389 15.828C75.6466 15.828 75.8799 15.7813 76.0889 15.688C76.298 15.5948 76.4774 15.4697 76.6273 15.3128C76.7773 15.156 76.8923 14.9726 76.9726 14.7628C77.0528 14.5529 77.0929 14.3335 77.0929 14.1046C77.0929 13.8756 77.0528 13.6563 76.9726 13.4464C76.8923 13.2365 76.7773 13.0532 76.6273 12.8963C76.4774 12.7395 76.298 12.6144 76.0889 12.5211C75.8799 12.4278 75.6466 12.3812 75.389 12.3812C75.1314 12.3812 74.8981 12.4278 74.689 12.5211C74.48 12.6144 74.3005 12.7395 74.1506 12.8963C74.0007 13.0532 73.8856 13.2365 73.8054 13.4464C73.7251 13.6563 73.685 13.8756 73.685 14.1046C73.685 14.3335 73.7251 14.5529 73.8054 14.7628C73.8856 14.9726 73.9996 15.156 74.1474 15.3128C74.2952 15.4697 74.4736 15.5948 74.6827 15.688ZM74.4008 14.1109C74.4008 14.272 74.4261 14.4204 74.4768 14.5561C74.5275 14.6918 74.5972 14.8094 74.6858 14.909C74.7745 15.0087 74.879 15.0871 74.9994 15.1443C75.1198 15.2016 75.2496 15.2302 75.389 15.2302C75.5283 15.2302 75.6582 15.2016 75.7785 15.1443C75.8989 15.0871 76.0034 15.0076 76.0921 14.9059C76.1808 14.8041 76.2504 14.6854 76.3011 14.5497C76.3518 14.4141 76.3771 14.2657 76.3771 14.1046C76.3771 13.9477 76.3518 13.8004 76.3011 13.6626C76.2504 13.5248 76.1808 13.4051 76.0921 13.3033C76.0034 13.2016 75.8989 13.1221 75.7785 13.0648C75.6582 13.0076 75.5283 12.979 75.389 12.979C75.2538 12.979 75.1261 13.0087 75.0057 13.068C74.8854 13.1274 74.7809 13.2079 74.6922 13.3097C74.6035 13.4114 74.5328 13.5312 74.48 13.669C74.4272 13.8068 74.4008 13.9541 74.4008 14.1109ZM79.8231 15.7644H80.5198V13.7357C80.5198 13.5534 80.5051 13.3807 80.4755 13.2175C80.4459 13.0542 80.3942 12.9101 80.3203 12.785C80.2464 12.66 80.1461 12.5614 80.0194 12.4893C79.8927 12.4172 79.7301 12.3812 79.5317 12.3812C79.2403 12.3812 78.9742 12.4459 78.7335 12.5752C78.4928 12.7045 78.3091 12.8815 78.1824 13.1062V12.4384H77.549V15.7644H78.2458V13.7866C78.2838 13.6721 78.3376 13.5672 78.4073 13.4718C78.477 13.3764 78.5562 13.2938 78.6449 13.2238C78.7335 13.1539 78.8285 13.0998 78.9299 13.0617C79.0312 13.0235 79.1326 13.0044 79.234 13.0044C79.4282 13.0044 79.575 13.0754 79.6742 13.2175C79.7734 13.3595 79.8231 13.5874 79.8231 13.9011V15.7644ZM84.4092 15.5927C84.3205 15.6351 84.198 15.6827 84.0418 15.7357C83.8855 15.7887 83.7187 15.8152 83.5414 15.8152C83.4316 15.8152 83.3281 15.8004 83.231 15.7707C83.1338 15.741 83.0483 15.6965 82.9744 15.6372C82.9005 15.5778 82.8425 15.5004 82.8002 15.4051C82.758 15.3097 82.7369 15.1941 82.7369 15.0585V12.979H82.2998V12.4384H82.7369V11.3446H83.4337V12.4384H84.1558V12.979H83.4337V14.8359C83.4421 14.9546 83.4791 15.0405 83.5445 15.0935C83.61 15.1464 83.6913 15.1729 83.7884 15.1729C83.8855 15.1729 83.9784 15.156 84.0671 15.1221C84.1558 15.0882 84.2212 15.0606 84.2635 15.0394L84.4092 15.5927ZM86.9999 15.7644H87.6967V13.7357C87.6967 13.5534 87.6809 13.3807 87.6492 13.2175C87.6175 13.0542 87.5616 12.9112 87.4813 12.7882C87.4011 12.6653 87.2945 12.5667 87.1615 12.4925C87.0284 12.4183 86.8585 12.3812 86.6515 12.3812C86.3939 12.3812 86.1564 12.4448 85.9389 12.572C85.7214 12.6992 85.5494 12.8772 85.4227 13.1062V11.1221H84.7259V15.7644H85.4227V13.7866C85.4565 13.6721 85.5071 13.5672 85.5747 13.4718C85.6423 13.3764 85.7193 13.2938 85.8059 13.2238C85.8925 13.1539 85.9843 13.0998 86.0814 13.0617C86.1786 13.0235 86.2757 13.0044 86.3728 13.0044C86.5755 13.0044 86.7307 13.0776 86.8384 13.2238C86.9461 13.3701 86.9999 13.5958 86.9999 13.9011V15.7644ZM89.8441 15.828C89.5865 15.828 89.3521 15.7824 89.141 15.6912C88.9298 15.6001 88.7493 15.4761 88.5994 15.3192C88.4495 15.1623 88.3333 14.98 88.251 14.7723C88.1686 14.5646 88.1275 14.3441 88.1275 14.1109C88.1275 13.8778 88.1686 13.6563 88.251 13.4464C88.3333 13.2365 88.4495 13.0521 88.5994 12.8931C88.7493 12.7342 88.9298 12.6091 89.141 12.5179C89.3521 12.4268 89.5886 12.3812 89.8504 12.3812C90.108 12.3812 90.3413 12.4278 90.5504 12.5211C90.7594 12.6144 90.9378 12.7384 91.0856 12.8931C91.2334 13.0479 91.3464 13.2281 91.4245 13.4337C91.5026 13.6393 91.5417 13.8544 91.5417 14.0791C91.5417 14.13 91.5396 14.1777 91.5354 14.2222C91.5312 14.2667 91.5269 14.3038 91.5227 14.3335H88.8686C88.8813 14.4819 88.9161 14.6154 88.9731 14.7342C89.0301 14.8529 89.104 14.9557 89.1948 15.0426C89.2856 15.1295 89.3891 15.1963 89.5052 15.2429C89.6213 15.2895 89.7427 15.3128 89.8694 15.3128C89.9623 15.3128 90.0542 15.3012 90.145 15.2779C90.2358 15.2546 90.3192 15.2206 90.3952 15.1761C90.4712 15.1316 90.5388 15.0776 90.5979 15.014C90.657 14.9504 90.7035 14.8804 90.7372 14.8041L91.3327 14.9758C91.2187 15.2259 91.0297 15.4305 90.7657 15.5895C90.5018 15.7485 90.1946 15.828 89.8441 15.828ZM90.7467 13.4623C90.8038 13.581 90.8386 13.7103 90.8513 13.8502H88.8496C88.8623 13.7103 88.896 13.581 88.9509 13.4623C89.0058 13.3436 89.0776 13.2429 89.1663 13.1602C89.255 13.0776 89.3574 13.0129 89.4735 12.9663C89.5897 12.9196 89.7132 12.8963 89.8441 12.8963C89.975 12.8963 90.0996 12.9196 90.2178 12.9663C90.3361 13.0129 90.4395 13.0776 90.5282 13.1602C90.6169 13.2429 90.6897 13.3436 90.7467 13.4623Z" fill="#6E7883"/>
<path fill-rule="evenodd" clip-rule="evenodd" d="M46.5279 18.3223H48.3359L52.3372 29.182H50.2328L49.2547 26.4747H45.5794L44.6161 29.182H42.5117L46.5279 18.3223ZM48.8842 24.9911L47.4319 20.7236L45.9203 24.9911H48.8842ZM56.5298 28.9143C56.9843 29.1947 57.5178 29.3349 58.1303 29.3349C58.6243 29.3349 59.0788 29.2279 59.4937 29.0137C59.9087 28.7996 60.2668 28.5039 60.5682 28.1266C60.8695 27.7493 61.1042 27.3058 61.2721 26.7959C61.4401 26.2861 61.524 25.7405 61.524 25.1593C61.524 24.5985 61.4327 24.0657 61.2499 23.5609C61.0671 23.0562 60.8152 22.6177 60.4941 22.2455C60.173 21.8733 59.7901 21.5776 59.3455 21.3584C58.9009 21.1392 58.4168 21.0296 57.8932 21.0296C57.3004 21.0296 56.7768 21.1647 56.3223 21.4349C55.8678 21.7051 55.4973 22.0747 55.2108 22.5438V21.1672H53.4769V32.4399H55.4628V27.7748C55.7196 28.2541 56.0753 28.6339 56.5298 28.9143ZM57.4634 27.5913C57.7598 27.5913 58.034 27.525 58.2859 27.3924C58.5379 27.2599 58.7528 27.0814 58.9306 26.8571C59.1084 26.6328 59.2467 26.3727 59.3455 26.077C59.4443 25.7813 59.4937 25.4754 59.4937 25.1593C59.4937 24.8228 59.4394 24.5093 59.3307 24.2186C59.222 23.928 59.0714 23.6757 58.8787 23.4615C58.6861 23.2474 58.4588 23.0791 58.197 22.9568C57.9352 22.8344 57.6512 22.7732 57.3449 22.7732C57.1572 22.7732 56.9645 22.8064 56.7669 22.8726C56.5693 22.9389 56.3865 23.0332 56.2186 23.1556C56.0506 23.278 55.9 23.4207 55.7666 23.5839C55.6332 23.747 55.5319 23.9255 55.4628 24.1192V26.0006C55.6406 26.4594 55.9123 26.8392 56.2779 27.1401C56.6434 27.4409 57.0386 27.5913 57.4634 27.5913ZM66.1019 28.9143C66.5564 29.1947 67.0899 29.3349 67.7025 29.3349C68.1965 29.3349 68.6509 29.2279 69.0659 29.0137C69.4808 28.7996 69.839 28.5039 70.1403 28.1266C70.4417 27.7493 70.6763 27.3058 70.8443 26.7959C71.0122 26.2861 71.0962 25.7405 71.0962 25.1593C71.0962 24.5985 71.0048 24.0657 70.822 23.5609C70.6392 23.0562 70.3873 22.6177 70.0662 22.2455C69.7451 21.8733 69.3623 21.5776 68.9177 21.3584C68.4731 21.1392 67.989 21.0296 67.4654 21.0296C66.8726 21.0296 66.3489 21.1647 65.8945 21.4349C65.44 21.7051 65.0695 22.0747 64.783 22.5438V21.1672H63.0491V32.4399H65.0349V27.7748C65.2918 28.2541 65.6475 28.6339 66.1019 28.9143ZM67.0356 27.5913C67.332 27.5913 67.6061 27.525 67.8581 27.3924C68.11 27.2599 68.3249 27.0814 68.5027 26.8571C68.6806 26.6328 68.8189 26.3727 68.9177 26.077C69.0165 25.7813 69.0659 25.4754 69.0659 25.1593C69.0659 24.8228 69.0115 24.5093 68.9029 24.2186C68.7942 23.928 68.6435 23.6757 68.4509 23.4615C68.2582 23.2474 68.031 23.0791 67.7692 22.9568C67.5073 22.8344 67.2233 22.7732 66.917 22.7732C66.7293 22.7732 66.5366 22.8064 66.3391 22.8726C66.1415 22.9389 65.9587 23.0332 65.7907 23.1556C65.6228 23.278 65.4721 23.4207 65.3387 23.5839C65.2053 23.747 65.1041 23.9255 65.0349 24.1192V26.0006C65.2128 26.4594 65.4844 26.8392 65.85 27.1401C66.2156 27.4409 66.6107 27.5913 67.0356 27.5913ZM77.3769 29.0137C77.9994 29.2279 78.6366 29.3349 79.2887 29.3349C80.2569 29.3349 81.0226 29.1081 81.5858 28.6543C82.1489 28.2005 82.4305 27.5811 82.4305 26.7959C82.4305 26.4594 82.3737 26.1714 82.26 25.9317C82.1464 25.6921 81.9686 25.4805 81.7265 25.297C81.4845 25.1134 81.1733 24.9503 80.7929 24.8075C80.4125 24.6648 79.9556 24.522 79.4221 24.3792C79.1356 24.3079 78.896 24.239 78.7033 24.1728C78.5107 24.1065 78.355 24.0376 78.2365 23.9663C78.1179 23.8949 78.0315 23.8133 77.9771 23.7215C77.9228 23.6298 77.8956 23.5125 77.8956 23.3697C77.8956 23.0536 78.0093 22.8242 78.2365 22.6815C78.4637 22.5387 78.7453 22.4673 79.0812 22.4673C79.4468 22.4673 79.8148 22.5387 80.1853 22.6815C80.5558 22.8242 80.9386 23.0485 81.3338 23.3544L82.1341 22.1155C81.7092 21.728 81.2424 21.4476 80.7336 21.2743C80.2248 21.1009 79.6789 21.0143 79.096 21.0143C78.6613 21.0143 78.2587 21.0754 77.8882 21.1978C77.5177 21.3202 77.1942 21.4961 76.9175 21.7255C76.6409 21.9549 76.426 22.2328 76.2729 22.5591C76.1197 22.8854 76.0432 23.2525 76.0432 23.6604C76.0432 23.9663 76.0926 24.2288 76.1914 24.4481C76.2902 24.6673 76.4482 24.861 76.6656 25.0293C76.8829 25.1975 77.1695 25.3479 77.5251 25.4805C77.8808 25.6131 78.3106 25.7507 78.8145 25.8935C79.4171 26.0668 79.8518 26.2198 80.1186 26.3523C80.3854 26.4849 80.5187 26.6939 80.5187 26.9795C80.5187 27.265 80.4051 27.4842 80.1779 27.6372C79.9506 27.7901 79.6394 27.8666 79.2442 27.8666C78.7996 27.8666 78.3526 27.7774 77.903 27.5989C77.4535 27.4205 76.9916 27.1579 76.5174 26.8112L75.7764 28.096C76.221 28.4937 76.7545 28.7996 77.3769 29.0137ZM88.5496 28.769C88.2829 28.8914 87.9568 29.0137 87.5715 29.1361C87.1862 29.2585 86.7811 29.3197 86.3563 29.3197C86.0797 29.3197 85.8203 29.284 85.5783 29.2126C85.3362 29.1412 85.1238 29.0265 84.941 28.8684C84.7582 28.7104 84.6125 28.5064 84.5038 28.2566C84.3951 28.0068 84.3408 27.7034 84.3408 27.3465V22.7426H83.3182V21.1672H84.3408V18.567H86.3267V21.1672H87.9568V22.7426H86.3267V26.6583C86.3267 26.9438 86.3983 27.1452 86.5415 27.2624C86.6848 27.3797 86.8602 27.4383 87.0676 27.4383C87.2751 27.4383 87.4777 27.4026 87.6753 27.3313C87.8729 27.2599 88.0309 27.1987 88.1495 27.1477L88.5496 28.769ZM91.4529 28.9984C91.9568 29.2228 92.5248 29.3349 93.1572 29.3349C93.7895 29.3349 94.3576 29.2228 94.8614 28.9984C95.3653 28.7741 95.7901 28.4708 96.1359 28.0884C96.4817 27.706 96.7485 27.265 96.9362 26.7653C97.1239 26.2657 97.2178 25.7405 97.2178 25.1899C97.2178 24.6291 97.1239 24.0988 96.9362 23.5992C96.7485 23.0995 96.4792 22.6585 96.1285 22.2761C95.7778 21.8937 95.3529 21.5904 94.854 21.366C94.3551 21.1417 93.7895 21.0296 93.1572 21.0296C92.5248 21.0296 91.9568 21.1417 91.4529 21.366C90.949 21.5904 90.5217 21.8937 90.171 22.2761C89.8202 22.6585 89.551 23.0995 89.3633 23.5992C89.1756 24.0988 89.0817 24.6291 89.0817 25.1899C89.0817 25.7405 89.1756 26.2657 89.3633 26.7653C89.551 27.265 89.8202 27.706 90.171 28.0884C90.5217 28.4708 90.949 28.7741 91.4529 28.9984ZM91.1268 25.1899C91.1268 25.5468 91.1787 25.8705 91.2825 26.1612C91.3862 26.4518 91.5294 26.7041 91.7122 26.9183C91.895 27.1324 92.1099 27.2981 92.3569 27.4154C92.6039 27.5326 92.8706 27.5913 93.1572 27.5913C93.4437 27.5913 93.7104 27.5326 93.9574 27.4154C94.2044 27.2981 94.4193 27.1324 94.6021 26.9183C94.7849 26.7041 94.9281 26.4492 95.0318 26.1535C95.1356 25.8578 95.1875 25.5315 95.1875 25.1746C95.1875 24.8279 95.1356 24.5067 95.0318 24.211C94.9281 23.9153 94.7849 23.6604 94.6021 23.4462C94.4193 23.2321 94.2044 23.0664 93.9574 22.9491C93.7104 22.8319 93.4437 22.7732 93.1572 22.7732C92.8706 22.7732 92.6039 22.8344 92.3569 22.9568C92.1099 23.0791 91.895 23.2474 91.7122 23.4615C91.5294 23.6757 91.3862 23.9306 91.2825 24.2263C91.1787 24.522 91.1268 24.8432 91.1268 25.1899ZM101.736 23.3009C102.211 23.0715 102.749 22.9517 103.352 22.9415V21.0754C103.302 21.0652 103.25 21.0601 103.196 21.0601H102.952C102.744 21.0601 102.529 21.1035 102.307 21.1902C102.085 21.2768 101.865 21.4017 101.647 21.5649C101.43 21.728 101.228 21.9192 101.04 22.1385C100.852 22.3577 100.689 22.605 100.551 22.8803V21.1672H98.728V29.182H100.714V24.3334C100.921 23.8745 101.262 23.5303 101.736 23.3009ZM107.856 29.3349C107.233 29.3349 106.67 29.2253 106.166 29.0061C105.662 28.7869 105.232 28.4886 104.877 28.1113C104.521 27.734 104.247 27.2956 104.054 26.7959C103.862 26.2963 103.765 25.7711 103.765 25.2205C103.765 24.6495 103.859 24.1116 104.047 23.6068C104.235 23.1021 104.506 22.6585 104.862 22.2761C105.218 21.8937 105.65 21.5904 106.159 21.366C106.667 21.1417 107.238 21.0296 107.87 21.0296C108.503 21.0296 109.068 21.1417 109.567 21.366C110.066 21.5904 110.491 21.8912 110.842 22.2685C111.192 22.6458 111.459 23.0842 111.642 23.5839C111.825 24.0835 111.916 24.6036 111.916 25.144C111.916 25.2766 111.914 25.404 111.909 25.5264C111.904 25.6488 111.891 25.7507 111.872 25.8323H105.87C105.899 26.1484 105.973 26.4288 106.092 26.6735C106.211 26.9183 106.364 27.1273 106.551 27.3007C106.739 27.474 106.952 27.6066 107.189 27.6983C107.426 27.7901 107.673 27.836 107.93 27.836C108.325 27.836 108.698 27.7366 109.049 27.5377C109.399 27.3389 109.639 27.0763 109.767 26.75L111.472 27.2395C111.185 27.8513 110.728 28.3535 110.101 28.7461C109.473 29.1387 108.725 29.3349 107.856 29.3349ZM109.226 23.0562C109.607 23.4182 109.822 23.9 109.871 24.5016H105.84C105.86 24.2059 105.926 23.9357 106.04 23.6909C106.154 23.4462 106.299 23.2372 106.477 23.0638C106.655 22.8905 106.86 22.7554 107.092 22.6585C107.324 22.5616 107.574 22.5132 107.841 22.5132C108.384 22.5132 108.846 22.6942 109.226 23.0562Z" fill="#6E7883"/>
<path fill-rule="evenodd" clip-rule="evenodd" d="M29.9934 9.14648C29.9934 10.2075 29.6358 11.1976 28.9205 12.1172C28.0441 13.2201 27.046 13.7154 25.926 13.6026C25.9127 13.5313 25.9058 13.4644 25.9058 13.4002V13.1992C25.9058 12.1806 26.2703 11.2264 26.9984 10.3345C27.3632 9.88277 27.825 9.50742 28.3845 9.20985C28.9447 8.91338 29.4739 8.75046 29.9732 8.72217C29.9865 8.79289 29.9934 8.86333 29.9934 8.9346V9.14648ZM33.6553 15.936C32.1716 16.8978 31.4428 18.2414 31.4705 19.9675C31.484 21.297 31.9361 22.4149 32.8252 23.3187C33.2296 23.7292 33.6817 24.0488 34.1808 24.2745C34.1268 24.4445 34.0728 24.6102 34.0191 24.7728C33.9646 24.9355 33.904 25.0943 33.8372 25.2499C33.6941 25.6208 33.5286 25.9823 33.3416 26.3322C33.1672 26.6571 32.9816 26.9755 32.7851 27.2869C32.5492 27.6479 32.3028 28.0017 32.0461 28.3476C31.8238 28.6447 31.6178 28.8778 31.4298 29.0483C30.8895 29.5711 30.3098 29.8471 29.6892 29.8749C29.2712 29.8749 28.7312 29.7337 28.0707 29.45C27.4764 29.1818 26.9037 29.048 26.3509 29.048C25.7572 29.048 25.1631 29.1827 24.5702 29.45C23.936 29.7337 23.4239 29.882 23.033 29.8966C22.4252 29.9255 21.8325 29.6421 21.2518 29.0483C20.8484 28.6659 20.3746 28.0577 19.8356 27.2229C19.2294 26.3044 18.7295 25.2366 18.3384 24.0199C17.9204 22.7462 17.7119 21.4735 17.7119 20.2006C17.7119 18.7865 17.9946 17.5699 18.5617 16.551C19.0066 15.7315 19.5998 15.0838 20.3416 14.6098C21.0832 14.1362 21.8862 13.8922 22.7493 13.8778C23.262 13.8778 23.8828 14.0334 24.6106 14.3446C25.34 14.6565 25.8321 14.8113 26.0885 14.8113C26.2097 14.8113 26.7564 14.6282 27.7274 14.26C28.6302 13.92 29.3723 13.7796 29.9527 13.8354C31.5845 13.9918 32.8186 14.6914 33.6553 15.936Z" fill="#EA6212"/>
</svg>
