<svg width="45" height="45" viewBox="0 0 45 45" fill="none" xmlns="http://www.w3.org/2000/svg">
<circle cx="22.5" cy="22.5" r="22.5" fill="#161616"/>
<path fill-rule="evenodd" clip-rule="evenodd" d="M27.1587 11.4007C27.1587 12.4028 26.7755 13.3379 26.0092 14.2064C25.0702 15.2481 24.0007 15.7159 22.8008 15.6093C22.7865 15.542 22.7791 15.4788 22.7791 15.4181V15.2283C22.7791 14.2663 23.1697 13.3651 23.9497 12.5228C24.3406 12.0961 24.8354 11.7416 25.4348 11.4606C26.0351 11.1806 26.602 11.0267 27.1371 11C27.1513 11.0668 27.1587 11.1333 27.1587 11.2006V11.4007ZM31.0822 17.8131C29.4926 18.7214 28.7117 19.9904 28.7413 21.6206C28.7558 22.8762 29.2402 23.932 30.1928 24.7856C30.6261 25.1733 31.1105 25.4751 31.6452 25.6883C31.5874 25.8489 31.5295 26.0053 31.472 26.1589C31.4136 26.3126 31.3486 26.4626 31.2771 26.6095C31.1238 26.9598 30.9465 27.3012 30.7461 27.6317C30.5593 27.9385 30.3604 28.2393 30.1498 28.5333C29.8971 28.8743 29.633 29.2084 29.3581 29.5352C29.1199 29.8157 28.8991 30.0358 28.6977 30.1969C28.1188 30.6906 27.4978 30.9514 26.8328 30.9776C26.385 30.9776 25.8064 30.8442 25.0987 30.5763C24.462 30.323 23.8483 30.1966 23.2561 30.1966C22.6199 30.1966 21.9835 30.3238 21.3482 30.5763C20.6687 30.8442 20.12 30.9842 19.7012 30.9981C19.0499 31.0253 18.4149 30.7577 17.7927 30.1969C17.3606 29.8357 16.8529 29.2613 16.2754 28.473C15.6259 27.6055 15.0903 26.5969 14.6712 25.4479C14.2234 24.2449 14 23.043 14 21.8407C14 20.5052 14.3028 19.3562 14.9105 18.3939C15.3871 17.6199 16.0227 17.0082 16.8176 16.5605C17.6121 16.1133 18.4725 15.8828 19.3972 15.8692C19.9465 15.8692 20.6117 16.0162 21.3915 16.31C22.1729 16.6047 22.7002 16.7508 22.9749 16.7508C23.1048 16.7508 23.6905 16.578 24.7309 16.2301C25.6981 15.909 26.4933 15.7765 27.1152 15.8292C28.8635 15.9769 30.1857 16.6376 31.0822 17.8131Z" fill="#C92135"/>
</svg>
