<svg width="22" height="20" viewBox="0 0 22 20" fill="none" xmlns="http://www.w3.org/2000/svg">
<path fill-rule="evenodd" clip-rule="evenodd" d="M12.2814 2.3466C12.2814 0.443461 9.93867 -0.442898 8.69407 0.989363L4.72665 5.55498C4.64028 5.65438 4.5155 5.7114 4.38433 5.7114H2.27434C1.01826 5.7114 0 6.73671 0 8.0015V11.6657C0 12.9305 1.01826 13.9558 2.27434 13.9558H4.38433C4.5155 13.9558 4.64028 14.0128 4.72665 14.1122L8.69407 18.6778C9.93867 20.1101 12.2814 19.2237 12.2814 17.3206V2.3466ZM10.0634 2.1958C10.1076 2.14484 10.1476 2.12735 10.1797 2.12013C10.2176 2.11163 10.2653 2.11361 10.3145 2.13223C10.3637 2.15084 10.4009 2.18099 10.4239 2.21248C10.4434 2.23926 10.462 2.27889 10.462 2.3466V17.3206C10.462 17.3883 10.4434 17.4279 10.4239 17.4547C10.4009 17.4862 10.3637 17.5163 10.3145 17.5349C10.2653 17.5536 10.2176 17.5555 10.1797 17.547C10.1476 17.5398 10.1076 17.5223 10.0634 17.4714L6.09595 12.9057C5.66408 12.4088 5.04016 12.1237 4.38433 12.1237H2.27434C2.02312 12.1237 1.81947 11.9186 1.81947 11.6657V8.0015C1.81947 7.74854 2.02312 7.54348 2.27434 7.54348H4.38433C5.04016 7.54348 5.66408 7.25841 6.09594 6.76142L10.0634 2.1958Z" fill="black"/>
<path d="M17.9362 2.8024C18.3129 2.46759 18.8878 2.50364 19.2203 2.88292C20.9259 4.82845 21.8566 7.34046 21.8332 9.93546C21.8098 12.5305 20.8341 15.0251 19.0937 16.9391C18.7544 17.3123 18.179 17.3378 17.8084 16.9962C17.4378 16.6545 17.4124 16.0751 17.7517 15.7019C19.1888 14.1215 19.9945 12.0616 20.0138 9.91884C20.0331 7.77608 19.2646 5.70185 17.8563 4.09538C17.5238 3.7161 17.5596 3.13721 17.9362 2.8024Z" fill="black"/>
<path d="M15.0783 5.34271C15.455 5.0079 16.0299 5.04395 16.3624 5.42323C17.4452 6.65835 18.036 8.25311 18.0212 9.90056C18.0063 11.548 17.3868 13.1317 16.282 14.3469C15.9427 14.72 15.3672 14.7455 14.9967 14.4039C14.6261 14.0623 14.6007 13.4828 14.94 13.1097C15.7416 12.2281 16.191 11.0792 16.2018 9.88395C16.2125 8.68874 15.7839 7.53175 14.9983 6.63568C14.6658 6.2564 14.7016 5.67752 15.0783 5.34271Z" fill="black"/>
</svg>
