<svg width="39" height="39" viewBox="0 0 39 39" fill="none" xmlns="http://www.w3.org/2000/svg">
<circle cx="19.4843" cy="19.4843" r="19.4843" fill="white"/>
<path fill-rule="evenodd" clip-rule="evenodd" d="M21.1984 12.3466C21.1984 10.4435 18.8557 9.55715 17.6111 10.9894L13.6436 15.555C13.5573 15.6544 13.4325 15.7114 13.3013 15.7114H11.1913C9.93525 15.7114 8.91699 16.7368 8.91699 18.0015V21.6657C8.91699 22.9305 9.93525 23.9558 11.1913 23.9558H13.3013C13.4325 23.9558 13.5573 24.0128 13.6436 24.1122L17.6111 28.6779C18.8557 30.1101 21.1984 29.2237 21.1984 27.3206V12.3466ZM18.9804 12.1958C19.0246 12.1449 19.0646 12.1274 19.0967 12.1202C19.1346 12.1117 19.1823 12.1137 19.2315 12.1323C19.2807 12.1509 19.3179 12.181 19.3408 12.2125C19.3603 12.2393 19.3789 12.2789 19.3789 12.3466V27.3206C19.3789 27.3883 19.3603 27.428 19.3408 27.4547C19.3179 27.4862 19.2807 27.5164 19.2315 27.535C19.1823 27.5536 19.1346 27.5556 19.0967 27.5471C19.0646 27.5399 19.0246 27.5224 18.9804 27.4714L15.0129 22.9058C14.5811 22.4088 13.9572 22.1237 13.3013 22.1237H11.1913C10.9401 22.1237 10.7365 21.9187 10.7365 21.6657V18.0015C10.7365 17.7486 10.9401 17.5435 11.1913 17.5435H13.3013C13.9572 17.5435 14.5811 17.2585 15.0129 16.7615L18.9804 12.1958Z" fill="black"/>
<path d="M26.8532 12.8024C27.2299 12.4676 27.8048 12.5037 28.1373 12.883C29.8429 14.8285 30.7736 17.3405 30.7502 19.9355C30.7268 22.5305 29.751 25.0251 28.0107 26.9392C27.6714 27.3123 27.0959 27.3378 26.7254 26.9962C26.3548 26.6546 26.3294 26.0751 26.6687 25.702C28.1058 24.1215 28.9115 22.0616 28.9308 19.9189C28.9501 17.7761 28.1816 15.7019 26.7733 14.0954C26.4408 13.7161 26.4766 13.1373 26.8532 12.8024Z" fill="black"/>
<path d="M23.9953 15.3428C24.3719 15.0079 24.9468 15.044 25.2794 15.4233C26.3622 16.6584 26.953 18.2532 26.9382 19.9006C26.9233 21.5481 26.3038 23.1318 25.199 24.3469C24.8597 24.7201 24.2842 24.7456 23.9137 24.404C23.5431 24.0623 23.5177 23.4829 23.857 23.1097C24.6586 22.2282 25.108 21.0792 25.1188 19.884C25.1295 18.6888 24.7009 17.5318 23.9153 16.6357C23.5828 16.2564 23.6186 15.6776 23.9953 15.3428Z" fill="black"/>
</svg>
