<svg width="129" height="40" viewBox="0 0 129 40" fill="none" xmlns="http://www.w3.org/2000/svg">
<rect x="0.823608" width="128" height="40" rx="20" fill="#F9F9F9"/>
<rect x="1.32361" y="0.5" width="127" height="39" rx="19.5" stroke="#777777" stroke-opacity="0.2"/>
<path d="M27.617 30.4002C29.2108 30.1738 30.6079 28.5103 31.4871 26.0537C30.2162 25.7691 28.9192 25.6163 27.617 25.5981V30.4002Z" fill="#C92135"/>
<path d="M30.1633 30.0094C30.2575 29.9821 30.3513 29.9546 30.4444 29.9245C30.523 29.8992 30.6005 29.8719 30.678 29.8448C30.7696 29.8131 30.8609 29.7806 30.9519 29.746C31.0294 29.7166 31.1061 29.6853 31.183 29.654C31.2718 29.6167 31.3604 29.5796 31.448 29.5423C31.5246 29.5087 31.6006 29.4734 31.6766 29.4379C31.7627 29.3974 31.8483 29.3561 31.9333 29.3132C32.0078 29.2752 32.0822 29.2364 32.1568 29.1966C32.2403 29.1518 32.3232 29.1062 32.4056 29.0593C32.4802 29.0171 32.552 28.9747 32.6246 28.9311C32.7053 28.8814 32.7857 28.8317 32.8656 28.7821C32.937 28.7366 33.0083 28.6904 33.0787 28.6428C33.1573 28.5899 33.2348 28.5347 33.3119 28.4796C33.3812 28.43 33.4501 28.3805 33.5178 28.3307C33.5923 28.2732 33.6687 28.2137 33.7435 28.1541C33.8099 28.1012 33.8761 28.0486 33.9414 27.9942C34.0157 27.9324 34.087 27.8684 34.1592 27.8043C34.2225 27.7481 34.2862 27.6925 34.348 27.6348C34.4191 27.5684 34.4884 27.4997 34.5577 27.4315C34.6178 27.3722 34.6785 27.3138 34.7372 27.2531C34.7482 27.2418 34.7585 27.2296 34.7698 27.218C33.9574 26.7984 33.1016 26.469 32.2175 26.2358C31.7578 27.7021 30.9395 29.0309 29.837 30.1014C29.8672 30.0936 29.8974 30.0872 29.9275 30.0794C30.0072 30.057 30.0854 30.0325 30.1633 30.0094Z" fill="#C92135"/>
<path d="M37.6655 20.3726H33.1993C33.1824 22.1164 32.9294 23.8498 32.4473 25.5258C33.4305 25.7884 34.3793 26.166 35.2742 26.6507C36.7433 24.88 37.5843 22.6722 37.6655 20.3726V20.3726Z" fill="#C92135"/>
<path d="M27.617 19.6276H32.4543C32.4354 17.9455 32.1886 16.2737 31.721 14.6577C30.3741 14.9649 28.9983 15.129 27.617 15.1471V19.6276Z" fill="#C92135"/>
<path d="M27.617 9.6001V14.4022C28.9192 14.3838 30.2162 14.2312 31.4871 13.9466C30.6079 11.49 29.2108 9.82653 27.617 9.6001Z" fill="#C92135"/>
<path d="M27.617 24.8531C28.9983 24.8714 30.3741 25.0355 31.721 25.3427C32.1886 23.7267 32.4354 22.0547 32.4543 20.3726H27.617V24.8531Z" fill="#C92135"/>
<path d="M35.2742 13.3494C34.3793 13.8341 33.4305 14.2116 32.4473 14.4743C32.9294 16.1502 33.1824 17.8837 33.1993 19.6275H37.6655C37.5842 17.3281 36.7432 15.1203 35.2742 13.3494Z" fill="#C92135"/>
<path d="M34.7709 12.7844C34.76 12.7733 34.7496 12.7613 34.7389 12.7498C34.6799 12.6891 34.6188 12.6305 34.5588 12.5714C34.4897 12.5032 34.4208 12.4343 34.3495 12.3681C34.2878 12.3106 34.224 12.2562 34.1607 12.1989C34.0885 12.1349 34.0163 12.0704 33.9421 12.0085C33.8777 11.9541 33.8117 11.9021 33.7462 11.8499C33.6716 11.7895 33.5952 11.7295 33.5185 11.6719C33.4512 11.6211 33.383 11.572 33.3144 11.5229C33.2366 11.4669 33.1584 11.4111 33.0791 11.3578C33.0094 11.3108 32.9387 11.265 32.8679 11.2201C32.7873 11.1683 32.707 11.1175 32.6249 11.0684C32.5531 11.0253 32.4805 10.9827 32.4078 10.9415C32.3245 10.8938 32.241 10.8476 32.1568 10.8025C32.0822 10.7652 32.0078 10.7247 31.9333 10.6874C31.8476 10.6441 31.7612 10.6024 31.6726 10.5615C31.5981 10.5261 31.5224 10.4915 31.4457 10.4578C31.3574 10.4187 31.2683 10.3835 31.1794 10.3462C31.1026 10.3149 31.0262 10.284 30.9488 10.2545C30.8584 10.22 30.7667 10.1876 30.675 10.1559C30.5976 10.1287 30.5201 10.1016 30.4415 10.0761C30.3484 10.0459 30.2553 10.0184 30.1596 9.99079C30.0821 9.96806 30.0043 9.94496 29.9259 9.92423C29.8959 9.91604 29.8653 9.90968 29.8351 9.90186C30.9377 10.9724 31.7557 12.301 32.2157 13.7674C33.1007 13.5343 33.9577 13.2047 34.7709 12.7844Z" fill="#C92135"/>
<path d="M16.8236 19.6275H21.2897C21.3067 17.8837 21.5596 16.1502 22.0416 14.4743C21.0586 14.2118 20.1097 13.8342 19.2149 13.3494C17.7457 15.1201 16.9047 17.3281 16.8236 19.6275Z" fill="#C92135"/>
<path d="M26.872 30.4002V25.5981C25.5698 25.6165 24.2728 25.7691 23.0019 26.0537C23.8809 28.5103 25.2782 30.1738 26.872 30.4002Z" fill="#C92135"/>
<path d="M26.8721 20.3726H22.0347C22.0536 22.0547 22.3003 23.7267 22.7681 25.3427C24.115 25.0353 25.4905 24.8712 26.8721 24.8531V20.3726Z" fill="#C92135"/>
<path d="M26.872 9.6001C25.2782 9.82653 23.8809 11.49 23.0019 13.9466C24.2728 14.2314 25.5698 14.384 26.872 14.4022V9.6001Z" fill="#C92135"/>
<path d="M26.8721 15.1471C25.4907 15.129 24.115 14.9649 22.7681 14.6577C22.3003 16.2737 22.0536 17.9455 22.0347 19.6276H26.8721V15.1471Z" fill="#C92135"/>
<path d="M24.651 9.90137C24.6208 9.90919 24.5906 9.91555 24.5604 9.92337C24.4815 9.94447 24.4036 9.96793 24.3251 9.99067C24.2316 10.0179 24.1388 10.0454 24.045 10.0752C23.9658 10.1009 23.888 10.1282 23.8102 10.1553C23.719 10.1875 23.6277 10.2195 23.5375 10.2537C23.4597 10.2835 23.3829 10.3144 23.3058 10.3461C23.2172 10.3833 23.1285 10.4206 23.041 10.4577C22.9643 10.4914 22.8884 10.5267 22.8124 10.5621C22.7264 10.6027 22.6407 10.644 22.5558 10.6869C22.4812 10.7249 22.4066 10.7638 22.3322 10.8035C22.2488 10.8482 22.166 10.894 22.0838 10.941C22.0092 10.9826 21.9359 11.0254 21.8641 11.069C21.7832 11.1177 21.7031 11.1681 21.6235 11.218C21.5518 11.2638 21.4807 11.31 21.4103 11.3576C21.3317 11.4106 21.2543 11.4657 21.1772 11.5208C21.1079 11.5704 21.0389 11.6199 20.9711 11.6699C20.8949 11.7272 20.8221 11.7869 20.7454 11.8463C20.6792 11.8993 20.6124 11.9518 20.5477 12.0066C20.4731 12.068 20.4024 12.1317 20.3305 12.1954C20.2669 12.2521 20.2027 12.3072 20.1405 12.366C20.0697 12.432 20.0008 12.5005 19.9317 12.5686C19.8716 12.6279 19.8105 12.6864 19.7516 12.7474C19.7409 12.7586 19.7305 12.771 19.7192 12.7825C20.5315 13.2022 21.3874 13.5316 22.2715 13.7648C22.7313 12.2992 23.549 10.9713 24.651 9.90137Z" fill="#C92135"/>
<path d="M19.93 27.4287C19.9993 27.4969 20.0683 27.5658 20.1394 27.6322C20.2012 27.6895 20.2649 27.7439 20.3284 27.8012C20.4006 27.8654 20.4728 27.9298 20.547 27.9916C20.6113 28.0456 20.677 28.0978 20.7428 28.1502C20.8174 28.2106 20.8918 28.2706 20.9707 28.3286C21.0378 28.379 21.1061 28.4277 21.1743 28.4777C21.2521 28.5336 21.3307 28.5894 21.41 28.6431C21.4796 28.69 21.5504 28.7358 21.6211 28.7809C21.7017 28.8326 21.7821 28.8833 21.8641 28.9324C21.9359 28.9757 22.0085 29.0181 22.0813 29.0596C22.1646 29.1072 22.248 29.1534 22.3323 29.1983C22.4066 29.2356 22.4812 29.2762 22.5558 29.3135C22.6414 29.3567 22.7278 29.3984 22.8164 29.4395C22.891 29.4746 22.9666 29.5092 23.0434 29.543C23.1316 29.5821 23.2205 29.6174 23.3097 29.6547C23.3864 29.6859 23.4628 29.7169 23.5403 29.7463C23.6307 29.7811 23.7223 29.8134 23.814 29.8451C23.8915 29.8722 23.969 29.8995 24.0475 29.9247C24.1406 29.9549 24.2338 29.9826 24.3294 30.01C24.4069 30.0328 24.4848 30.0559 24.563 30.0768C24.5931 30.085 24.6237 30.0913 24.6539 30.0992C23.5514 29.0285 22.7333 27.6999 22.2733 26.2334C21.3892 26.4667 20.5333 26.7961 19.7211 27.2161C19.732 27.2272 19.7423 27.2392 19.7533 27.2506C19.8091 27.311 19.8693 27.3696 19.93 27.4287Z" fill="#C92135"/>
<path d="M19.2149 26.6507C20.1097 26.166 21.0586 25.7884 22.0416 25.5258C21.5596 23.8498 21.3067 22.1164 21.2897 20.3726H16.8236C16.9049 22.672 17.7457 24.8798 19.2149 26.6507Z" fill="#C92135"/>
<path fill-rule="evenodd" clip-rule="evenodd" d="M67.4476 28.7272C67.1042 28.8878 66.7346 28.968 66.3388 28.968C65.9506 28.968 65.5996 28.8859 65.286 28.7216C64.9724 28.5574 64.7148 28.3259 64.5132 28.0272L64.4684 28.8H63.0236V20.4448H64.5916V23.6368C64.8007 23.3531 65.0639 23.1291 65.3812 22.9648C65.6986 22.8006 66.0476 22.7184 66.4284 22.7184C66.8167 22.7184 67.1751 22.7968 67.5036 22.9536C67.8322 23.1104 68.1196 23.3288 68.366 23.6088C68.6124 23.8888 68.8047 24.2155 68.9428 24.5888C69.081 24.9622 69.15 25.3691 69.15 25.8096C69.15 26.2576 69.0791 26.672 68.9372 27.0528C68.7954 27.4336 68.5975 27.7678 68.3436 28.0552C68.0898 28.3427 67.7911 28.5667 67.4476 28.7272ZM50.6812 23.0992L49.1244 28.8H47.4892L45.1484 20.848H46.8956L48.3516 26.5936L49.9308 20.848H51.4652L53.0444 26.5936L54.4892 20.848H56.1916L53.8508 28.8H52.238L50.6812 23.0992ZM60.3804 28.772C60.022 28.9027 59.6412 28.968 59.238 28.968C58.7975 28.968 58.3924 28.8915 58.0228 28.7384C57.6532 28.5854 57.334 28.3688 57.0652 28.0888C56.7964 27.8088 56.5874 27.4766 56.438 27.092C56.2887 26.7075 56.214 26.2875 56.214 25.832C56.214 25.3915 56.2887 24.9808 56.438 24.6C56.5874 24.2192 56.7946 23.8888 57.0596 23.6088C57.3247 23.3288 57.6364 23.1104 57.9948 22.9536C58.3532 22.7968 58.7415 22.7184 59.1596 22.7184C59.5927 22.7184 59.9866 22.7931 60.3412 22.9424C60.6959 23.0918 61.0002 23.3046 61.254 23.5808C61.5079 23.8571 61.7039 24.1856 61.842 24.5664C61.9802 24.9472 62.0492 25.3728 62.0492 25.8432V26.2352H57.8044C57.8716 26.6758 58.0322 27.0211 58.286 27.2712C58.5399 27.5214 58.861 27.6464 59.2492 27.6464C59.518 27.6464 59.7626 27.583 59.9828 27.456C60.2031 27.3291 60.3842 27.1462 60.526 26.9072L61.926 27.3552C61.7916 27.6912 61.59 27.9787 61.3212 28.2176C61.0524 28.4566 60.7388 28.6414 60.3804 28.772ZM60.4364 25.1824H57.8268C57.9015 24.7942 58.0564 24.488 58.2916 24.264C58.5268 24.04 58.8162 23.928 59.1596 23.928C59.4956 23.928 59.7775 24.04 60.0052 24.264C60.233 24.488 60.3767 24.7942 60.4364 25.1824ZM66.0588 27.5568C65.7751 27.5568 65.5212 27.4822 65.2972 27.3328C65.0732 27.1835 64.8959 26.98 64.7652 26.7224C64.6346 26.4648 64.5692 26.1718 64.5692 25.8432C64.5692 25.5147 64.6346 25.2216 64.7652 24.964C64.8959 24.7064 65.0732 24.503 65.2972 24.3536C65.5212 24.2043 65.7751 24.1296 66.0588 24.1296C66.3426 24.1296 66.5964 24.2043 66.8204 24.3536C67.0444 24.503 67.2218 24.7064 67.3524 24.964C67.4831 25.2216 67.5484 25.5147 67.5484 25.8432C67.5484 26.1718 67.4831 26.4648 67.3524 26.7224C67.2218 26.98 67.0444 27.1835 66.8204 27.3328C66.5964 27.4822 66.3426 27.5568 66.0588 27.5568ZM77.102 28.52C76.669 28.7067 76.1575 28.8 75.5676 28.8H72.622V20.848H75.5116C76.0492 20.848 76.514 20.932 76.906 21.1C77.298 21.268 77.6004 21.507 77.8132 21.8168C78.026 22.1267 78.1324 22.4907 78.1324 22.9088C78.1324 23.2896 78.0503 23.6238 77.886 23.9112C77.7218 24.1987 77.4903 24.4246 77.1916 24.5888C77.5948 24.7456 77.9084 24.9939 78.1324 25.3336C78.3564 25.6734 78.4684 26.0747 78.4684 26.5376C78.4684 27.0006 78.349 27.4 78.11 27.736C77.8711 28.072 77.5351 28.3334 77.102 28.52ZM75.3324 24.0512H74.2348V22.2256H75.3324C75.6983 22.2256 75.9802 22.304 76.178 22.4608C76.3759 22.6176 76.4748 22.8454 76.4748 23.144C76.4748 23.4427 76.3759 23.6686 76.178 23.8216C75.9802 23.9747 75.6983 24.0512 75.3324 24.0512ZM74.2348 27.4224H75.4892C75.9074 27.4224 76.2303 27.3328 76.458 27.1536C76.6858 26.9744 76.7996 26.7168 76.7996 26.3808C76.7996 26.0448 76.6858 25.7872 76.458 25.608C76.2303 25.4288 75.9074 25.3392 75.4892 25.3392H74.2348V27.4224ZM81.0332 28.8V25.8992C81.0332 25.4139 81.149 25.0387 81.3804 24.7736C81.6119 24.5086 81.9442 24.376 82.3772 24.376C82.4668 24.376 82.5546 24.3816 82.6404 24.3928C82.7263 24.404 82.8103 24.4246 82.8924 24.4544L83.0604 22.9088C82.9783 22.879 82.885 22.8547 82.7804 22.836C82.6759 22.8174 82.5714 22.808 82.4668 22.808C82.1234 22.808 81.8247 22.892 81.5708 23.06C81.317 23.228 81.1154 23.4688 80.966 23.7824L80.91 22.8864H79.4652V28.8H81.0332ZM87.8372 28.7328C87.4602 28.8896 87.0476 28.968 86.5996 28.968C86.1591 28.968 85.7522 28.8896 85.3788 28.7328C85.0055 28.576 84.6807 28.3576 84.4044 28.0776C84.1282 27.7976 83.9135 27.4672 83.7604 27.0864C83.6074 26.7056 83.5308 26.2912 83.5308 25.8432C83.5308 25.3952 83.6092 24.9827 83.766 24.6056C83.9228 24.2286 84.1412 23.8982 84.4212 23.6144C84.7012 23.3307 85.0298 23.1104 85.4068 22.9536C85.7839 22.7968 86.1964 22.7184 86.6444 22.7184C87.085 22.7184 87.4919 22.7968 87.8652 22.9536C88.2386 23.1104 88.5634 23.3288 88.8396 23.6088C89.1159 23.8888 89.3306 24.2174 89.4836 24.5944C89.6367 24.9715 89.7132 25.384 89.7132 25.832C89.7132 26.28 89.6348 26.6944 89.478 27.0752C89.3212 27.456 89.1028 27.7883 88.8228 28.072C88.5428 28.3558 88.2143 28.576 87.8372 28.7328ZM86.622 27.5568C86.3383 27.5568 86.0844 27.4822 85.8604 27.3328C85.6364 27.1835 85.4591 26.98 85.3284 26.7224C85.1978 26.4648 85.1324 26.1718 85.1324 25.8432C85.1324 25.5147 85.1978 25.2216 85.3284 24.964C85.4591 24.7064 85.6364 24.503 85.8604 24.3536C86.0844 24.2043 86.3383 24.1296 86.622 24.1296C86.9058 24.1296 87.1596 24.2043 87.3836 24.3536C87.6076 24.503 87.785 24.7064 87.9156 24.964C88.0463 25.2216 88.1116 25.5147 88.1116 25.8432C88.1116 26.1718 88.0463 26.4648 87.9156 26.7224C87.785 26.98 87.6076 27.1835 87.3836 27.3328C87.1596 27.4822 86.9058 27.5568 86.622 27.5568ZM94.63 24.8016L93.4428 28.8H92.0204L90.0604 22.8864H91.6732L92.782 26.8848L93.9804 22.8864H95.3356L96.534 26.896L97.6652 22.8864H99.222L97.262 28.8H95.8172L94.63 24.8016ZM102.1 28.968C102.451 28.968 102.772 28.9195 103.064 28.8224C103.355 28.7254 103.609 28.5872 103.825 28.408C104.042 28.2288 104.208 28.0198 104.324 27.7808C104.439 27.5419 104.497 27.2768 104.497 26.9856C104.497 26.5078 104.329 26.1139 103.993 25.804C103.657 25.4942 103.172 25.2832 102.537 25.1712L102.224 25.1152C101.873 25.0555 101.624 24.9752 101.479 24.8744C101.333 24.7736 101.26 24.6486 101.26 24.4992C101.26 24.3275 101.335 24.1856 101.484 24.0736C101.634 23.9616 101.824 23.9056 102.056 23.9056C102.28 23.9056 102.476 23.9691 102.644 24.096C102.812 24.223 102.933 24.3984 103.008 24.6224L104.408 24.3312C104.326 23.9952 104.176 23.7078 103.96 23.4688C103.743 23.2299 103.472 23.0451 103.148 22.9144C102.823 22.7838 102.463 22.7184 102.067 22.7184C101.619 22.7184 101.223 22.8006 100.88 22.9648C100.536 23.1291 100.267 23.355 100.073 23.6424C99.8791 23.9299 99.782 24.2603 99.782 24.6336C99.782 25.104 99.9482 25.4923 100.28 25.7984C100.613 26.1046 101.1 26.3136 101.742 26.4256L102.056 26.4816C102.392 26.5414 102.632 26.6254 102.778 26.7336C102.924 26.8419 102.996 26.9782 102.996 27.1424C102.996 27.3366 102.914 27.4896 102.75 27.6016C102.586 27.7136 102.377 27.7696 102.123 27.7696C101.854 27.7696 101.623 27.7024 101.428 27.568C101.234 27.4336 101.1 27.2507 101.025 27.0192L99.614 27.3216C99.7036 27.6576 99.866 27.9488 100.101 28.1952C100.336 28.4416 100.624 28.632 100.964 28.7664C101.303 28.9008 101.682 28.968 102.1 28.968ZM109.414 28.772C109.056 28.9027 108.675 28.968 108.272 28.968C107.831 28.968 107.426 28.8915 107.056 28.7384C106.687 28.5854 106.368 28.3688 106.099 28.0888C105.83 27.8088 105.621 27.4766 105.472 27.092C105.322 26.7075 105.248 26.2875 105.248 25.832C105.248 25.3915 105.322 24.9808 105.472 24.6C105.621 24.2192 105.828 23.8888 106.093 23.6088C106.358 23.3288 106.67 23.1104 107.028 22.9536C107.387 22.7968 107.775 22.7184 108.193 22.7184C108.626 22.7184 109.02 22.7931 109.375 22.9424C109.73 23.0918 110.034 23.3046 110.288 23.5808C110.542 23.8571 110.738 24.1856 110.876 24.5664C111.014 24.9472 111.083 25.3728 111.083 25.8432V26.2352H106.838C106.905 26.6758 107.066 27.0211 107.32 27.2712C107.574 27.5214 107.895 27.6464 108.283 27.6464C108.552 27.6464 108.796 27.583 109.016 27.456C109.237 27.3291 109.418 27.1462 109.56 26.9072L110.96 27.3552C110.825 27.6912 110.624 27.9787 110.355 28.2176C110.086 28.4566 109.772 28.6414 109.414 28.772ZM109.47 25.1824H106.86C106.935 24.7942 107.09 24.488 107.325 24.264C107.56 24.04 107.85 23.928 108.193 23.928C108.529 23.928 108.811 24.04 109.039 24.264C109.267 24.488 109.41 24.7942 109.47 25.1824ZM113.625 25.8992V28.8H112.057V22.8864H113.502L113.558 23.7824C113.707 23.4688 113.909 23.228 114.163 23.06C114.417 22.892 114.715 22.808 115.059 22.808C115.163 22.808 115.268 22.8174 115.372 22.836C115.477 22.8547 115.57 22.879 115.652 22.9088L115.484 24.4544C115.402 24.4246 115.318 24.404 115.232 24.3928C115.147 24.3816 115.059 24.376 114.969 24.376C114.536 24.376 114.204 24.5086 113.972 24.7736C113.741 25.0387 113.625 25.4139 113.625 25.8992Z" fill="#6E7883"/>
<path fill-rule="evenodd" clip-rule="evenodd" d="M48.5356 15.192C48.2583 15.304 47.9489 15.36 47.6076 15.36C47.2663 15.36 46.9583 15.3054 46.6836 15.196C46.4089 15.0867 46.1729 14.928 45.9756 14.72C45.7783 14.512 45.6276 14.2627 45.5236 13.972C45.4196 13.6814 45.3676 13.3574 45.3676 13V9.52002H46.0396V12.976C46.0396 13.3387 46.1036 13.652 46.2316 13.916C46.3596 14.18 46.5409 14.384 46.7756 14.528C47.0103 14.672 47.2903 14.744 47.6156 14.744C47.9409 14.744 48.2209 14.672 48.4556 14.528C48.6903 14.384 48.8716 14.18 48.9996 13.916C49.1276 13.652 49.1916 13.3387 49.1916 12.976V9.52002H49.8636V13C49.8636 13.3574 49.8103 13.68 49.7036 13.968C49.5969 14.256 49.4449 14.504 49.2476 14.712C49.0503 14.92 48.8129 15.08 48.5356 15.192ZM52.8916 15.224C52.7023 15.288 52.4956 15.32 52.2716 15.32C52.0316 15.32 51.8063 15.28 51.5956 15.2C51.3849 15.12 51.2023 15.0054 51.0476 14.856C50.8929 14.7067 50.7756 14.5307 50.6956 14.328L51.2716 14.12C51.3783 14.3227 51.5169 14.48 51.6876 14.592C51.8583 14.704 52.0529 14.76 52.2716 14.76C52.4476 14.76 52.6023 14.7307 52.7356 14.672C52.8689 14.6134 52.9729 14.532 53.0476 14.428C53.1223 14.324 53.1596 14.208 53.1596 14.08C53.1596 13.7334 52.9089 13.5094 52.4076 13.408L52.0956 13.344C51.6583 13.2587 51.3356 13.1187 51.1276 12.924C50.9196 12.7294 50.8156 12.4827 50.8156 12.184C50.8156 11.944 50.8769 11.7307 50.9996 11.544C51.1223 11.3574 51.2943 11.212 51.5156 11.108C51.7369 11.004 51.9889 10.952 52.2716 10.952C52.5063 10.952 52.7223 10.9907 52.9196 11.068C53.1169 11.1454 53.2863 11.2587 53.4276 11.408C53.5689 11.5574 53.6769 11.7334 53.7516 11.936L53.1756 12.128C53.0903 11.9307 52.9689 11.7774 52.8116 11.668C52.6543 11.5587 52.4716 11.504 52.2636 11.504C52.1036 11.504 51.9636 11.5307 51.8436 11.584C51.7236 11.6374 51.6289 11.7094 51.5596 11.8C51.4903 11.8907 51.4556 11.9974 51.4556 12.12C51.4556 12.2907 51.5209 12.4267 51.6516 12.528C51.7823 12.6294 51.9943 12.7094 52.2876 12.768L52.5996 12.832C52.9943 12.912 53.2956 13.052 53.5036 13.252C53.7116 13.452 53.8156 13.7067 53.8156 14.016C53.8156 14.208 53.7769 14.3827 53.6996 14.54C53.6223 14.6974 53.5156 14.8347 53.3796 14.952C53.2436 15.0694 53.0809 15.16 52.8916 15.224ZM56.5356 15.32C56.7863 15.32 57.0223 15.2814 57.2436 15.204C57.4649 15.1267 57.6609 15.016 57.8316 14.872C58.0023 14.728 58.1409 14.5547 58.2476 14.352L57.7036 14.104C57.5649 14.3174 57.3983 14.4787 57.2036 14.588C57.0089 14.6974 56.7809 14.752 56.5196 14.752C56.2529 14.752 56.0183 14.6907 55.8156 14.568C55.6129 14.4454 55.4516 14.272 55.3316 14.048C55.2116 13.824 55.1409 13.5627 55.1196 13.264H58.3276V13C58.3276 12.7067 58.2809 12.4347 58.1876 12.184C58.0943 11.9334 57.9623 11.7174 57.7916 11.536C57.6209 11.3547 57.4196 11.2134 57.1876 11.112C56.9556 11.0107 56.7036 10.96 56.4316 10.96C56.1489 10.96 55.8876 11.0147 55.6476 11.124C55.4076 11.2334 55.1983 11.3867 55.0196 11.584C54.8409 11.7814 54.7023 12.012 54.6036 12.276C54.5049 12.54 54.4556 12.8294 54.4556 13.144C54.4556 13.464 54.5063 13.756 54.6076 14.02C54.7089 14.284 54.8529 14.5134 55.0396 14.708C55.2263 14.9027 55.4463 15.0534 55.6996 15.16C55.9529 15.2667 56.2316 15.32 56.5356 15.32ZM55.1516 12.768H57.6556C57.6343 12.5174 57.5676 12.2974 57.4556 12.108C57.3436 11.9187 57.1996 11.7707 57.0236 11.664C56.8476 11.5574 56.6503 11.504 56.4316 11.504C56.2129 11.504 56.0143 11.5574 55.8356 11.664C55.6569 11.7707 55.5076 11.9187 55.3876 12.108C55.2676 12.2974 55.1889 12.5174 55.1516 12.768ZM62.8236 15.32C63.1169 15.32 63.3889 15.2654 63.6396 15.156C63.8903 15.0467 64.1076 14.8947 64.2916 14.7C64.4756 14.5054 64.6196 14.2747 64.7236 14.008C64.8276 13.7414 64.8796 13.4507 64.8796 13.136C64.8796 12.8214 64.8289 12.5307 64.7276 12.264C64.6263 11.9974 64.4836 11.7667 64.2996 11.572C64.1156 11.3774 63.8996 11.2254 63.6516 11.116C63.4036 11.0067 63.1329 10.952 62.8396 10.952C62.5463 10.952 62.2743 11.0067 62.0236 11.116C61.7729 11.2254 61.5556 11.3774 61.3716 11.572C61.1876 11.7667 61.0436 11.9974 60.9396 12.264C60.8356 12.5307 60.7836 12.8214 60.7836 13.136C60.7836 13.4507 60.8343 13.7414 60.9356 14.008C61.0369 14.2747 61.1796 14.5054 61.3636 14.7C61.5476 14.8947 61.7636 15.0467 62.0116 15.156C62.2596 15.2654 62.5303 15.32 62.8236 15.32ZM62.2756 14.616C62.4436 14.696 62.6289 14.736 62.8316 14.736C63.0343 14.736 63.2196 14.696 63.3876 14.616C63.5556 14.536 63.7023 14.4254 63.8276 14.284C63.9529 14.1427 64.0503 13.9747 64.1196 13.78C64.1889 13.5854 64.2236 13.3707 64.2236 13.136C64.2236 12.9014 64.1889 12.6867 64.1196 12.492C64.0503 12.2974 63.9529 12.1294 63.8276 11.988C63.7023 11.8467 63.5556 11.736 63.3876 11.656C63.2196 11.576 63.0343 11.536 62.8316 11.536C62.6289 11.536 62.4436 11.576 62.2756 11.656C62.1076 11.736 61.9609 11.8467 61.8356 11.988C61.7103 12.1294 61.6129 12.2974 61.5436 12.492C61.4743 12.6867 61.4396 12.9014 61.4396 13.136C61.4396 13.3707 61.4743 13.5854 61.5436 13.78C61.6129 13.9747 61.7103 14.1427 61.8356 14.284C61.9609 14.4254 62.1076 14.536 62.2756 14.616ZM66.4316 15.2V12.752C66.4316 12.5174 66.4823 12.308 66.5836 12.124C66.6849 11.94 66.8249 11.796 67.0036 11.692C67.1823 11.588 67.3863 11.536 67.6156 11.536C67.9463 11.536 68.2009 11.648 68.3796 11.872C68.5583 12.096 68.6476 12.4134 68.6476 12.824V15.2H69.2876V12.784C69.2876 12.4107 69.2249 12.0867 69.0996 11.812C68.9743 11.5374 68.7943 11.3254 68.5596 11.176C68.3249 11.0267 68.0503 10.952 67.7356 10.952C67.4316 10.952 67.1636 11.0227 66.9316 11.164C66.6996 11.3054 66.5223 11.4934 66.3996 11.728L66.3676 11.072H65.7916V15.2H66.4316ZM73.2396 16.652C73.0263 16.8254 72.7729 16.912 72.4796 16.912C72.3676 16.912 72.2636 16.9 72.1676 16.876C72.0716 16.852 71.9729 16.8134 71.8716 16.76L72.0556 16.248C72.1089 16.28 72.1689 16.304 72.2356 16.32C72.3023 16.336 72.3729 16.344 72.4476 16.344C72.6129 16.344 72.7583 16.292 72.8836 16.188C73.0089 16.084 73.1169 15.92 73.2076 15.696L73.4236 15.16L71.7116 11.072H72.4156L73.7356 14.464L74.9276 11.072H75.6076L73.7676 15.848C73.6289 16.2107 73.4529 16.4787 73.2396 16.652ZM78.0476 15.32C78.3409 15.32 78.6129 15.2654 78.8636 15.156C79.1143 15.0467 79.3316 14.8947 79.5156 14.7C79.6996 14.5054 79.8436 14.2747 79.9476 14.008C80.0516 13.7414 80.1036 13.4507 80.1036 13.136C80.1036 12.8214 80.0529 12.5307 79.9516 12.264C79.8503 11.9974 79.7076 11.7667 79.5236 11.572C79.3396 11.3774 79.1236 11.2254 78.8756 11.116C78.6276 11.0067 78.3569 10.952 78.0636 10.952C77.7703 10.952 77.4983 11.0067 77.2476 11.116C76.9969 11.2254 76.7796 11.3774 76.5956 11.572C76.4116 11.7667 76.2676 11.9974 76.1636 12.264C76.0596 12.5307 76.0076 12.8214 76.0076 13.136C76.0076 13.4507 76.0583 13.7414 76.1596 14.008C76.2609 14.2747 76.4036 14.5054 76.5876 14.7C76.7716 14.8947 76.9876 15.0467 77.2356 15.156C77.4836 15.2654 77.7543 15.32 78.0476 15.32ZM77.4996 14.616C77.6676 14.696 77.8529 14.736 78.0556 14.736C78.2583 14.736 78.4436 14.696 78.6116 14.616C78.7796 14.536 78.9263 14.4254 79.0516 14.284C79.1769 14.1427 79.2743 13.9747 79.3436 13.78C79.4129 13.5854 79.4476 13.3707 79.4476 13.136C79.4476 12.9014 79.4129 12.6867 79.3436 12.492C79.2743 12.2974 79.1769 12.1294 79.0516 11.988C78.9263 11.8467 78.7796 11.736 78.6116 11.656C78.4436 11.576 78.2583 11.536 78.0556 11.536C77.8529 11.536 77.6676 11.576 77.4996 11.656C77.3316 11.736 77.1849 11.8467 77.0596 11.988C76.9343 12.1294 76.8369 12.2974 76.7676 12.492C76.6983 12.6867 76.6636 12.9014 76.6636 13.136C76.6636 13.3707 76.6983 13.5854 76.7676 13.78C76.8369 13.9747 76.9343 14.1427 77.0596 14.284C77.1849 14.4254 77.3316 14.536 77.4996 14.616ZM82.6956 15.32C83.0476 15.32 83.3543 15.2414 83.6156 15.084C83.8769 14.9267 84.0796 14.704 84.2236 14.416C84.3676 14.128 84.4396 13.792 84.4396 13.408V11.072H83.7996V13.416C83.7996 13.688 83.7556 13.9227 83.6676 14.12C83.5796 14.3174 83.4543 14.4694 83.2916 14.576C83.1289 14.6827 82.9356 14.736 82.7116 14.736C82.4876 14.736 82.2943 14.6827 82.1316 14.576C81.9689 14.4694 81.8436 14.3174 81.7556 14.12C81.6676 13.9227 81.6236 13.688 81.6236 13.416V11.072H80.9836V13.408C80.9836 13.8027 81.0529 14.1427 81.1916 14.428C81.3303 14.7134 81.5276 14.9334 81.7836 15.088C82.0396 15.2427 82.3436 15.32 82.6956 15.32ZM86.3076 12.284C86.2143 12.4894 86.1676 12.7307 86.1676 13.008V15.2H85.5276V11.072H86.1036L86.1436 11.84C86.2449 11.584 86.3969 11.3827 86.5996 11.236C86.8023 11.0894 87.0396 11.016 87.3116 11.016C87.4023 11.016 87.4836 11.0227 87.5556 11.036C87.6276 11.0494 87.6903 11.0667 87.7436 11.088L87.6636 11.696C87.6049 11.6747 87.5436 11.66 87.4796 11.652C87.4156 11.644 87.3516 11.64 87.2876 11.64C87.0636 11.64 86.8676 11.696 86.6996 11.808C86.5316 11.92 86.4009 12.0787 86.3076 12.284Z" fill="#6E7883"/>
</svg>
