<svg width="84" height="84" viewBox="0 0 84 84" fill="none" xmlns="http://www.w3.org/2000/svg">
<circle cx="42" cy="42" r="41.5" fill="#F2F2F2" stroke="white"/>
<path d="M25.0329 65.7794C25.5616 65.7794 26.02 65.6958 26.4082 65.5285C26.7963 65.3612 27.0975 65.127 27.3116 64.8258C27.5258 64.5246 27.6329 64.1666 27.6329 63.7517C27.6329 63.3368 27.5325 62.9771 27.3317 62.6726C27.1309 62.3681 26.8499 62.1455 26.4885 62.005C26.7562 61.8578 26.9636 61.6553 27.1109 61.3977C27.2581 61.14 27.3317 60.8405 27.3317 60.4992C27.3317 60.1245 27.2364 59.7982 27.0456 59.5205C26.8549 59.2428 26.5839 59.0286 26.2325 58.878C25.8812 58.7275 25.4646 58.6522 24.9827 58.6522H22.3928V65.7794H25.0329ZM24.8221 61.5232H23.8384V59.8869H24.8221C25.15 59.8869 25.4027 59.9572 25.58 60.0977C25.7574 60.2382 25.846 60.4424 25.846 60.7101C25.846 60.9777 25.7574 61.1802 25.58 61.3174C25.4027 61.4546 25.15 61.5232 24.8221 61.5232ZM24.9627 64.5447H23.8384V62.6776H24.9627C25.3374 62.6776 25.6269 62.7579 25.831 62.9185C26.0351 63.0791 26.1371 63.31 26.1371 63.6112C26.1371 63.9123 26.0351 64.1432 25.831 64.3038C25.6269 64.4644 25.3374 64.5447 24.9627 64.5447ZM30.9154 65.93C31.2835 65.93 31.6164 65.8698 31.9142 65.7493C32.2121 65.6289 32.468 65.4582 32.6822 65.2374C32.8963 65.0165 33.0603 64.7522 33.1741 64.4443C33.2878 64.1365 33.3447 63.7918 33.3447 63.4104V60.4792H31.9393V63.4405C31.9393 63.822 31.849 64.1214 31.6683 64.3389C31.4876 64.5564 31.2433 64.6652 30.9355 64.6652C30.6277 64.6652 30.3834 64.5564 30.2027 64.3389C30.022 64.1214 29.9317 63.822 29.9317 63.4405V60.4792H28.5263V63.4104C28.5263 63.9257 28.625 64.3724 28.8224 64.7505C29.0198 65.1286 29.2976 65.4197 29.6556 65.6238C30.0136 65.828 30.4336 65.93 30.9154 65.93ZM36.3763 65.93C36.6909 65.93 36.9786 65.8865 37.2396 65.7995C37.5006 65.7125 37.7282 65.5887 37.9222 65.4281C38.1163 65.2675 38.2652 65.0801 38.3689 64.8659C38.4727 64.6518 38.5245 64.4142 38.5245 64.1532C38.5245 63.7249 38.374 63.3719 38.0728 63.0942C37.7717 62.8164 37.3367 62.6274 36.7678 62.527L36.4867 62.4768C36.1722 62.4233 35.9497 62.3513 35.8192 62.261C35.6887 62.1706 35.6234 62.0585 35.6234 61.9247C35.6234 61.7708 35.6904 61.6436 35.8242 61.5432C35.958 61.4429 36.1287 61.3927 36.3362 61.3927C36.5369 61.3927 36.7126 61.4495 36.8632 61.5633C37.0138 61.6771 37.1225 61.8344 37.1894 62.0351L38.4442 61.7741C38.3706 61.473 38.2368 61.2153 38.0427 61.0012C37.8486 60.787 37.606 60.6214 37.3149 60.5043C37.0238 60.3871 36.7009 60.3286 36.3462 60.3286C35.9447 60.3286 35.59 60.4022 35.2821 60.5494C34.9743 60.6967 34.7334 60.8991 34.5594 61.1568C34.3854 61.4144 34.2984 61.7105 34.2984 62.0452C34.2984 62.4668 34.4473 62.8148 34.7451 63.0892C35.0429 63.3635 35.4795 63.5509 36.0551 63.6513L36.3362 63.7015C36.6373 63.755 36.8531 63.8303 36.9836 63.9274C37.1141 64.0244 37.1794 64.1465 37.1794 64.2938C37.1794 64.4678 37.1058 64.605 36.9585 64.7053C36.8113 64.8057 36.6239 64.8559 36.3964 64.8559C36.1555 64.8559 35.948 64.7957 35.774 64.6752C35.6 64.5548 35.4796 64.3908 35.4126 64.1833L34.1478 64.4544C34.2281 64.7555 34.3737 65.0165 34.5845 65.2374C34.7953 65.4582 35.0529 65.6289 35.3574 65.7493C35.6619 65.8698 36.0015 65.93 36.3763 65.93ZM40.1006 59.8467C40.2478 59.8467 40.3833 59.8116 40.5071 59.7413C40.6309 59.6711 40.728 59.5757 40.7982 59.4552C40.8685 59.3348 40.9036 59.1976 40.9036 59.0437C40.9036 58.8897 40.8685 58.7526 40.7982 58.6321C40.728 58.5116 40.6309 58.4163 40.5071 58.346C40.3833 58.2757 40.2478 58.2406 40.1006 58.2406C39.9533 58.2406 39.8178 58.2757 39.694 58.346C39.5702 58.4163 39.4732 58.5116 39.4029 58.6321C39.3326 58.7526 39.2975 58.8897 39.2975 59.0437C39.2975 59.1976 39.3326 59.3348 39.4029 59.4552C39.4732 59.5757 39.5702 59.6711 39.694 59.7413C39.8178 59.8116 39.9533 59.8467 40.1006 59.8467ZM40.8032 65.7794V60.4792H39.3979V65.7794H40.8032ZM43.3329 65.7794V62.7378C43.3329 62.517 43.3798 62.3195 43.4735 62.1455C43.5672 61.9715 43.6943 61.836 43.8549 61.739C44.0155 61.6419 44.2029 61.5934 44.4171 61.5934C44.7115 61.5934 44.9424 61.6988 45.1097 61.9096C45.277 62.1204 45.3607 62.4099 45.3607 62.778V65.7794H46.7661V62.5973C46.7661 62.1355 46.6858 61.734 46.5251 61.3927C46.3645 61.0514 46.1387 60.7887 45.8475 60.6046C45.5564 60.4206 45.2168 60.3286 44.8286 60.3286C44.4807 60.3286 44.1711 60.4039 43.9001 60.5545C43.6291 60.705 43.4166 60.9075 43.2627 61.1618L43.2225 60.4792H41.9275V65.7794H43.3329ZM50.4 65.93C50.7613 65.93 51.1026 65.8715 51.4239 65.7543C51.7451 65.6372 52.0262 65.4716 52.2671 65.2574C52.508 65.0433 52.6887 64.7856 52.8092 64.4845L51.5544 64.083C51.4272 64.2971 51.2649 64.4611 51.0675 64.5748C50.8701 64.6886 50.6509 64.7455 50.41 64.7455C50.062 64.7455 49.7742 64.6334 49.5467 64.4092C49.3192 64.185 49.1753 63.8755 49.115 63.4807H52.9196V63.1293C52.9196 62.7077 52.8577 62.3262 52.7339 61.9849C52.6101 61.6436 52.4344 61.3492 52.2069 61.1015C51.9793 60.8539 51.7066 60.6632 51.3887 60.5294C51.0709 60.3955 50.7178 60.3286 50.3297 60.3286C49.9549 60.3286 49.6069 60.3989 49.2857 60.5394C48.9645 60.6799 48.6851 60.8757 48.4475 61.1266C48.2099 61.3776 48.0242 61.6737 47.8904 62.015C47.7565 62.3563 47.6896 62.7244 47.6896 63.1193C47.6896 63.5275 47.7565 63.9039 47.8904 64.2486C48.0242 64.5932 48.2116 64.891 48.4525 65.142C48.6934 65.393 48.9795 65.587 49.3108 65.7242C49.6421 65.8614 50.0051 65.93 50.4 65.93ZM51.4741 62.537H49.1351C49.202 62.189 49.3409 61.9147 49.5517 61.7139C49.7625 61.5131 50.0218 61.4127 50.3297 61.4127C50.6308 61.4127 50.8835 61.5131 51.0876 61.7139C51.2917 61.9147 51.4205 62.189 51.4741 62.537ZM55.7605 65.93C56.075 65.93 56.3628 65.8865 56.6238 65.7995C56.8848 65.7125 57.1123 65.5887 57.3064 65.4281C57.5005 65.2675 57.6494 65.0801 57.7531 64.8659C57.8568 64.6518 57.9087 64.4142 57.9087 64.1532C57.9087 63.7249 57.7581 63.3719 57.457 63.0942C57.1558 62.8164 56.7208 62.6274 56.152 62.527L55.8709 62.4768C55.5564 62.4233 55.3338 62.3513 55.2033 62.261C55.0728 62.1706 55.0076 62.0585 55.0076 61.9247C55.0076 61.7708 55.0745 61.6436 55.2084 61.5432C55.3422 61.4429 55.5129 61.3927 55.7203 61.3927C55.9211 61.3927 56.0968 61.4495 56.2473 61.5633C56.3979 61.6771 56.5067 61.8344 56.5736 62.0351L57.8284 61.7741C57.7548 61.473 57.6209 61.2153 57.4268 61.0012C57.2328 60.787 56.9902 60.6214 56.6991 60.5043C56.4079 60.3871 56.085 60.3286 55.7304 60.3286C55.3288 60.3286 54.9741 60.4022 54.6663 60.5494C54.3584 60.6967 54.1175 60.8991 53.9435 61.1568C53.7695 61.4144 53.6825 61.7105 53.6825 62.0452C53.6825 62.4668 53.8314 62.8148 54.1292 63.0892C54.427 63.3635 54.8637 63.5509 55.4392 63.6513L55.7203 63.7015C56.0215 63.755 56.2373 63.8303 56.3678 63.9274C56.4983 64.0244 56.5635 64.1465 56.5635 64.2938C56.5635 64.4678 56.4899 64.605 56.3427 64.7053C56.1955 64.8057 56.0081 64.8559 55.7805 64.8559C55.5396 64.8559 55.3322 64.7957 55.1582 64.6752C54.9842 64.5548 54.8637 64.3908 54.7968 64.1833L53.5319 64.4544C53.6122 64.7555 53.7578 65.0165 53.9686 65.2374C54.1794 65.4582 54.4371 65.6289 54.7416 65.7493C55.0461 65.8698 55.3857 65.93 55.7605 65.93ZM60.6893 65.93C61.0039 65.93 61.2916 65.8865 61.5526 65.7995C61.8136 65.7125 62.0412 65.5887 62.2352 65.4281C62.4293 65.2675 62.5782 65.0801 62.6819 64.8659C62.7857 64.6518 62.8375 64.4142 62.8375 64.1532C62.8375 63.7249 62.687 63.3719 62.3858 63.0942C62.0847 62.8164 61.6497 62.6274 61.0808 62.527L60.7997 62.4768C60.4852 62.4233 60.2627 62.3513 60.1322 62.261C60.0017 62.1706 59.9364 62.0585 59.9364 61.9247C59.9364 61.7708 60.0034 61.6436 60.1372 61.5432C60.2711 61.4429 60.4417 61.3927 60.6492 61.3927C60.8499 61.3927 61.0256 61.4495 61.1762 61.5633C61.3268 61.6771 61.4355 61.8344 61.5024 62.0351L62.7572 61.7741C62.6836 61.473 62.5498 61.2153 62.3557 61.0012C62.1616 60.787 61.919 60.6214 61.6279 60.5043C61.3368 60.3871 61.0139 60.3286 60.6592 60.3286C60.2577 60.3286 59.903 60.4022 59.5951 60.5494C59.2873 60.6967 59.0464 60.8991 58.8724 61.1568C58.6984 61.4144 58.6114 61.7105 58.6114 62.0452C58.6114 62.4668 58.7603 62.8148 59.0581 63.0892C59.3559 63.3635 59.7926 63.5509 60.3681 63.6513L60.6492 63.7015C60.9503 63.755 61.1661 63.8303 61.2966 63.9274C61.4271 64.0244 61.4924 64.1465 61.4924 64.2938C61.4924 64.4678 61.4188 64.605 61.2715 64.7053C61.1243 64.8057 60.9369 64.8559 60.7094 64.8559C60.4685 64.8559 60.261 64.7957 60.087 64.6752C59.913 64.5548 59.7926 64.3908 59.7256 64.1833L58.4608 64.4544C58.5411 64.7555 58.6867 65.0165 58.8975 65.2374C59.1083 65.4582 59.3659 65.6289 59.6704 65.7493C59.9749 65.8698 60.3146 65.93 60.6893 65.93Z" fill="#C4C4C4"/>
<path d="M45.7581 28.1661C45.8335 28.7493 45.8335 29.3398 45.7581 29.923C45.2917 33.8301 41.7581 36.6241 37.8545 36.1724C36.8647 36.0545 35.967 36.7624 35.8493 37.7535C35.7317 38.7446 36.4386 39.6435 37.4284 39.7614C40.2592 40.103 43.1093 39.3013 45.3483 37.5334C47.5873 35.7656 49.0306 33.1774 49.359 30.3413C49.4104 29.8914 49.4327 29.4387 49.4258 28.986C48.509 28.4307 47.4562 28.1411 46.3847 28.1494C46.1752 28.1508 45.9659 28.1648 45.7581 28.1912" fill="#C4C4C4"/>
<path d="M54.3219 26.7613C54.2427 26.6321 54.1503 26.5115 54.0462 26.4016C52.0391 24.3786 49.3078 23.243 46.46 23.2476H46.3514C40.4404 23.2752 35.6619 28.0788 35.6573 33.9979C35.6537 34.0452 35.6537 34.0927 35.6573 34.1401V47.4587C35.6573 48.5907 34.7409 49.5084 33.6104 49.5084C32.4799 49.5084 31.5635 48.5907 31.5635 47.4587V40.607C31.5635 40.5652 31.5635 40.515 31.5635 40.4731V29.2627C31.5397 25.2972 34.6974 22.046 38.6567 21.9592H38.8572C39.0744 21.9592 39.2916 21.9592 39.5089 21.9592C40.3893 22.0785 41.2395 22.3622 42.0153 22.7958C43.3935 22.2502 44.8611 21.9665 46.3431 21.9592H46.7107L46.5937 21.8337C44.8601 19.9071 42.483 18.6813 39.9099 18.387C39.6008 18.3451 39.2415 18.3451 38.8906 18.3451H38.5982C33.2016 18.4076 28.6874 22.4662 28.0461 27.8321C28.0337 27.9433 28.0337 28.0556 28.0461 28.1668C28.0461 28.5265 27.996 28.8946 27.996 29.2627V38.6828C27.9914 38.7273 27.9914 38.7722 27.996 38.8167V47.4587C27.9164 49.5326 28.9759 51.484 30.7574 52.5446C32.5389 53.6053 34.7571 53.6053 36.5386 52.5446C38.3201 51.484 39.3796 49.5326 39.3 47.4587V34.1652C39.2767 30.1773 42.4694 26.9168 46.4517 26.8617C49.2341 26.8684 51.7581 28.4959 52.9155 31.0296C54.0728 33.5632 53.6517 36.5397 51.8371 38.6518C50.0226 40.7639 47.1464 41.6254 44.4716 40.858C43.5118 40.5877 42.515 41.1476 42.2451 42.1087C41.9751 43.0697 42.5343 44.0679 43.4941 44.3382C48.1047 45.6503 53.025 43.7404 55.5479 39.6595C58.0708 35.5786 57.584 30.317 54.3553 26.7697" fill="#C4C4C4"/>
</svg>
