<svg width="164" height="54" viewBox="0 0 164 54" fill="none" xmlns="http://www.w3.org/2000/svg">
<path fill-rule="evenodd" clip-rule="evenodd" d="M137.385 46.5106C137.24 46.5928 137.081 46.634 136.909 46.634C136.736 46.634 136.578 46.5928 136.433 46.5106C136.288 46.4283 136.174 46.3166 136.092 46.1756C136.01 46.0346 135.968 45.8739 135.968 45.6937C135.968 45.5135 136.01 45.3529 136.092 45.2118C136.174 45.0708 136.288 44.9591 136.433 44.8768C136.578 44.7946 136.736 44.7534 136.909 44.7534C137.081 44.7534 137.24 44.7946 137.385 44.8768C137.53 44.9591 137.643 45.0708 137.726 45.2118C137.808 45.3529 137.849 45.5135 137.849 45.6937C137.849 45.8739 137.808 46.0346 137.726 46.1756C137.643 46.3166 137.53 46.4283 137.385 46.5106ZM120.877 53.2864C120.423 53.4823 119.886 53.5802 119.267 53.5802H116.176V45.2353H119.208C119.772 45.2353 120.26 45.3235 120.671 45.4998C121.083 45.6761 121.4 45.9268 121.623 46.252C121.847 46.5772 121.958 46.9592 121.958 47.3979C121.958 47.7976 121.872 48.1482 121.7 48.4499C121.527 48.7515 121.285 48.9886 120.971 49.161C121.394 49.3255 121.723 49.586 121.958 49.9426C122.194 50.2991 122.311 50.7202 122.311 51.206C122.311 51.6918 122.186 52.111 121.935 52.4637C121.684 52.8163 121.332 53.0905 120.877 53.2864ZM117.868 48.5968H119.02C119.404 48.5968 119.7 48.5165 119.907 48.3558C120.115 48.1952 120.219 47.9582 120.219 47.6448C120.219 47.3313 120.115 47.0924 119.907 46.9278C119.7 46.7633 119.404 46.681 119.02 46.681H117.868V48.5968ZM119.185 52.1346H117.868V49.9484H119.185C119.623 49.9484 119.962 50.0425 120.201 50.2305C120.44 50.4186 120.56 50.6889 120.56 51.0415C120.56 51.3941 120.44 51.6644 120.201 51.8525C119.962 52.0405 119.623 52.1346 119.185 52.1346ZM127.324 53.545C126.975 53.686 126.585 53.7565 126.154 53.7565C125.59 53.7565 125.099 53.637 124.679 53.398C124.26 53.1591 123.935 52.8182 123.704 52.3755C123.473 51.9328 123.357 51.4098 123.357 50.8064V47.3744H125.003V50.8417C125.003 51.2883 125.108 51.639 125.32 51.8936C125.531 52.1483 125.817 52.2756 126.178 52.2756C126.538 52.2756 126.824 52.1483 127.036 51.8936C127.247 51.639 127.353 51.2883 127.353 50.8417V47.3744H128.999V50.8064C128.999 51.2531 128.932 51.6566 128.799 52.017C128.666 52.3775 128.474 52.687 128.223 52.9455C127.972 53.2041 127.673 53.4039 127.324 53.545ZM132.548 53.7565C132.917 53.7565 133.253 53.7056 133.559 53.6037C133.865 53.5019 134.131 53.3569 134.358 53.1689C134.585 52.9808 134.76 52.7614 134.881 52.5107C135.003 52.2599 135.063 51.9818 135.063 51.6762C135.063 51.1747 134.887 50.7614 134.535 50.4362C134.182 50.111 133.673 49.8897 133.007 49.7721L132.678 49.7134C132.309 49.6507 132.049 49.5664 131.896 49.4607C131.743 49.3549 131.667 49.2236 131.667 49.0669C131.667 48.8867 131.745 48.7378 131.902 48.6203C132.059 48.5028 132.258 48.444 132.501 48.444C132.736 48.444 132.942 48.5106 133.118 48.6438C133.295 48.777 133.422 48.9611 133.5 49.1962L134.969 48.8906C134.883 48.538 134.727 48.2364 134.499 47.9856C134.272 47.7349 133.988 47.5409 133.647 47.4038C133.306 47.2667 132.928 47.1981 132.513 47.1981C132.043 47.1981 131.628 47.2843 131.267 47.4567C130.907 47.6291 130.625 47.8661 130.421 48.1678C130.217 48.4695 130.115 48.8162 130.115 49.208C130.115 49.7016 130.29 50.1091 130.638 50.4303C130.987 50.7516 131.498 50.971 132.172 51.0885L132.501 51.1473C132.854 51.21 133.107 51.2981 133.259 51.4117C133.412 51.5253 133.489 51.6683 133.489 51.8407C133.489 52.0444 133.402 52.2051 133.23 52.3226C133.058 52.4401 132.838 52.4989 132.572 52.4989C132.29 52.4989 132.047 52.4284 131.843 52.2873C131.639 52.1463 131.498 51.9543 131.42 51.7114L129.939 52.0288C130.033 52.3814 130.203 52.687 130.45 52.9455C130.697 53.2041 130.999 53.4039 131.355 53.545C131.712 53.686 132.109 53.7565 132.548 53.7565ZM137.731 53.5802V47.3744H136.086V53.5802H137.731ZM140.693 50.0189V53.5802H139.048V47.3744H140.564L140.611 48.1737C140.791 47.8759 141.04 47.6389 141.357 47.4626C141.675 47.2863 142.037 47.1981 142.445 47.1981C142.899 47.1981 143.297 47.3059 143.638 47.5214C143.978 47.7368 144.243 48.0444 144.431 48.444C144.619 48.8436 144.713 49.3137 144.713 49.8544V53.5802H143.068V50.066C143.068 49.635 142.97 49.2961 142.774 49.0493C142.578 48.8025 142.307 48.6791 141.963 48.6791C141.712 48.6791 141.493 48.7359 141.305 48.8495C141.116 48.9631 140.968 49.1218 140.858 49.3255C140.748 49.5292 140.693 49.7604 140.693 50.0189ZM148.968 53.7565C149.391 53.7565 149.79 53.688 150.167 53.5508C150.543 53.4137 150.872 53.2198 151.154 52.969C151.436 52.7183 151.647 52.4166 151.789 52.064L150.319 51.5939C150.17 51.8446 149.98 52.0366 149.749 52.1698C149.518 52.303 149.262 52.3696 148.979 52.3696C148.572 52.3696 148.235 52.2384 147.969 51.9759C147.702 51.7134 147.534 51.351 147.463 50.8887H151.918V50.4773C151.918 49.9837 151.845 49.5371 151.7 49.1374C151.555 48.7378 151.35 48.3931 151.083 48.1031C150.817 47.8132 150.498 47.5899 150.125 47.4332C149.753 47.2765 149.34 47.1981 148.885 47.1981C148.447 47.1981 148.039 47.2804 147.663 47.445C147.287 47.6095 146.96 47.8387 146.682 48.1325C146.404 48.4264 146.186 48.7731 146.029 49.1727C145.873 49.5723 145.794 50.0033 145.794 50.4656C145.794 50.9435 145.873 51.3843 146.029 51.7878C146.186 52.1914 146.405 52.54 146.688 52.8339C146.97 53.1277 147.305 53.3549 147.692 53.5156C148.08 53.6762 148.505 53.7565 148.968 53.7565ZM147.487 49.7839H150.225C150.163 49.3764 150.012 49.0552 149.773 48.8201C149.534 48.585 149.238 48.4675 148.885 48.4675C148.525 48.4675 148.221 48.585 147.975 48.8201C147.728 49.0552 147.565 49.3764 147.487 49.7839ZM155.244 53.7565C155.612 53.7565 155.949 53.7056 156.255 53.6037C156.56 53.5019 156.827 53.3569 157.054 53.1689C157.281 52.9808 157.456 52.7614 157.577 52.5107C157.699 52.2599 157.759 51.9818 157.759 51.6762C157.759 51.1747 157.583 50.7614 157.23 50.4362C156.878 50.111 156.368 49.8897 155.702 49.7721L155.373 49.7134C155.005 49.6507 154.744 49.5664 154.592 49.4607C154.439 49.3549 154.363 49.2236 154.363 49.0669C154.363 48.8867 154.441 48.7378 154.598 48.6203C154.754 48.5028 154.954 48.444 155.197 48.444C155.432 48.444 155.638 48.5106 155.814 48.6438C155.99 48.777 156.118 48.9611 156.196 49.1962L157.665 48.8906C157.579 48.538 157.422 48.2364 157.195 47.9856C156.968 47.7349 156.684 47.5409 156.343 47.4038C156.002 47.2667 155.624 47.1981 155.209 47.1981C154.739 47.1981 154.323 47.2843 153.963 47.4567C153.602 47.6291 153.32 47.8661 153.117 48.1678C152.913 48.4695 152.811 48.8162 152.811 49.208C152.811 49.7016 152.985 50.1091 153.334 50.4303C153.683 50.7516 154.194 50.971 154.868 51.0885L155.197 51.1473C155.55 51.21 155.802 51.2981 155.955 51.4117C156.108 51.5253 156.184 51.6683 156.184 51.8407C156.184 52.0444 156.098 52.2051 155.926 52.3226C155.753 52.4401 155.534 52.4989 155.268 52.4989C154.985 52.4989 154.743 52.4284 154.539 52.2873C154.335 52.1463 154.194 51.9543 154.116 51.7114L152.635 52.0288C152.729 52.3814 152.899 52.687 153.146 52.9455C153.393 53.2041 153.695 53.4039 154.051 53.545C154.408 53.686 154.805 53.7565 155.244 53.7565ZM162.026 53.6037C161.72 53.7056 161.383 53.7565 161.015 53.7565C160.576 53.7565 160.178 53.686 159.822 53.545C159.465 53.4039 159.164 53.2041 158.917 52.9455C158.67 52.687 158.5 52.3814 158.406 52.0288L159.887 51.7114C159.965 51.9543 160.106 52.1463 160.31 52.2873C160.513 52.4284 160.756 52.4989 161.038 52.4989C161.305 52.4989 161.524 52.4401 161.697 52.3226C161.869 52.2051 161.955 52.0444 161.955 51.8407C161.955 51.6683 161.879 51.5253 161.726 51.4117C161.573 51.2981 161.321 51.21 160.968 51.1473L160.639 51.0885C159.965 50.971 159.454 50.7516 159.105 50.4303C158.756 50.1091 158.582 49.7016 158.582 49.208C158.582 48.8162 158.684 48.4695 158.888 48.1678C159.091 47.8661 159.373 47.6291 159.734 47.4567C160.094 47.2843 160.51 47.1981 160.98 47.1981C161.395 47.1981 161.773 47.2667 162.114 47.4038C162.455 47.5409 162.739 47.7349 162.966 47.9856C163.193 48.2364 163.35 48.538 163.436 48.8906L161.967 49.1962C161.889 48.9611 161.761 48.777 161.585 48.6438C161.409 48.5106 161.203 48.444 160.968 48.444C160.725 48.444 160.525 48.5028 160.368 48.6203C160.212 48.7378 160.133 48.8867 160.133 49.0669C160.133 49.2236 160.21 49.3549 160.363 49.4607C160.515 49.5664 160.776 49.6507 161.144 49.7134L161.473 49.7721C162.139 49.8897 162.649 50.111 163.001 50.4362C163.354 50.7614 163.53 51.1747 163.53 51.6762C163.53 51.9818 163.469 52.2599 163.348 52.5107C163.227 52.7614 163.052 52.9808 162.825 53.1689C162.598 53.3569 162.331 53.5019 162.026 53.6037Z" fill="white"/>
<path fill-rule="evenodd" clip-rule="evenodd" d="M159.698 13.1337C159.712 12.1751 160.486 11.4012 161.445 11.3874C161.919 11.3808 162.376 11.5645 162.714 11.8974C163.051 12.2303 163.241 12.6848 163.241 13.159V38.9583C163.241 39.9366 162.448 40.7297 161.47 40.7297C160.492 40.7297 159.698 39.9366 159.698 38.9583V13.1337ZM64.0426 11.3876H56.1978C55.2391 11.4012 54.4653 12.1751 54.4517 13.1337V38.9583C54.4517 39.9366 55.2447 40.7297 56.2231 40.7297C57.2014 40.7297 57.9945 39.9366 57.9945 38.9583V28.836L64.0426 28.76C68.7109 28.5818 72.4035 24.7456 72.4035 20.0738C72.4035 15.4021 68.7109 11.5658 64.0426 11.3876ZM69.2049 20.1308C69.1642 22.9718 66.8709 25.265 64.0299 25.3058H57.9945V14.9557H64.0426C66.8957 14.9627 69.2049 17.2776 69.2049 20.1308ZM85.4763 36.3225C87.5703 35.03 88.7554 32.6663 88.5386 30.2151C88.7554 27.7639 87.5703 25.4003 85.4763 24.1078C83.3824 22.8152 80.7382 22.8152 78.6442 24.1078C76.5503 25.4003 75.3651 27.7639 75.582 30.2151C75.3651 32.6663 76.5503 35.03 78.6442 36.3225C80.7382 37.615 83.3824 37.615 85.4763 36.3225ZM90.2973 19.7257C89.8243 19.7188 89.3689 19.9053 89.0368 20.2422C88.7047 20.5791 88.5247 21.0371 88.5386 21.5099V22.2818C86.764 20.6699 84.4575 19.769 82.0603 19.7512C76.4244 19.903 71.9694 24.5785 72.0898 30.2151C71.9552 35.8637 76.4123 40.5584 82.0603 40.717C84.4582 40.7028 86.7659 39.8014 88.5386 38.1864V38.9836C88.4823 39.6452 88.8035 40.2821 89.3689 40.6303C89.9343 40.9784 90.6476 40.9784 91.2131 40.6303C91.7785 40.2821 92.0997 39.6452 92.0434 38.9836V21.5099C92.0468 21.0458 91.8639 20.5997 91.5358 20.2715C91.2076 19.9433 90.7614 19.7604 90.2973 19.7638V19.7257ZM111.795 20.0042L111.997 20.1561H111.984C112.152 20.2981 112.286 20.4752 112.377 20.6748C112.505 20.9074 112.575 21.1682 112.579 21.434V38.3636C112.562 41.0146 111.491 43.5498 109.601 45.4088C107.711 47.2679 105.158 48.2978 102.507 48.2708C101.011 48.2574 99.5346 47.9208 98.1801 47.2839C97.392 46.8387 97.0705 45.8682 97.4368 45.0406C97.8032 44.213 98.7379 43.7985 99.5972 44.0827H99.7237C101.627 45.0327 103.876 44.9878 105.74 43.9624C107.603 42.937 108.845 41.0619 109.062 38.9456C106.433 40.9114 102.917 41.2181 99.9876 39.7372C97.0581 38.2564 95.2205 35.2437 95.2446 31.9612V21.434C95.322 20.5237 96.0835 19.8243 96.997 19.8243C97.9106 19.8243 98.672 20.5237 98.7495 21.434V31.898C98.655 33.8056 99.619 35.6101 101.257 36.5922C102.895 37.5743 104.941 37.5743 106.579 36.5922C108.217 35.6101 109.181 33.8056 109.087 31.898V21.3834C109.1 20.6432 109.576 19.9907 110.276 19.7512H110.428C110.524 19.7341 110.623 19.7341 110.719 19.7512H111.149C111.373 19.8113 111.59 19.8962 111.795 20.0042ZM129.648 21.5099C129.651 21.0436 129.467 20.5955 129.136 20.2669C128.805 19.9384 128.355 19.757 127.889 19.7636C125.08 19.8155 122.437 21.1023 120.664 23.2813V21.5099C120.587 20.5997 119.825 19.9002 118.912 19.9002C117.998 19.9002 117.237 20.5997 117.159 21.5099V38.9583C117.103 39.6199 117.424 40.2568 117.99 40.605C118.555 40.9531 119.269 40.9531 119.834 40.605C120.399 40.2568 120.721 39.6199 120.664 38.9583V30.4808V30.4049C121.191 28.8755 121.937 27.4306 122.879 26.1156C123.963 24.4019 125.824 23.3359 127.851 23.2687C128.832 23.2757 129.634 22.4903 129.648 21.5099ZM141.855 36.2592C143.938 34.9846 145.132 32.6503 144.945 30.2151C145.132 27.78 143.938 25.4456 141.855 24.171C139.771 22.8964 137.15 22.8964 135.066 24.171C132.983 25.4456 131.79 27.78 131.976 30.2151C131.79 32.6503 132.983 34.9846 135.066 36.2592C137.15 37.5339 139.771 37.5339 141.855 36.2592ZM146.742 19.7259C146.261 19.7043 145.794 19.8849 145.452 20.2239C145.111 20.5628 144.927 21.0292 144.945 21.5099V22.2817C143.164 20.6722 140.855 19.7718 138.454 19.7512C132.811 19.9098 128.356 24.5967 128.484 30.2404C128.349 35.889 132.806 40.5837 138.454 40.7423C140.856 40.7277 143.167 39.8265 144.945 38.2117V39.0089C144.945 39.9732 145.727 40.755 146.691 40.755C147.656 40.755 148.437 39.9732 148.437 39.0089V21.5099C148.451 21.048 148.28 20.5998 147.961 20.2648C147.643 19.9298 147.204 19.7358 146.742 19.7259ZM152.145 15.1835C152.138 14.21 152.917 13.4133 153.891 13.3994V13.4374C154.864 13.4303 155.661 14.2101 155.675 15.1835V16.0945C155.731 16.7608 155.408 17.4021 154.838 17.7526C154.269 18.1031 153.551 18.1031 152.981 17.7526C152.412 17.4021 152.088 16.7608 152.145 16.0945V15.1835ZM153.891 19.7257C153.419 19.7186 152.965 19.9055 152.635 20.2428C152.304 20.5801 152.127 21.0383 152.145 21.5099V38.9583C152.222 39.8753 152.989 40.5801 153.91 40.5801C154.83 40.5801 155.597 39.8753 155.675 38.9583V21.5099C155.682 21.038 155.495 20.5838 155.158 20.2536C154.821 19.9235 154.362 19.7464 153.891 19.7638V19.7257Z" fill="white"/>
<path fill-rule="evenodd" clip-rule="evenodd" d="M39.4581 12.1847C39.6158 12.3511 39.7558 12.5334 39.8756 12.7288L39.9262 12.7415C44.8159 18.1065 45.5532 26.0643 41.7324 32.2364C37.9116 38.4085 30.46 41.2969 23.4775 39.3126C22.024 38.9038 21.1771 37.3941 21.5859 35.9406C21.9947 34.4871 23.5044 33.6402 24.9579 34.049C29.0087 35.2096 33.3646 33.9067 36.1126 30.7123C38.8607 27.5179 39.4984 23.0163 37.7457 19.1843C35.993 15.3523 32.1704 12.8907 27.9566 12.8807C21.9257 12.9639 17.0904 17.8952 17.1257 23.9266V26.9952C22.1174 26.5605 26.2887 22.68 26.9064 17.5116C27.019 16.642 27.0206 15.7617 26.9112 14.8919C27.2244 14.8523 27.5397 14.8314 27.8554 14.8292C29.4781 14.8167 31.0725 15.2547 32.461 16.0945C32.4715 16.7792 32.4377 17.4639 32.3598 18.1443C31.8624 22.4337 29.6766 26.3482 26.2858 29.0219C23.6438 31.1051 20.4399 32.3014 17.1257 32.4837V44.0321C17.2463 47.1687 15.6418 50.12 12.9437 51.7241C10.2457 53.3283 6.88637 53.3283 4.18834 51.7241C1.49031 50.12 -0.114263 47.1687 0.00635179 44.0321V30.9616C-0.000587754 30.8943 -0.000587754 30.8265 0.00635179 30.7592V16.512C0.00635179 16.2321 0.0255499 15.9521 0.0446377 15.6738C0.0635074 15.3986 0.0822692 15.125 0.0822692 14.8545C0.0634659 14.6863 0.0634659 14.5166 0.0822692 14.3484C1.05339 6.23284 7.88998 0.0945219 16.0629 0H16.5057C17.0372 0 17.5812 0 18.0494 0.0632645C21.9463 0.508402 25.5462 2.36235 28.1717 5.27626L28.3488 5.46605H27.7921C25.5478 5.47709 23.3251 5.90617 21.2379 6.73134C20.063 6.07558 18.7754 5.64637 17.442 5.46605H16.4551H16.1514C10.1553 5.59723 5.37316 10.5145 5.40914 16.512V33.4669V33.6694V44.0321C5.40914 45.7441 6.79704 47.132 8.5091 47.132C10.2212 47.132 11.6091 45.7441 11.6091 44.0321V23.8887C11.6036 23.8171 11.6036 23.7452 11.6091 23.6736C11.6159 14.7215 18.8528 7.45636 27.8048 7.4146H27.9693C32.282 7.40765 36.4186 9.12514 39.4581 12.1847ZM26.9112 14.8919C26.9096 14.8794 26.908 14.867 26.9064 14.8545V14.8925C26.908 14.8923 26.9096 14.8921 26.9112 14.8919Z" fill="white"/>
</svg>
