<svg width="164" height="54" viewBox="0 0 164 54" fill="none" xmlns="http://www.w3.org/2000/svg">
<path fill-rule="evenodd" clip-rule="evenodd" d="M137.385 46.5105C137.24 46.5928 137.081 46.634 136.909 46.634C136.736 46.634 136.578 46.5928 136.433 46.5105C136.288 46.4283 136.174 46.3166 136.092 46.1756C136.01 46.0345 135.968 45.8739 135.968 45.6937C135.968 45.5135 136.01 45.3528 136.092 45.2118C136.174 45.0708 136.288 44.9591 136.433 44.8768C136.578 44.7946 136.736 44.7534 136.909 44.7534C137.081 44.7534 137.24 44.7946 137.385 44.8768C137.53 44.9591 137.643 45.0708 137.726 45.2118C137.808 45.3528 137.849 45.5135 137.849 45.6937C137.849 45.8739 137.808 46.0345 137.726 46.1756C137.643 46.3166 137.53 46.4283 137.385 46.5105ZM120.877 53.2864C120.423 53.4823 119.886 53.5802 119.267 53.5802H116.176V45.2353H119.208C119.772 45.2353 120.26 45.3235 120.671 45.4998C121.083 45.6761 121.4 45.9268 121.623 46.252C121.847 46.5772 121.958 46.9591 121.958 47.3979C121.958 47.7975 121.872 48.1482 121.7 48.4499C121.527 48.7515 121.285 48.9886 120.971 49.1609C121.394 49.3255 121.723 49.586 121.958 49.9425C122.194 50.2991 122.311 50.7202 122.311 51.206C122.311 51.6918 122.186 52.111 121.935 52.4636C121.684 52.8162 121.332 53.0905 120.877 53.2864ZM117.868 48.5968H119.02C119.404 48.5968 119.7 48.5165 119.907 48.3558C120.115 48.1952 120.219 47.9582 120.219 47.6447C120.219 47.3313 120.115 47.0923 119.907 46.9278C119.7 46.7632 119.404 46.681 119.02 46.681H117.868V48.5968ZM119.185 52.1345H117.868V49.9484H119.185C119.623 49.9484 119.962 50.0424 120.201 50.2305C120.44 50.4185 120.56 50.6889 120.56 51.0415C120.56 51.3941 120.44 51.6644 120.201 51.8525C119.962 52.0405 119.623 52.1345 119.185 52.1345ZM127.324 53.5449C126.975 53.686 126.585 53.7565 126.154 53.7565C125.59 53.7565 125.099 53.637 124.679 53.398C124.26 53.159 123.935 52.8182 123.704 52.3755C123.473 51.9328 123.357 51.4097 123.357 50.8064V47.3744H125.003V50.8417C125.003 51.2883 125.108 51.6389 125.32 51.8936C125.531 52.1483 125.817 52.2756 126.178 52.2756C126.538 52.2756 126.824 52.1483 127.036 51.8936C127.247 51.6389 127.353 51.2883 127.353 50.8417V47.3744H128.999V50.8064C128.999 51.253 128.932 51.6566 128.799 52.017C128.666 52.3774 128.474 52.6869 128.223 52.9455C127.972 53.2041 127.673 53.4039 127.324 53.5449ZM132.548 53.7565C132.917 53.7565 133.253 53.7056 133.559 53.6037C133.865 53.5019 134.131 53.3569 134.358 53.1688C134.585 52.9808 134.76 52.7614 134.881 52.5106C135.003 52.2599 135.063 51.9817 135.063 51.6762C135.063 51.1747 134.887 50.7614 134.535 50.4362C134.182 50.111 133.673 49.8896 133.007 49.7721L132.678 49.7133C132.309 49.6507 132.049 49.5664 131.896 49.4606C131.743 49.3549 131.667 49.2236 131.667 49.0669C131.667 48.8867 131.745 48.7378 131.902 48.6203C132.059 48.5027 132.258 48.444 132.501 48.444C132.736 48.444 132.942 48.5106 133.118 48.6438C133.295 48.777 133.422 48.9611 133.5 49.1962L134.969 48.8906C134.883 48.538 134.727 48.2363 134.499 47.9856C134.272 47.7349 133.988 47.5409 133.647 47.4038C133.306 47.2667 132.928 47.1981 132.513 47.1981C132.043 47.1981 131.628 47.2843 131.267 47.4567C130.907 47.6291 130.625 47.8661 130.421 48.1678C130.217 48.4694 130.115 48.8162 130.115 49.2079C130.115 49.7016 130.29 50.109 130.638 50.4303C130.987 50.7516 131.498 50.971 132.172 51.0885L132.501 51.1473C132.854 51.2099 133.107 51.2981 133.259 51.4117C133.412 51.5253 133.489 51.6683 133.489 51.8407C133.489 52.0444 133.402 52.2051 133.23 52.3226C133.058 52.4401 132.838 52.4989 132.572 52.4989C132.29 52.4989 132.047 52.4284 131.843 52.2873C131.639 52.1463 131.498 51.9543 131.42 51.7114L129.939 52.0288C130.033 52.3814 130.203 52.6869 130.45 52.9455C130.697 53.2041 130.999 53.4039 131.355 53.5449C131.712 53.686 132.109 53.7565 132.548 53.7565ZM137.731 53.5802V47.3744H136.086V53.5802H137.731ZM140.693 50.0189V53.5802H139.048V47.3744H140.564L140.611 48.1737C140.791 47.8759 141.04 47.6389 141.357 47.4626C141.675 47.2863 142.037 47.1981 142.445 47.1981C142.899 47.1981 143.297 47.3059 143.638 47.5213C143.978 47.7368 144.243 48.0444 144.431 48.444C144.619 48.8436 144.713 49.3137 144.713 49.8544V53.5802H143.068V50.0659C143.068 49.635 142.97 49.2961 142.774 49.0493C142.578 48.8025 142.307 48.679 141.963 48.679C141.712 48.679 141.493 48.7359 141.305 48.8495C141.116 48.9631 140.968 49.1218 140.858 49.3255C140.748 49.5292 140.693 49.7604 140.693 50.0189ZM148.968 53.7565C149.391 53.7565 149.79 53.6879 150.167 53.5508C150.543 53.4137 150.872 53.2198 151.154 52.969C151.436 52.7183 151.647 52.4166 151.789 52.064L150.319 51.5939C150.17 51.8446 149.98 52.0366 149.749 52.1698C149.518 52.303 149.262 52.3696 148.979 52.3696C148.572 52.3696 148.235 52.2384 147.969 51.9759C147.702 51.7134 147.534 51.351 147.463 50.8887H151.918V50.4773C151.918 49.9837 151.845 49.537 151.7 49.1374C151.555 48.7378 151.35 48.393 151.083 48.1031C150.817 47.8132 150.498 47.5899 150.125 47.4332C149.753 47.2765 149.34 47.1981 148.885 47.1981C148.447 47.1981 148.039 47.2804 147.663 47.4449C147.287 47.6095 146.96 47.8387 146.682 48.1325C146.404 48.4263 146.186 48.7731 146.029 49.1727C145.873 49.5723 145.794 50.0033 145.794 50.4656C145.794 50.9435 145.873 51.3843 146.029 51.7878C146.186 52.1913 146.405 52.54 146.688 52.8339C146.97 53.1277 147.305 53.3549 147.692 53.5156C148.08 53.6762 148.505 53.7565 148.968 53.7565ZM147.487 49.7839H150.225C150.163 49.3764 150.012 49.0552 149.773 48.8201C149.534 48.585 149.238 48.4675 148.885 48.4675C148.525 48.4675 148.221 48.585 147.975 48.8201C147.728 49.0552 147.565 49.3764 147.487 49.7839ZM155.244 53.7565C155.612 53.7565 155.949 53.7056 156.255 53.6037C156.56 53.5019 156.827 53.3569 157.054 53.1688C157.281 52.9808 157.456 52.7614 157.577 52.5106C157.699 52.2599 157.759 51.9817 157.759 51.6762C157.759 51.1747 157.583 50.7614 157.23 50.4362C156.878 50.111 156.368 49.8896 155.702 49.7721L155.373 49.7133C155.005 49.6507 154.744 49.5664 154.592 49.4606C154.439 49.3549 154.363 49.2236 154.363 49.0669C154.363 48.8867 154.441 48.7378 154.598 48.6203C154.754 48.5027 154.954 48.444 155.197 48.444C155.432 48.444 155.638 48.5106 155.814 48.6438C155.99 48.777 156.118 48.9611 156.196 49.1962L157.665 48.8906C157.579 48.538 157.422 48.2363 157.195 47.9856C156.968 47.7349 156.684 47.5409 156.343 47.4038C156.002 47.2667 155.624 47.1981 155.209 47.1981C154.739 47.1981 154.323 47.2843 153.963 47.4567C153.602 47.6291 153.32 47.8661 153.117 48.1678C152.913 48.4694 152.811 48.8162 152.811 49.2079C152.811 49.7016 152.985 50.109 153.334 50.4303C153.683 50.7516 154.194 50.971 154.868 51.0885L155.197 51.1473C155.55 51.2099 155.802 51.2981 155.955 51.4117C156.108 51.5253 156.184 51.6683 156.184 51.8407C156.184 52.0444 156.098 52.2051 155.926 52.3226C155.753 52.4401 155.534 52.4989 155.268 52.4989C154.985 52.4989 154.743 52.4284 154.539 52.2873C154.335 52.1463 154.194 51.9543 154.116 51.7114L152.635 52.0288C152.729 52.3814 152.899 52.6869 153.146 52.9455C153.393 53.2041 153.695 53.4039 154.051 53.5449C154.408 53.686 154.805 53.7565 155.244 53.7565ZM162.026 53.6037C161.72 53.7056 161.383 53.7565 161.015 53.7565C160.576 53.7565 160.178 53.686 159.822 53.5449C159.465 53.4039 159.164 53.2041 158.917 52.9455C158.67 52.6869 158.5 52.3814 158.406 52.0288L159.887 51.7114C159.965 51.9543 160.106 52.1463 160.31 52.2873C160.513 52.4284 160.756 52.4989 161.038 52.4989C161.305 52.4989 161.524 52.4401 161.697 52.3226C161.869 52.2051 161.955 52.0444 161.955 51.8407C161.955 51.6683 161.879 51.5253 161.726 51.4117C161.573 51.2981 161.321 51.2099 160.968 51.1473L160.639 51.0885C159.965 50.971 159.454 50.7516 159.105 50.4303C158.756 50.109 158.582 49.7016 158.582 49.2079C158.582 48.8162 158.684 48.4694 158.888 48.1678C159.091 47.8661 159.373 47.6291 159.734 47.4567C160.094 47.2843 160.51 47.1981 160.98 47.1981C161.395 47.1981 161.773 47.2667 162.114 47.4038C162.455 47.5409 162.739 47.7349 162.966 47.9856C163.193 48.2363 163.35 48.538 163.436 48.8906L161.967 49.1962C161.889 48.9611 161.761 48.777 161.585 48.6438C161.409 48.5106 161.203 48.444 160.968 48.444C160.725 48.444 160.525 48.5027 160.368 48.6203C160.212 48.7378 160.133 48.8867 160.133 49.0669C160.133 49.2236 160.21 49.3549 160.363 49.4606C160.515 49.5664 160.776 49.6507 161.144 49.7133L161.473 49.7721C162.139 49.8896 162.649 50.111 163.001 50.4362C163.354 50.7614 163.53 51.1747 163.53 51.6762C163.53 51.9817 163.469 52.2599 163.348 52.5106C163.227 52.7614 163.052 52.9808 162.825 53.1688C162.598 53.3569 162.331 53.5019 162.026 53.6037Z" fill="white"/>
<path fill-rule="evenodd" clip-rule="evenodd" d="M159.699 13.1337C159.713 12.175 160.486 11.4012 161.445 11.3874C161.919 11.3808 162.376 11.5644 162.714 11.8974C163.052 12.2303 163.242 12.6847 163.242 13.159V38.9582C163.242 39.9365 162.449 40.7296 161.47 40.7296C160.492 40.7296 159.699 39.9365 159.699 38.9582V13.1337ZM64.043 11.3876H56.1982C55.2396 11.4012 54.4657 12.175 54.4521 13.1337V38.9582C54.4521 39.9365 55.2452 40.7296 56.2236 40.7296C57.2019 40.7296 57.995 39.9365 57.995 38.9582V28.8359L64.043 28.76C68.7114 28.5818 72.404 24.7455 72.404 20.0738C72.404 15.402 68.7114 11.5658 64.043 11.3876ZM69.2054 20.1307C69.1646 22.9717 66.8714 25.265 64.0304 25.3057H57.995V14.9557H64.043C66.8962 14.9627 69.2054 17.2776 69.2054 20.1307ZM85.4768 36.3224C87.5708 35.0299 88.7559 32.6662 88.5391 30.2151C88.7559 27.7639 87.5708 25.4002 85.4768 24.1077C83.3828 22.8152 80.7387 22.8152 78.6447 24.1077C76.5508 25.4002 75.3656 27.7639 75.5825 30.2151C75.3656 32.6662 76.5508 35.0299 78.6447 36.3224C80.7387 37.615 83.3828 37.615 85.4768 36.3224ZM90.2978 19.7256C89.8248 19.7187 89.3694 19.9052 89.0373 20.2421C88.7052 20.579 88.5252 21.037 88.5391 21.5099V22.2817C86.7645 20.6699 84.458 19.7689 82.0608 19.7511C76.4249 19.903 71.9699 24.5784 72.0903 30.2151C71.9557 35.8637 76.4128 40.5583 82.0608 40.717C84.4587 40.7028 86.7664 39.8013 88.5391 38.1864V38.9835C88.4828 39.6452 88.8039 40.2821 89.3694 40.6302C89.9348 40.9784 90.6481 40.9784 91.2136 40.6302C91.779 40.2821 92.1002 39.6452 92.0439 38.9835V21.5099C92.0473 21.0457 91.8644 20.5996 91.5362 20.2714C91.208 19.9432 90.7619 19.7604 90.2978 19.7638V19.7256ZM111.795 20.0042L111.998 20.156H111.985C112.152 20.298 112.286 20.4751 112.377 20.6748C112.506 20.9074 112.575 21.1681 112.58 21.434V38.3635C112.563 41.0145 111.491 43.5497 109.601 45.4088C107.711 47.2679 105.159 48.2977 102.508 48.2708C101.011 48.2574 99.535 47.9207 98.1806 47.2838C97.3925 46.8387 97.0709 45.8682 97.4373 45.0405C97.8037 44.2129 98.7384 43.7985 99.5977 44.0826H99.7242C101.628 45.0327 103.876 44.9877 105.74 43.9624C107.604 42.937 108.846 41.0618 109.062 38.9456C106.433 40.9113 102.918 41.218 99.9881 39.7372C97.0586 38.2563 95.221 35.2436 95.2451 31.9612V21.434C95.3225 20.5237 96.084 19.8242 96.9975 19.8242C97.9111 19.8242 98.6725 20.5237 98.7499 21.434V31.8979C98.6555 33.8055 99.6195 35.6101 101.258 36.5922C102.896 37.5743 104.942 37.5743 106.58 36.5922C108.218 35.6101 109.182 33.8055 109.087 31.8979V21.3833C109.101 20.6432 109.576 19.9907 110.277 19.7511H110.429C110.525 19.7341 110.623 19.7341 110.72 19.7511H111.15C111.374 19.8113 111.59 19.8962 111.795 20.0042ZM129.648 21.5099C129.652 21.0435 129.467 20.5955 129.136 20.2669C128.805 19.9383 128.356 19.757 127.89 19.7636C125.081 19.8154 122.438 21.1023 120.665 23.2813V21.5099C120.587 20.5996 119.826 19.9002 118.912 19.9002C117.999 19.9002 117.237 20.5996 117.16 21.5099V38.9582C117.104 39.6199 117.425 40.2568 117.99 40.6049C118.556 40.9531 119.269 40.9531 119.834 40.6049C120.4 40.2568 120.721 39.6199 120.665 38.9582V30.4808V30.4049C121.191 28.8754 121.937 27.4305 122.879 26.1155C123.963 24.4018 125.825 23.3358 127.852 23.2686C128.832 23.2757 129.634 22.4902 129.648 21.5099ZM141.855 36.2592C143.939 34.9846 145.132 32.6502 144.946 30.2151C145.132 27.7799 143.939 25.4456 141.855 24.171C139.772 22.8963 137.15 22.8963 135.067 24.171C132.984 25.4456 131.79 27.7799 131.976 30.2151C131.79 32.6502 132.984 34.9846 135.067 36.2592C137.15 37.5338 139.772 37.5338 141.855 36.2592ZM146.742 19.7258C146.262 19.7043 145.794 19.8848 145.453 20.2238C145.111 20.5628 144.928 21.0292 144.946 21.5099V22.2817C143.165 20.6721 140.855 19.7717 138.455 19.7511C132.812 19.9098 128.357 24.5966 128.484 30.2404C128.35 35.889 132.807 40.5836 138.455 40.7423C140.856 40.7276 143.168 39.8264 144.946 38.2117V39.0088C144.946 39.9732 145.727 40.7549 146.692 40.7549C147.656 40.7549 148.438 39.9732 148.438 39.0088V21.5099C148.451 21.0479 148.28 20.5997 147.962 20.2647C147.643 19.9297 147.204 19.7357 146.742 19.7258ZM152.145 15.1834C152.138 14.21 152.918 13.4133 153.891 13.3994V13.4373C154.865 13.4303 155.661 14.2101 155.675 15.1834V16.0944C155.732 16.7607 155.408 17.402 154.839 17.7525C154.269 18.1031 153.551 18.1031 152.982 17.7525C152.412 17.402 152.089 16.7607 152.145 16.0944V15.1834ZM153.891 19.7256C153.419 19.7186 152.965 19.9055 152.635 20.2428C152.305 20.5801 152.128 21.0382 152.145 21.5099V38.9582C152.223 39.8753 152.99 40.5801 153.91 40.5801C154.831 40.5801 155.598 39.8753 155.675 38.9582V21.5099C155.683 21.0379 155.496 20.5837 155.158 20.2536C154.821 19.9235 154.363 19.7464 153.891 19.7638V19.7256Z" fill="#EA6212"/>
<path fill-rule="evenodd" clip-rule="evenodd" d="M39.4581 12.1847C39.6158 12.3511 39.7558 12.5334 39.8756 12.7288L39.9262 12.7415C44.8159 18.1065 45.5532 26.0643 41.7324 32.2364C37.9116 38.4085 30.46 41.2969 23.4775 39.3126C22.024 38.9038 21.1771 37.3941 21.5859 35.9406C21.9947 34.4871 23.5044 33.6402 24.9579 34.049C29.0087 35.2096 33.3646 33.9067 36.1126 30.7123C38.8607 27.5179 39.4984 23.0163 37.7457 19.1843C35.993 15.3523 32.1704 12.8907 27.9566 12.8807C21.9257 12.9639 17.0904 17.8952 17.1257 23.9266V26.9952C22.1174 26.5605 26.2887 22.68 26.9064 17.5116C27.019 16.642 27.0206 15.7617 26.9112 14.8919C27.2244 14.8523 27.5397 14.8314 27.8554 14.8292C29.4781 14.8167 31.0725 15.2547 32.461 16.0945C32.4715 16.7792 32.4377 17.4639 32.3598 18.1443C31.8624 22.4337 29.6766 26.3482 26.2858 29.0219C23.6438 31.1051 20.4399 32.3014 17.1257 32.4837V44.0321C17.2463 47.1687 15.6418 50.12 12.9437 51.7241C10.2457 53.3283 6.88637 53.3283 4.18834 51.7241C1.49031 50.12 -0.114263 47.1687 0.00635179 44.0321V30.9616C-0.000587754 30.8943 -0.000587754 30.8265 0.00635179 30.7592V16.512C0.00635179 16.2321 0.0255499 15.9521 0.0446377 15.6738C0.0635074 15.3986 0.0822692 15.125 0.0822692 14.8545C0.0634659 14.6863 0.0634659 14.5166 0.0822692 14.3484C1.05339 6.23284 7.88998 0.0945219 16.0629 0H16.5057C17.0372 0 17.5812 0 18.0494 0.0632645C21.9463 0.508402 25.5462 2.36235 28.1717 5.27626L28.3488 5.46605H27.7921C25.5478 5.47709 23.3251 5.90617 21.2379 6.73134C20.063 6.07558 18.7754 5.64637 17.442 5.46605H16.4551H16.1514C10.1553 5.59723 5.37316 10.5145 5.40914 16.512V33.4669V33.6694V44.0321C5.40914 45.7441 6.79704 47.132 8.5091 47.132C10.2212 47.132 11.6091 45.7441 11.6091 44.0321V23.8887C11.6036 23.8171 11.6036 23.7452 11.6091 23.6736C11.6159 14.7215 18.8528 7.45636 27.8048 7.4146H27.9693C32.282 7.40765 36.4186 9.12514 39.4581 12.1847ZM26.9112 14.8919C26.9096 14.8794 26.908 14.867 26.9064 14.8545V14.8925C26.908 14.8923 26.9096 14.8921 26.9112 14.8919Z" fill="#EA6212"/>
</svg>
