<svg width="84" height="84" viewBox="0 0 84 84" fill="none" xmlns="http://www.w3.org/2000/svg">
<circle cx="42" cy="42" r="40" fill="#F2F2F2" stroke="#EF6B25" stroke-width="4"/>
<path d="M25.0327 65.7794C25.5614 65.7794 26.0198 65.6958 26.4079 65.5285C26.7961 65.3611 27.0972 65.1269 27.3114 64.8258C27.5255 64.5246 27.6326 64.1666 27.6326 63.7517C27.6326 63.3367 27.5322 62.977 27.3315 62.6725C27.1307 62.368 26.8496 62.1455 26.4882 62.005C26.7559 61.8577 26.9634 61.6553 27.1106 61.3976C27.2579 61.14 27.3315 60.8405 27.3315 60.4992C27.3315 60.1244 27.2361 59.7982 27.0454 59.5205C26.8546 59.2427 26.5836 59.0286 26.2323 58.878C25.8809 58.7274 25.4643 58.6521 24.9825 58.6521H22.3926V65.7794H25.0327ZM24.8219 61.5231H23.8381V59.8869H24.8219C25.1498 59.8869 25.4024 59.9571 25.5798 60.0977C25.7571 60.2382 25.8458 60.4423 25.8458 60.71C25.8458 60.9777 25.7571 61.1802 25.5798 61.3173C25.4024 61.4545 25.1498 61.5231 24.8219 61.5231ZM24.9624 64.5447H23.8381V62.6775H24.9624C25.3372 62.6775 25.6266 62.7579 25.8307 62.9185C26.0348 63.0791 26.1369 63.31 26.1369 63.6111C26.1369 63.9123 26.0348 64.1432 25.8307 64.3038C25.6266 64.4644 25.3372 64.5447 24.9624 64.5447ZM30.9152 65.93C31.2833 65.93 31.6162 65.8698 31.914 65.7493C32.2118 65.6288 32.4678 65.4582 32.6819 65.2373C32.8961 65.0165 33.0601 64.7522 33.1738 64.4443C33.2876 64.1365 33.3445 63.7918 33.3445 63.4103V60.4791H31.9391V63.4405C31.9391 63.8219 31.8488 64.1214 31.6681 64.3389C31.4874 64.5564 31.2431 64.6652 30.9353 64.6652C30.6274 64.6652 30.3831 64.5564 30.2025 64.3389C30.0218 64.1214 29.9314 63.8219 29.9314 63.4405V60.4791H28.526V63.4103C28.526 63.9257 28.6248 64.3724 28.8222 64.7505C29.0196 65.1286 29.2973 65.4197 29.6554 65.6238C30.0134 65.8279 30.4333 65.93 30.9152 65.93ZM36.3761 65.93C36.6906 65.93 36.9784 65.8865 37.2394 65.7995C37.5004 65.7125 37.7279 65.5887 37.922 65.4281C38.1161 65.2675 38.265 65.0801 38.3687 64.8659C38.4724 64.6518 38.5243 64.4142 38.5243 64.1532C38.5243 63.7249 38.3737 63.3719 38.0726 63.0941C37.7714 62.8164 37.3364 62.6274 36.7676 62.527L36.4865 62.4768C36.172 62.4232 35.9494 62.3513 35.8189 62.261C35.6884 62.1706 35.6232 62.0585 35.6232 61.9247C35.6232 61.7707 35.6901 61.6436 35.824 61.5432C35.9578 61.4428 36.1285 61.3926 36.3359 61.3926C36.5367 61.3926 36.7124 61.4495 36.8629 61.5633C37.0135 61.6771 37.1223 61.8343 37.1892 62.0351L38.444 61.7741C38.3704 61.4729 38.2365 61.2153 38.0424 61.0011C37.8484 60.787 37.6058 60.6213 37.3147 60.5042C37.0235 60.3871 36.7006 60.3286 36.346 60.3286C35.9444 60.3286 35.5897 60.4022 35.2819 60.5494C34.974 60.6966 34.7331 60.8991 34.5591 61.1567C34.3851 61.4144 34.2981 61.7105 34.2981 62.0451C34.2981 62.4667 34.447 62.8147 34.7448 63.0891C35.0426 63.3635 35.4793 63.5509 36.0548 63.6513L36.3359 63.7015C36.6371 63.755 36.8529 63.8303 36.9834 63.9273C37.1139 64.0244 37.1791 64.1465 37.1791 64.2937C37.1791 64.4677 37.1055 64.6049 36.9583 64.7053C36.8111 64.8057 36.6237 64.8559 36.3961 64.8559C36.1552 64.8559 35.9478 64.7957 35.7738 64.6752C35.5998 64.5547 35.4793 64.3908 35.4124 64.1833L34.1475 64.4543C34.2279 64.7555 34.3734 65.0165 34.5842 65.2373C34.795 65.4582 35.0527 65.6288 35.3572 65.7493C35.6617 65.8698 36.0013 65.93 36.3761 65.93ZM40.1003 59.8467C40.2475 59.8467 40.3831 59.8116 40.5069 59.7413C40.6307 59.671 40.7277 59.5757 40.798 59.4552C40.8683 59.3348 40.9034 59.1976 40.9034 59.0436C40.9034 58.8897 40.8683 58.7525 40.798 58.6321C40.7277 58.5116 40.6307 58.4162 40.5069 58.346C40.3831 58.2757 40.2475 58.2406 40.1003 58.2406C39.9531 58.2406 39.8176 58.2757 39.6938 58.346C39.57 58.4162 39.4729 58.5116 39.4026 58.6321C39.3324 58.7525 39.2972 58.8897 39.2972 59.0436C39.2972 59.1976 39.3324 59.3348 39.4026 59.4552C39.4729 59.5757 39.57 59.671 39.6938 59.7413C39.8176 59.8116 39.9531 59.8467 40.1003 59.8467ZM40.803 65.7794V60.4791H39.3976V65.7794H40.803ZM43.3327 65.7794V62.7378C43.3327 62.5169 43.3795 62.3195 43.4732 62.1455C43.5669 61.9715 43.6941 61.836 43.8547 61.739C44.0153 61.6419 44.2027 61.5934 44.4168 61.5934C44.7113 61.5934 44.9422 61.6988 45.1095 61.9096C45.2768 62.1204 45.3604 62.4099 45.3604 62.7779V65.7794H46.7658V62.5972C46.7658 62.1355 46.6855 61.7339 46.5249 61.3926C46.3643 61.0513 46.1384 60.7887 45.8473 60.6046C45.5562 60.4206 45.2166 60.3286 44.8284 60.3286C44.4804 60.3286 44.1709 60.4038 43.8999 60.5544C43.6288 60.705 43.4163 60.9074 43.2624 61.1617L43.2223 60.4791H41.9273V65.7794H43.3327ZM50.3997 65.93C50.7611 65.93 51.1024 65.8714 51.4236 65.7543C51.7449 65.6372 52.0259 65.4716 52.2669 65.2574C52.5078 65.0433 52.6885 64.7856 52.8089 64.4845L51.5541 64.0829C51.427 64.2971 51.2647 64.461 51.0673 64.5748C50.8699 64.6886 50.6507 64.7455 50.4098 64.7455C50.0618 64.7455 49.774 64.6334 49.5465 64.4092C49.3189 64.185 49.175 63.8755 49.1148 63.4806H52.9194V63.1293C52.9194 62.7077 52.8575 62.3262 52.7336 61.9849C52.6098 61.6436 52.4342 61.3491 52.2066 61.1015C51.9791 60.8539 51.7064 60.6632 51.3885 60.5293C51.0706 60.3955 50.7176 60.3286 50.3294 60.3286C49.9547 60.3286 49.6067 60.3988 49.2855 60.5394C48.9642 60.6799 48.6848 60.8757 48.4472 61.1266C48.2097 61.3776 48.024 61.6737 47.8901 62.015C47.7563 62.3563 47.6893 62.7244 47.6893 63.1192C47.6893 63.5275 47.7563 63.9039 47.8901 64.2486C48.024 64.5932 48.2113 64.891 48.4523 65.142C48.6932 65.3929 48.9793 65.587 49.3106 65.7242C49.6418 65.8614 50.0049 65.93 50.3997 65.93ZM51.4738 62.537H49.1349C49.2018 62.189 49.3407 61.9146 49.5515 61.7139C49.7623 61.5131 50.0216 61.4127 50.3294 61.4127C50.6306 61.4127 50.8832 61.5131 51.0873 61.7139C51.2915 61.9146 51.4203 62.189 51.4738 62.537ZM55.7602 65.93C56.0748 65.93 56.3625 65.8865 56.6235 65.7995C56.8845 65.7125 57.1121 65.5887 57.3061 65.4281C57.5002 65.2675 57.6491 65.0801 57.7528 64.8659C57.8566 64.6518 57.9084 64.4142 57.9084 64.1532C57.9084 63.7249 57.7579 63.3719 57.4567 63.0941C57.1556 62.8164 56.7206 62.6274 56.1517 62.527L55.8706 62.4768C55.5561 62.4232 55.3336 62.3513 55.2031 62.261C55.0726 62.1706 55.0073 62.0585 55.0073 61.9247C55.0073 61.7707 55.0743 61.6436 55.2081 61.5432C55.342 61.4428 55.5126 61.3926 55.7201 61.3926C55.9208 61.3926 56.0965 61.4495 56.2471 61.5633C56.3977 61.6771 56.5064 61.8343 56.5733 62.0351L57.8281 61.7741C57.7545 61.4729 57.6207 61.2153 57.4266 61.0011C57.2325 60.787 56.9899 60.6213 56.6988 60.5042C56.4077 60.3871 56.0848 60.3286 55.7301 60.3286C55.3286 60.3286 54.9739 60.4022 54.666 60.5494C54.3582 60.6966 54.1173 60.8991 53.9433 61.1567C53.7693 61.4144 53.6823 61.7105 53.6823 62.0451C53.6823 62.4667 53.8312 62.8147 54.129 63.0891C54.4268 63.3635 54.8635 63.5509 55.439 63.6513L55.7201 63.7015C56.0212 63.755 56.237 63.8303 56.3675 63.9273C56.498 64.0244 56.5633 64.1465 56.5633 64.2937C56.5633 64.4677 56.4897 64.6049 56.3425 64.7053C56.1952 64.8057 56.0078 64.8559 55.7803 64.8559C55.5394 64.8559 55.3319 64.7957 55.1579 64.6752C54.9839 64.5547 54.8635 64.3908 54.7965 64.1833L53.5317 64.4543C53.612 64.7555 53.7576 65.0165 53.9684 65.2373C54.1792 65.4582 54.4368 65.6288 54.7413 65.7493C55.0458 65.8698 55.3855 65.93 55.7602 65.93ZM60.6891 65.93C61.0036 65.93 61.2914 65.8865 61.5524 65.7995C61.8134 65.7125 62.0409 65.5887 62.235 65.4281C62.4291 65.2675 62.578 65.0801 62.6817 64.8659C62.7854 64.6518 62.8373 64.4142 62.8373 64.1532C62.8373 63.7249 62.6867 63.3719 62.3856 63.0941C62.0844 62.8164 61.6494 62.6274 61.0806 62.527L60.7995 62.4768C60.485 62.4232 60.2624 62.3513 60.1319 62.261C60.0014 62.1706 59.9362 62.0585 59.9362 61.9247C59.9362 61.7707 60.0031 61.6436 60.137 61.5432C60.2708 61.4428 60.4415 61.3926 60.6489 61.3926C60.8497 61.3926 61.0254 61.4495 61.1759 61.5633C61.3265 61.6771 61.4353 61.8343 61.5022 62.0351L62.757 61.7741C62.6834 61.4729 62.5495 61.2153 62.3554 61.0011C62.1614 60.787 61.9188 60.6213 61.6277 60.5042C61.3366 60.3871 61.0137 60.3286 60.659 60.3286C60.2574 60.3286 59.9027 60.4022 59.5949 60.5494C59.287 60.6966 59.0461 60.8991 58.8721 61.1567C58.6981 61.4144 58.6111 61.7105 58.6111 62.0451C58.6111 62.4667 58.76 62.8147 59.0578 63.0891C59.3556 63.3635 59.7923 63.5509 60.3679 63.6513L60.6489 63.7015C60.9501 63.755 61.1659 63.8303 61.2964 63.9273C61.4269 64.0244 61.4921 64.1465 61.4921 64.2937C61.4921 64.4677 61.4185 64.6049 61.2713 64.7053C61.1241 64.8057 60.9367 64.8559 60.7092 64.8559C60.4682 64.8559 60.2608 64.7957 60.0868 64.6752C59.9128 64.5547 59.7923 64.3908 59.7254 64.1833L58.4606 64.4543C58.5409 64.7555 58.6864 65.0165 58.8972 65.2373C59.108 65.4582 59.3657 65.6288 59.6702 65.7493C59.9747 65.8698 60.3143 65.93 60.6891 65.93Z" fill="#EA6212"/>
<path d="M45.758 28.1661C45.8334 28.7493 45.8334 29.3398 45.758 29.923C45.2916 33.8301 41.758 36.624 37.8544 36.1723C36.8646 36.0545 35.9669 36.7624 35.8492 37.7535C35.7316 38.7446 36.4385 39.6435 37.4283 39.7613C40.2591 40.103 43.1092 39.3013 45.3482 37.5334C47.5871 35.7656 49.0305 33.1774 49.3589 30.3413C49.4103 29.8914 49.4326 29.4387 49.4257 28.986C48.5088 28.4307 47.4561 28.1411 46.3846 28.1494C46.1751 28.1508 45.9658 28.1648 45.758 28.1912" fill="#EA6212"/>
<path d="M54.3217 26.7613C54.2426 26.6321 54.1502 26.5115 54.046 26.4015C52.039 24.3785 49.3076 23.243 46.4599 23.2476H46.3513C40.4403 23.2752 35.6617 28.0788 35.6572 33.9978C35.6536 34.0452 35.6536 34.0927 35.6572 34.1401V47.4587C35.6572 48.5907 34.7408 49.5083 33.6103 49.5083C32.4798 49.5083 31.5634 48.5907 31.5634 47.4587V40.607C31.5634 40.5651 31.5634 40.5149 31.5634 40.4731V29.2627C31.5396 25.2972 34.6973 22.0459 38.6566 21.9592H38.8571C39.0743 21.9592 39.2915 21.9592 39.5087 21.9592C40.3892 22.0784 41.2394 22.3622 42.0152 22.7958C43.3934 22.2502 44.861 21.9665 46.3429 21.9592H46.7106L46.5936 21.8337C44.86 19.9071 42.4829 18.6812 39.9098 18.3869C39.6007 18.3451 39.2414 18.3451 38.8905 18.3451H38.5981C33.2015 18.4076 28.6873 22.4662 28.046 27.8321C28.0336 27.9433 28.0336 28.0555 28.046 28.1667C28.046 28.5265 27.9959 28.8946 27.9959 29.2627V38.6828C27.9913 38.7273 27.9913 38.7721 27.9959 38.8166V47.4587C27.9163 49.5326 28.9758 51.484 30.7573 52.5446C32.5388 53.6052 34.757 53.6052 36.5385 52.5446C38.32 51.484 39.3795 49.5326 39.2999 47.4587V34.1652C39.2766 30.1772 42.4693 26.9167 46.4516 26.8617C49.2339 26.8683 51.758 28.4959 52.9153 31.0295C54.0727 33.5632 53.6516 36.5397 51.837 38.6518C50.0224 40.7639 47.1462 41.6254 44.4715 40.8579C43.5117 40.5876 42.5149 41.1476 42.2449 42.1086C41.975 43.0697 42.5342 44.0679 43.494 44.3382C48.1045 45.6502 53.0249 43.7404 55.5478 39.6595C58.0707 35.5786 57.5838 30.317 54.3552 26.7696" fill="#EA6212"/>
</svg>
