<svg width="45" height="45" viewBox="0 0 45 45" fill="none" xmlns="http://www.w3.org/2000/svg">
<circle cx="22.5" cy="22.5" r="22.5" fill="#161616"/>
<path d="M22 18.1668C23.1383 18.1668 24.2128 18.6143 25.0255 19.427C25.8382 20.2396 26.2857 21.3142 26.2857 22.4525C26.2857 23.2392 26.0883 23.9717 25.6989 24.6299C25.3267 25.2592 24.7866 25.7922 24.1371 26.1712L23.4286 26.5847V30.5714H20.5714V26.5847L19.8629 26.1712C18.5376 25.3978 17.7143 23.9729 17.7143 22.4525C17.7143 21.3142 18.1618 20.2397 18.9745 19.427C19.7872 18.6143 20.8617 18.1668 22 18.1668ZM22.9524 12.9524C22.9524 12.4264 22.526 12 22 12C21.474 12 21.0476 12.4264 21.0476 12.9524V13.9048C21.0476 14.4308 21.474 14.8571 22 14.8571C22.526 14.8571 22.9524 14.4308 22.9524 13.9048V12.9524ZM29.381 15.0715C29.0127 14.7032 28.4156 14.7033 28.0473 15.0716L27.6665 15.4525C27.2984 15.8208 27.2984 16.4177 27.6666 16.7859C28.0348 17.154 28.6317 17.1541 28.9999 16.786L29.3809 16.4051C29.7492 16.0369 29.7492 15.4398 29.381 15.0715ZM15.9527 15.0716C15.5844 14.7033 14.9873 14.7032 14.619 15.0715C14.2508 15.4398 14.2508 16.0369 14.6191 16.4051L15 16.7859C15.3683 17.1541 15.9652 17.154 16.3334 16.7859C16.7016 16.4177 16.7016 15.8208 16.3335 15.4525L15.9527 15.0716ZM22 16.7382C18.8573 16.7382 16.2857 19.3098 16.2857 22.4525C16.2857 24.5479 17.4288 26.4048 19.1429 27.4051V32H24.8571V27.405C26.5713 26.4048 27.7143 24.5953 27.7143 22.4525C27.7143 19.3098 25.1427 16.7382 22 16.7382ZM32 22.4525C32 21.9265 31.5736 21.5001 31.0476 21.5001H30.0952C29.5693 21.5001 29.1429 21.9265 29.1429 22.4525C29.1429 22.9785 29.5693 23.4049 30.0952 23.4049H31.0476C31.5736 23.4049 32 22.9785 32 22.4525ZM14.8571 22.4525C14.8571 21.9265 14.4307 21.5001 13.9048 21.5001H12.9524C12.4264 21.5001 12 21.9265 12 22.4525C12 22.9785 12.4264 23.4049 12.9524 23.4049H13.9048C14.4307 23.4049 14.8571 22.9785 14.8571 22.4525Z" fill="white"/>
</svg>
