<svg width="23" height="23" viewBox="0 0 23 23" fill="none" xmlns="http://www.w3.org/2000/svg">
<path d="M22.2803 11.7222C22.2803 5.64639 17.3561 0.722168 11.2803 0.722168C5.20449 0.722168 0.280273 5.64639 0.280273 11.7222C0.280273 17.7979 5.20449 22.7222 11.2803 22.7222C11.3447 22.7222 11.4092 22.7222 11.4736 22.7179V14.1585H9.11035V11.4042H11.4736V9.37607C11.4736 7.02568 12.9088 5.74521 15.0057 5.74521C16.0111 5.74521 16.8748 5.81826 17.124 5.85264V8.31045H15.6803C14.5416 8.31045 14.3182 8.85186 14.3182 9.64678V11.3999H17.0467L16.69 14.1542H14.3182V22.2968C18.9158 20.9776 22.2803 16.7452 22.2803 11.7222Z" fill="#EA6212"/>
</svg>
