<svg width="128" height="40" viewBox="0 0 128 40" fill="none" xmlns="http://www.w3.org/2000/svg">
<rect width="127.288" height="40" rx="20" fill="#F9F9F9"/>
<rect x="0.5" y="0.5" width="126.288" height="39" rx="19.5" stroke="#777777" stroke-opacity="0.2"/>
<path d="M25.745 18.3196L29.3289 14.7025L17.9786 8.37956C17.0756 7.87314 15.977 7.87594 15.0766 8.38694L25.745 18.3196Z" fill="#C92135"/>
<path d="M14.0097 9.40308C13.7492 9.83288 13.6 10.3247 13.6 10.8461V28.7855C13.6 29.2906 13.7361 29.7721 13.9819 30.1931L24.7103 19.3653L14.0097 9.40308Z" fill="#C92135"/>
<path d="M34.0807 17.3494L30.6621 15.4456L26.8206 19.3212L31.5285 23.7034L34.0822 22.281C35.0012 21.767 35.5514 20.8454 35.5514 19.8145C35.5496 18.7818 34.9842 17.8341 34.0807 17.3494Z" fill="#C92135"/>
<path d="M25.7859 20.3667L15.0283 31.224C15.4824 31.4898 15.9974 31.6314 16.5224 31.6346C17.02 31.6346 17.5205 31.5076 17.9785 31.2521L30.1792 24.4565L25.7859 20.3667Z" fill="#C92135"/>
<path fill-rule="evenodd" clip-rule="evenodd" d="M46.4874 9.20739H45.5705C45.4125 9.04641 45.2244 8.92174 45.0061 8.83339C44.7878 8.74505 44.556 8.70088 44.3106 8.70088C43.8283 8.70088 43.4166 8.86186 43.0757 9.18383C42.7347 9.50581 42.5642 9.89256 42.5642 10.3441C42.5642 10.7996 42.7347 11.1883 43.0757 11.5103C43.4166 11.8322 43.8283 11.9932 44.3106 11.9932C44.6599 11.9932 44.978 11.9039 45.2649 11.7252C45.5518 11.5466 45.766 11.3081 45.9073 11.0096H43.7306V10.3205L46.7992 10.3264V10.4089C46.7992 11.0411 46.5539 11.5809 46.0633 12.0286C45.5726 12.4762 44.9884 12.7 44.3106 12.7C43.6245 12.7 43.0383 12.4703 42.5518 12.0109C42.0653 11.5515 41.822 10.9959 41.822 10.3441C41.822 9.70016 42.0653 9.1485 42.5518 8.6891C43.0383 8.2297 43.6245 8 44.3106 8C44.7763 8 45.2015 8.10798 45.5861 8.32393C45.9708 8.53989 46.2712 8.83437 46.4874 9.20739ZM49.1212 12.0757C49.3375 12.0757 49.535 12.0276 49.7138 11.9314C49.8926 11.8352 50.0381 11.7007 50.1504 11.5279H50.8988C50.7658 11.8695 50.535 12.1513 50.2065 12.3731C49.878 12.595 49.5163 12.7059 49.1212 12.7059C48.6056 12.7059 48.1628 12.5312 47.7927 12.1817C47.4227 11.8322 47.2376 11.4121 47.2376 10.9213C47.2376 10.4266 47.4206 10.0064 47.7865 9.6609C48.1524 9.31537 48.5973 9.1426 49.1212 9.1426C49.641 9.1426 50.0859 9.31537 50.456 9.6609C50.8261 10.0064 51.0111 10.4266 51.0111 10.9213L51.0049 11.0862H47.9175C47.9591 11.3571 48.0963 11.5898 48.3291 11.7841C48.562 11.9785 48.826 12.0757 49.1212 12.0757ZM50.2564 10.5031H47.9861C48.0859 10.2872 48.2387 10.1115 48.4445 9.976C48.6503 9.84054 48.8759 9.7728 49.1212 9.7728C49.3666 9.7728 49.5932 9.8425 49.8011 9.98189C50.009 10.1213 50.1608 10.295 50.2564 10.5031ZM52.5285 9.82581V12.594H51.8112V9.82581H51.2748V9.25451H51.8112V8.09424H52.5285V9.25451H53.0649V9.82581H52.5285ZM55.1392 12.594H55.8564V8.10013H55.1392V12.594ZM57.6919 9.82581V12.594H56.9747V9.82581H56.4383V9.25451H56.9747V8.09424H57.6919V9.25451H58.2283V9.82581H57.6919ZM63.3214 9.6609C62.9513 9.31537 62.5064 9.1426 61.9866 9.1426C61.4627 9.1426 61.0178 9.31537 60.6519 9.6609C60.286 10.0064 60.103 10.4266 60.103 10.9213C60.103 11.4121 60.2881 11.8322 60.6581 12.1817C61.0282 12.5312 61.471 12.7059 61.9866 12.7059C62.5064 12.7059 62.9513 12.5312 63.3214 12.1817C63.6915 11.8322 63.8765 11.4121 63.8765 10.9213C63.8765 10.4266 63.6915 10.0064 63.3214 9.6609ZM60.7642 10.9213C60.7642 11.2393 60.8837 11.5113 61.1228 11.737C61.3619 11.9628 61.6498 12.0757 61.9866 12.0757C62.3235 12.0757 62.6114 11.9628 62.8505 11.737C63.0896 11.5113 63.2091 11.2393 63.2091 10.9213C63.2091 10.6033 63.0906 10.3323 62.8536 10.1085C62.6166 9.88471 62.3276 9.7728 61.9866 9.7728C61.6498 9.7728 61.3619 9.88569 61.1228 10.1115C60.8837 10.3372 60.7642 10.6072 60.7642 10.9213ZM66.9844 10.8506V12.594H67.7016V10.8035C67.7016 10.4423 67.6486 10.134 67.5426 9.87882C67.4366 9.6236 67.2536 9.43709 66.9937 9.3193C66.7338 9.2015 66.4875 9.1426 66.2546 9.1426C66.0717 9.1426 65.8929 9.17303 65.7182 9.2339C65.5436 9.29476 65.3918 9.38605 65.2629 9.50777V9.25451H64.5519V12.594H65.2629V10.9095C65.2629 10.6857 65.291 10.4815 65.3471 10.297C65.4033 10.1124 65.4937 9.98483 65.6184 9.91416C65.7432 9.84348 65.843 9.80029 65.9178 9.78458C65.9927 9.76888 66.0696 9.76102 66.1486 9.76102C66.3149 9.76102 66.4708 9.80029 66.6164 9.87882C66.7619 9.95735 66.8596 10.082 66.9095 10.2528C66.9594 10.4236 66.9844 10.6229 66.9844 10.8506Z" fill="#6E7883"/>
<path fill-rule="evenodd" clip-rule="evenodd" d="M54.0523 15.0588H52.0902V24.0241C52.0902 24.6325 52.2586 25.1012 52.5954 25.4299C52.9322 25.7587 53.408 25.9231 54.023 25.9231C54.3061 25.9231 54.6234 25.8887 54.9748 25.82C55.3263 25.7513 55.6338 25.6532 55.8973 25.5256L55.6338 24.0241C55.5069 24.0829 55.3726 24.132 55.2311 24.1713C55.0895 24.2105 54.9602 24.2302 54.843 24.2302C54.5892 24.2302 54.394 24.1516 54.2573 23.9946C54.1207 23.8376 54.0523 23.6168 54.0523 23.3322V15.0588ZM42.9984 25.8053V15.3533H47.4059C47.8842 15.3533 48.3259 15.4539 48.731 15.655C49.1362 15.8562 49.4851 16.1212 49.778 16.45C50.0709 16.7788 50.3003 17.1517 50.4662 17.5688C50.6322 17.9859 50.7151 18.4055 50.7151 18.8275C50.7151 19.2691 50.6371 19.6985 50.4809 20.1156C50.3247 20.5327 50.105 20.9032 49.8219 21.227C49.5388 21.5509 49.1972 21.811 48.7969 22.0073C48.3967 22.2035 47.9574 22.3017 47.4791 22.3017H45.0191V25.8053H42.9984ZM45.0191 20.5204H47.3619C47.7329 20.5204 48.0428 20.3683 48.2918 20.0641C48.5407 19.7598 48.6651 19.3476 48.6651 18.8275C48.6651 18.5625 48.6261 18.3245 48.548 18.1135C48.4699 17.9025 48.3674 17.7234 48.2405 17.5762C48.1136 17.429 47.9647 17.3185 47.7939 17.2449C47.6231 17.1713 47.4498 17.1345 47.2741 17.1345H45.0191V20.5204ZM59.0149 25.9525C58.6439 25.9525 58.2974 25.8912 57.9752 25.7685C57.6531 25.6458 57.3749 25.4741 57.1406 25.2533C56.9063 25.0325 56.7233 24.7748 56.5915 24.4804C56.4597 24.186 56.3938 23.8621 56.3938 23.5088C56.3938 23.1457 56.4743 22.8096 56.6354 22.5004C56.7965 22.1913 57.021 21.9287 57.309 21.7128C57.597 21.4969 57.9411 21.3276 58.3413 21.2049C58.7415 21.0823 59.1808 21.0209 59.6592 21.0209C60.0008 21.0209 60.3352 21.0504 60.6622 21.1093C60.9892 21.1681 61.2796 21.2516 61.5334 21.3595V20.9179C61.5334 20.4075 61.3895 20.015 61.1015 19.7402C60.8135 19.4654 60.3864 19.328 59.8202 19.328C59.4102 19.328 59.01 19.4016 58.6195 19.5488C58.229 19.696 57.8288 19.9119 57.4188 20.1965L56.8184 18.9452C57.8044 18.2877 58.8684 17.9589 60.0106 17.9589C61.1137 17.9589 61.9703 18.2313 62.5804 18.7759C63.1905 19.3206 63.4956 20.1082 63.4956 21.1387V23.5383C63.4956 23.7444 63.5322 23.8916 63.6054 23.9799C63.6786 24.0682 63.7982 24.1173 63.9642 24.1271V25.8053C63.6323 25.874 63.3443 25.9084 63.1002 25.9084C62.7293 25.9084 62.4437 25.825 62.2436 25.6581C62.0435 25.4913 61.919 25.2705 61.8702 24.9957L61.8263 24.5687C61.4846 25.0202 61.0698 25.3637 60.5817 25.5992C60.0936 25.8348 59.5713 25.9525 59.0149 25.9525ZM60.5158 24.3332C60.218 24.451 59.9032 24.5099 59.5713 24.5099C59.2003 24.5099 58.888 24.3995 58.6342 24.1786C58.3803 23.9578 58.2534 23.6806 58.2534 23.3469C58.2534 22.9936 58.4145 22.7016 58.7367 22.471C59.0588 22.2403 59.4737 22.125 59.9813 22.125C60.2351 22.125 60.4987 22.152 60.772 22.206C61.0454 22.26 61.2992 22.3311 61.5334 22.4194V23.3027C61.5334 23.5088 61.4261 23.6953 61.2113 23.8621C61.0453 24.0584 60.8135 24.2154 60.5158 24.3332ZM65.471 27.3069C65.6369 27.356 65.798 27.3928 65.9542 27.4173C66.1104 27.4418 66.2422 27.4541 66.3496 27.4541C66.4765 27.4541 66.5936 27.4296 66.701 27.3805C66.8084 27.3314 66.906 27.2456 66.9938 27.1229C67.0817 27.0002 67.1696 26.8309 67.2574 26.615C67.3453 26.3991 67.438 26.1292 67.5356 25.8053L64.5046 18.0914H66.5253L68.6046 24.0977L70.4496 18.0914H72.2946L69.0731 27.3363C68.8877 27.8761 68.5704 28.3177 68.1213 28.6612C67.6723 29.0047 67.1159 29.1765 66.4521 29.1765C66.2959 29.1765 66.1372 29.1642 65.9762 29.1397C65.8151 29.1151 65.6467 29.0734 65.471 29.0146V27.3069ZM82.842 17.8117C83.0226 17.9295 83.147 18.0227 83.2154 18.0914L84.1086 16.4426C83.6498 16.1286 83.1129 15.8562 82.4979 15.6256C81.8829 15.395 81.2093 15.2797 80.4771 15.2797C79.95 15.2797 79.457 15.3508 78.9982 15.4931C78.5394 15.6354 78.1367 15.844 77.7902 16.1188C77.4436 16.3936 77.1727 16.7371 76.9775 17.1493C76.7823 17.5614 76.6846 18.0325 76.6846 18.5625C76.6846 18.9649 76.7456 19.3108 76.8677 19.6003C76.9897 19.8899 77.1727 20.145 77.4168 20.3658C77.6608 20.5867 77.9659 20.778 78.332 20.94C78.698 21.1019 79.13 21.2516 79.6279 21.389C80.0379 21.5067 80.4088 21.6147 80.7407 21.7128C81.0726 21.811 81.3557 21.9189 81.59 22.0367C81.8243 22.1545 82.0049 22.2919 82.1318 22.4489C82.2587 22.6059 82.3221 22.7973 82.3221 23.023C82.3221 23.7395 81.7657 24.0977 80.6529 24.0977C80.2526 24.0977 79.8621 24.0486 79.4814 23.9505C79.1007 23.8523 78.7542 23.7321 78.4418 23.5898C78.1294 23.4475 77.8585 23.3052 77.6291 23.1629C77.3997 23.0206 77.2411 22.9052 77.1532 22.8169L76.26 24.5687C76.8652 25.0006 77.5486 25.3342 78.31 25.5698C79.0714 25.8053 79.8426 25.9231 80.6236 25.9231C81.1312 25.9231 81.6168 25.8667 82.0805 25.7538C82.5442 25.6409 82.9542 25.4618 83.3105 25.2165C83.6669 24.9711 83.9499 24.6497 84.1598 24.2522C84.3697 23.8548 84.4746 23.3763 84.4746 22.8169C84.4746 22.336 84.3966 21.9312 84.2404 21.6024C84.0842 21.2736 83.8621 20.9915 83.5741 20.7559C83.2861 20.5204 82.9347 20.3241 82.5198 20.1671C82.1049 20.0101 81.6437 19.8629 81.1361 19.7255C80.7456 19.6273 80.4015 19.5341 80.1037 19.4458C79.806 19.3574 79.5595 19.2593 79.3643 19.1513C79.169 19.0434 79.0202 18.9183 78.9177 18.7759C78.8152 18.6336 78.7639 18.4545 78.7639 18.2386C78.7639 17.8657 78.9006 17.5762 79.1739 17.3701C79.4473 17.164 79.8621 17.0609 80.4186 17.0609C80.731 17.0609 81.0385 17.1002 81.3411 17.1787C81.6437 17.2572 81.9243 17.3529 82.183 17.4658C82.4417 17.5786 82.6614 17.6939 82.842 17.8117ZM90.4915 25.4079C90.2279 25.5256 89.9058 25.6434 89.525 25.7612C89.1443 25.8789 88.7441 25.9378 88.3243 25.9378C88.051 25.9378 87.7947 25.9035 87.5556 25.8348C87.3164 25.7661 87.1065 25.6557 86.9259 25.5035C86.7453 25.3514 86.6014 25.1551 86.494 24.9147C86.3866 24.6742 86.3329 24.3823 86.3329 24.0388V19.6077H85.3225V18.0914H86.3329V15.5888H88.295V18.0914H89.9058V19.6077H88.295V23.3763C88.295 23.6511 88.3658 23.845 88.5074 23.9578C88.6489 24.0707 88.8222 24.1271 89.0272 24.1271C89.2322 24.1271 89.4323 24.0928 89.6275 24.0241C89.8228 23.9554 89.979 23.8965 90.0961 23.8474L90.4915 25.4079ZM93.3601 25.6287C93.8579 25.8446 94.4193 25.9525 95.044 25.9525C95.6688 25.9525 96.2301 25.8446 96.728 25.6287C97.2258 25.4128 97.6456 25.1208 97.9872 24.7528C98.3289 24.3847 98.5925 23.9603 98.778 23.4794C98.9634 22.9985 99.0562 22.4931 99.0562 21.9631C99.0562 21.4233 98.9634 20.913 98.778 20.4321C98.5925 19.9512 98.3265 19.5267 97.9799 19.1587C97.6334 18.7907 97.2136 18.4987 96.7206 18.2828C96.2276 18.0669 95.6688 17.9589 95.044 17.9589C94.4193 17.9589 93.8579 18.0669 93.3601 18.2828C92.8622 18.4987 92.44 18.7907 92.0935 19.1587C91.7469 19.5267 91.4809 19.9512 91.2954 20.4321C91.11 20.913 91.0172 21.4233 91.0172 21.9631C91.0172 22.4931 91.11 22.9985 91.2954 23.4794C91.4809 23.9603 91.7469 24.3847 92.0935 24.7528C92.44 25.1208 92.8622 25.4128 93.3601 25.6287ZM93.0379 21.9631C93.0379 22.3066 93.0892 22.6182 93.1917 22.8979C93.2942 23.1776 93.4357 23.4205 93.6163 23.6266C93.7969 23.8327 94.0093 23.9922 94.2533 24.105C94.4974 24.2179 94.7609 24.2743 95.044 24.2743C95.3271 24.2743 95.5907 24.2179 95.8347 24.105C96.0788 23.9922 96.2911 23.8327 96.4717 23.6266C96.6523 23.4205 96.7938 23.1751 96.8963 22.8905C96.9988 22.6059 97.0501 22.2919 97.0501 21.9484C97.0501 21.6147 96.9988 21.3055 96.8963 21.0209C96.7938 20.7363 96.6523 20.491 96.4717 20.2849C96.2911 20.0788 96.0788 19.9193 95.8347 19.8064C95.5907 19.6936 95.3271 19.6371 95.044 19.6371C94.7609 19.6371 94.4974 19.696 94.2533 19.8138C94.0093 19.9316 93.7969 20.0935 93.6163 20.2996C93.4357 20.5057 93.2942 20.751 93.1917 21.0357C93.0892 21.3203 93.0379 21.6294 93.0379 21.9631ZM103.521 20.145C103.989 19.9242 104.521 19.8089 105.117 19.7991V18.0031C105.068 17.9933 105.017 17.9884 104.963 17.9884H104.722C104.517 17.9884 104.304 18.0301 104.085 18.1135C103.865 18.1969 103.648 18.3171 103.433 18.4742C103.218 18.6312 103.018 18.8152 102.833 19.0262C102.647 19.2372 102.486 19.4752 102.349 19.7402V18.0914H100.548V25.8053H102.51V21.1387C102.715 20.6971 103.052 20.3658 103.521 20.145ZM109.567 25.9525C108.952 25.9525 108.396 25.847 107.898 25.636C107.4 25.425 106.975 25.138 106.624 24.7748C106.272 24.4117 106.001 23.9897 105.811 23.5088C105.621 23.0279 105.526 22.5225 105.526 21.9925C105.526 21.4429 105.618 20.9252 105.804 20.4394C105.989 19.9536 106.258 19.5267 106.609 19.1587C106.961 18.7907 107.388 18.4987 107.89 18.2828C108.393 18.0669 108.957 17.9589 109.582 17.9589C110.206 17.9589 110.765 18.0669 111.258 18.2828C111.751 18.4987 112.171 18.7882 112.518 19.1513C112.864 19.5145 113.128 19.9365 113.308 20.4174C113.489 20.8983 113.579 21.3988 113.579 21.9189C113.579 22.0465 113.577 22.1692 113.572 22.287C113.567 22.4047 113.555 22.5029 113.535 22.5814H107.605C107.634 22.8856 107.707 23.1555 107.824 23.391C107.942 23.6266 108.093 23.8278 108.278 23.9946C108.464 24.1615 108.674 24.289 108.908 24.3774C109.142 24.4657 109.386 24.5099 109.64 24.5099C110.031 24.5099 110.399 24.4142 110.746 24.2228C111.092 24.0314 111.329 23.7787 111.456 23.4647L113.14 23.9357C112.857 24.5246 112.405 25.0079 111.785 25.3858C111.165 25.7636 110.426 25.9525 109.567 25.9525ZM110.921 19.9095C111.297 20.2579 111.51 20.7216 111.558 21.3006H107.576C107.595 21.016 107.661 20.7559 107.773 20.5204C107.885 20.2849 108.029 20.0837 108.205 19.9168C108.381 19.75 108.583 19.62 108.813 19.5267C109.042 19.4335 109.289 19.3869 109.552 19.3869C110.089 19.3869 110.546 19.5611 110.921 19.9095Z" fill="#6E7883"/>
</svg>
