<svg width="191" height="60" viewBox="0 0 191 60" fill="none" xmlns="http://www.w3.org/2000/svg">
<rect width="190.932" height="60" rx="30" fill="#F9F9F9"/>
<rect x="0.5" y="0.5" width="189.932" height="59" rx="29.5" stroke="#777777" stroke-opacity="0.2"/>
<path d="M38.6175 27.4795L43.9934 22.0538L26.9678 12.5693C25.6134 11.8097 23.9655 11.8139 22.6149 12.5804L38.6175 27.4795Z" fill="#E99E24"/>
<path d="M21.0147 14.1046C20.6239 14.7493 20.4 15.4871 20.4 16.2691V43.1783C20.4 43.936 20.6042 44.6582 20.973 45.2896L37.0656 29.048L21.0147 14.1046Z" fill="#E99E24"/>
<path d="M51.1211 26.024L45.9932 23.1682L40.231 28.9816L47.2927 35.5549L51.1233 33.4214C52.5018 32.6504 53.3272 31.268 53.3272 29.7216C53.3244 28.1725 52.4763 26.751 51.1211 26.024Z" fill="#E99E24"/>
<path d="M38.679 30.5502L22.5425 46.8361C23.2237 47.2349 23.9963 47.4472 24.7837 47.452C25.5301 47.452 26.2808 47.2615 26.9679 46.8782L45.2688 36.6848L38.679 30.5502Z" fill="#E99E24"/>
<path fill-rule="evenodd" clip-rule="evenodd" d="M69.7312 13.8111H68.3559C68.1189 13.5696 67.8367 13.3826 67.5092 13.2501C67.1818 13.1176 66.8341 13.0513 66.4661 13.0513C65.7426 13.0513 65.1251 13.2928 64.6136 13.7757C64.1022 14.2587 63.8465 14.8388 63.8465 15.5162C63.8465 16.1994 64.1022 16.7824 64.6136 17.2654C65.1251 17.7484 65.7426 17.9898 66.4661 17.9898C66.99 17.9898 67.4671 17.8559 67.8975 17.5879C68.3279 17.3199 68.6491 16.9621 68.8611 16.5145H65.596V15.4808L70.199 15.4897V15.6133C70.199 16.5616 69.831 17.3714 69.095 18.0428C68.359 18.7143 67.4827 19.05 66.4661 19.05C65.4369 19.05 64.5575 18.7054 63.8278 18.0163C63.098 17.3272 62.7332 16.4939 62.7332 15.5162C62.7332 14.5502 63.098 13.7227 63.8278 13.0336C64.5575 12.3445 65.4369 12 66.4661 12C67.1646 12 67.8024 12.162 68.3793 12.4859C68.9562 12.8098 69.4069 13.2516 69.7312 13.8111ZM73.682 18.1135C74.0063 18.1135 74.3026 18.0414 74.5708 17.8971C74.839 17.7528 75.0573 17.5511 75.2257 17.2919H76.3484C76.1488 17.8043 75.8026 18.2269 75.3099 18.5597C74.8171 18.8924 74.2745 19.0588 73.682 19.0588C72.9086 19.0588 72.2443 18.7967 71.6892 18.2725C71.1341 17.7484 70.8566 17.1182 70.8566 16.3819C70.8566 15.6398 71.131 15.0096 71.6799 14.4913C72.2287 13.9731 72.8961 13.7139 73.682 13.7139C74.4616 13.7139 75.129 13.9731 75.6841 14.4913C76.2392 15.0096 76.5168 15.6398 76.5168 16.3819L76.5074 16.6293H71.8763C71.9387 17.0357 72.1445 17.3847 72.4938 17.6762C72.8431 17.9678 73.2391 18.1135 73.682 18.1135ZM75.3847 15.7547H71.9792C72.1289 15.4308 72.3581 15.1672 72.6669 14.964C72.9756 14.7608 73.314 14.6592 73.682 14.6592C74.05 14.6592 74.3899 14.7637 74.7018 14.9728C75.0136 15.1819 75.2413 15.4425 75.3847 15.7547ZM78.7929 14.7387V18.891H77.717V14.7387H76.9124V13.8818H77.717V12.1414H78.7929V13.8818H79.5974V14.7387H78.7929ZM82.7089 18.891H83.7848V12.1502H82.7089V18.891ZM86.538 14.7387V18.891H85.4621V14.7387H84.6575V13.8818H85.4621V12.1414H86.538V13.8818H87.3426V14.7387H86.538ZM94.9822 14.4913C94.4271 13.9731 93.7597 13.7139 92.9801 13.7139C92.1942 13.7139 91.5268 13.9731 90.978 14.4913C90.4291 15.0096 90.1547 15.6398 90.1547 16.3819C90.1547 17.1182 90.4322 17.7484 90.9873 18.2725C91.5424 18.7967 92.2067 19.0588 92.9801 19.0588C93.7597 19.0588 94.4271 18.7967 94.9822 18.2725C95.5373 17.7484 95.8149 17.1182 95.8149 16.3819C95.8149 15.6398 95.5373 15.0096 94.9822 14.4913ZM91.1464 16.3819C91.1464 16.859 91.3257 17.2669 91.6843 17.6055C92.043 17.9442 92.4749 18.1135 92.9801 18.1135C93.4853 18.1135 93.9172 17.9442 94.2759 17.6055C94.6345 17.2669 94.8138 16.859 94.8138 16.3819C94.8138 15.9049 94.636 15.4985 94.2805 15.1628C93.925 14.8271 93.4915 14.6592 92.9801 14.6592C92.4749 14.6592 92.043 14.8285 91.6843 15.1672C91.3257 15.5059 91.1464 15.9108 91.1464 16.3819ZM100.477 16.2759V18.891H101.553V16.2053C101.553 15.6634 101.473 15.2011 101.314 14.8182C101.155 14.4354 100.881 14.1556 100.491 13.9789C100.101 13.8023 99.7313 13.7139 99.3821 13.7139C99.1076 13.7139 98.8394 13.7596 98.5775 13.8508C98.3155 13.9421 98.0878 14.0791 97.8945 14.2617V13.8818H96.8279V18.891H97.8945V16.3643C97.8945 16.0286 97.9366 15.7223 98.0208 15.4455C98.105 15.1687 98.2407 14.9773 98.4278 14.8712C98.6149 14.7652 98.7646 14.7004 98.8768 14.6769C98.9891 14.6533 99.1045 14.6415 99.223 14.6415C99.4725 14.6415 99.7064 14.7004 99.9247 14.8182C100.143 14.936 100.29 15.123 100.364 15.3792C100.439 15.6354 100.477 15.9343 100.477 16.2759Z" fill="#6E7883"/>
<path fill-rule="evenodd" clip-rule="evenodd" d="M81.0786 22.5883H78.1354V36.0361C78.1354 36.9488 78.388 37.6517 78.8932 38.1449C79.3984 38.6381 80.1122 38.8846 81.0347 38.8846C81.4594 38.8846 81.9353 38.8331 82.4624 38.7301C82.9895 38.627 83.4508 38.4798 83.8461 38.2884L83.4508 36.0361C83.2604 36.1244 83.0591 36.198 82.8468 36.2569C82.6345 36.3158 82.4404 36.3452 82.2647 36.3452C81.884 36.3452 81.5911 36.2275 81.3861 35.9919C81.1811 35.7564 81.0786 35.4252 81.0786 34.9982V22.5883ZM64.4977 38.708V23.0299H71.1089C71.8264 23.0299 72.489 23.1808 73.0967 23.4826C73.7044 23.7844 74.2279 24.1818 74.6672 24.675C75.1064 25.1682 75.4506 25.7276 75.6995 26.3532C75.9484 26.9789 76.0729 27.6082 76.0729 28.2412C76.0729 28.9037 75.9557 29.5477 75.7214 30.1734C75.4872 30.799 75.1577 31.3547 74.7331 31.8405C74.3084 32.3263 73.7959 32.7165 73.1955 33.0109C72.5952 33.3053 71.9363 33.4525 71.2188 33.4525H67.5288V38.708H64.4977ZM67.5288 30.7806H71.043C71.5995 30.7806 72.0644 30.5524 72.4378 30.0961C72.8112 29.6397 72.9979 29.0214 72.9979 28.2412C72.9979 27.8437 72.9393 27.4867 72.8222 27.1702C72.705 26.8537 72.5513 26.5851 72.3609 26.3642C72.1705 26.1434 71.9472 25.9778 71.691 25.8674C71.4347 25.757 71.1748 25.7018 70.9113 25.7018H67.5288V30.7806ZM88.5225 38.9288C87.966 38.9288 87.4462 38.8368 86.963 38.6528C86.4798 38.4688 86.0625 38.2112 85.711 37.8799C85.3596 37.5487 85.085 37.1623 84.8874 36.7206C84.6897 36.279 84.5908 35.7932 84.5908 35.2632C84.5908 34.7185 84.7116 34.2143 84.9533 33.7506C85.1949 33.2869 85.5316 32.8931 85.9636 32.5692C86.3956 32.2454 86.9117 31.9914 87.5121 31.8074C88.1125 31.6234 88.7714 31.5314 89.4889 31.5314C90.0014 31.5314 90.5029 31.5756 90.9934 31.6639C91.484 31.7522 91.9196 31.8773 92.3003 32.0393V31.3768C92.3003 30.6113 92.0843 30.0225 91.6524 29.6103C91.2204 29.1981 90.5798 28.992 89.7305 28.992C89.1155 28.992 88.5151 29.1024 87.9294 29.3232C87.3437 29.544 86.7434 29.8679 86.1283 30.2948L85.2278 28.4179C86.7067 27.4315 88.3028 26.9384 90.016 26.9384C91.6707 26.9384 92.9556 27.3469 93.8708 28.1639C94.786 28.9809 95.2435 30.1623 95.2435 31.7081V35.3074C95.2435 35.6165 95.2984 35.8374 95.4083 35.9698C95.5181 36.1023 95.6975 36.1759 95.9464 36.1907V38.708C95.4485 38.811 95.0166 38.8626 94.6505 38.8626C94.0941 38.8626 93.6658 38.7374 93.3656 38.4872C93.0654 38.2369 92.8787 37.9057 92.8055 37.4935L92.7396 36.8531C92.2271 37.5303 91.6048 38.0455 90.8726 38.3988C90.1405 38.7522 89.3571 38.9288 88.5225 38.9288ZM90.7738 36.4998C90.3272 36.6765 89.855 36.7648 89.3571 36.7648C88.8007 36.7648 88.3321 36.5992 87.9514 36.2679C87.5707 35.9367 87.3803 35.5208 87.3803 35.0203C87.3803 34.4904 87.6219 34.0524 88.1051 33.7065C88.5884 33.3605 89.2107 33.1875 89.9721 33.1875C90.3528 33.1875 90.7482 33.228 91.1582 33.309C91.5682 33.39 91.9489 33.4967 92.3003 33.6292V34.9541C92.3003 35.2632 92.1392 35.5429 91.8171 35.7932C91.5682 36.0876 91.2204 36.3232 90.7738 36.4998ZM98.2066 40.9603C98.4556 41.0339 98.6972 41.0891 98.9315 41.1259C99.1657 41.1628 99.3634 41.1812 99.5245 41.1812C99.7148 41.1812 99.8906 41.1444 100.052 41.0707C100.213 40.9971 100.359 40.8683 100.491 40.6843C100.623 40.5003 100.754 40.2464 100.886 39.9225C101.018 39.5986 101.157 39.1938 101.304 38.708L96.757 27.1371H99.7881L102.907 36.1465L105.674 27.1371H108.442L103.61 41.0045C103.332 41.8142 102.856 42.4766 102.182 42.9919C101.509 43.5071 100.674 43.7647 99.6782 43.7647C99.444 43.7647 99.206 43.7463 98.9644 43.7095C98.7228 43.6727 98.4702 43.6102 98.2066 43.5218V40.9603ZM124.263 26.7176C124.534 26.8942 124.721 27.0341 124.823 27.1371L126.163 24.6639C125.475 24.1929 124.669 23.7844 123.747 23.4384C122.824 23.0925 121.814 22.9195 120.716 22.9195C119.925 22.9195 119.186 23.0262 118.497 23.2397C117.809 23.4531 117.205 23.766 116.685 24.1781C116.166 24.5903 115.759 25.1056 115.466 25.7239C115.174 26.3422 115.027 27.0488 115.027 27.8437C115.027 28.4473 115.119 28.9662 115.302 29.4005C115.485 29.8348 115.759 30.2175 116.125 30.5488C116.491 30.88 116.949 31.167 117.498 31.4099C118.047 31.6528 118.695 31.8773 119.442 32.0834C120.057 32.2601 120.613 32.422 121.111 32.5692C121.609 32.7165 122.034 32.8784 122.385 33.055C122.737 33.2317 123.007 33.4378 123.198 33.6733C123.388 33.9089 123.483 34.1959 123.483 34.5345C123.483 35.6092 122.649 36.1465 120.979 36.1465C120.379 36.1465 119.793 36.0729 119.222 35.9257C118.651 35.7785 118.131 35.5981 117.663 35.3847C117.194 35.1712 116.788 34.9578 116.444 34.7443C116.1 34.5308 115.862 34.3579 115.73 34.2254L114.39 36.8531C115.298 37.5009 116.323 38.0014 117.465 38.3547C118.607 38.708 119.764 38.8846 120.936 38.8846C121.697 38.8846 122.425 38.8 123.121 38.6307C123.817 38.4614 124.431 38.1927 124.966 37.8247C125.5 37.4567 125.925 36.9746 126.24 36.3784C126.555 35.7821 126.712 35.0645 126.712 34.2254C126.712 33.504 126.595 32.8968 126.361 32.4036C126.126 31.9105 125.793 31.4872 125.361 31.1339C124.929 30.7806 124.402 30.4862 123.78 30.2507C123.158 30.0151 122.466 29.7943 121.704 29.5882C121.119 29.441 120.602 29.3011 120.156 29.1686C119.709 29.0361 119.339 28.8889 119.047 28.727C118.754 28.5651 118.53 28.3774 118.377 28.1639C118.223 27.9505 118.146 27.6818 118.146 27.3579C118.146 26.7985 118.351 26.3643 118.761 26.0551C119.171 25.746 119.793 25.5914 120.628 25.5914C121.097 25.5914 121.558 25.6503 122.012 25.768C122.466 25.8858 122.887 26.0293 123.275 26.1986C123.663 26.3679 123.992 26.5409 124.263 26.7176ZM135.737 38.1118C135.342 38.2884 134.859 38.4651 134.288 38.6417C133.717 38.8184 133.116 38.9067 132.487 38.9067C132.077 38.9067 131.692 38.8552 131.334 38.7522C130.975 38.6491 130.66 38.4835 130.389 38.2553C130.118 38.0271 129.902 37.7327 129.741 37.372C129.58 37.0114 129.5 36.5734 129.5 36.0582V29.4115H127.984V27.1371H129.5V23.3832H132.443V27.1371H134.859V29.4115H132.443V35.0645C132.443 35.4767 132.549 35.7674 132.761 35.9367C132.974 36.106 133.233 36.1907 133.541 36.1907C133.848 36.1907 134.149 36.1391 134.441 36.0361C134.734 35.933 134.969 35.8447 135.144 35.7711L135.737 38.1118ZM140.04 38.443C140.787 38.7669 141.629 38.9288 142.566 38.9288C143.503 38.9288 144.345 38.7669 145.092 38.443C145.839 38.1191 146.469 37.6812 146.981 37.1291C147.494 36.5771 147.889 35.9404 148.167 35.2191C148.445 34.4977 148.584 33.7396 148.584 32.9446C148.584 32.135 148.445 31.3695 148.167 30.6481C147.889 29.9268 147.49 29.2901 146.97 28.738C146.45 28.186 145.821 27.748 145.081 27.4242C144.342 27.1003 143.503 26.9384 142.566 26.9384C141.629 26.9384 140.787 27.1003 140.04 27.4242C139.293 27.748 138.66 28.186 138.14 28.738C137.621 29.2901 137.222 29.9268 136.943 30.6481C136.665 31.3695 136.526 32.135 136.526 32.9446C136.526 33.7396 136.665 34.4977 136.943 35.2191C137.222 35.9404 137.621 36.5771 138.14 37.1291C138.66 37.6812 139.293 38.1191 140.04 38.443ZM139.557 32.9446C139.557 33.4599 139.634 33.9273 139.788 34.3468C139.941 34.7664 140.154 35.1307 140.425 35.4399C140.696 35.749 141.014 35.9882 141.38 36.1575C141.746 36.3268 142.142 36.4115 142.566 36.4115C142.991 36.4115 143.386 36.3268 143.752 36.1575C144.118 35.9882 144.437 35.749 144.708 35.4399C144.979 35.1307 145.191 34.7627 145.345 34.3358C145.498 33.9089 145.575 33.4378 145.575 32.9226C145.575 32.422 145.498 31.9583 145.345 31.5314C145.191 31.1045 144.979 30.7365 144.708 30.4273C144.437 30.1182 144.118 29.8789 143.752 29.7096C143.386 29.5404 142.991 29.4557 142.566 29.4557C142.142 29.4557 141.746 29.544 141.38 29.7207C141.014 29.8973 140.696 30.1402 140.425 30.4494C140.154 30.7585 139.941 31.1266 139.788 31.5535C139.634 31.9804 139.557 32.4441 139.557 32.9446ZM155.281 30.2175C155.984 29.8863 156.782 29.7133 157.676 29.6986V27.0046C157.602 26.9899 157.525 26.9825 157.445 26.9825H157.082C156.775 26.9825 156.457 27.0451 156.127 27.1702C155.798 27.2954 155.472 27.4757 155.15 27.7112C154.827 27.9468 154.527 28.2228 154.249 28.5393C153.971 28.8558 153.729 29.2128 153.524 29.6103V27.1371H150.823V38.708H153.766V31.7081C154.073 31.0456 154.579 30.5488 155.281 30.2175ZM164.351 38.9288C163.428 38.9288 162.593 38.7706 161.847 38.454C161.1 38.1375 160.463 37.7069 159.936 37.1623C159.409 36.6176 159.002 35.9846 158.717 35.2632C158.431 34.5419 158.288 33.7837 158.288 32.9888C158.288 32.1644 158.428 31.3879 158.706 30.6592C158.984 29.9305 159.387 29.2901 159.914 28.738C160.441 28.186 161.082 27.748 161.836 27.4242C162.59 27.1003 163.435 26.9384 164.373 26.9384C165.31 26.9384 166.148 27.1003 166.887 27.4242C167.627 27.748 168.257 28.1823 168.776 28.727C169.296 29.2717 169.692 29.9047 169.962 30.626C170.233 31.3474 170.369 32.0982 170.369 32.8784C170.369 33.0698 170.365 33.2538 170.358 33.4304C170.351 33.6071 170.332 33.7543 170.303 33.8721H161.407C161.451 34.3284 161.561 34.7333 161.737 35.0866C161.913 35.4399 162.14 35.7417 162.418 35.9919C162.696 36.2422 163.011 36.4336 163.362 36.5661C163.714 36.6985 164.08 36.7648 164.46 36.7648C165.046 36.7648 165.599 36.6213 166.119 36.3342C166.639 36.0471 166.994 35.6681 167.184 35.197L169.71 35.9036C169.285 36.7869 168.608 37.5119 167.678 38.0787C166.748 38.6454 165.639 38.9288 164.351 38.9288ZM166.382 29.8642C166.946 30.3868 167.265 31.0824 167.338 31.951H161.363C161.393 31.524 161.492 31.1339 161.66 30.7806C161.828 30.4273 162.044 30.1255 162.308 29.8753C162.571 29.625 162.875 29.4299 163.219 29.2901C163.564 29.1502 163.933 29.0803 164.329 29.0803C165.134 29.0803 165.819 29.3416 166.382 29.8642Z" fill="#6E7883"/>
</svg>
