<svg width="128" height="40" viewBox="0 0 128 40" fill="none" xmlns="http://www.w3.org/2000/svg">
<rect width="127.288" height="40" rx="20" fill="#F9F9F9"/>
<rect x="0.5" y="0.5" width="126.288" height="39" rx="19.5" stroke="#777777" stroke-opacity="0.2"/>
<path d="M25.745 18.3199L29.3289 14.7028L17.9786 8.3798C17.0756 7.87339 15.977 7.87618 15.0766 8.38719L25.745 18.3199Z" fill="#F4A11D"/>
<path d="M14.0097 9.40332C13.7492 9.83312 13.6 10.325 13.6 10.8463V28.7858C13.6 29.2909 13.7361 29.7724 13.9819 30.1933L24.7103 19.3656L14.0097 9.40332Z" fill="#F4A11D"/>
<path d="M34.0807 17.3496L30.6621 15.4458L26.8206 19.3214L31.5285 23.7036L34.0822 22.2813C35.0012 21.7673 35.5514 20.8456 35.5514 19.8147C35.5496 18.782 34.9842 17.8344 34.0807 17.3496Z" fill="#F4A11D"/>
<path d="M25.7859 20.3672L15.0283 31.2245C15.4824 31.4903 15.9974 31.6319 16.5224 31.6351C17.02 31.6351 17.5205 31.5081 17.9785 31.2525L30.1792 24.457L25.7859 20.3672Z" fill="#F4A11D"/>
<path fill-rule="evenodd" clip-rule="evenodd" d="M46.4874 9.20739H45.5705C45.4125 9.04641 45.2244 8.92174 45.0061 8.83339C44.7878 8.74505 44.556 8.70088 44.3106 8.70088C43.8283 8.70088 43.4166 8.86186 43.0757 9.18383C42.7347 9.50581 42.5642 9.89256 42.5642 10.3441C42.5642 10.7996 42.7347 11.1883 43.0757 11.5103C43.4166 11.8322 43.8283 11.9932 44.3106 11.9932C44.6599 11.9932 44.978 11.9039 45.2649 11.7252C45.5518 11.5466 45.766 11.3081 45.9073 11.0096H43.7306V10.3205L46.7992 10.3264V10.4089C46.7992 11.0411 46.5539 11.5809 46.0633 12.0286C45.5726 12.4762 44.9884 12.7 44.3106 12.7C43.6245 12.7 43.0383 12.4703 42.5518 12.0109C42.0653 11.5515 41.822 10.9959 41.822 10.3441C41.822 9.70016 42.0653 9.1485 42.5518 8.6891C43.0383 8.2297 43.6245 8 44.3106 8C44.7763 8 45.2015 8.10798 45.5861 8.32393C45.9708 8.53989 46.2712 8.83437 46.4874 9.20739ZM49.1212 12.0757C49.3375 12.0757 49.535 12.0276 49.7138 11.9314C49.8926 11.8352 50.0381 11.7007 50.1504 11.5279H50.8988C50.7658 11.8695 50.535 12.1513 50.2065 12.3731C49.878 12.595 49.5163 12.7059 49.1212 12.7059C48.6056 12.7059 48.1628 12.5312 47.7927 12.1817C47.4227 11.8322 47.2376 11.4121 47.2376 10.9213C47.2376 10.4266 47.4206 10.0064 47.7865 9.6609C48.1524 9.31537 48.5973 9.1426 49.1212 9.1426C49.641 9.1426 50.0859 9.31537 50.456 9.6609C50.8261 10.0064 51.0111 10.4266 51.0111 10.9213L51.0049 11.0862H47.9175C47.9591 11.3571 48.0963 11.5898 48.3291 11.7841C48.562 11.9785 48.826 12.0757 49.1212 12.0757ZM50.2564 10.5031H47.9861C48.0859 10.2872 48.2387 10.1115 48.4445 9.976C48.6503 9.84054 48.8759 9.7728 49.1212 9.7728C49.3666 9.7728 49.5932 9.8425 49.8011 9.98189C50.009 10.1213 50.1608 10.295 50.2564 10.5031ZM52.5285 9.82581V12.594H51.8112V9.82581H51.2748V9.25451H51.8112V8.09424H52.5285V9.25451H53.0649V9.82581H52.5285ZM55.1392 12.594H55.8564V8.10013H55.1392V12.594ZM57.6919 9.82581V12.594H56.9747V9.82581H56.4383V9.25451H56.9747V8.09424H57.6919V9.25451H58.2283V9.82581H57.6919ZM63.3214 9.6609C62.9513 9.31537 62.5064 9.1426 61.9866 9.1426C61.4627 9.1426 61.0178 9.31537 60.6519 9.6609C60.286 10.0064 60.103 10.4266 60.103 10.9213C60.103 11.4121 60.2881 11.8322 60.6581 12.1817C61.0282 12.5312 61.471 12.7059 61.9866 12.7059C62.5064 12.7059 62.9513 12.5312 63.3214 12.1817C63.6915 11.8322 63.8765 11.4121 63.8765 10.9213C63.8765 10.4266 63.6915 10.0064 63.3214 9.6609ZM60.7642 10.9213C60.7642 11.2393 60.8837 11.5113 61.1228 11.737C61.3619 11.9628 61.6498 12.0757 61.9866 12.0757C62.3235 12.0757 62.6114 11.9628 62.8505 11.737C63.0896 11.5113 63.2091 11.2393 63.2091 10.9213C63.2091 10.6033 63.0906 10.3323 62.8536 10.1085C62.6166 9.88471 62.3276 9.7728 61.9866 9.7728C61.6498 9.7728 61.3619 9.88569 61.1228 10.1115C60.8837 10.3372 60.7642 10.6072 60.7642 10.9213ZM66.9844 10.8506V12.594H67.7016V10.8035C67.7016 10.4423 67.6486 10.134 67.5426 9.87882C67.4366 9.6236 67.2536 9.43709 66.9937 9.3193C66.7338 9.2015 66.4875 9.1426 66.2546 9.1426C66.0717 9.1426 65.8929 9.17303 65.7182 9.2339C65.5436 9.29476 65.3918 9.38605 65.2629 9.50777V9.25451H64.5519V12.594H65.2629V10.9095C65.2629 10.6857 65.291 10.4815 65.3471 10.297C65.4033 10.1124 65.4937 9.98483 65.6184 9.91416C65.7432 9.84348 65.843 9.80029 65.9178 9.78458C65.9927 9.76888 66.0696 9.76102 66.1486 9.76102C66.3149 9.76102 66.4708 9.80029 66.6164 9.87882C66.7619 9.95735 66.8596 10.082 66.9095 10.2528C66.9594 10.4236 66.9844 10.6229 66.9844 10.8506Z" fill="#6E7883"/>
<path fill-rule="evenodd" clip-rule="evenodd" d="M54.0523 15.0586H52.0902V24.0238C52.0902 24.6323 52.2586 25.1009 52.5954 25.4297C52.9322 25.7585 53.408 25.9229 54.023 25.9229C54.3061 25.9229 54.6234 25.8885 54.9748 25.8198C55.3263 25.7511 55.6338 25.653 55.8973 25.5254L55.6338 24.0238C55.5069 24.0827 55.3726 24.1318 55.2311 24.171C55.0895 24.2103 54.9602 24.2299 54.843 24.2299C54.5892 24.2299 54.394 24.1514 54.2573 23.9944C54.1207 23.8373 54.0523 23.6165 54.0523 23.3319V15.0586ZM42.9984 25.8051V15.353H47.4059C47.8842 15.353 48.3259 15.4536 48.731 15.6548C49.1362 15.856 49.4851 16.121 49.778 16.4497C50.0709 16.7785 50.3003 17.1515 50.4662 17.5686C50.6322 17.9857 50.7151 18.4052 50.7151 18.8272C50.7151 19.2689 50.6371 19.6982 50.4809 20.1153C50.3247 20.5324 50.105 20.9029 49.8219 21.2268C49.5388 21.5507 49.1972 21.8107 48.7969 22.007C48.3967 22.2033 47.9574 22.3014 47.4791 22.3014H45.0191V25.8051H42.9984ZM45.0191 20.5202H47.3619C47.7329 20.5202 48.0428 20.368 48.2918 20.0638C48.5407 19.7596 48.6651 19.3474 48.6651 18.8272C48.6651 18.5622 48.6261 18.3243 48.548 18.1132C48.4699 17.9022 48.3674 17.7231 48.2405 17.5759C48.1136 17.4287 47.9647 17.3183 47.7939 17.2447C47.6231 17.1711 47.4498 17.1343 47.2741 17.1343H45.0191V20.5202ZM59.0149 25.9523C58.6439 25.9523 58.2974 25.891 57.9752 25.7683C57.6531 25.6456 57.3749 25.4739 57.1406 25.253C56.9063 25.0322 56.7233 24.7746 56.5915 24.4802C56.4597 24.1857 56.3938 23.8619 56.3938 23.5086C56.3938 23.1454 56.4743 22.8093 56.6354 22.5002C56.7965 22.191 57.021 21.9285 57.309 21.7126C57.597 21.4967 57.9411 21.3274 58.3413 21.2047C58.7415 21.082 59.1808 21.0207 59.6592 21.0207C60.0008 21.0207 60.3352 21.0501 60.6622 21.109C60.9892 21.1679 61.2796 21.2513 61.5334 21.3593V20.9176C61.5334 20.4073 61.3895 20.0147 61.1015 19.7399C60.8135 19.4651 60.3864 19.3277 59.8202 19.3277C59.4102 19.3277 59.01 19.4014 58.6195 19.5486C58.229 19.6958 57.8288 19.9117 57.4188 20.1963L56.8184 18.945C57.8044 18.2874 58.8684 17.9587 60.0106 17.9587C61.1137 17.9587 61.9703 18.231 62.5804 18.7757C63.1905 19.3204 63.4956 20.108 63.4956 21.1385V23.538C63.4956 23.7441 63.5322 23.8913 63.6054 23.9797C63.6786 24.068 63.7982 24.117 63.9642 24.1269V25.8051C63.6323 25.8738 63.3443 25.9081 63.1002 25.9081C62.7293 25.9081 62.4437 25.8247 62.2436 25.6579C62.0435 25.491 61.919 25.2702 61.8702 24.9954L61.8263 24.5685C61.4846 25.02 61.0698 25.3634 60.5817 25.599C60.0936 25.8345 59.5713 25.9523 59.0149 25.9523ZM60.5158 24.333C60.218 24.4507 59.9032 24.5096 59.5713 24.5096C59.2003 24.5096 58.888 24.3992 58.6342 24.1784C58.3803 23.9576 58.2534 23.6803 58.2534 23.3466C58.2534 22.9933 58.4145 22.7014 58.7367 22.4707C59.0588 22.2401 59.4737 22.1248 59.9813 22.1248C60.2351 22.1248 60.4987 22.1518 60.772 22.2057C61.0454 22.2597 61.2992 22.3309 61.5334 22.4192V23.3025C61.5334 23.5086 61.4261 23.695 61.2113 23.8619C61.0453 24.0582 60.8135 24.2152 60.5158 24.333ZM65.471 27.3066C65.6369 27.3557 65.798 27.3925 65.9542 27.4171C66.1104 27.4416 66.2422 27.4539 66.3496 27.4539C66.4765 27.4539 66.5936 27.4293 66.701 27.3803C66.8084 27.3312 66.906 27.2453 66.9938 27.1226C67.0817 27 67.1696 26.8307 67.2574 26.6147C67.3453 26.3988 67.438 26.129 67.5356 25.8051L64.5046 18.0912H66.5253L68.6046 24.0974L70.4496 18.0912H72.2946L69.0731 27.3361C68.8877 27.8759 68.5704 28.3175 68.1213 28.661C67.6723 29.0045 67.1159 29.1762 66.4521 29.1762C66.2959 29.1762 66.1372 29.164 65.9762 29.1394C65.8151 29.1149 65.6467 29.0732 65.471 29.0143V27.3066ZM82.842 17.8115C83.0226 17.9292 83.147 18.0225 83.2154 18.0912L84.1086 16.4424C83.6498 16.1283 83.1129 15.856 82.4979 15.6254C81.8829 15.3947 81.2093 15.2794 80.4771 15.2794C79.95 15.2794 79.457 15.3506 78.9982 15.4929C78.5394 15.6352 78.1367 15.8437 77.7902 16.1185C77.4436 16.3933 77.1727 16.7368 76.9775 17.149C76.7823 17.5612 76.6846 18.0323 76.6846 18.5622C76.6846 18.9646 76.7456 19.3106 76.8677 19.6001C76.9897 19.8896 77.1727 20.1448 77.4168 20.3656C77.6608 20.5864 77.9659 20.7778 78.332 20.9397C78.698 21.1017 79.13 21.2513 79.6279 21.3887C80.0379 21.5065 80.4088 21.6144 80.7407 21.7126C81.0726 21.8107 81.3557 21.9187 81.59 22.0365C81.8243 22.1542 82.0049 22.2916 82.1318 22.4486C82.2587 22.6057 82.3221 22.797 82.3221 23.0228C82.3221 23.7392 81.7657 24.0974 80.6529 24.0974C80.2526 24.0974 79.8621 24.0484 79.4814 23.9502C79.1007 23.8521 78.7542 23.7318 78.4418 23.5895C78.1294 23.4472 77.8585 23.3049 77.6291 23.1626C77.3997 23.0203 77.2411 22.905 77.1532 22.8167L76.26 24.5685C76.8652 25.0003 77.5486 25.334 78.31 25.5695C79.0714 25.8051 79.8426 25.9229 80.6236 25.9229C81.1312 25.9229 81.6168 25.8664 82.0805 25.7536C82.5442 25.6407 82.9542 25.4616 83.3105 25.2162C83.6669 24.9709 83.9499 24.6495 84.1598 24.252C84.3697 23.8545 84.4746 23.3761 84.4746 22.8167C84.4746 22.3358 84.3966 21.931 84.2404 21.6022C84.0842 21.2734 83.8621 20.9912 83.5741 20.7557C83.2861 20.5202 82.9347 20.3239 82.5198 20.1669C82.1049 20.0098 81.6437 19.8626 81.1361 19.7252C80.7456 19.6271 80.4015 19.5338 80.1037 19.4455C79.806 19.3572 79.5595 19.259 79.3643 19.1511C79.169 19.0431 79.0202 18.918 78.9177 18.7757C78.8152 18.6334 78.7639 18.4543 78.7639 18.2384C78.7639 17.8654 78.9006 17.5759 79.1739 17.3698C79.4473 17.1637 79.8621 17.0607 80.4186 17.0607C80.731 17.0607 81.0385 17.0999 81.3411 17.1784C81.6437 17.257 81.9243 17.3526 82.183 17.4655C82.4417 17.5784 82.6614 17.6937 82.842 17.8115ZM90.4915 25.4076C90.2279 25.5254 89.9058 25.6431 89.525 25.7609C89.1443 25.8787 88.7441 25.9376 88.3243 25.9376C88.051 25.9376 87.7947 25.9032 87.5556 25.8345C87.3164 25.7658 87.1065 25.6554 86.9259 25.5033C86.7453 25.3512 86.6014 25.1549 86.494 24.9144C86.3866 24.674 86.3329 24.382 86.3329 24.0385V19.6075H85.3225V18.0912H86.3329V15.5886H88.295V18.0912H89.9058V19.6075H88.295V23.3761C88.295 23.6509 88.3658 23.8447 88.5074 23.9576C88.6489 24.0704 88.8222 24.1269 89.0272 24.1269C89.2322 24.1269 89.4323 24.0925 89.6275 24.0238C89.8228 23.9551 89.979 23.8962 90.0961 23.8472L90.4915 25.4076ZM93.3601 25.6284C93.8579 25.8443 94.4193 25.9523 95.044 25.9523C95.6688 25.9523 96.2301 25.8443 96.728 25.6284C97.2258 25.4125 97.6456 25.1205 97.9872 24.7525C98.3289 24.3845 98.5925 23.96 98.778 23.4791C98.9634 22.9982 99.0562 22.4928 99.0562 21.9628C99.0562 21.4231 98.9634 20.9127 98.778 20.4318C98.5925 19.9509 98.3265 19.5265 97.9799 19.1585C97.6334 18.7904 97.2136 18.4985 96.7206 18.2825C96.2276 18.0666 95.6688 17.9587 95.044 17.9587C94.4193 17.9587 93.8579 18.0666 93.3601 18.2825C92.8622 18.4985 92.44 18.7904 92.0935 19.1585C91.7469 19.5265 91.4809 19.9509 91.2954 20.4318C91.11 20.9127 91.0172 21.4231 91.0172 21.9628C91.0172 22.4928 91.11 22.9982 91.2954 23.4791C91.4809 23.96 91.7469 24.3845 92.0935 24.7525C92.44 25.1205 92.8622 25.4125 93.3601 25.6284ZM93.0379 21.9628C93.0379 22.3063 93.0892 22.6179 93.1917 22.8976C93.2942 23.1773 93.4357 23.4202 93.6163 23.6263C93.7969 23.8324 94.0093 23.9919 94.2533 24.1048C94.4974 24.2176 94.7609 24.2741 95.044 24.2741C95.3271 24.2741 95.5907 24.2176 95.8347 24.1048C96.0788 23.9919 96.2911 23.8324 96.4717 23.6263C96.6523 23.4202 96.7938 23.1749 96.8963 22.8903C96.9988 22.6057 97.0501 22.2916 97.0501 21.9481C97.0501 21.6144 96.9988 21.3053 96.8963 21.0207C96.7938 20.7361 96.6523 20.4907 96.4717 20.2846C96.2911 20.0785 96.0788 19.919 95.8347 19.8062C95.5907 19.6933 95.3271 19.6369 95.044 19.6369C94.7609 19.6369 94.4974 19.6958 94.2533 19.8135C94.0093 19.9313 93.7969 20.0932 93.6163 20.2993C93.4357 20.5054 93.2942 20.7508 93.1917 21.0354C93.0892 21.32 93.0379 21.6292 93.0379 21.9628ZM103.521 20.1448C103.989 19.924 104.521 19.8086 105.117 19.7988V18.0028C105.068 17.993 105.017 17.9881 104.963 17.9881H104.722C104.517 17.9881 104.304 18.0298 104.085 18.1132C103.865 18.1967 103.648 18.3169 103.433 18.4739C103.218 18.6309 103.018 18.815 102.833 19.026C102.647 19.237 102.486 19.475 102.349 19.7399V18.0912H100.548V25.8051H102.51V21.1385C102.715 20.6968 103.052 20.3656 103.521 20.1448ZM109.567 25.9523C108.952 25.9523 108.396 25.8468 107.898 25.6358C107.4 25.4248 106.975 25.1377 106.624 24.7746C106.272 24.4115 106.001 23.9895 105.811 23.5086C105.621 23.0277 105.526 22.5223 105.526 21.9923C105.526 21.4427 105.618 20.925 105.804 20.4392C105.989 19.9534 106.258 19.5265 106.609 19.1585C106.961 18.7904 107.388 18.4985 107.89 18.2825C108.393 18.0666 108.957 17.9587 109.582 17.9587C110.206 17.9587 110.765 18.0666 111.258 18.2825C111.751 18.4985 112.171 18.788 112.518 19.1511C112.864 19.5142 113.128 19.9362 113.308 20.4171C113.489 20.898 113.579 21.3985 113.579 21.9187C113.579 22.0463 113.577 22.1689 113.572 22.2867C113.567 22.4045 113.555 22.5026 113.535 22.5811H107.605C107.634 22.8854 107.707 23.1553 107.824 23.3908C107.942 23.6263 108.093 23.8275 108.278 23.9944C108.464 24.1612 108.674 24.2888 108.908 24.3771C109.142 24.4655 109.386 24.5096 109.64 24.5096C110.031 24.5096 110.399 24.4139 110.746 24.2226C111.092 24.0312 111.329 23.7785 111.456 23.4644L113.14 23.9355C112.857 24.5243 112.405 25.0077 111.785 25.3855C111.165 25.7634 110.426 25.9523 109.567 25.9523ZM110.921 19.9092C111.297 20.2576 111.51 20.7214 111.558 21.3004H107.576C107.595 21.0158 107.661 20.7557 107.773 20.5202C107.885 20.2846 108.029 20.0834 108.205 19.9166C108.381 19.7498 108.583 19.6197 108.813 19.5265C109.042 19.4332 109.289 19.3866 109.552 19.3866C110.089 19.3866 110.546 19.5608 110.921 19.9092Z" fill="#6E7883"/>
</svg>
