<svg width="22" height="23" viewBox="0 0 22 23" fill="none" xmlns="http://www.w3.org/2000/svg">
<g id="Group 172">
<path id="Subtract" fill-rule="evenodd" clip-rule="evenodd" d="M0 11.2778C0 5.20363 4.9258 0.277832 11 0.277832C17.0742 0.277832 22 5.20363 22 11.2778C22 17.352 17.0742 22.2778 11 22.2778C4.9258 22.2778 0 17.352 0 11.2778ZM8.5411 5.35656C9.35783 5.28327 10.1783 5.26117 10.9978 5.2904C11.8184 5.26104 12.6401 5.28313 13.4579 5.35656C13.9577 5.35497 14.4535 5.44465 14.9211 5.6212C15.3244 5.75182 15.6896 5.97893 15.9852 6.2828C16.2935 6.57986 16.5238 6.94837 16.6556 7.35568C16.8325 7.82318 16.9226 8.31905 16.9214 8.81891C16.9946 9.63563 17.0167 10.4561 16.9875 11.2756C16.9875 12.2462 16.963 12.7014 16.9439 13.0581C16.9315 13.2877 16.9214 13.4765 16.9214 13.7357C16.9226 14.2375 16.8317 14.7353 16.6534 15.2044C16.3738 16.016 15.7361 16.6538 14.9244 16.9334C14.4569 17.1103 13.961 17.2003 13.4612 17.1991C12.6434 17.2725 11.8217 17.2946 11.0011 17.2653C10.1806 17.2946 9.35893 17.2725 8.5411 17.1991C8.03773 17.1986 7.53875 17.1055 7.06904 16.9245C6.66578 16.7939 6.30051 16.5668 6.00497 16.2629C5.7011 15.9674 5.47399 15.6021 5.34337 15.1989C5.16682 14.7313 5.07714 14.2354 5.07873 13.7357C5.0053 12.9178 4.9832 12.0962 5.01257 11.2756C4.98334 10.4561 5.00544 9.63563 5.07873 8.81891C5.04256 8.31382 5.13354 7.80772 5.34337 7.34686C5.47399 6.9436 5.7011 6.57833 6.00497 6.2828C6.30207 5.97817 6.66932 5.75101 7.07456 5.6212C7.54316 5.44426 8.0402 5.35457 8.5411 5.35656ZM13.3904 6.42066C12.5947 6.34651 11.795 6.32441 10.9965 6.3545C10.1963 6.32605 9.3952 6.34999 8.59818 6.42617C8.21228 6.42147 7.82891 6.48917 7.46795 6.62575C7.19734 6.69345 6.96155 6.85929 6.80635 7.09107C6.61476 7.28354 6.45739 7.50728 6.34103 7.75267C6.20444 8.11362 6.13675 8.49699 6.14145 8.88289C6.06729 9.67855 6.04519 10.4782 6.07529 11.2768C6.07529 12.2662 6.10073 12.7188 6.12006 13.0627C6.1319 13.2733 6.14145 13.4432 6.14145 13.6706C6.13689 14.0562 6.20458 14.4391 6.34103 14.7997C6.57366 15.2981 6.97469 15.6983 7.47346 15.93C7.83442 16.0666 8.21779 16.1342 8.60369 16.1296C9.39937 16.2037 10.199 16.2258 10.9976 16.1957C11.987 16.1957 12.4396 16.1703 12.7835 16.1509C12.9942 16.1391 13.164 16.1296 13.3915 16.1296C13.777 16.1341 14.16 16.0664 14.5206 15.93C15.0184 15.6982 15.4185 15.2984 15.6508 14.8008C15.7874 14.4399 15.8551 14.0565 15.8504 13.6706C15.9246 12.8746 15.9467 12.0746 15.9166 11.2757C15.9166 10.2862 15.8911 9.83361 15.8718 9.48973C15.86 9.27908 15.8504 9.10923 15.8504 8.88179C15.8552 8.49551 15.7875 8.11176 15.6508 7.75046C15.4187 7.25251 15.0185 6.85232 14.5206 6.62024C14.1596 6.48365 13.7763 6.41596 13.3904 6.42066ZM10.9965 8.21688C10.1812 8.20363 9.39549 8.52164 8.81896 9.09816C8.24243 9.67469 7.92442 10.4604 7.93767 11.2756C7.93767 12.965 9.30714 14.3344 10.9965 14.3344C12.6858 14.3344 14.0553 12.965 14.0553 11.2756C14.0553 9.58634 12.6858 8.21688 10.9965 8.21688ZM9.57582 12.6977C9.95205 13.0741 10.4652 13.2813 10.9974 13.2717V13.2706C11.5293 13.2802 12.0423 13.0732 12.4185 12.697C12.7947 12.3208 13.0018 11.8078 12.9921 11.2758C13.0018 10.7439 12.7947 10.2309 12.4185 9.85472C12.0423 9.47852 11.5293 9.27147 10.9974 9.28114C10.4654 9.27147 9.95242 9.47852 9.57622 9.85472C9.20003 10.2309 8.99297 10.7439 9.00264 11.2758C8.99267 11.808 9.19959 12.3213 9.57582 12.6977ZM14.1892 7.3524C13.7855 7.3524 13.4582 7.6797 13.4582 8.08346C13.4582 8.48721 13.7855 8.81452 14.1892 8.81452C14.593 8.81452 14.9203 8.48721 14.9203 8.08346C14.9167 7.6812 14.5915 7.35599 14.1892 7.3524Z" fill="#F6BC18"/>
</g>
</svg>
