<svg width="23" height="23" viewBox="0 0 23 23" fill="none" xmlns="http://www.w3.org/2000/svg">
<path fill-rule="evenodd" clip-rule="evenodd" d="M0.280273 11.7222C0.280273 5.64796 5.20607 0.722168 11.2803 0.722168C17.3545 0.722168 22.2803 5.64796 22.2803 11.7222C22.2803 17.7964 17.3545 22.7222 11.2803 22.7222C5.20607 22.7222 0.280273 17.7964 0.280273 11.7222ZM5.4048 17.3511H8.0838V9.29124H5.4048V17.3511ZM6.74438 8.19067H6.72693C5.82794 8.19067 5.24652 7.57182 5.24652 6.79839C5.24652 6.00749 5.84573 5.40576 6.76218 5.40576C7.67862 5.40576 8.24258 6.00749 8.26004 6.79839C8.26004 7.57182 7.67862 8.19067 6.74438 8.19067ZM15.065 17.3511H17.7437V12.7296C17.7437 10.254 16.4221 9.10208 14.6595 9.10208C13.2382 9.10208 12.6012 9.88324 12.2452 10.4324V9.29124H9.56639C9.60147 10.0474 9.56639 17.3511 9.56639 17.3511H12.2452V12.8501C12.2452 12.6092 12.2625 12.3685 12.3333 12.1963C12.527 11.7151 12.9678 11.2166 13.7078 11.2166C14.6772 11.2166 15.065 11.9556 15.065 13.0393V17.3511Z" fill="#EA6212"/>
</svg>
