<svg width="22" height="19" viewBox="0 0 22 19" fill="none" xmlns="http://www.w3.org/2000/svg">
<path fill-rule="evenodd" clip-rule="evenodd" d="M8.76031 0.704121C10.0144 -0.720311 12.375 0.161203 12.375 2.05394V16.9461C12.375 18.8388 10.0144 19.7203 8.76031 18.2959L4.76267 13.7552C4.67563 13.6564 4.5499 13.5997 4.41774 13.5997H2.29167C1.02601 13.5997 0 12.5799 0 11.3221V7.67793C0 6.42005 1.02601 5.40034 2.29167 5.40034H4.41774C4.5499 5.40034 4.67563 5.34364 4.76267 5.24479L8.76031 0.704121ZM10.2573 1.8287C10.2249 1.83589 10.1847 1.85328 10.14 1.90396L6.14239 6.44463C5.70723 6.9389 5.07857 7.22241 4.41774 7.22241H2.29167C2.03854 7.22241 1.83333 7.42635 1.83333 7.67793V11.3221C1.83333 11.5736 2.03854 11.7776 2.29167 11.7776H4.41774C5.07857 11.7776 5.70723 12.0611 6.14239 12.5554L10.14 17.096C10.1847 17.1467 10.2249 17.1641 10.2573 17.1713C10.2955 17.1797 10.3435 17.1778 10.3931 17.1593C10.4427 17.1407 10.4802 17.1108 10.5033 17.0794C10.5229 17.0528 10.5417 17.0134 10.5417 16.9461V2.05394C10.5417 1.9866 10.5229 1.94719 10.5033 1.92056C10.4802 1.88923 10.4427 1.85925 10.3931 1.84074C10.3435 1.82222 10.2954 1.82025 10.2573 1.8287Z" fill="black"/>
<path d="M15.8518 6.57819C16.2098 6.2224 16.7902 6.2224 17.1482 6.57819L18.7917 8.21157L20.4352 6.57819C20.7931 6.2224 21.3735 6.2224 21.7315 6.57819C22.0895 6.93397 22.0895 7.5108 21.7315 7.86658L20.088 9.49997L21.7315 11.1334C22.0895 11.4891 22.0895 12.066 21.7315 12.4218C21.3735 12.7775 20.7931 12.7775 20.4352 12.4218L18.7917 10.7884L17.1482 12.4218C16.7902 12.7775 16.2098 12.7775 15.8518 12.4218C15.4938 12.066 15.4938 11.4891 15.8518 11.1334L17.4953 9.49997L15.8518 7.86658C15.4938 7.5108 15.4938 6.93397 15.8518 6.57819Z" fill="black"/>
</svg>
