<svg width="24" height="22" viewBox="0 0 24 22" fill="none" xmlns="http://www.w3.org/2000/svg">
<path fill-rule="evenodd" clip-rule="evenodd" d="M14.2814 4.3466C14.2814 2.44346 11.9387 1.5571 10.6941 2.98936L6.72665 7.55498C6.64028 7.65438 6.5155 7.7114 6.38433 7.7114H4.27434C3.01826 7.7114 2 8.73671 2 10.0015V13.6657C2 14.9305 3.01826 15.9558 4.27434 15.9558H6.38433C6.5155 15.9558 6.64028 16.0128 6.72665 16.1122L10.6941 20.6778C11.9387 22.1101 14.2814 21.2237 14.2814 19.3206V4.3466ZM12.0634 4.1958C12.1076 4.14484 12.1476 4.12735 12.1797 4.12013C12.2176 4.11163 12.2653 4.11361 12.3145 4.13223C12.3637 4.15084 12.4009 4.18099 12.4239 4.21248C12.4434 4.23926 12.462 4.27889 12.462 4.3466V19.3206C12.462 19.3883 12.4434 19.4279 12.4239 19.4547C12.4009 19.4862 12.3637 19.5163 12.3145 19.5349C12.2653 19.5536 12.2176 19.5555 12.1797 19.547C12.1476 19.5398 12.1076 19.5223 12.0634 19.4714L8.09595 14.9057C7.66408 14.4088 7.04016 14.1237 6.38433 14.1237H4.27434C4.02312 14.1237 3.81947 13.9186 3.81947 13.6657V10.0015C3.81947 9.74854 4.02312 9.54348 4.27434 9.54348H6.38433C7.04016 9.54348 7.66408 9.25841 8.09594 8.76142L12.0634 4.1958Z" fill="black"/>
<path d="M19.9362 4.8024C20.3129 4.46759 20.8878 4.50364 21.2203 4.88292C22.9259 6.82845 23.8566 9.34046 23.8332 11.9355C23.8098 14.5305 22.8341 17.0251 21.0937 18.9391C20.7544 19.3123 20.179 19.3378 19.8084 18.9962C19.4378 18.6545 19.4124 18.0751 19.7517 17.7019C21.1888 16.1215 21.9945 14.0616 22.0138 11.9188C22.0331 9.77608 21.2646 7.70185 19.8563 6.09538C19.5238 5.7161 19.5596 5.13721 19.9362 4.8024Z" fill="black"/>
<path d="M17.0783 7.34271C17.455 7.0079 18.0299 7.04395 18.3624 7.42323C19.4452 8.65835 20.036 10.2531 20.0212 11.9006C20.0063 13.548 19.3868 15.1317 18.282 16.3469C17.9427 16.72 17.3672 16.7455 16.9967 16.4039C16.6261 16.0623 16.6007 15.4828 16.94 15.1097C17.7416 14.2281 18.191 13.0792 18.2018 11.8839C18.2125 10.6887 17.7839 9.53175 16.9983 8.63568C16.6658 8.2564 16.7016 7.67752 17.0783 7.34271Z" fill="black"/>
<path d="M23.3369 0.369247L0.336913 21.3692" stroke="black"/>
</svg>
