<svg width="164" height="54" viewBox="0 0 164 54" fill="none" xmlns="http://www.w3.org/2000/svg">
<path fill-rule="evenodd" clip-rule="evenodd" d="M56.3908 11.4267H64.2625C68.9469 11.6055 72.6521 15.4549 72.6521 20.1427C72.6521 24.8305 68.9469 28.6799 64.2625 28.8588L58.1936 28.9349V39.092C58.1936 40.0737 57.3978 40.8695 56.4162 40.8695C55.4345 40.8695 54.6387 40.0737 54.6387 39.092V13.1788C54.6523 12.2168 55.4288 11.4403 56.3908 11.4267ZM64.2498 25.3927C67.1006 25.3517 69.4017 23.0506 69.4426 20.1999C69.4426 17.3369 67.1254 15.0141 64.2625 15.0071H58.1936V25.3927H64.2498Z" fill="#C92135"/>
<path fill-rule="evenodd" clip-rule="evenodd" d="M89.3421 20.3117C89.6754 19.9736 90.1323 19.7865 90.607 19.7936V19.8317C91.0727 19.8283 91.5203 20.0118 91.8497 20.3411C92.179 20.6704 92.3625 21.1181 92.3591 21.5838V39.1174C92.4155 39.7813 92.0933 40.4204 91.5259 40.7697C90.9585 41.1191 90.2428 41.1191 89.6754 40.7697C89.108 40.4204 88.7857 39.7813 88.8422 39.1174V38.3175C87.0635 39.938 84.7478 40.8426 82.3417 40.8568C76.6743 40.6976 72.2019 35.9869 72.337 30.3188C72.2162 24.6628 76.6864 19.9714 82.3417 19.819C84.7471 19.8368 87.0616 20.7409 88.8422 22.3583V21.5838C88.8283 21.1093 89.0089 20.6497 89.3421 20.3117ZM85.7694 36.4472C87.8706 35.1502 89.0598 32.7784 88.8422 30.3188C89.0598 27.8593 87.8706 25.4875 85.7694 24.1905C83.6683 22.8936 81.0151 22.8936 78.9139 24.1905C76.8128 25.4875 75.6235 27.8593 75.8412 30.3188C75.6235 32.7784 76.8128 35.1502 78.9139 36.4472C81.0151 37.7441 83.6683 37.7441 85.7694 36.4472Z" fill="#C92135"/>
<path d="M112.381 20.2253L112.178 20.0729C111.973 19.9645 111.755 19.8793 111.531 19.819H111.099C111.003 19.8019 110.904 19.8019 110.807 19.819H110.655C109.952 20.0593 109.475 20.7141 109.461 21.4568V32.0074C109.556 33.9216 108.589 35.7323 106.945 36.7178C105.301 37.7033 103.248 37.7033 101.605 36.7178C99.961 35.7323 98.9937 33.9216 99.0884 32.0074V21.5076C99.0107 20.5942 98.2467 19.8923 97.33 19.8923C96.4133 19.8923 95.6492 20.5942 95.5715 21.5076V32.0709C95.5473 35.3646 97.3913 38.3877 100.331 39.8736C103.27 41.3596 106.798 41.0518 109.436 39.0793C109.219 41.2028 107.973 43.0844 106.102 44.1133C104.232 45.1422 101.976 45.1873 100.066 44.234H99.9391C99.0768 43.9489 98.1389 44.3647 97.7713 45.1952C97.4036 46.0256 97.7263 46.9995 98.5171 47.4462C99.8762 48.0852 101.357 48.4231 102.859 48.4365C105.519 48.4636 108.08 47.4302 109.977 45.5647C111.873 43.6992 112.949 41.1554 112.965 38.4953V21.5076C112.961 21.2408 112.892 20.9792 112.762 20.7458C112.671 20.5455 112.537 20.3677 112.369 20.2253" fill="#C92135"/>
<path d="M130.093 21.5838C130.097 21.1158 129.912 20.6662 129.579 20.3365C129.247 20.0068 128.796 19.8248 128.329 19.8317C125.51 19.8835 122.858 21.1748 121.079 23.3612V21.5838C121.001 20.6704 120.237 19.9685 119.32 19.9685C118.404 19.9685 117.64 20.6704 117.562 21.5838V39.092C117.506 39.7559 117.828 40.395 118.395 40.7443C118.963 41.0937 119.678 41.0937 120.246 40.7443C120.813 40.395 121.135 39.7559 121.079 39.092V30.5855V30.5093C121.607 28.9746 122.356 27.5247 123.301 26.2052C124.388 24.4857 126.257 23.416 128.29 23.3486C129.274 23.3556 130.079 22.5675 130.093 21.5838Z" fill="#C92135"/>
<path fill-rule="evenodd" clip-rule="evenodd" d="M145.952 20.2932C146.294 19.9531 146.763 19.7719 147.246 19.7935C147.709 19.8035 148.15 19.9982 148.469 20.3343C148.789 20.6704 148.961 21.1202 148.947 21.5837V39.1427C148.947 40.1104 148.163 40.8948 147.195 40.8948C146.227 40.8948 145.443 40.1104 145.443 39.1427V38.3429C143.659 39.9631 141.339 40.8674 138.93 40.8821C133.262 40.723 128.79 36.0122 128.925 30.3442C128.797 24.6811 133.267 19.9781 138.93 19.8189C141.338 19.8396 143.656 20.7431 145.443 22.3582V21.5837C145.425 21.1014 145.609 20.6334 145.952 20.2932ZM142.342 36.3837C144.432 35.1047 145.63 32.7623 145.443 30.3188C145.63 27.8753 144.432 25.5329 142.342 24.2539C140.251 22.9749 137.621 22.9749 135.53 24.2539C133.44 25.5329 132.242 27.8753 132.429 30.3188C132.242 32.7623 133.44 35.1047 135.53 36.3837C137.621 37.6627 140.251 37.6627 142.342 36.3837Z" fill="#C92135"/>
<path d="M154.419 13.4454C153.442 13.4594 152.659 14.2588 152.667 15.2356V16.1498C152.61 16.8183 152.935 17.4618 153.506 17.8135C154.077 18.1653 154.798 18.1653 155.369 17.8135C155.941 17.4618 156.265 16.8183 156.209 16.1498V15.2356C156.195 14.2589 155.395 13.4764 154.419 13.4835" fill="#C92135"/>
<path d="M154.419 19.7936C153.946 19.7863 153.49 19.9739 153.159 20.3123C152.827 20.6508 152.65 21.1105 152.667 21.5838V39.092C152.745 40.0122 153.515 40.7194 154.438 40.7194C155.362 40.7194 156.131 40.0122 156.209 39.092V21.5838C156.217 21.1102 156.029 20.6545 155.691 20.3232C155.352 19.9919 154.893 19.8142 154.419 19.8317" fill="#C92135"/>
<path d="M161.999 11.4267C161.037 11.4403 160.261 12.2168 160.247 13.1788V39.092C160.247 40.0737 161.043 40.8695 162.025 40.8695C163.006 40.8695 163.802 40.0737 163.802 39.092V13.2042C163.802 12.7283 163.611 12.2723 163.272 11.9382C162.934 11.6042 162.475 11.4199 161.999 11.4267Z" fill="#C92135"/>
<path d="M26.9992 14.9055C27.1137 15.7905 27.1137 16.6867 26.9992 17.5717C26.2904 23.5012 20.9206 27.7414 14.9884 27.0559C13.4844 26.8771 12.1201 27.9514 11.9413 29.4555C11.7625 30.9595 12.8369 32.3238 14.3409 32.5026C18.6428 33.0211 22.9739 31.8044 26.3764 29.1215C29.7788 26.4386 31.9722 22.5107 32.4713 18.2065C32.5494 17.5238 32.5833 16.8368 32.5729 16.1497C31.1795 15.307 29.5797 14.8675 27.9514 14.8801C27.633 14.8823 27.315 14.9035 26.9992 14.9436" fill="#C92135"/>
<path d="M40.0125 12.7725C39.8922 12.5764 39.7518 12.3934 39.5935 12.2266C36.5436 9.15646 32.3928 7.43308 28.0653 7.44005H27.9002C18.9175 7.48196 11.6558 14.772 11.6489 23.7548C11.6434 23.8267 11.6434 23.8988 11.6489 23.9707V44.1832C11.6489 45.9012 10.2562 47.2938 8.53831 47.2938C6.82037 47.2938 5.42771 45.9012 5.42771 44.1832V33.7849C5.42771 33.7214 5.42771 33.6453 5.42771 33.5818V16.5687C5.3916 10.5506 10.1901 5.61644 16.2069 5.48481H16.5116C16.8417 5.48481 17.1718 5.48481 17.5019 5.48481C18.8399 5.66575 20.1319 6.09643 21.3108 6.75445C23.4052 5.92644 25.6354 5.49588 27.8875 5.48481H28.4461L28.2684 5.29437C25.6339 2.37046 22.0216 0.510147 18.1113 0.0634816C17.6416 0 17.0956 0 16.5624 0H16.118C7.91707 0.0948463 1.05701 6.25423 0.0825516 14.3976C0.0636838 14.5664 0.0636838 14.7367 0.0825516 14.9055C0.0825516 15.4514 0.00637359 16.0101 0.00637359 16.5687V30.8648C-0.000589771 30.9323 -0.000589771 31.0004 0.00637359 31.0679V44.1832C-0.114656 47.3306 1.49543 50.292 4.20272 51.9017C6.91001 53.5113 10.2809 53.5113 12.9882 51.9017C15.6955 50.292 17.3055 47.3306 17.1845 44.1832V24.0088C17.1491 17.9566 22.0009 13.0084 28.0526 12.9249C32.2808 12.935 36.1165 15.405 37.8753 19.2501C39.634 23.0953 38.9941 27.6123 36.2366 30.8177C33.4791 34.0231 29.1082 35.3305 25.0435 34.1658C23.585 33.7556 22.0702 34.6054 21.66 36.0639C21.2498 37.5224 22.0996 39.0373 23.5581 39.4475C30.5645 41.4387 38.0417 38.5403 41.8756 32.347C45.7096 26.1538 44.9698 18.1687 40.0633 12.7852" fill="#C92135"/>
</svg>
