<svg width="176" height="62" viewBox="0 0 176 62" fill="none" xmlns="http://www.w3.org/2000/svg">
<path d="M122.749 54.5916L123.43 52.7457H127.039L127.721 54.5916H129.52L126.193 46.1907H124.336L121.02 54.5916H122.749ZM126.487 51.2549H123.983L125.229 47.9063L126.487 51.2549ZM133.047 57.0645C133.517 57.0645 133.946 56.9876 134.334 56.8338C134.722 56.6799 135.057 56.461 135.339 56.1771C135.621 55.8931 135.839 55.5539 135.992 55.1595C136.144 54.7651 136.221 54.3273 136.221 53.8461V48.3441H134.704L134.669 49.1132C134.457 48.8056 134.191 48.5709 133.87 48.4092C133.548 48.2475 133.188 48.1667 132.788 48.1667C132.38 48.1667 132.002 48.2475 131.654 48.4092C131.305 48.5709 130.999 48.7938 130.737 49.0777C130.474 49.3617 130.27 49.695 130.125 50.0776C129.98 50.4601 129.908 50.8762 129.908 51.3259C129.908 51.7597 129.978 52.164 130.119 52.5387C130.261 52.9134 130.456 53.2407 130.707 53.5207C130.958 53.8008 131.254 54.0197 131.595 54.1774C131.936 54.3352 132.302 54.4141 132.694 54.4141C133.086 54.4141 133.444 54.3332 133.77 54.1715C134.095 54.0098 134.363 53.787 134.575 53.503V54.0118C134.575 54.3431 134.512 54.633 134.387 54.8814C134.261 55.1299 134.087 55.3232 133.864 55.4612C133.64 55.5993 133.376 55.6683 133.07 55.6683C132.788 55.6683 132.535 55.6032 132.312 55.4731C132.089 55.3429 131.906 55.1634 131.765 54.9347L130.19 55.3252C130.347 55.6722 130.562 55.9759 130.837 56.2362C131.111 56.4965 131.432 56.6997 131.801 56.8456C132.169 56.9915 132.584 57.0645 133.047 57.0645ZM133.094 52.9469C132.804 52.9469 132.547 52.8739 132.324 52.728C132.1 52.582 131.922 52.3848 131.789 52.1364C131.656 51.8879 131.589 51.6059 131.589 51.2904C131.589 50.9748 131.656 50.6928 131.789 50.4444C131.922 50.1959 132.1 49.9987 132.324 49.8527C132.547 49.7068 132.804 49.6339 133.094 49.6339C133.384 49.6339 133.64 49.7068 133.864 49.8527C134.087 49.9987 134.265 50.1959 134.399 50.4444C134.532 50.6928 134.598 50.9748 134.598 51.2904C134.598 51.6059 134.532 51.8879 134.399 52.1364C134.265 52.3848 134.087 52.582 133.864 52.728C133.64 52.8739 133.384 52.9469 133.094 52.9469ZM140.476 54.769C140.9 54.769 141.299 54.7 141.675 54.562C142.052 54.4239 142.381 54.2287 142.663 53.9763C142.945 53.7239 143.157 53.4202 143.298 53.0652L141.828 52.5919C141.679 52.8443 141.489 53.0376 141.258 53.1717C141.027 53.3058 140.77 53.3728 140.488 53.3728C140.081 53.3728 139.744 53.2407 139.477 52.9765C139.211 52.7122 139.042 52.3474 138.972 51.882H143.427V51.4678C143.427 50.9709 143.355 50.5213 143.21 50.119C143.065 49.7167 142.859 49.3696 142.592 49.0777C142.326 48.7859 142.007 48.5611 141.634 48.4033C141.262 48.2455 140.849 48.1667 140.394 48.1667C139.955 48.1667 139.548 48.2495 139.171 48.4151C138.795 48.5808 138.468 48.8115 138.19 49.1073C137.912 49.4031 137.694 49.7522 137.537 50.1545C137.381 50.5568 137.302 50.9906 137.302 51.456C137.302 51.9372 137.381 52.3809 137.537 52.7871C137.694 53.1934 137.914 53.5444 138.196 53.8402C138.478 54.136 138.813 54.3648 139.201 54.5265C139.589 54.6882 140.014 54.769 140.476 54.769ZM141.734 50.7697H138.995C139.074 50.3596 139.236 50.0361 139.483 49.7995C139.73 49.5629 140.034 49.4445 140.394 49.4445C140.747 49.4445 141.043 49.5629 141.282 49.7995C141.521 50.0361 141.672 50.3596 141.734 50.7697ZM146.096 54.5916V51.0064C146.096 50.7461 146.151 50.5134 146.26 50.3083C146.37 50.1032 146.519 49.9435 146.707 49.8291C146.895 49.7147 147.115 49.6575 147.365 49.6575C147.71 49.6575 147.981 49.7818 148.176 50.0302C148.372 50.2787 148.47 50.6199 148.47 51.0537V54.5916H150.116V50.8407C150.116 50.2965 150.022 49.8232 149.834 49.4209C149.646 49.0186 149.381 48.709 149.041 48.492C148.7 48.2751 148.302 48.1667 147.847 48.1667C147.44 48.1667 147.077 48.2554 146.76 48.4329C146.442 48.6104 146.194 48.849 146.013 49.1487L145.966 48.3441H144.45V54.5916H146.096ZM154.313 54.769C154.768 54.769 155.191 54.6862 155.583 54.5206C155.975 54.3549 156.31 54.1183 156.588 53.8106C156.866 53.503 157.056 53.1401 157.158 52.7221L155.594 52.4144C155.485 52.6905 155.316 52.9035 155.089 53.0534C154.862 53.2032 154.607 53.2782 154.325 53.2782C154.043 53.2782 153.792 53.2013 153.572 53.0475C153.353 52.8936 153.183 52.6826 153.061 52.4144C152.94 52.1462 152.879 51.8386 152.879 51.4915C152.879 51.1444 152.942 50.8309 153.067 50.5508C153.192 50.2708 153.363 50.0519 153.578 49.8942C153.794 49.7364 154.043 49.6575 154.325 49.6575C154.591 49.6575 154.83 49.7344 155.042 49.8882C155.254 50.0421 155.418 50.2531 155.536 50.5213L157.099 50.2136C156.997 49.8034 156.815 49.4445 156.553 49.1369C156.29 48.8293 155.971 48.5906 155.594 48.421C155.218 48.2515 154.807 48.1667 154.36 48.1667C153.913 48.1667 153.498 48.2515 153.114 48.421C152.73 48.5906 152.395 48.8273 152.109 49.131C151.823 49.4347 151.599 49.7896 151.439 50.1959C151.278 50.6021 151.198 51.0419 151.198 51.5152C151.198 51.9806 151.276 52.4125 151.433 52.8108C151.59 53.2092 151.807 53.5543 152.085 53.8461C152.364 54.138 152.693 54.3648 153.073 54.5265C153.453 54.6882 153.866 54.769 154.313 54.769ZM159.027 57.0053C159.544 57.0053 159.985 56.8594 160.35 56.5675C160.714 56.2757 161.014 55.8142 161.249 55.1832L163.8 48.3441H162.06L160.732 52.7694L159.262 48.3441H157.464L159.968 54.5324L159.862 54.8045C159.752 55.0727 159.613 55.268 159.444 55.3902C159.276 55.5125 159.078 55.5736 158.851 55.5736C158.749 55.5736 158.639 55.5598 158.522 55.5322C158.404 55.5046 158.302 55.4711 158.216 55.4316L157.899 56.7332C158.063 56.8278 158.24 56.8969 158.428 56.9403C158.616 56.9836 158.816 57.0053 159.027 57.0053Z" fill="#161616"/>
<path d="M69.2198 20.9176C69.179 23.7777 66.8853 26.0863 64.0437 26.1274H58.0069V15.7079H64.0563C66.9101 15.7149 69.2198 18.0453 69.2198 20.9176ZM64.0563 12.1158H56.2098C55.251 12.1295 54.477 12.9086 54.4634 13.8736V39.8715C54.4634 40.8563 55.2566 41.6547 56.2352 41.6547C57.2137 41.6547 58.0069 40.8563 58.0069 39.8715V29.6812L64.0563 29.6048C68.7257 29.4254 72.4191 25.5634 72.4191 20.8603C72.4191 16.1572 68.7257 12.2952 64.0563 12.1158ZM88.5576 31.0696C88.7745 33.5373 87.5891 35.9168 85.4947 37.218C83.4002 38.5192 80.7555 38.5192 78.6611 37.218C76.5667 35.9168 75.3813 33.5373 75.5982 31.0696C75.3813 28.602 76.5667 26.2225 78.6611 24.9213C80.7555 23.6201 83.4002 23.6201 85.4947 24.9213C87.5891 26.2225 88.7745 28.602 88.5576 31.0696ZM90.3167 20.5098C89.8436 20.5029 89.3881 20.6906 89.0559 21.0298C88.7237 21.369 88.5437 21.83 88.5576 22.3061V23.0831C86.7826 21.4604 84.4756 20.5534 82.0779 20.5355C76.4408 20.6884 71.9849 25.3952 72.1053 31.0696C71.9707 36.7562 76.4287 41.4823 82.0779 41.642C84.4763 41.6277 86.7845 40.7202 88.5576 39.0944V39.8969C88.5013 40.563 88.8225 41.2042 89.3881 41.5547C89.9536 41.9051 90.6671 41.9051 91.2326 41.5547C91.7982 41.2042 92.1194 40.563 92.0632 39.8969V22.3061C92.0666 21.8388 91.8836 21.3897 91.5554 21.0593C91.2271 20.7289 90.7809 20.5448 90.3167 20.5482V20.5098ZM112.021 20.9431L111.819 20.7903C111.613 20.6815 111.397 20.5961 111.173 20.5355H110.743C110.647 20.5184 110.548 20.5184 110.452 20.5355H110.3C109.599 20.7767 109.124 21.4335 109.11 22.1787V32.7638C109.205 34.6842 108.24 36.5008 106.602 37.4895C104.964 38.4782 102.917 38.4782 101.279 37.4895C99.6404 36.5008 98.6762 34.6842 98.7706 32.7638V22.2296C98.6932 21.3133 97.9316 20.6091 97.0178 20.6091C96.1041 20.6091 95.3425 21.3133 95.265 22.2296V32.8275C95.2409 36.1319 97.0789 39.1648 100.009 40.6556C102.939 42.1464 106.456 41.8377 109.085 39.8587C108.868 41.9892 107.626 43.8769 105.762 44.9091C103.898 45.9414 101.649 45.9867 99.7451 45.0303H99.6185C98.759 44.7442 97.8242 45.1614 97.4577 45.9946C97.0913 46.8277 97.4129 47.8048 98.2011 48.2529C99.5559 48.8941 101.032 49.233 102.529 49.2465C105.181 49.2736 107.734 48.2368 109.624 46.3653C111.515 44.4937 112.587 41.9415 112.603 39.2728V22.2296C112.599 21.962 112.53 21.6995 112.401 21.4654C112.31 21.2644 112.176 21.0861 112.008 20.9431H112.021ZM129.676 22.3061C129.679 21.8366 129.494 21.3855 129.163 21.0547C128.832 20.724 128.383 20.5414 127.916 20.5481C125.107 20.6002 122.463 21.8957 120.69 24.0893V22.3061C120.613 21.3897 119.851 20.6855 118.937 20.6855C118.024 20.6855 117.262 21.3897 117.185 22.3061V39.8715C117.128 40.5375 117.449 41.1787 118.015 41.5292C118.581 41.8797 119.294 41.8797 119.86 41.5292C120.425 41.1787 120.746 40.5375 120.69 39.8715V31.3371V31.2607C121.217 29.721 121.963 28.2664 122.905 26.9426C123.989 25.2174 125.851 24.1443 127.879 24.0766C128.859 24.0837 129.662 23.293 129.676 22.3061ZM144.976 31.0696C145.163 33.5211 143.969 35.8711 141.885 37.1543C139.801 38.4375 137.179 38.4375 135.095 37.1543C133.012 35.8711 131.818 33.5211 132.004 31.0696C131.818 28.6181 133.012 26.2681 135.095 24.985C137.179 23.7018 139.801 23.7018 141.885 24.985C143.969 26.2681 145.163 28.6181 144.976 31.0696ZM146.773 20.51C146.293 20.4883 145.825 20.6701 145.483 21.0114C145.142 21.3526 144.958 21.8221 144.976 22.3061V23.0831C143.195 21.4627 140.885 20.5562 138.484 20.5355C132.84 20.6952 128.384 25.4135 128.511 31.0951C128.377 36.7816 132.835 41.5078 138.484 41.6675C140.886 41.6527 143.198 40.7455 144.976 39.1199V39.9224C144.976 40.8932 145.758 41.6802 146.723 41.6802C147.687 41.6802 148.469 40.8932 148.469 39.9224V22.3061C148.483 21.841 148.311 21.3898 147.993 21.0525C147.674 20.7153 147.235 20.52 146.773 20.51ZM153.924 14.1411C152.95 14.1551 152.17 14.9572 152.177 15.9372V16.8543C152.121 17.525 152.444 18.1706 153.014 18.5235C153.583 18.8764 154.302 18.8764 154.871 18.5235C155.441 18.1706 155.765 17.525 155.708 16.8543V15.9372C155.694 14.9573 154.897 14.1723 153.924 14.1794V14.1411ZM153.924 20.5098C153.452 20.5027 152.997 20.6909 152.667 21.0305C152.337 21.37 152.16 21.8312 152.177 22.3061V39.8715C152.255 40.7947 153.022 41.5042 153.943 41.5042C154.863 41.5042 155.63 40.7947 155.708 39.8715V22.3061C155.715 21.831 155.528 21.3737 155.191 21.0414C154.854 20.709 154.395 20.5307 153.924 20.5482V20.5098ZM161.479 12.1157C160.52 12.1295 159.746 12.9086 159.733 13.8736V39.8715C159.733 40.8563 160.526 41.6547 161.504 41.6547C162.483 41.6547 163.276 40.8563 163.276 39.8715V13.8991C163.276 13.4217 163.086 12.9642 162.748 12.6291C162.411 12.2939 161.953 12.109 161.479 12.1157Z" fill="#F5BD00"/>
<path d="M26.9121 15.6059C27.0263 16.4939 27.0263 17.3929 26.9121 18.2809C26.2056 24.2297 20.8531 28.4838 14.9399 27.796C13.4407 27.6166 12.0808 28.6944 11.9026 30.2034C11.7243 31.7124 12.7952 33.0811 14.2945 33.2605C18.5825 33.7807 22.8998 32.56 26.2913 29.8684C29.6829 27.1767 31.8692 23.2359 32.3667 18.9178C32.4445 18.2328 32.4784 17.5436 32.4679 16.8542C31.0791 16.0088 29.4843 15.5678 27.8613 15.5805C27.5439 15.5827 27.2269 15.6039 26.9121 15.6442" fill="url(#paint0_linear)"/>
<path d="M39.8841 13.4661C39.7643 13.2693 39.6243 13.0858 39.4665 12.9183C36.4263 9.83821 32.2889 8.1092 27.9752 8.11619H27.8107C18.8568 8.15824 11.6184 15.4721 11.6115 24.4842C11.606 24.5563 11.606 24.6287 11.6115 24.7008V44.9793C11.6115 46.7029 10.2233 48.1001 8.51091 48.1001C6.79849 48.1001 5.41029 46.7029 5.41029 44.9793V34.5471C5.41029 34.4834 5.41029 34.407 5.41029 34.3433V17.2747C5.3743 11.2369 10.1574 6.28663 16.1549 6.15458H16.4586C16.7877 6.15458 17.1167 6.15458 17.4458 6.15458C18.7794 6.33611 20.0673 6.76819 21.2424 7.42835C23.3301 6.59765 25.5532 6.16568 27.798 6.15458H28.3549L28.1777 5.96351C25.5517 3.03005 21.951 1.16367 18.0532 0.715544C17.585 0.651855 17.0408 0.651855 16.5093 0.651855H16.0663C7.89167 0.747011 1.05362 6.92651 0.0822867 15.0965C0.0634795 15.2658 0.0634795 15.4367 0.0822867 15.606C0.0822867 16.1537 0.00635314 16.7142 0.00635314 17.2747V31.6174C-0.000587877 31.6851 -0.000587877 31.7534 0.00635314 31.8212V44.9793C-0.114288 48.1369 1.49063 51.1081 4.18924 52.723C6.88784 54.3379 10.2479 54.3379 12.9465 52.723C15.6451 51.1081 17.25 48.1369 17.1294 44.9793V24.739C17.0941 18.6671 21.9303 13.7028 27.9626 13.6189C32.1773 13.6291 36.0007 16.1071 37.7538 19.9648C39.5069 23.8225 38.869 28.3543 36.1203 31.5702C33.3717 34.786 29.0149 36.0977 24.9632 34.9292C23.5094 34.5177 21.9994 35.3703 21.5905 36.8335C21.1816 38.2968 22.0287 39.8166 23.4825 40.2281C30.4665 42.2258 37.9197 39.318 41.7413 33.1045C45.5629 26.891 44.8255 18.8799 39.9348 13.4788" fill="url(#paint1_linear)"/>
<defs>
<linearGradient id="paint0_linear" x1="35.2494" y1="23.9074" x2="17.5319" y2="23.9074" gradientUnits="userSpaceOnUse">
<stop stop-color="#F5BD00"/>
<stop offset="1" stop-color="#F5BD00"/>
</linearGradient>
<linearGradient id="paint1_linear" x1="22.7274" y1="3.21207" x2="22.7274" y2="41.132" gradientUnits="userSpaceOnUse">
<stop stop-color="#F5BD00"/>
<stop offset="1" stop-color="#F5BD00"/>
</linearGradient>
</defs>
</svg>
