<svg width="128" height="41" viewBox="0 0 128 41" fill="none" xmlns="http://www.w3.org/2000/svg">
<rect y="0.722168" width="127.288" height="40" rx="20" fill="#F9F9F9"/>
<rect x="0.5" y="1.22217" width="126.288" height="39" rx="19.5" stroke="#777777" stroke-opacity="0.2"/>
<path d="M25.7446 19.0421L29.3285 15.4249L17.9782 9.10197C17.0752 8.59556 15.9766 8.59835 15.0762 9.10935L25.7446 19.0421Z" fill="#EA6212"/>
<path d="M14.0094 10.1255C13.7489 10.5553 13.5996 11.0471 13.5996 11.5685V29.5079C13.5996 30.0131 13.7357 30.4945 13.9816 30.9155L24.71 20.0877L14.0094 10.1255Z" fill="#EA6212"/>
<path d="M34.0804 18.0718L30.6618 16.168L26.8203 20.0436L31.5282 24.4258L34.0819 23.0034C35.0009 22.4895 35.5511 21.5678 35.5511 20.5369C35.5493 19.5042 34.9839 18.5565 34.0804 18.0718Z" fill="#EA6212"/>
<path d="M25.786 21.0894L15.0283 31.9467C15.4825 32.2125 15.9975 32.354 16.5225 32.3573C17.02 32.3573 17.5205 32.2302 17.9786 31.9747L30.1792 25.1791L25.786 21.0894Z" fill="#EA6212"/>
<path fill-rule="evenodd" clip-rule="evenodd" d="M46.4867 9.92956H45.5698C45.4118 9.76857 45.2236 9.64391 45.0053 9.55556C44.787 9.46722 44.5552 9.42304 44.3099 9.42304C43.8276 9.42304 43.4159 9.58403 43.075 9.906C42.734 10.228 42.5635 10.6147 42.5635 11.0663C42.5635 11.5217 42.734 11.9105 43.075 12.2324C43.4159 12.5544 43.8276 12.7154 44.3099 12.7154C44.6592 12.7154 44.9773 12.6261 45.2642 12.4474C45.5511 12.2688 45.7652 12.0302 45.9066 11.7318H43.7298V11.0427L46.7985 11.0486V11.1311C46.7985 11.7632 46.5532 12.3031 46.0625 12.7507C45.5719 13.1984 44.9877 13.4222 44.3099 13.4222C43.6238 13.4222 43.0375 13.1925 42.551 12.7331C42.0645 12.2737 41.8213 11.7181 41.8213 11.0663C41.8213 10.4223 42.0645 9.87066 42.551 9.41126C43.0375 8.95186 43.6238 8.72217 44.3099 8.72217C44.7756 8.72217 45.2008 8.83014 45.5854 9.0461C45.97 9.26206 46.2704 9.55654 46.4867 9.92956ZM49.1205 12.7979C49.3367 12.7979 49.5342 12.7498 49.713 12.6536C49.8918 12.5574 50.0374 12.4229 50.1496 12.2501H50.8981C50.765 12.5917 50.5343 12.8734 50.2058 13.0953C49.8773 13.3171 49.5155 13.4281 49.1205 13.4281C48.6049 13.4281 48.1621 13.2533 47.792 12.9039C47.4219 12.5544 47.2369 12.1343 47.2369 11.6435C47.2369 11.1487 47.4198 10.7286 47.7858 10.3831C48.1517 10.0375 48.5966 9.86477 49.1205 9.86477C49.6403 9.86477 50.0852 10.0375 50.4553 10.3831C50.8253 10.7286 51.0104 11.1487 51.0104 11.6435L51.0041 11.8084H47.9167C47.9583 12.0793 48.0955 12.3119 48.3284 12.5063C48.5612 12.7007 48.8253 12.7979 49.1205 12.7979ZM50.2557 11.2253H47.9854C48.0851 11.0093 48.238 10.8336 48.4438 10.6982C48.6496 10.5627 48.8752 10.495 49.1205 10.495C49.3658 10.495 49.5924 10.5647 49.8004 10.7041C50.0083 10.8434 50.16 11.0172 50.2557 11.2253ZM52.5278 10.548V13.3161H51.8105V10.548H51.2741V9.97668H51.8105V8.8164H52.5278V9.97668H53.0642V10.548H52.5278ZM55.1384 13.3161H55.8557V8.82229H55.1384V13.3161ZM57.6912 10.548V13.3161H56.9739V10.548H56.4375V9.97668H56.9739V8.8164H57.6912V9.97668H58.2276V10.548H57.6912ZM63.3207 10.3831C62.9506 10.0375 62.5057 9.86477 61.9859 9.86477C61.462 9.86477 61.0171 10.0375 60.6512 10.3831C60.2853 10.7286 60.1023 11.1487 60.1023 11.6435C60.1023 12.1343 60.2873 12.5544 60.6574 12.9039C61.0275 13.2533 61.4703 13.4281 61.9859 13.4281C62.5057 13.4281 62.9506 13.2533 63.3207 12.9039C63.6907 12.5544 63.8758 12.1343 63.8758 11.6435C63.8758 11.1487 63.6907 10.7286 63.3207 10.3831ZM60.7634 11.6435C60.7634 11.9615 60.883 12.2334 61.1221 12.4592C61.3612 12.685 61.6491 12.7979 61.9859 12.7979C62.3227 12.7979 62.6107 12.685 62.8498 12.4592C63.0888 12.2334 63.2084 11.9615 63.2084 11.6435C63.2084 11.3254 63.0899 11.0545 62.8529 10.8307C62.6159 10.6069 62.3269 10.495 61.9859 10.495C61.6491 10.495 61.3612 10.6079 61.1221 10.8336C60.883 11.0594 60.7634 11.3293 60.7634 11.6435ZM66.9836 11.5728V13.3161H67.7009V11.5257C67.7009 11.1644 67.6479 10.8562 67.5419 10.601C67.4358 10.3458 67.2529 10.1593 66.993 10.0415C66.7331 9.92367 66.4867 9.86477 66.2539 9.86477C66.0709 9.86477 65.8921 9.8952 65.7175 9.95606C65.5429 10.0169 65.3911 10.1082 65.2622 10.2299V9.97668H64.5512V13.3161H65.2622V11.6317C65.2622 11.4079 65.2903 11.2037 65.3464 11.0192C65.4025 10.8346 65.493 10.707 65.6177 10.6363C65.7424 10.5656 65.8422 10.5225 65.9171 10.5068C65.9919 10.491 66.0689 10.4832 66.1479 10.4832C66.3142 10.4832 66.4701 10.5225 66.6156 10.601C66.7612 10.6795 66.8589 10.8042 66.9088 10.975C66.9587 11.1458 66.9836 11.3451 66.9836 11.5728Z" fill="#6E7883"/>
<path fill-rule="evenodd" clip-rule="evenodd" d="M54.052 15.7808H52.0899V24.746C52.0899 25.3545 52.2583 25.8231 52.5951 26.1519C52.9318 26.4806 53.4077 26.645 54.0227 26.645C54.3058 26.645 54.6231 26.6107 54.9745 26.542C55.326 26.4733 55.6335 26.3751 55.897 26.2475L55.6335 24.746C55.5065 24.8049 55.3723 24.8539 55.2308 24.8932C55.0892 24.9325 54.9599 24.9521 54.8427 24.9521C54.5889 24.9521 54.3937 24.8736 54.257 24.7165C54.1204 24.5595 54.052 24.3387 54.052 24.0541V15.7808ZM42.998 26.5272V16.0752H47.4056C47.8839 16.0752 48.3256 16.1758 48.7307 16.377C49.1359 16.5782 49.4848 16.8431 49.7777 17.1719C50.0706 17.5007 50.3 17.8736 50.4659 18.2907C50.6319 18.7078 50.7148 19.1274 50.7148 19.5494C50.7148 19.991 50.6367 20.4204 50.4806 20.8375C50.3244 21.2546 50.1047 21.6251 49.8216 21.949C49.5385 22.2728 49.1969 22.5329 48.7966 22.7292C48.3964 22.9255 47.9571 23.0236 47.4788 23.0236H45.0188V26.5272H42.998ZM45.0188 21.2423H47.3616C47.7326 21.2423 48.0425 21.0902 48.2914 20.786C48.5404 20.4817 48.6648 20.0695 48.6648 19.5494C48.6648 19.2844 48.6258 19.0464 48.5477 18.8354C48.4696 18.6244 48.3671 18.4453 48.2402 18.2981C48.1133 18.1509 47.9644 18.0405 47.7936 17.9669C47.6228 17.8933 47.4495 17.8565 47.2738 17.8565H45.0188V21.2423ZM59.0146 26.6745C58.6436 26.6745 58.2971 26.6131 57.9749 26.4904C57.6528 26.3678 57.3746 26.196 57.1403 25.9752C56.906 25.7544 56.723 25.4968 56.5912 25.2023C56.4594 24.9079 56.3935 24.5841 56.3935 24.2307C56.3935 23.8676 56.474 23.5315 56.6351 23.2223C56.7962 22.9132 57.0207 22.6507 57.3087 22.4348C57.5966 22.2188 57.9408 22.0495 58.341 21.9269C58.7412 21.8042 59.1805 21.7429 59.6589 21.7429C60.0005 21.7429 60.3349 21.7723 60.6619 21.8312C60.9889 21.8901 61.2793 21.9735 61.5331 22.0814V21.6398C61.5331 21.1295 61.3892 20.7369 61.1012 20.4621C60.8132 20.1873 60.3861 20.0499 59.8199 20.0499C59.4099 20.0499 59.0097 20.1235 58.6192 20.2707C58.2287 20.4179 57.8285 20.6339 57.4185 20.9185L56.8181 19.6672C57.8041 19.0096 58.8681 18.6808 60.0103 18.6808C61.1134 18.6808 61.97 18.9532 62.5801 19.4979C63.1902 20.0426 63.4953 20.8301 63.4953 21.8606V24.2602C63.4953 24.4663 63.5319 24.6135 63.6051 24.7018C63.6783 24.7901 63.7979 24.8392 63.9639 24.849V26.5273C63.632 26.5959 63.344 26.6303 63.0999 26.6303C62.729 26.6303 62.4434 26.5469 62.2433 26.38C62.0432 26.2132 61.9187 25.9924 61.8699 25.7176L61.826 25.2907C61.4843 25.7421 61.0695 26.0856 60.5814 26.3212C60.0933 26.5567 59.571 26.6745 59.0146 26.6745ZM60.5155 25.0551C60.2177 25.1729 59.9029 25.2318 59.571 25.2318C59.2 25.2318 58.8877 25.1214 58.6339 24.9006C58.38 24.6797 58.2531 24.4025 58.2531 24.0688C58.2531 23.7155 58.4142 23.4235 58.7364 23.1929C59.0585 22.9623 59.4734 22.8469 59.981 22.8469C60.2348 22.8469 60.4984 22.8739 60.7717 22.9279C61.045 22.9819 61.2989 23.053 61.5331 23.1414V24.0246C61.5331 24.2307 61.4258 24.4172 61.211 24.584C61.045 24.7803 60.8132 24.9374 60.5155 25.0551ZM65.4707 28.0288C65.6366 28.0779 65.7977 28.1147 65.9539 28.1392C66.1101 28.1638 66.2419 28.176 66.3493 28.176C66.4762 28.176 66.5933 28.1515 66.7007 28.1024C66.8081 28.0533 66.9057 27.9675 66.9935 27.8448C67.0814 27.7221 67.1693 27.5528 67.2571 27.3369C67.345 27.121 67.4377 26.8511 67.5353 26.5273L64.5042 18.8133H66.525L68.6043 24.8196L70.4493 18.8133H72.2943L69.0728 28.0583C68.8874 28.598 68.5701 29.0397 68.121 29.3832C67.672 29.7267 67.1156 29.8984 66.4518 29.8984C66.2956 29.8984 66.1369 29.8861 65.9759 29.8616C65.8148 29.8371 65.6464 29.7954 65.4707 29.7365V28.0288ZM82.8417 18.5336C83.0223 18.6514 83.1467 18.7446 83.2151 18.8133L84.1083 17.1646C83.6495 16.8505 83.1126 16.5782 82.4976 16.3475C81.8825 16.1169 81.209 16.0016 80.4768 16.0016C79.9497 16.0016 79.4567 16.0727 78.9979 16.215C78.5391 16.3573 78.1364 16.5659 77.7899 16.8407C77.4433 17.1155 77.1724 17.459 76.9772 17.8712C76.782 18.2834 76.6843 18.7544 76.6843 19.2844C76.6843 19.6868 76.7453 20.0327 76.8674 20.3223C76.9894 20.6118 77.1724 20.8669 77.4165 21.0878C77.6605 21.3086 77.9656 21.5 78.3317 21.6619C78.6977 21.8238 79.1297 21.9735 79.6276 22.1109C80.0376 22.2287 80.4085 22.3366 80.7404 22.4348C81.0723 22.5329 81.3554 22.6408 81.5897 22.7586C81.824 22.8764 82.0046 23.0138 82.1315 23.1708C82.2584 23.3278 82.3218 23.5192 82.3218 23.7449C82.3218 24.4614 81.7654 24.8196 80.6526 24.8196C80.2523 24.8196 79.8618 24.7705 79.4811 24.6724C79.1004 24.5742 78.7539 24.454 78.4415 24.3117C78.1291 24.1694 77.8582 24.0271 77.6288 23.8848C77.3994 23.7425 77.2408 23.6272 77.1529 23.5388L76.2597 25.2907C76.8649 25.7225 77.5483 26.0562 78.3097 26.2917C79.0711 26.5273 79.8423 26.645 80.6233 26.645C81.1309 26.645 81.6165 26.5886 82.0802 26.4757C82.5439 26.3629 82.9539 26.1838 83.3102 25.9384C83.6665 25.693 83.9496 25.3716 84.1595 24.9742C84.3694 24.5767 84.4743 24.0983 84.4743 23.5388C84.4743 23.0579 84.3962 22.6531 84.2401 22.3243C84.0839 21.9956 83.8618 21.7134 83.5738 21.4779C83.2858 21.2423 82.9344 21.0461 82.5195 20.889C82.1046 20.732 81.6434 20.5848 81.1358 20.4474C80.7453 20.3492 80.4012 20.256 80.1034 20.1677C79.8057 20.0794 79.5592 19.9812 79.364 19.8733C79.1687 19.7653 79.0199 19.6402 78.9174 19.4979C78.8149 19.3556 78.7636 19.1765 78.7636 18.9605C78.7636 18.5876 78.9003 18.2981 79.1736 18.092C79.447 17.8859 79.8618 17.7828 80.4183 17.7828C80.7306 17.7828 81.0381 17.8221 81.3408 17.9006C81.6434 17.9791 81.924 18.0748 82.1827 18.1877C82.4414 18.3005 82.6611 18.4159 82.8417 18.5336ZM90.4912 26.1298C90.2276 26.2475 89.9055 26.3653 89.5247 26.4831C89.144 26.6009 88.7438 26.6597 88.324 26.6597C88.0507 26.6597 87.7944 26.6254 87.5553 26.5567C87.3161 26.488 87.1062 26.3776 86.9256 26.2255C86.745 26.0733 86.601 25.8771 86.4937 25.6366C86.3863 25.3962 86.3326 25.1042 86.3326 24.7607V20.3296H85.3222V18.8133H86.3326V16.3107H88.2947V18.8133H89.9055V20.3296H88.2947V24.0982C88.2947 24.373 88.3655 24.5669 88.5071 24.6797C88.6486 24.7926 88.8219 24.849 89.0269 24.849C89.2319 24.849 89.432 24.8147 89.6272 24.746C89.8225 24.6773 89.9787 24.6184 90.0958 24.5693L90.4912 26.1298ZM93.3598 26.3506C93.8576 26.5665 94.4189 26.6745 95.0437 26.6745C95.6685 26.6745 96.2298 26.5665 96.7276 26.3506C97.2255 26.1347 97.6453 25.8427 97.9869 25.4747C98.3286 25.1067 98.5922 24.6822 98.7776 24.2013C98.9631 23.7204 99.0559 23.215 99.0559 22.685C99.0559 22.1452 98.9631 21.6349 98.7776 21.154C98.5922 20.6731 98.3262 20.2487 97.9796 19.8806C97.6331 19.5126 97.2133 19.2206 96.7203 19.0047C96.2273 18.7888 95.6685 18.6808 95.0437 18.6808C94.4189 18.6808 93.8576 18.7888 93.3598 19.0047C92.8619 19.2206 92.4397 19.5126 92.0932 19.8806C91.7466 20.2487 91.4806 20.6731 91.2951 21.154C91.1097 21.6349 91.0169 22.1452 91.0169 22.685C91.0169 23.215 91.1097 23.7204 91.2951 24.2013C91.4806 24.6822 91.7466 25.1067 92.0932 25.4747C92.4397 25.8427 92.8619 26.1347 93.3598 26.3506ZM93.0376 22.685C93.0376 23.0285 93.0889 23.3401 93.1914 23.6198C93.2939 23.8995 93.4354 24.1424 93.616 24.3485C93.7966 24.5546 94.0089 24.7141 94.253 24.827C94.497 24.9398 94.7606 24.9962 95.0437 24.9962C95.3268 24.9962 95.5904 24.9398 95.8344 24.827C96.0785 24.7141 96.2908 24.5546 96.4714 24.3485C96.652 24.1424 96.7935 23.8971 96.896 23.6124C96.9985 23.3278 97.0498 23.0138 97.0498 22.6703C97.0498 22.3366 96.9985 22.0275 96.896 21.7429C96.7935 21.4582 96.652 21.2129 96.4714 21.0068C96.2908 20.8007 96.0785 20.6412 95.8344 20.5284C95.5904 20.4155 95.3268 20.3591 95.0437 20.3591C94.7606 20.3591 94.497 20.4179 94.253 20.5357C94.0089 20.6535 93.7966 20.8154 93.616 21.0215C93.4354 21.2276 93.2939 21.473 93.1914 21.7576C93.0889 22.0422 93.0376 22.3513 93.0376 22.685ZM103.521 20.8669C103.989 20.6461 104.521 20.5308 105.117 20.521V18.725C105.068 18.7152 105.017 18.7103 104.963 18.7103H104.721C104.516 18.7103 104.304 18.752 104.084 18.8354C103.865 18.9188 103.647 19.0391 103.433 19.1961C103.218 19.3531 103.018 19.5371 102.832 19.7481C102.647 19.9591 102.486 20.1971 102.349 20.4621V18.8133H100.548V26.5273H102.51V21.8606C102.715 21.419 103.052 21.0878 103.521 20.8669ZM109.567 26.6745C108.952 26.6745 108.395 26.569 107.897 26.358C107.4 26.147 106.975 25.8599 106.623 25.4968C106.272 25.1336 106.001 24.7116 105.811 24.2307C105.62 23.7498 105.525 23.2444 105.525 22.7145C105.525 22.1649 105.618 21.6472 105.803 21.1614C105.989 20.6756 106.257 20.2487 106.609 19.8806C106.96 19.5126 107.387 19.2206 107.89 19.0047C108.393 18.7888 108.957 18.6808 109.581 18.6808C110.206 18.6808 110.765 18.7888 111.258 19.0047C111.751 19.2206 112.171 19.5101 112.517 19.8733C112.864 20.2364 113.127 20.6584 113.308 21.1393C113.489 21.6202 113.579 22.1207 113.579 22.6408C113.579 22.7684 113.576 22.8911 113.571 23.0089C113.567 23.1266 113.554 23.2248 113.535 23.3033H107.605C107.634 23.6075 107.707 23.8774 107.824 24.113C107.941 24.3485 108.093 24.5497 108.278 24.7165C108.464 24.8834 108.673 25.011 108.908 25.0993C109.142 25.1876 109.386 25.2318 109.64 25.2318C110.03 25.2318 110.399 25.1361 110.745 24.9447C111.092 24.7533 111.329 24.5006 111.456 24.1866L113.14 24.6577C112.856 25.2465 112.405 25.7298 111.785 26.1077C111.165 26.4855 110.426 26.6745 109.567 26.6745ZM110.921 20.6314C111.297 20.9798 111.509 21.4435 111.558 22.0226H107.575C107.595 21.7379 107.661 21.4779 107.773 21.2423C107.885 21.0068 108.029 20.8056 108.205 20.6388C108.381 20.4719 108.583 20.3419 108.813 20.2487C109.042 20.1554 109.288 20.1088 109.552 20.1088C110.089 20.1088 110.545 20.283 110.921 20.6314Z" fill="#6E7883"/>
</svg>
