<svg width="191" height="60" viewBox="0 0 191 60" fill="none" xmlns="http://www.w3.org/2000/svg">
<rect width="190.932" height="60" rx="30" fill="white"/>
<rect x="0.5" y="0.5" width="189.932" height="59" rx="29.5" stroke="#777777" stroke-opacity="0.2"/>
<path d="M38.6178 27.4793L43.9938 22.0537L26.9682 12.5692C25.6138 11.8096 23.9658 11.8138 22.6152 12.5803L38.6178 27.4793Z" fill="#C92135"/>
<path d="M21.015 14.1045C20.6243 14.7492 20.4004 15.4869 20.4004 16.269V43.1781C20.4004 43.9358 20.6045 44.6581 20.9733 45.2895L37.0659 29.0479L21.015 14.1045Z" fill="#C92135"/>
<path d="M51.1216 26.0237L45.9937 23.168L40.2314 28.9814L47.2932 35.5547L51.1238 33.4212C52.5023 32.6502 53.3277 31.2677 53.3277 29.7213C53.3249 28.1723 52.4768 26.7508 51.1216 26.0237Z" fill="#C92135"/>
<path d="M38.6795 30.5498L22.543 46.8357C23.2242 47.2345 23.9967 47.4468 24.7842 47.4516C25.5306 47.4516 26.2813 47.2611 26.9684 46.8778L45.2693 36.6844L38.6795 30.5498Z" fill="#C92135"/>
<path fill-rule="evenodd" clip-rule="evenodd" d="M69.7315 13.8111H68.3562C68.1192 13.5696 67.8369 13.3826 67.5095 13.2501C67.182 13.1176 66.8343 13.0513 66.4663 13.0513C65.7428 13.0513 65.1253 13.2928 64.6139 13.7757C64.1024 14.2587 63.8467 14.8388 63.8467 15.5162C63.8467 16.1994 64.1024 16.7824 64.6139 17.2654C65.1253 17.7484 65.7428 17.9898 66.4663 17.9898C66.9902 17.9898 67.4674 17.8559 67.8977 17.5879C68.3281 17.3199 68.6493 16.9621 68.8614 16.5145H65.5962V15.4808L70.1992 15.4897V15.6133C70.1992 16.5616 69.8312 17.3714 69.0953 18.0428C68.3593 18.7143 67.483 19.05 66.4663 19.05C65.4372 19.05 64.5578 18.7054 63.828 18.0163C63.0983 17.3272 62.7334 16.4939 62.7334 15.5162C62.7334 14.5502 63.0983 13.7227 63.828 13.0336C64.5578 12.3445 65.4372 12 66.4663 12C67.1649 12 67.8026 12.162 68.3796 12.4859C68.9565 12.8098 69.4071 13.2516 69.7315 13.8111ZM73.6822 18.1135C74.0066 18.1135 74.3028 18.0414 74.571 17.8971C74.8392 17.7528 75.0575 17.5511 75.2259 17.2919H76.3486C76.149 17.8043 75.8028 18.2269 75.3101 18.5597C74.8174 18.8924 74.2748 19.0588 73.6822 19.0588C72.9088 19.0588 72.2446 18.7967 71.6895 18.2725C71.1344 17.7484 70.8568 17.1182 70.8568 16.3819C70.8568 15.6398 71.1312 15.0096 71.6801 14.4913C72.229 13.9731 72.8963 13.7139 73.6822 13.7139C74.4619 13.7139 75.1292 13.9731 75.6843 14.4913C76.2394 15.0096 76.517 15.6398 76.517 16.3819L76.5076 16.6293H71.8766C71.9389 17.0357 72.1448 17.3847 72.4941 17.6762C72.8433 17.9678 73.2394 18.1135 73.6822 18.1135ZM75.385 15.7547H71.9795C72.1292 15.4308 72.3584 15.1672 72.6671 14.964C72.9759 14.7608 73.3142 14.6592 73.6822 14.6592C74.0502 14.6592 74.3901 14.7637 74.702 14.9728C75.0139 15.1819 75.2415 15.4425 75.385 15.7547ZM78.7931 14.7387V18.891H77.7172V14.7387H76.9126V13.8818H77.7172V12.1414H78.7931V13.8818H79.5977V14.7387H78.7931ZM82.7091 18.891H83.785V12.1502H82.7091V18.891ZM86.5383 14.7387V18.891H85.4624V14.7387H84.6578V13.8818H85.4624V12.1414H86.5383V13.8818H87.3429V14.7387H86.5383ZM94.9825 14.4913C94.4273 13.9731 93.76 13.7139 92.9803 13.7139C92.1945 13.7139 91.5271 13.9731 90.9782 14.4913C90.4293 15.0096 90.1549 15.6398 90.1549 16.3819C90.1549 17.1182 90.4325 17.7484 90.9876 18.2725C91.5427 18.7967 92.2069 19.0588 92.9803 19.0588C93.76 19.0588 94.4273 18.7967 94.9825 18.2725C95.5376 17.7484 95.8151 17.1182 95.8151 16.3819C95.8151 15.6398 95.5376 15.0096 94.9825 14.4913ZM91.1466 16.3819C91.1466 16.859 91.3259 17.2669 91.6846 17.6055C92.0432 17.9442 92.4751 18.1135 92.9803 18.1135C93.4855 18.1135 93.9175 17.9442 94.2761 17.6055C94.6347 17.2669 94.814 16.859 94.814 16.3819C94.814 15.9049 94.6363 15.4985 94.2808 15.1628C93.9253 14.8271 93.4918 14.6592 92.9803 14.6592C92.4751 14.6592 92.0432 14.8285 91.6846 15.1672C91.3259 15.5059 91.1466 15.9108 91.1466 16.3819ZM100.477 16.2759V18.891H101.553V16.2053C101.553 15.6634 101.473 15.2011 101.314 14.8182C101.155 14.4354 100.881 14.1556 100.491 13.9789C100.101 13.8023 99.7316 13.7139 99.3823 13.7139C99.1079 13.7139 98.8397 13.7596 98.5777 13.8508C98.3157 13.9421 98.0881 14.0791 97.8947 14.2617V13.8818H96.8282V18.891H97.8947V16.3643C97.8947 16.0286 97.9368 15.7223 98.021 15.4455C98.1052 15.1687 98.2409 14.9773 98.428 14.8712C98.6151 14.7652 98.7648 14.7004 98.8771 14.6769C98.9894 14.6533 99.1047 14.6415 99.2233 14.6415C99.4727 14.6415 99.7066 14.7004 99.9249 14.8182C100.143 14.936 100.29 15.123 100.365 15.3792C100.439 15.6354 100.477 15.9343 100.477 16.2759Z" fill="black"/>
<path fill-rule="evenodd" clip-rule="evenodd" d="M81.079 22.5884H78.1358V36.0362C78.1358 36.9489 78.3884 37.6519 78.8936 38.145C79.3987 38.6382 80.1126 38.8848 81.0351 38.8848C81.4597 38.8848 81.9356 38.8332 82.4628 38.7302C82.9899 38.6271 83.4512 38.4799 83.8465 38.2886L83.4512 36.0362C83.2608 36.1245 83.0595 36.1981 82.8471 36.257C82.6348 36.3159 82.4408 36.3454 82.2651 36.3454C81.8844 36.3454 81.5915 36.2276 81.3865 35.992C81.1815 35.7565 81.079 35.4253 81.079 34.9984V22.5884ZM64.498 38.7081V23.03H71.1093C71.8268 23.03 72.4894 23.1809 73.0971 23.4827C73.7048 23.7845 74.2282 24.1819 74.6675 24.6751C75.1068 25.1683 75.4509 25.7277 75.6998 26.3533C75.9488 26.979 76.0732 27.6083 76.0732 28.2413C76.0732 28.9038 75.9561 29.5478 75.7218 30.1735C75.4875 30.7991 75.1581 31.3549 74.7334 31.8407C74.3088 32.3265 73.7963 32.7166 73.1959 33.011C72.5956 33.3054 71.9366 33.4526 71.2191 33.4526H67.5291V38.7081H64.498ZM67.5291 30.7807H71.0434C71.5998 30.7807 72.0648 30.5526 72.4381 30.0962C72.8115 29.6398 72.9982 29.0216 72.9982 28.2413C72.9982 27.8439 72.9397 27.4869 72.8225 27.1704C72.7054 26.8538 72.5516 26.5852 72.3613 26.3644C72.1709 26.1436 71.9476 25.9779 71.6914 25.8675C71.4351 25.7571 71.1752 25.7019 70.9116 25.7019H67.5291V30.7807ZM88.5228 38.9289C87.9664 38.9289 87.4466 38.8369 86.9634 38.6529C86.4801 38.4689 86.0628 38.2113 85.7114 37.88C85.36 37.5488 85.0854 37.1624 84.8877 36.7207C84.6901 36.2791 84.5912 35.7933 84.5912 35.2633C84.5912 34.7187 84.712 34.2145 84.9536 33.7507C85.1952 33.287 85.532 32.8932 85.964 32.5694C86.3959 32.2455 86.9121 31.9916 87.5125 31.8075C88.1128 31.6235 88.7717 31.5315 89.4893 31.5315C90.0018 31.5315 90.5033 31.5757 90.9938 31.664C91.4843 31.7523 91.92 31.8775 92.3007 32.0394V31.3769C92.3007 30.6114 92.0847 30.0226 91.6527 29.6104C91.2208 29.1982 90.5802 28.9921 89.7309 28.9921C89.1159 28.9921 88.5155 29.1025 87.9298 29.3233C87.3441 29.5442 86.7437 29.868 86.1287 30.2949L85.2282 28.418C86.7071 27.4317 88.3032 26.9385 90.0164 26.9385C91.6711 26.9385 92.9559 27.347 93.8711 28.164C94.7863 28.9811 95.2439 30.1624 95.2439 31.7082V35.3075C95.2439 35.6167 95.2988 35.8375 95.4086 35.97C95.5185 36.1025 95.6978 36.1761 95.9468 36.1908V38.7081C95.4489 38.8112 95.0169 38.8627 94.6509 38.8627C94.0944 38.8627 93.6661 38.7376 93.366 38.4873C93.0658 38.237 92.8791 37.9058 92.8059 37.4936L92.74 36.8532C92.2275 37.5304 91.6052 38.0457 90.873 38.399C90.1409 38.7523 89.3575 38.9289 88.5228 38.9289ZM90.7742 36.4999C90.3276 36.6766 89.8553 36.7649 89.3575 36.7649C88.801 36.7649 88.3325 36.5993 87.9518 36.2681C87.571 35.9368 87.3807 35.521 87.3807 35.0204C87.3807 34.4905 87.6223 34.0525 88.1055 33.7066C88.5887 33.3606 89.211 33.1877 89.9725 33.1877C90.3532 33.1877 90.7485 33.2281 91.1585 33.3091C91.5685 33.3901 91.9493 33.4968 92.3007 33.6293V34.9542C92.3007 35.2633 92.1396 35.543 91.8175 35.7933C91.5685 36.0877 91.2208 36.3233 90.7742 36.4999ZM98.207 40.9605C98.4559 41.0341 98.6975 41.0893 98.9318 41.1261C99.1661 41.1629 99.3638 41.1813 99.5249 41.1813C99.7152 41.1813 99.8909 41.1445 100.052 41.0709C100.213 40.9973 100.359 40.8685 100.491 40.6844C100.623 40.5004 100.755 40.2465 100.887 39.9226C101.018 39.5987 101.158 39.1939 101.304 38.7081L96.7574 27.1372H99.7884L102.907 36.1466L105.675 27.1372H108.442L103.61 41.0046C103.332 41.8143 102.856 42.4767 102.183 42.992C101.509 43.5072 100.674 43.7649 99.6786 43.7649C99.4443 43.7649 99.2064 43.7464 98.9648 43.7096C98.7232 43.6728 98.4706 43.6103 98.207 43.5219V40.9605ZM124.263 26.7177C124.534 26.8943 124.721 27.0342 124.824 27.1372L126.163 24.6641C125.475 24.193 124.67 23.7845 123.747 23.4385C122.825 23.0926 121.814 22.9196 120.716 22.9196C119.926 22.9196 119.186 23.0263 118.498 23.2398C117.81 23.4533 117.206 23.7661 116.686 24.1783C116.166 24.5905 115.76 25.1057 115.467 25.724C115.174 26.3423 115.027 27.0489 115.027 27.8439C115.027 28.4474 115.119 28.9663 115.302 29.4006C115.485 29.8349 115.76 30.2176 116.126 30.5489C116.492 30.8801 116.949 31.1672 117.498 31.4101C118.048 31.653 118.696 31.8775 119.442 32.0836C120.057 32.2602 120.614 32.4222 121.112 32.5694C121.609 32.7166 122.034 32.8785 122.386 33.0552C122.737 33.2318 123.008 33.4379 123.198 33.6735C123.389 33.909 123.484 34.1961 123.484 34.5346C123.484 35.6093 122.649 36.1466 120.98 36.1466C120.379 36.1466 119.794 36.073 119.223 35.9258C118.652 35.7786 118.132 35.5983 117.663 35.3848C117.195 35.1713 116.788 34.9579 116.444 34.7444C116.1 34.531 115.862 34.358 115.73 34.2255L114.391 36.8532C115.298 37.501 116.323 38.0015 117.466 38.3548C118.608 38.7081 119.764 38.8848 120.936 38.8848C121.697 38.8848 122.426 38.8001 123.121 38.6308C123.817 38.4615 124.432 38.1929 124.966 37.8248C125.501 37.4568 125.925 36.9747 126.24 36.3785C126.555 35.7823 126.712 35.0646 126.712 34.2255C126.712 33.5042 126.595 32.8969 126.361 32.4038C126.127 31.9106 125.794 31.4874 125.362 31.134C124.93 30.7807 124.403 30.4863 123.78 30.2508C123.158 30.0152 122.466 29.7944 121.705 29.5883C121.119 29.4411 120.603 29.3013 120.156 29.1688C119.71 29.0363 119.34 28.8891 119.047 28.7271C118.754 28.5652 118.531 28.3775 118.377 28.164C118.223 27.9506 118.146 27.6819 118.146 27.3581C118.146 26.7986 118.351 26.3644 118.761 26.0552C119.171 25.7461 119.794 25.5915 120.628 25.5915C121.097 25.5915 121.558 25.6504 122.012 25.7682C122.466 25.8859 122.887 26.0295 123.275 26.1988C123.663 26.3681 123.993 26.541 124.263 26.7177ZM135.738 38.1119C135.342 38.2886 134.859 38.4652 134.288 38.6419C133.717 38.8185 133.117 38.9068 132.487 38.9068C132.077 38.9068 131.693 38.8553 131.334 38.7523C130.975 38.6492 130.66 38.4836 130.389 38.2554C130.119 38.0273 129.903 37.7328 129.741 37.3722C129.58 37.0115 129.5 36.5735 129.5 36.0583V29.4117H127.984V27.1372H129.5V23.3833H132.443V27.1372H134.859V29.4117H132.443V35.0646C132.443 35.4768 132.549 35.7675 132.762 35.9368C132.974 36.1061 133.234 36.1908 133.541 36.1908C133.849 36.1908 134.149 36.1393 134.442 36.0362C134.735 35.9332 134.969 35.8448 135.145 35.7712L135.738 38.1119ZM140.041 38.4431C140.787 38.767 141.629 38.9289 142.567 38.9289C143.504 38.9289 144.346 38.767 145.092 38.4431C145.839 38.1193 146.469 37.6813 146.981 37.1293C147.494 36.5772 147.889 35.9405 148.167 35.2192C148.446 34.4978 148.585 33.7397 148.585 32.9448C148.585 32.1351 148.446 31.3696 148.167 30.6482C147.889 29.9269 147.49 29.2902 146.97 28.7382C146.451 28.1861 145.821 27.7482 145.081 27.4243C144.342 27.1004 143.504 26.9385 142.567 26.9385C141.629 26.9385 140.787 27.1004 140.041 27.4243C139.294 27.7482 138.661 28.1861 138.141 28.7382C137.621 29.2902 137.222 29.9269 136.944 30.6482C136.665 31.3696 136.526 32.1351 136.526 32.9448C136.526 33.7397 136.665 34.4978 136.944 35.2192C137.222 35.9405 137.621 36.5772 138.141 37.1293C138.661 37.6813 139.294 38.1193 140.041 38.4431ZM139.557 32.9448C139.557 33.46 139.634 33.9274 139.788 34.347C139.942 34.7665 140.154 35.1309 140.425 35.44C140.696 35.7491 141.014 35.9884 141.38 36.1577C141.747 36.327 142.142 36.4116 142.567 36.4116C142.991 36.4116 143.387 36.327 143.753 36.1577C144.119 35.9884 144.437 35.7491 144.708 35.44C144.979 35.1309 145.191 34.7628 145.345 34.3359C145.499 33.909 145.576 33.4379 145.576 32.9227C145.576 32.4221 145.499 31.9584 145.345 31.5315C145.191 31.1046 144.979 30.7366 144.708 30.4274C144.437 30.1183 144.119 29.8791 143.753 29.7098C143.387 29.5405 142.991 29.4558 142.567 29.4558C142.142 29.4558 141.747 29.5442 141.38 29.7208C141.014 29.8975 140.696 30.1404 140.425 30.4495C140.154 30.7587 139.942 31.1267 139.788 31.5536C139.634 31.9805 139.557 32.4442 139.557 32.9448ZM155.282 30.2176C155.985 29.8864 156.783 29.7134 157.676 29.6987V27.0047C157.603 26.99 157.526 26.9827 157.445 26.9827H157.083C156.775 26.9827 156.457 27.0452 156.127 27.1704C155.798 27.2955 155.472 27.4758 155.15 27.7114C154.828 27.9469 154.528 28.2229 154.249 28.5394C153.971 28.8559 153.73 29.2129 153.525 29.6104V27.1372H150.823V38.7081H153.766V31.7082C154.074 31.0457 154.579 30.5489 155.282 30.2176ZM164.351 38.9289C163.428 38.9289 162.594 38.7707 161.847 38.4542C161.1 38.1377 160.463 37.7071 159.936 37.1624C159.409 36.6177 159.003 35.9847 158.717 35.2633C158.432 34.542 158.289 33.7839 158.289 32.9889C158.289 32.1645 158.428 31.388 158.706 30.6593C158.984 29.9306 159.387 29.2902 159.914 28.7382C160.441 28.1861 161.082 27.7482 161.836 27.4243C162.59 27.1004 163.436 26.9385 164.373 26.9385C165.31 26.9385 166.148 27.1004 166.888 27.4243C167.627 27.7482 168.257 28.1824 168.777 28.7271C169.297 29.2718 169.692 29.9048 169.963 30.6262C170.234 31.3475 170.369 32.0983 170.369 32.8785C170.369 33.0699 170.366 33.2539 170.358 33.4306C170.351 33.6072 170.333 33.7544 170.303 33.8722H161.408C161.452 34.3286 161.561 34.7334 161.737 35.0867C161.913 35.44 162.14 35.7418 162.418 35.992C162.696 36.2423 163.011 36.4337 163.363 36.5662C163.714 36.6987 164.08 36.7649 164.461 36.7649C165.047 36.7649 165.599 36.6214 166.119 36.3343C166.639 36.0472 166.994 35.6682 167.184 35.1971L169.71 35.9037C169.286 36.787 168.608 37.512 167.679 38.0788C166.749 38.6455 165.64 38.9289 164.351 38.9289ZM166.383 29.8643C166.946 30.3869 167.265 31.0825 167.338 31.9511H161.364C161.393 31.5242 161.492 31.134 161.66 30.7807C161.829 30.4274 162.045 30.1256 162.308 29.8754C162.572 29.6251 162.876 29.4301 163.22 29.2902C163.564 29.1504 163.934 29.0804 164.329 29.0804C165.134 29.0804 165.819 29.3417 166.383 29.8643Z" fill="black"/>
</svg>
