<svg width="45" height="45" viewBox="0 0 45 45" fill="none" xmlns="http://www.w3.org/2000/svg">
<circle cx="22.5" cy="22.5" r="22.5" fill="white"/>
<path d="M25.2779 21.7318L28.3109 18.6707L18.7054 13.3198C17.9413 12.8912 17.0115 12.8936 16.2495 13.326L25.2779 21.7318Z" fill="#C92135"/>
<path d="M15.3468 14.1859C15.1263 14.5496 15 14.9659 15 15.4071V30.5888C15 31.0163 15.1152 31.4238 15.3232 31.78L24.4024 22.6167L15.3468 14.1859Z" fill="#C92135"/>
<path d="M32.3323 20.9107L29.4392 19.2996L26.1882 22.5794L30.1724 26.288L32.3335 25.0843C33.1113 24.6493 33.5769 23.8693 33.5769 22.9969C33.5754 22.1229 33.0969 21.3209 32.3323 20.9107V20.9107Z" fill="#C92135"/>
<path d="M25.3127 23.4642L16.2087 32.6525C16.5931 32.8775 17.0289 32.9973 17.4732 33C17.8943 33 18.3178 32.8925 18.7055 32.6763L29.0306 26.9253L25.3127 23.4642Z" fill="#C92135"/>
</svg>
