<svg width="38" height="38" viewBox="0 0 38 38" fill="none" xmlns="http://www.w3.org/2000/svg">
<circle cx="19" cy="19" r="18" stroke="#fff"/>
<path fill-rule="evenodd" clip-rule="evenodd" d="M15.6075 11.1091H21.8933C24.21 11.1091 25.5 12.4441 25.5 14.7316V22.4791C25.5 24.8041 24.21 26.1091 21.8933 26.1091H15.6075C13.3275 26.1091 12 24.8041 12 22.4791V14.7316C12 12.4441 13.3275 11.1091 15.6075 11.1091ZM15.81 14.6041V14.5966H18.0518C18.375 14.5966 18.6375 14.8591 18.6375 15.1809C18.6375 15.5116 18.375 15.7741 18.0518 15.7741H15.81C15.4867 15.7741 15.225 15.5116 15.225 15.1891C15.225 14.8666 15.4867 14.6041 15.81 14.6041ZM15.81 19.1641H21.69C22.0125 19.1641 22.275 18.9016 22.275 18.5791C22.275 18.2566 22.0125 17.9934 21.69 17.9934H15.81C15.4867 17.9934 15.225 18.2566 15.225 18.5791C15.225 18.9016 15.4867 19.1641 15.81 19.1641ZM15.81 22.5916H21.69C21.9893 22.5616 22.215 22.3059 22.215 22.0066C22.215 21.6991 21.9893 21.4441 21.69 21.4141H15.81C15.585 21.3916 15.3675 21.4966 15.2475 21.6916C15.1275 21.8791 15.1275 22.1266 15.2475 22.3216C15.3675 22.5091 15.585 22.6216 15.81 22.5916Z" fill="#F4A11D"/>
</svg>
