<svg width="36" height="36" viewBox="0 0 36 36" fill="none" xmlns="http://www.w3.org/2000/svg">
<circle cx="18" cy="18" r="18" fill="white"/>
<circle cx="18" cy="18" r="17.5" stroke="#777777" stroke-opacity="0.2"/>
<path fill-rule="evenodd" clip-rule="evenodd" d="M14.6075 10.1091H20.8933C23.21 10.1091 24.5 11.4441 24.5 13.7316V21.4791C24.5 23.8041 23.21 25.1091 20.8933 25.1091H14.6075C12.3275 25.1091 11 23.8041 11 21.4791V13.7316C11 11.4441 12.3275 10.1091 14.6075 10.1091ZM14.81 13.6041V13.5966H17.0517C17.375 13.5966 17.6375 13.8591 17.6375 14.1809C17.6375 14.5116 17.375 14.7741 17.0517 14.7741H14.81C14.4867 14.7741 14.225 14.5116 14.225 14.1891C14.225 13.8666 14.4867 13.6041 14.81 13.6041ZM14.81 18.1641H20.69C21.0125 18.1641 21.275 17.9016 21.275 17.5791C21.275 17.2566 21.0125 16.9934 20.69 16.9934H14.81C14.4867 16.9934 14.225 17.2566 14.225 17.5791C14.225 17.9016 14.4867 18.1641 14.81 18.1641ZM14.81 21.5916H20.69C20.9893 21.5616 21.215 21.3059 21.215 21.0066C21.215 20.6991 20.9893 20.4441 20.69 20.4141H14.81C14.585 20.3916 14.3675 20.4966 14.2475 20.6916C14.1275 20.8791 14.1275 21.1266 14.2475 21.3216C14.3675 21.5091 14.585 21.6216 14.81 21.5916Z" fill="#F4A11D"/>
</svg>
