<svg width="8" height="11" viewBox="0 0 8 11" fill="none" xmlns="http://www.w3.org/2000/svg">
<path d="M0.49404 10.3031C0.587003 10.3855 0.697604 10.451 0.819464 10.4956C0.941323 10.5402 1.07203 10.5632 1.20404 10.5632C1.33605 10.5632 1.46676 10.5402 1.58862 10.4956C1.71048 10.451 1.82108 10.3855 1.91404 10.3031L6.91404 5.90599C7.00777 5.82424 7.08216 5.72698 7.13293 5.61981C7.1837 5.51265 7.20984 5.3977 7.20984 5.28161C7.20984 5.16551 7.1837 5.05057 7.13293 4.9434C7.08216 4.83624 7.00777 4.73897 6.91404 4.65722L1.91404 0.260112C1.82108 0.177685 1.71048 0.11226 1.58862 0.0676126C1.46676 0.0229656 1.33605 -2.09808e-05 1.20404 -2.09808e-05C1.07203 -2.09808e-05 0.941323 0.0229656 0.819464 0.0676126C0.697604 0.11226 0.587003 0.177685 0.49404 0.260112C0.400312 0.341865 0.325918 0.439129 0.275149 0.546294C0.224381 0.65346 0.198242 0.768406 0.198242 0.8845C0.198242 1.00059 0.224381 1.11554 0.275149 1.2227C0.325918 1.32987 0.400312 1.42713 0.49404 1.50889L4.79404 5.28161L0.49404 9.05432C0.400312 9.13608 0.325918 9.23334 0.275149 9.34051C0.224381 9.44767 0.198242 9.56262 0.198242 9.67871C0.198242 9.79481 0.224381 9.90975 0.275149 10.0169C0.325918 10.1241 0.400312 10.2213 0.49404 10.3031Z" fill="black"/>
</svg>
