<svg width="8" height="11" viewBox="0 0 8 11" fill="none" xmlns="http://www.w3.org/2000/svg">
<path d="M0.29592 10.3031C0.388883 10.3855 0.499484 10.451 0.621344 10.4956C0.743203 10.5402 0.873909 10.5632 1.00592 10.5632C1.13793 10.5632 1.26864 10.5402 1.3905 10.4956C1.51236 10.451 1.62296 10.3855 1.71592 10.3031L6.71592 5.90599C6.80965 5.82424 6.88404 5.72698 6.93481 5.61981C6.98558 5.51265 7.01172 5.3977 7.01172 5.28161C7.01172 5.16551 6.98558 5.05057 6.93481 4.9434C6.88404 4.83624 6.80965 4.73897 6.71592 4.65722L1.71592 0.260112C1.62296 0.177685 1.51236 0.11226 1.3905 0.0676126C1.26864 0.0229656 1.13793 -2.09808e-05 1.00592 -2.09808e-05C0.873909 -2.09808e-05 0.743203 0.0229656 0.621344 0.0676126C0.499484 0.11226 0.388883 0.177685 0.29592 0.260112C0.202192 0.341865 0.127798 0.439129 0.0770292 0.546294C0.0262606 0.65346 0.00012207 0.768406 0.00012207 0.8845C0.00012207 1.00059 0.0262606 1.11554 0.0770292 1.2227C0.127798 1.32987 0.202192 1.42713 0.29592 1.50889L4.59592 5.28161L0.29592 9.05432C0.202192 9.13608 0.127798 9.23334 0.0770292 9.34051C0.0262606 9.44767 0.00012207 9.56262 0.00012207 9.67871C0.00012207 9.79481 0.0262606 9.90975 0.0770292 10.0169C0.127798 10.1241 0.202192 10.2213 0.29592 10.3031Z" fill="white"/>
</svg>
