<svg width="8" height="11" viewBox="0 0 8 11" fill="none" xmlns="http://www.w3.org/2000/svg">
<path d="M0.295798 10.3031C0.388762 10.3855 0.499362 10.451 0.621222 10.4956C0.743081 10.5402 0.873786 10.5632 1.0058 10.5632C1.13781 10.5632 1.26852 10.5402 1.39038 10.4956C1.51223 10.451 1.62284 10.3855 1.7158 10.3031L6.7158 5.90599C6.80953 5.82424 6.88392 5.72698 6.93469 5.61981C6.98546 5.51265 7.0116 5.3977 7.0116 5.28161C7.0116 5.16551 6.98546 5.05057 6.93469 4.9434C6.88392 4.83624 6.80953 4.73897 6.7158 4.65722L1.7158 0.260112C1.62284 0.177685 1.51223 0.112259 1.39038 0.0676126C1.26852 0.0229654 1.13781 -2.09808e-05 1.0058 -2.09808e-05C0.873786 -2.09808e-05 0.743081 0.0229654 0.621222 0.0676126C0.499362 0.112259 0.388762 0.177685 0.295798 0.260112C0.20207 0.341865 0.127676 0.439129 0.0769072 0.546294C0.0261383 0.653461 0 0.768406 0 0.8845C0 1.00059 0.0261383 1.11554 0.0769072 1.2227C0.127676 1.32987 0.20207 1.42713 0.295798 1.50889L4.5958 5.28161L0.295798 9.05432C0.20207 9.13608 0.127676 9.23334 0.0769072 9.34051C0.0261383 9.44767 0 9.56262 0 9.67871C0 9.79481 0.0261383 9.90975 0.0769072 10.0169C0.127676 10.1241 0.20207 10.2213 0.295798 10.3031Z" fill="#F4A11D"/>
</svg>
