<svg width="24" height="24" viewBox="0 0 24 24" fill="none" xmlns="http://www.w3.org/2000/svg">
<path d="M10.9497 15.6068C10.5592 15.9973 9.92602 15.9973 9.53549 15.6068L6.70709 12.7783C6.31657 12.3878 6.31658 11.7546 6.7071 11.3641C7.09762 10.9736 7.73079 10.9736 8.12131 11.3641L9.53549 12.7784C9.92602 13.1689 10.5592 13.1689 10.9497 12.7784L15.1924 8.53572C15.5829 8.1452 16.2161 8.1452 16.6066 8.53573C16.9971 8.92625 16.9971 9.55941 16.6066 9.94993L10.9497 15.6068Z" fill="#C92135"/>
<path fill-rule="evenodd" clip-rule="evenodd" d="M1 5C1 2.79086 2.79086 1 5 1H19C21.2091 1 23 2.79086 23 5V19C23 21.2091 21.2091 23 19 23H5C2.79086 23 1 21.2091 1 19V5ZM5 3H19C20.1046 3 21 3.89543 21 5V19C21 20.1046 20.1046 21 19 21H5C3.89543 21 3 20.1046 3 19V5C3 3.89543 3.89543 3 5 3Z" fill="black"/>
</svg>
