<svg width="28" height="23" viewBox="0 0 28 23" fill="none" xmlns="http://www.w3.org/2000/svg">
<g id="Group 27">
<path id="Combined Shape" fill-rule="evenodd" clip-rule="evenodd" d="M2.13125 1.57393C4.83716 4.98784 8.8515 7.13239 13.2137 7.49444C12.8159 5.83296 13.2189 4.08238 14.3043 2.75699C15.3897 1.4316 17.0343 0.681903 18.755 0.728146C20.3555 0.654088 21.91 1.27098 23.0175 2.41972C24.2658 2.39007 25.4674 1.94302 26.4275 1.15104C26.0763 2.34915 25.3247 3.39309 24.2962 4.1113C25.3517 4.11705 26.3869 3.82362 27.28 3.26551C26.7178 4.60405 25.6454 5.66804 24.2962 6.22576C24.528 10.4477 23.0277 14.5829 20.1371 17.6898C17.2465 20.7966 13.2116 22.6106 8.95125 22.7186C5.77813 22.7857 2.65844 21.9014 0 20.1813C2.84232 20.2134 5.64056 19.4828 8.09875 18.0668C5.86283 17.7187 3.94658 16.2929 2.98375 14.2607C3.85566 14.2833 4.72385 14.1398 5.54125 13.8378C3.04354 13.0512 1.22103 10.9143 0.8525 8.34023C1.63979 8.78818 2.50927 9.07573 3.41 9.18602C1.14656 7.31066 0.603212 4.07623 2.13125 1.57393Z" fill="#EA6212"/>
</g>
</svg>
