<svg width="84" height="84" viewBox="0 0 84 84" fill="none" xmlns="http://www.w3.org/2000/svg">
<circle cx="42" cy="42" r="41.5" fill="#F2F2F2" stroke="#C92135"/>
<path d="M31.2517 66.2857C31.7064 66.2857 32.1173 66.2116 32.4844 66.0634C32.8514 65.9151 33.1665 65.7014 33.4296 65.4222C33.6927 65.143 33.8941 64.8086 34.0338 64.4191C34.1734 64.0296 34.2433 63.5935 34.2433 63.1109V58.7366H32.7913V63.0385C32.7913 63.4108 32.728 63.7349 32.6013 64.0106C32.4746 64.2864 32.2976 64.4984 32.0702 64.6466C31.8428 64.7948 31.5732 64.869 31.2614 64.869C30.9496 64.869 30.6784 64.7948 30.4477 64.6466C30.2171 64.4984 30.0401 64.2864 29.9166 64.0106C29.7932 63.7349 29.7315 63.4108 29.7315 63.0385V58.7366H28.2795V63.1109C28.2795 63.5935 28.3494 64.0296 28.4891 64.4191C28.6287 64.8086 28.8285 65.143 29.0883 65.4222C29.3482 65.7014 29.66 65.9151 30.0238 66.0634C30.3876 66.2116 30.7969 66.2857 31.2517 66.2857ZM36.6892 66.0789V63.4005C36.6892 62.9524 36.7899 62.6059 36.9913 62.3612C37.1927 62.1164 37.4817 61.9941 37.8585 61.9941C37.9365 61.9941 38.0128 61.9993 38.0875 62.0096C38.1623 62.0199 38.2353 62.0389 38.3068 62.0665L38.453 60.6394C38.3815 60.6118 38.3003 60.5894 38.2094 60.5722C38.1184 60.5549 38.0274 60.5463 37.9365 60.5463C37.6377 60.5463 37.3778 60.6239 37.1569 60.779C36.936 60.9341 36.7606 61.1564 36.6307 61.446L36.582 60.6187H35.3249V66.0789H36.6892ZM42.078 66.234C42.4223 66.234 42.7439 66.1599 43.0427 66.0117C43.3415 65.8634 43.6014 65.6566 43.8223 65.3912C44.0432 65.1258 44.2153 64.8172 44.3387 64.4656C44.4622 64.114 44.5239 63.7314 44.5239 63.3178C44.5239 62.911 44.4638 62.5353 44.3436 62.1906C44.2234 61.8459 44.0561 61.5442 43.8418 61.2857C43.6274 61.0272 43.3773 60.8255 43.0914 60.6807C42.8056 60.536 42.4938 60.4636 42.1559 60.4636C41.8246 60.4636 41.5209 60.5394 41.2448 60.6911C40.9687 60.8427 40.7397 61.0496 40.5578 61.3116V58.3643H39.1936V66.0789H40.4506L40.4896 65.3653C40.665 65.6411 40.8891 65.8548 41.162 66.0065C41.4348 66.1582 41.7402 66.234 42.078 66.234ZM41.8344 64.931C41.5875 64.931 41.3666 64.8621 41.1717 64.7242C40.9768 64.5863 40.8225 64.3984 40.7089 64.1606C40.5952 63.9227 40.5383 63.6521 40.5383 63.3488C40.5383 63.0454 40.5952 62.7748 40.7089 62.537C40.8225 62.2991 40.9768 62.1113 41.1717 61.9734C41.3666 61.8355 41.5875 61.7666 41.8344 61.7666C42.0812 61.7666 42.3021 61.8355 42.497 61.9734C42.6919 62.1113 42.8462 62.2991 42.9599 62.537C43.0736 62.7748 43.1304 63.0454 43.1304 63.3488C43.1304 63.6521 43.0736 63.9227 42.9599 64.1606C42.8462 64.3984 42.6919 64.5863 42.497 64.7242C42.3021 64.8621 42.0812 64.931 41.8344 64.931ZM47.0088 66.234C47.3661 66.234 47.6747 66.1599 47.9345 66.0117C48.1944 65.8634 48.3925 65.6721 48.5289 65.4377L48.5679 66.0789H49.786V62.7697C49.786 62.425 49.7324 62.113 49.6252 61.8338C49.518 61.5546 49.3654 61.3116 49.1672 61.1047C48.9691 60.8979 48.7336 60.7393 48.4607 60.629C48.1879 60.5187 47.8858 60.4636 47.5545 60.4636C47.1972 60.4636 46.8659 60.5291 46.5605 60.6601C46.2552 60.791 45.997 60.9755 45.7858 61.2133C45.5747 61.4512 45.4334 61.7286 45.3619 62.0458L46.58 62.3043C46.6515 62.0975 46.7749 61.9372 46.9503 61.8234C47.1257 61.7097 47.3206 61.6528 47.535 61.6528C47.8208 61.6528 48.0466 61.7493 48.2122 61.9424C48.3779 62.1354 48.4607 62.387 48.4607 62.6973V63.0179C48.2788 62.942 48.0921 62.8834 47.9004 62.8421C47.7088 62.8007 47.5058 62.78 47.2914 62.78C46.8691 62.78 46.4988 62.8541 46.1805 63.0024C45.8622 63.1506 45.6153 63.3557 45.4399 63.6177C45.2645 63.8796 45.1768 64.183 45.1768 64.5277C45.1768 64.7759 45.2223 65.0034 45.3132 65.2102C45.4042 65.417 45.5325 65.598 45.6981 65.7531C45.8638 65.9083 46.0571 66.0272 46.2779 66.1099C46.4988 66.1926 46.7424 66.234 47.0088 66.234ZM47.3401 65.1171C47.0932 65.1171 46.8951 65.0551 46.7457 64.931C46.5963 64.8069 46.5215 64.6483 46.5215 64.4553C46.5215 64.2416 46.6109 64.071 46.7895 63.9434C46.9682 63.8159 47.2102 63.7521 47.5155 63.7521C47.6779 63.7521 47.8403 63.7711 48.0027 63.809C48.1651 63.8469 48.3178 63.8969 48.4607 63.9589V64.0106C48.4607 64.2175 48.412 64.4053 48.3146 64.5742C48.2171 64.7431 48.0839 64.8758 47.915 64.9724C47.7461 65.0689 47.5545 65.1171 47.3401 65.1171ZM52.2417 66.0789V62.9455C52.2417 62.718 52.2871 62.5146 52.3781 62.3353C52.469 62.1561 52.5925 62.0165 52.7484 61.9165C52.9043 61.8166 53.0862 61.7666 53.2941 61.7666C53.5799 61.7666 53.8041 61.8752 53.9665 62.0923C54.1289 62.3095 54.2101 62.6077 54.2101 62.9868V66.0789H55.5743V62.8007C55.5743 62.325 55.4964 61.9113 55.3405 61.5597C55.1846 61.2081 54.9653 60.9375 54.6827 60.748C54.4001 60.5584 54.0704 60.4636 53.6936 60.4636C53.3558 60.4636 53.0553 60.5411 52.7922 60.6962C52.5291 60.8514 52.3229 61.0599 52.1735 61.3219L52.1345 60.6187H50.8774V66.0789H52.2417Z" fill="#C92135"/>
<path d="M44.8405 28.1143C44.9137 28.7148 44.9137 29.3229 44.8405 29.9235C44.3879 33.9472 40.9589 36.8246 37.1707 36.3594C36.2102 36.238 35.339 36.9671 35.2248 37.9877C35.1106 39.0084 35.7967 39.9341 36.7572 40.0555C39.5042 40.4073 42.2701 39.5817 44.4428 37.7611C46.6156 35.9405 48.0162 33.2751 48.3349 30.3543C48.3848 29.891 48.4065 29.4248 48.3998 28.9586C47.51 28.3867 46.4884 28.0885 45.4486 28.097C45.2453 28.0985 45.0422 28.1129 44.8405 28.1401" fill="#C92135"/>
<path d="M53.1524 26.6659C53.0756 26.5328 52.9859 26.4086 52.8848 26.2954C50.9372 24.2121 48.2866 23.0426 45.5231 23.0473H45.4177C39.6815 23.0758 35.0443 28.0227 35.0399 34.1184C35.0364 34.1671 35.0364 34.2161 35.0399 34.2648V47.9809C35.0399 49.1467 34.1505 50.0917 33.0535 50.0917C31.9564 50.0917 31.0671 49.1467 31.0671 47.9809V40.9247C31.0671 40.8816 31.0671 40.8299 31.0671 40.7869V29.2419C31.0441 25.1581 34.1083 21.8098 37.9505 21.7205H38.1451C38.3559 21.7205 38.5667 21.7205 38.7775 21.7205C39.6319 21.8433 40.457 22.1355 41.2098 22.5821C42.5472 22.0202 43.9715 21.728 45.4096 21.7205H45.7663L45.6528 21.5913C43.9705 19.6071 41.6637 18.3447 39.1667 18.0416C38.8667 17.9986 38.5181 17.9986 38.1775 17.9986H37.8938C32.6568 18.0629 28.2761 22.2426 27.6538 27.7687C27.6417 27.8832 27.6417 27.9988 27.6538 28.1133C27.6538 28.4838 27.6051 28.8629 27.6051 29.2419V38.9431C27.6007 38.9889 27.6007 39.0351 27.6051 39.081V47.9809C27.5279 50.1167 28.556 52.1263 30.2849 53.2186C32.0137 54.3109 34.1663 54.3109 35.8951 53.2186C37.6239 52.1263 38.6521 50.1167 38.5748 47.9809V34.2907C38.5522 30.1838 41.6505 26.826 45.515 26.7693C48.2151 26.7761 50.6645 28.4522 51.7876 31.0615C52.9107 33.6708 52.5021 36.736 50.7412 38.9112C48.9803 41.0863 46.1891 41.9735 43.5935 41.1832C42.6621 40.9048 41.6947 41.4815 41.4328 42.4712C41.1708 43.4609 41.7135 44.4889 42.6449 44.7673C47.1191 46.1185 51.8939 44.1517 54.3422 39.949C56.7905 35.7463 56.318 30.3277 53.1848 26.6745" fill="#C92135"/>
</svg>
