<svg width="164" height="54" viewBox="0 0 164 54" fill="none" xmlns="http://www.w3.org/2000/svg">
<path d="M134.358 53.9995C134.908 53.9995 135.405 53.915 135.85 53.7459C136.294 53.5769 136.675 53.3331 136.994 53.0147C137.312 52.6963 137.556 52.315 137.725 51.8707C137.894 51.4265 137.978 50.9292 137.978 50.3788V45.3901H136.221V50.2963C136.221 50.7209 136.145 51.0904 135.991 51.4049C135.838 51.7194 135.624 51.9611 135.348 52.1302C135.073 52.2992 134.747 52.3838 134.37 52.3838C133.992 52.3838 133.664 52.2992 133.385 52.1302C133.106 51.9611 132.891 51.7194 132.742 51.4049C132.593 51.0904 132.518 50.7209 132.518 50.2963V45.3901H130.761V50.3788C130.761 50.9292 130.845 51.4265 131.014 51.8707C131.183 52.315 131.425 52.6963 131.74 53.0147C132.054 53.3331 132.432 53.5769 132.872 53.7459C133.312 53.915 133.807 53.9995 134.358 53.9995ZM140.939 53.7636V50.7091C140.939 50.198 141.06 49.8029 141.304 49.5238C141.548 49.2447 141.898 49.1051 142.354 49.1051C142.448 49.1051 142.541 49.111 142.631 49.1228C142.721 49.1346 142.81 49.1562 142.896 49.1877L143.073 47.5602C142.987 47.5287 142.888 47.5032 142.778 47.4835C142.668 47.4639 142.558 47.454 142.448 47.454C142.087 47.454 141.772 47.5425 141.505 47.7194C141.237 47.8963 141.025 48.1498 140.868 48.4801L140.809 47.5366H139.288V53.7636H140.939ZM147.46 53.9405C147.877 53.9405 148.266 53.856 148.628 53.6869C148.99 53.5179 149.304 53.282 149.572 52.9793C149.839 52.6766 150.047 52.3248 150.197 51.9238C150.346 51.5228 150.421 51.0865 150.421 50.6147C150.421 50.1508 150.348 49.7223 150.202 49.3292C150.057 48.9361 149.855 48.5921 149.595 48.2973C149.336 48.0024 149.033 47.7725 148.687 47.6073C148.341 47.4422 147.964 47.3597 147.555 47.3597C147.154 47.3597 146.786 47.4462 146.452 47.6191C146.118 47.7921 145.841 48.028 145.621 48.3268V44.9656H143.97V53.7636H145.491L145.538 52.9498C145.75 53.2643 146.022 53.5081 146.352 53.681C146.682 53.854 147.052 53.9405 147.46 53.9405ZM147.166 52.4545C146.867 52.4545 146.6 52.3759 146.364 52.2186C146.128 52.0614 145.941 51.8471 145.803 51.5759C145.666 51.3046 145.597 50.996 145.597 50.6501C145.597 50.3041 145.666 49.9955 145.803 49.7243C145.941 49.453 146.128 49.2388 146.364 49.0815C146.6 48.9243 146.867 48.8457 147.166 48.8457C147.464 48.8457 147.732 48.9243 147.968 49.0815C148.203 49.2388 148.39 49.453 148.528 49.7243C148.665 49.9955 148.734 50.3041 148.734 50.6501C148.734 50.996 148.665 51.3046 148.528 51.5759C148.39 51.8471 148.203 52.0614 147.968 52.2186C147.732 52.3759 147.464 52.4545 147.166 52.4545ZM153.428 53.9405C153.86 53.9405 154.234 53.856 154.548 53.6869C154.863 53.5179 155.103 53.2997 155.268 53.0324L155.315 53.7636H156.789V49.9896C156.789 49.5965 156.724 49.2408 156.595 48.9223C156.465 48.6039 156.28 48.3268 156.04 48.0909C155.801 47.855 155.516 47.6742 155.185 47.5484C154.855 47.4226 154.489 47.3597 154.088 47.3597C153.656 47.3597 153.255 47.4344 152.886 47.5838C152.516 47.7331 152.203 47.9435 151.948 48.2147C151.692 48.486 151.521 48.8024 151.435 49.1641L152.909 49.4589C152.996 49.2231 153.145 49.0403 153.357 48.9105C153.57 48.7808 153.805 48.7159 154.065 48.7159C154.411 48.7159 154.684 48.826 154.885 49.0462C155.085 49.2663 155.185 49.5533 155.185 49.9071V50.2727C154.965 50.1862 154.739 50.1194 154.507 50.0722C154.275 50.025 154.03 50.0014 153.77 50.0014C153.259 50.0014 152.811 50.086 152.426 50.255C152.04 50.424 151.742 50.658 151.529 50.9567C151.317 51.2555 151.211 51.6014 151.211 51.9946C151.211 52.2776 151.266 52.5371 151.376 52.7729C151.486 53.0088 151.641 53.2152 151.842 53.3921C152.042 53.569 152.276 53.7046 152.544 53.799C152.811 53.8933 153.106 53.9405 153.428 53.9405ZM153.829 52.6668C153.53 52.6668 153.29 52.596 153.11 52.4545C152.929 52.313 152.838 52.1322 152.838 51.912C152.838 51.6683 152.946 51.4737 153.163 51.3282C153.379 51.1828 153.672 51.11 154.041 51.11C154.238 51.11 154.434 51.1317 154.631 51.1749C154.828 51.2182 155.012 51.2752 155.185 51.3459V51.4049C155.185 51.6408 155.126 51.855 155.008 52.0476C154.89 52.2403 154.729 52.3916 154.525 52.5017C154.32 52.6118 154.088 52.6668 153.829 52.6668ZM159.761 53.7636V50.1901C159.761 49.9307 159.816 49.6987 159.926 49.4943C160.036 49.2899 160.186 49.1307 160.374 49.0167C160.563 48.9027 160.783 48.8457 161.035 48.8457C161.381 48.8457 161.652 48.9695 161.849 49.2172C162.045 49.4648 162.144 49.8049 162.144 50.2373V53.7636H163.795V50.025C163.795 49.4825 163.7 49.0108 163.512 48.6098C163.323 48.2088 163.058 47.9002 162.716 47.684C162.373 47.4678 161.974 47.3597 161.518 47.3597C161.11 47.3597 160.746 47.4481 160.428 47.625C160.109 47.8019 159.859 48.0398 159.679 48.3385L159.631 47.5366H158.11V53.7636H159.761Z" fill="white"/>
<path d="M69.4415 20.1996C69.4005 23.0504 67.0995 25.3515 64.2487 25.3924H58.1926V15.0069H64.2614C67.1243 15.0139 69.4415 17.3367 69.4415 20.1996ZM64.2614 11.4266H56.3898C55.4278 11.4402 54.6513 12.2167 54.6377 13.1786V39.0916C54.6377 40.0732 55.4335 40.869 56.4152 40.869C57.3968 40.869 58.1926 40.0732 58.1926 39.0916V28.9346L64.2614 28.8584C68.9457 28.6796 72.651 24.8302 72.651 20.1425C72.651 15.4548 68.9457 11.6054 64.2614 11.4266ZM88.8412 30.3185C89.0589 32.7781 87.8697 35.1498 85.7685 36.4468C83.6674 37.7437 81.0142 37.7437 78.9131 36.4468C76.8119 35.1498 75.6227 32.7781 75.8403 30.3185C75.6227 27.8589 76.8119 25.4872 78.9131 24.1902C81.0142 22.8933 83.6674 22.8933 85.7685 24.1902C87.8697 25.4872 89.0589 27.8589 88.8412 30.3185ZM90.606 19.7932C90.1314 19.7862 89.6745 19.9734 89.3412 20.3114C89.0079 20.6495 88.8273 21.109 88.8412 21.5835V22.358C87.0606 20.7407 84.7462 19.8366 82.3408 19.8187C76.6856 19.9711 72.2154 24.6626 72.3362 30.3185C72.2011 35.9865 76.6735 40.6972 82.3408 40.8563C84.7469 40.8421 87.0626 39.9375 88.8412 38.3171V39.117C88.7848 39.7809 89.107 40.42 89.6744 40.7693C90.2418 41.1186 90.9575 41.1186 91.5249 40.7693C92.0923 40.42 92.4146 39.7809 92.3581 39.117V21.5835C92.3615 21.1178 92.178 20.6702 91.8487 20.3408C91.5194 20.0115 91.0717 19.828 90.606 19.8314V19.7932ZM112.38 20.225L112.177 20.0727C111.971 19.9643 111.754 19.8791 111.529 19.8187H111.098C111.001 19.8017 110.902 19.8017 110.806 19.8187H110.653C109.95 20.0591 109.473 20.7139 109.46 21.4566V32.0071C109.555 33.9212 108.587 35.732 106.944 36.7174C105.3 37.7029 103.247 37.7029 101.603 36.7174C99.9596 35.732 98.9923 33.9212 99.0871 32.0071V21.5073C99.0094 20.594 98.2453 19.8921 97.3287 19.8921C96.412 19.8921 95.6479 20.594 95.5702 21.5073V32.0706C95.546 35.3642 97.39 38.3873 100.33 39.8732C103.269 41.3591 106.797 41.0514 109.434 39.0789C109.217 41.2024 107.971 43.0839 106.101 44.1128C104.231 45.1417 101.975 45.1868 100.065 44.2335H99.9377C99.0755 43.9484 98.1376 44.3643 97.77 45.1947C97.4023 46.0252 97.725 46.999 98.5157 47.4457C99.8749 48.0847 101.356 48.4225 102.858 48.436C105.518 48.463 108.079 47.4296 109.975 45.5642C111.872 43.6988 112.947 41.1549 112.964 38.4949V21.5073C112.96 21.2406 112.89 20.979 112.761 20.7456C112.67 20.5452 112.535 20.3675 112.367 20.225H112.38ZM130.091 21.5835C130.095 21.1156 129.909 20.666 129.577 20.3363C129.245 20.0066 128.794 19.8246 128.326 19.8313C125.508 19.8833 122.856 21.1745 121.077 23.361V21.5835C120.999 20.6701 120.235 19.9683 119.318 19.9683C118.402 19.9683 117.638 20.6701 117.56 21.5835V39.0916C117.504 39.7555 117.826 40.3946 118.393 40.7439C118.961 41.0932 119.676 41.0932 120.244 40.7439C120.811 40.3946 121.133 39.7555 121.077 39.0916V30.5851V30.5089C121.605 28.9743 122.354 27.5244 123.299 26.2049C124.386 24.4854 126.255 23.4157 128.288 23.3483C129.272 23.3554 130.077 22.5672 130.091 21.5835ZM145.441 30.3185C145.628 32.762 144.43 35.1043 142.34 36.3833C140.249 37.6623 137.619 37.6623 135.528 36.3833C133.438 35.1043 132.24 32.762 132.427 30.3185C132.24 27.875 133.438 25.5327 135.528 24.2537C137.619 22.9747 140.249 22.9747 142.34 24.2537C144.43 25.5327 145.628 27.875 145.441 30.3185ZM147.244 19.7934C146.762 19.7717 146.292 19.9529 145.95 20.293C145.607 20.6332 145.423 21.1011 145.441 21.5835V22.358C143.654 20.7429 141.336 19.8394 138.928 19.8187C133.265 19.9779 128.795 24.6808 128.923 30.3439C128.788 36.0118 133.26 40.7226 138.928 40.8817C141.338 40.867 143.657 39.9627 145.441 38.3425V39.1424C145.441 40.11 146.225 40.8944 147.193 40.8944C148.161 40.8944 148.945 40.11 148.945 39.1424V21.5835C148.959 21.12 148.787 20.6702 148.467 20.3341C148.148 19.998 147.707 19.8033 147.244 19.7934ZM154.417 13.4453C153.44 13.4592 152.658 14.2586 152.665 15.2354V16.1495C152.608 16.8181 152.933 17.4616 153.504 17.8133C154.076 18.165 154.797 18.165 155.368 17.8133C155.939 17.4616 156.264 16.8181 156.207 16.1495V15.2354C156.193 14.2587 155.394 13.4763 154.417 13.4833V13.4453ZM154.417 19.7932C153.944 19.7861 153.488 19.9736 153.157 20.3121C152.825 20.6506 152.648 21.1102 152.665 21.5835V39.0916C152.743 40.0118 153.513 40.719 154.436 40.719C155.36 40.719 156.129 40.0118 156.207 39.0916V21.5835C156.215 21.11 156.027 20.6542 155.689 20.3229C155.35 19.9917 154.89 19.814 154.417 19.8314V19.7932ZM161.997 11.4264C161.035 11.4402 160.258 12.2167 160.245 13.1786V39.0916C160.245 40.0732 161.04 40.869 162.022 40.869C163.004 40.869 163.8 40.0732 163.8 39.0916V13.204C163.8 12.7282 163.609 12.2722 163.27 11.9381C162.931 11.604 162.473 11.4198 161.997 11.4264Z" fill="#C92135"/>
<path d="M26.999 14.9054C27.1136 15.7904 27.1136 16.6865 26.999 17.5716C26.2903 23.501 20.9205 27.7411 14.9884 27.0556C13.4843 26.8768 12.1201 27.9511 11.9413 29.4552C11.7625 30.9593 12.8368 32.3235 14.3409 32.5023C18.6427 33.0208 22.9738 31.8041 26.3762 29.1212C29.7787 26.4383 31.972 22.5105 32.4711 18.2064C32.5492 17.5237 32.5831 16.8366 32.5726 16.1496C31.1793 15.3069 29.5795 14.8674 27.9512 14.88C27.6328 14.8822 27.3149 14.9034 26.999 14.9434" fill="url(#paint0_linear_765:69)"/>
<path d="M40.0121 12.7724C39.8918 12.5763 39.7514 12.3933 39.5931 12.2264C36.5432 9.15637 32.3925 7.433 28.065 7.43997H27.8999C18.9173 7.48188 11.6557 14.7719 11.6488 23.7546C11.6433 23.8264 11.6433 23.8986 11.6488 23.9704V44.1828C11.6488 45.9007 10.2561 47.2933 8.53822 47.2933C6.8203 47.2933 5.42765 45.9007 5.42765 44.1828V33.7846C5.42765 33.7211 5.42765 33.6449 5.42765 33.5814V16.5685C5.39154 10.5505 10.19 5.61638 16.2067 5.48476H16.5114C16.8415 5.48476 17.1716 5.48476 17.5017 5.48476C18.8397 5.66569 20.1317 6.09637 21.3106 6.75438C23.4049 5.92638 25.6352 5.49583 27.8872 5.48476H28.4459L28.2681 5.29431C25.6336 2.37043 22.0214 0.510142 18.1111 0.063481C17.6414 0 17.0955 0 16.5622 0H16.1178C7.91698 0.0948454 1.057 6.25417 0.0825507 14.3975C0.0636831 14.5662 0.0636831 14.7366 0.0825507 14.9053C0.0825507 15.4513 0.00637353 16.0099 0.00637353 16.5685V30.8645C-0.000589763 30.932 -0.000589763 31.0001 0.00637353 31.0676V44.1828C-0.114654 47.3301 1.49541 50.2915 4.20267 51.9011C6.90994 53.5108 10.2808 53.5108 12.988 51.9011C15.6953 50.2915 17.3054 47.3301 17.1843 44.1828V24.0085C17.1489 17.9565 22.0007 13.0083 28.0523 12.9247C32.2805 12.9349 36.1162 15.4048 37.8749 19.2499C39.6336 23.095 38.9937 27.6121 36.2362 30.8174C33.4787 34.0227 29.1079 35.3301 25.0433 34.1655C23.5848 33.7553 22.0699 34.6051 21.6597 36.0635C21.2495 37.522 22.0993 39.0369 23.5578 39.4471C30.5642 41.4383 38.0413 38.5399 41.8752 32.3467C45.7091 26.1535 44.9693 18.1685 40.0629 12.7851" fill="url(#paint1_linear_765:69)"/>
<defs>
<linearGradient id="paint0_linear_765:69" x1="35.363" y1="23.1798" x2="17.5887" y2="23.1798" gradientUnits="userSpaceOnUse">
<stop stop-color="#C92135"/>
<stop offset="1" stop-color="#C92135"/>
</linearGradient>
<linearGradient id="paint1_linear_765:69" x1="22.8003" y1="2.55186" x2="22.8003" y2="40.348" gradientUnits="userSpaceOnUse">
<stop stop-color="#C92135"/>
<stop offset="1" stop-color="#C92135"/>
</linearGradient>
</defs>
</svg>
