<svg width="161" height="54" viewBox="0 0 161 54" fill="none" xmlns="http://www.w3.org/2000/svg">
<g clip-path="url(#clip0_43_149)">
<path d="M131.486 52.845C132.024 52.845 132.511 52.7623 132.946 52.5969C133.38 52.4314 133.754 52.1929 134.065 51.8813C134.377 51.5697 134.615 51.1965 134.781 50.7618C134.946 50.3271 135.029 49.8404 135.029 49.3018V44.4197H133.309V49.221C133.309 49.6365 133.234 49.9981 133.084 50.3059C132.934 50.6137 132.724 50.8503 132.455 51.0157C132.186 51.1811 131.866 51.2638 131.497 51.2638C131.128 51.2638 130.807 51.1811 130.533 51.0157C130.26 50.8503 130.051 50.6137 129.904 50.3059C129.758 49.9981 129.685 49.6365 129.685 49.221V44.4197H127.965V49.3018C127.965 49.8404 128.048 50.3271 128.214 50.7618C128.379 51.1965 128.616 51.5697 128.923 51.8813C129.231 52.1929 129.601 52.4314 130.031 52.5969C130.462 52.7623 130.947 52.845 131.486 52.845ZM137.926 52.6142V49.6249C137.926 49.1248 138.045 48.7382 138.284 48.465C138.522 48.1919 138.864 48.0553 139.311 48.0553C139.403 48.0553 139.493 48.0611 139.582 48.0726C139.67 48.0842 139.757 48.1053 139.842 48.1361L140.015 46.5434C139.93 46.5126 139.834 46.4876 139.726 46.4684C139.618 46.4491 139.511 46.4395 139.403 46.4395C139.049 46.4395 138.741 46.5261 138.48 46.6992C138.218 46.8723 138.01 47.1205 137.857 47.4436L137.799 46.5203H136.31V52.6142H137.926ZM144.308 52.7873C144.716 52.7873 145.097 52.7046 145.451 52.5392C145.805 52.3737 146.112 52.1429 146.374 51.8467C146.636 51.5505 146.84 51.2061 146.986 50.8137C147.132 50.4213 147.205 49.9943 147.205 49.5326C147.205 49.0787 147.134 48.6593 146.992 48.2746C146.849 47.8899 146.651 47.5533 146.397 47.2647C146.143 46.9762 145.847 46.7511 145.508 46.5895C145.17 46.428 144.801 46.3472 144.401 46.3472C144.008 46.3472 143.648 46.4318 143.321 46.6011C142.994 46.7704 142.723 47.0012 142.508 47.2936V44.0043H140.892V52.6142H142.381L142.427 51.8178C142.635 52.1256 142.9 52.3641 143.223 52.5334C143.546 52.7027 143.908 52.7873 144.308 52.7873ZM144.02 51.3331C143.727 51.3331 143.466 51.2561 143.235 51.1023C143.004 50.9484 142.821 50.7387 142.687 50.4732C142.552 50.2078 142.485 49.9058 142.485 49.5672C142.485 49.2287 142.552 48.9267 142.687 48.6612C142.821 48.3958 143.004 48.1861 143.235 48.0322C143.466 47.8783 143.727 47.8014 144.02 47.8014C144.312 47.8014 144.574 47.8783 144.804 48.0322C145.035 48.1861 145.218 48.3958 145.353 48.6612C145.487 48.9267 145.555 49.2287 145.555 49.5672C145.555 49.9058 145.487 50.2078 145.353 50.4732C145.218 50.7387 145.035 50.9484 144.804 51.1023C144.574 51.2561 144.312 51.3331 144.02 51.3331ZM150.148 52.7873C150.571 52.7873 150.937 52.7046 151.245 52.5392C151.552 52.3737 151.787 52.1602 151.949 51.8986L151.995 52.6142H153.437V48.9209C153.437 48.5362 153.374 48.188 153.247 47.8764C153.12 47.5648 152.939 47.2936 152.705 47.0627C152.47 46.8319 152.191 46.6549 151.868 46.5318C151.545 46.4087 151.187 46.3472 150.794 46.3472C150.371 46.3472 149.979 46.4203 149.617 46.5665C149.256 46.7127 148.95 46.9185 148.7 47.1839C148.45 47.4494 148.282 47.7591 148.198 48.113L149.64 48.4016C149.725 48.1707 149.871 47.9918 150.079 47.8649C150.287 47.7379 150.517 47.6744 150.771 47.6744C151.11 47.6744 151.377 47.7822 151.574 47.9976C151.77 48.213 151.868 48.4939 151.868 48.8401V49.1979C151.652 49.1133 151.431 49.0479 151.204 49.0017C150.977 48.9555 150.737 48.9325 150.483 48.9325C149.983 48.9325 149.544 49.0152 149.167 49.1806C148.79 49.346 148.498 49.5749 148.29 49.8673C148.082 50.1597 147.978 50.4983 147.978 50.883C147.978 51.16 148.032 51.4139 148.14 51.6447C148.248 51.8755 148.4 52.0775 148.596 52.2506C148.792 52.4238 149.021 52.5565 149.283 52.6488C149.544 52.7411 149.833 52.7873 150.148 52.7873ZM150.541 51.5408C150.248 51.5408 150.014 51.4716 149.837 51.3331C149.66 51.1946 149.571 51.0176 149.571 50.8022C149.571 50.5637 149.677 50.3732 149.888 50.2309C150.1 50.0885 150.387 50.0174 150.748 50.0174C150.941 50.0174 151.133 50.0385 151.325 50.0808C151.518 50.1232 151.699 50.1789 151.868 50.2482V50.3059C151.868 50.5367 151.81 50.7464 151.695 50.9349C151.579 51.1234 151.422 51.2715 151.222 51.3793C151.021 51.487 150.794 51.5408 150.541 51.5408ZM156.346 52.6142V49.1171C156.346 48.8632 156.4 48.6362 156.508 48.4362C156.615 48.2361 156.761 48.0803 156.946 47.9688C157.131 47.8572 157.346 47.8014 157.592 47.8014C157.931 47.8014 158.196 47.9226 158.389 48.165C158.581 48.4073 158.677 48.7401 158.677 49.1633V52.6142H160.293V48.9555C160.293 48.4246 160.201 47.963 160.016 47.5706C159.831 47.1782 159.572 46.8762 159.237 46.6646C158.902 46.453 158.512 46.3472 158.066 46.3472C157.666 46.3472 157.31 46.4337 156.998 46.6069C156.686 46.78 156.442 47.0127 156.265 47.3051L156.219 46.5203H154.73V52.6142H156.346Z" fill="white"/>
<path d="M67.9573 19.7678C67.9172 22.5576 65.6653 24.8095 62.8755 24.8495H56.9489V14.6861H62.8879C65.6897 14.6929 67.9573 16.9661 67.9573 19.7678ZM62.8879 11.1823H55.1846C54.2432 11.1956 53.4833 11.9555 53.47 12.8969V38.2559C53.47 39.2166 54.2488 39.9953 55.2094 39.9953C56.1701 39.9953 56.9489 39.2166 56.9489 38.2559V28.3161L62.8879 28.2415C67.4721 28.0665 71.0982 24.2994 71.0982 19.7119C71.0982 15.1244 67.4721 11.3573 62.8879 11.1823ZM86.9423 29.6704C87.1553 32.0773 85.9915 34.3984 83.9353 35.6676C81.8791 36.9368 79.2826 36.9368 77.2264 35.6676C75.1702 34.3984 74.0064 32.0773 74.2193 29.6704C74.0064 27.2634 75.1702 24.9423 77.2264 23.6731C79.2826 22.4039 81.8791 22.4039 83.9353 23.6731C85.9915 24.9423 87.1553 27.2634 86.9423 29.6704ZM88.6693 19.37C88.2049 19.3632 87.7577 19.5464 87.4316 19.8772C87.1054 20.208 86.9287 20.6578 86.9423 21.1221V21.88C85.1997 20.2973 82.9348 19.4125 80.5808 19.3951C75.0465 19.5442 70.6719 24.1353 70.7901 29.6704C70.6579 35.2171 75.0347 39.8271 80.5808 39.9829C82.9355 39.969 85.2016 39.0838 86.9423 37.498V38.2807C86.887 38.9304 87.2024 39.5559 87.7577 39.8977C88.3129 40.2396 89.0134 40.2396 89.5686 39.8977C90.1238 39.5559 90.4392 38.9304 90.384 38.2807V21.1221C90.3873 20.6663 90.2077 20.2283 89.8854 19.906C89.5632 19.5837 89.1251 19.4042 88.6693 19.4075V19.37ZM109.978 19.7927L109.779 19.6436C109.578 19.5375 109.365 19.4541 109.145 19.3951H108.723C108.628 19.3783 108.532 19.3783 108.437 19.3951H108.288C107.6 19.6303 107.133 20.271 107.12 20.9979V31.3228C107.213 33.1961 106.266 34.9681 104.658 35.9325C103.049 36.8969 101.04 36.8969 99.4315 35.9325C97.823 34.9681 96.8764 33.1961 96.9691 31.3228V21.0476C96.8931 20.1537 96.1453 19.4669 95.2483 19.4669C94.3512 19.4669 93.6034 20.1537 93.5274 21.0476V31.385C93.5038 34.6082 95.3083 37.5666 98.185 39.0208C101.062 40.4749 104.514 40.1738 107.095 38.2434C106.883 40.3216 105.663 42.1629 103.833 43.1698C102.003 44.1767 99.7949 44.2208 97.9258 43.2879H97.8015C96.9577 43.0089 96.0399 43.4158 95.6801 44.2285C95.3204 45.0412 95.6361 45.9943 96.41 46.4314C97.74 47.0568 99.1895 47.3874 100.659 47.4005C103.262 47.427 105.769 46.4157 107.625 44.5901C109.481 42.7646 110.533 40.2751 110.549 37.6719V21.0476C110.545 20.7865 110.477 20.5305 110.351 20.3021C110.261 20.106 110.13 19.9321 109.965 19.7927H109.978ZM127.31 21.1221C127.314 20.6642 127.132 20.2242 126.808 19.9015C126.483 19.5789 126.041 19.4008 125.583 19.4073C122.825 19.4582 120.23 20.7219 118.489 22.8616V21.1221C118.413 20.2283 117.665 19.5414 116.768 19.5414C115.871 19.5414 115.123 20.2283 115.047 21.1221V38.2559C114.992 38.9056 115.307 39.531 115.862 39.8729C116.418 40.2147 117.118 40.2147 117.673 39.8729C118.229 39.531 118.544 38.9056 118.489 38.2559V29.9313V29.8567C119.006 28.3548 119.738 26.936 120.663 25.6447C121.728 23.9619 123.556 22.9151 125.546 22.8492C126.509 22.8561 127.297 22.0848 127.31 21.1221ZM142.332 29.6704C142.515 32.0616 141.343 34.3539 139.297 35.6055C137.251 36.8571 134.677 36.8571 132.631 35.6055C130.585 34.3539 129.413 32.0616 129.597 29.6704C129.413 27.2791 130.585 24.9868 132.631 23.7352C134.677 22.4836 137.251 22.4836 139.297 23.7352C141.343 24.9868 142.515 27.2791 142.332 29.6704ZM144.096 19.3702C143.624 19.349 143.165 19.5264 142.83 19.8592C142.495 20.1921 142.314 20.6501 142.332 21.1221V21.88C140.583 20.2994 138.315 19.4153 135.958 19.3951C130.417 19.5509 126.042 24.1532 126.167 29.6952C126.035 35.242 130.412 39.852 135.958 40.0078C138.316 39.9934 140.586 39.1084 142.332 37.5228V38.3056C142.332 39.2525 143.1 40.0202 144.047 40.0202C144.993 40.0202 145.761 39.2525 145.761 38.3056V21.1221C145.775 20.6685 145.606 20.2283 145.294 19.8994C144.981 19.5705 144.55 19.38 144.096 19.3702ZM151.116 13.1578C150.16 13.1715 149.395 13.9538 149.402 14.9097V15.8043C149.346 16.4586 149.664 17.0883 150.223 17.4325C150.782 17.7767 151.488 17.7767 152.047 17.4325C152.606 17.0883 152.924 16.4586 152.868 15.8043V14.9097C152.854 13.9539 152.072 13.1882 151.116 13.1951V13.1578ZM151.116 19.37C150.653 19.3631 150.207 19.5466 149.883 19.8779C149.558 20.2091 149.385 20.6589 149.402 21.1221V38.2559C149.478 39.1564 150.231 39.8485 151.135 39.8485C152.039 39.8485 152.792 39.1564 152.868 38.2559V21.1221C152.875 20.6587 152.692 20.2127 152.36 19.8885C152.029 19.5643 151.579 19.3904 151.116 19.4075V19.37ZM158.534 11.1821C157.592 11.1956 156.833 11.9555 156.819 12.8969V38.2559C156.819 39.2166 157.598 39.9953 158.559 39.9953C159.519 39.9953 160.298 39.2166 160.298 38.2559V12.9218C160.298 12.4561 160.112 12.0098 159.78 11.6829C159.448 11.356 158.999 11.1756 158.534 11.1821Z" fill="white"/>
<path d="M26.4213 14.5867C26.5334 15.4528 26.5334 16.3298 26.4213 17.1959C25.7277 22.9985 20.4728 27.148 14.6675 26.4772C13.1956 26.3022 11.8605 27.3536 11.6855 28.8255C11.5106 30.2974 12.5619 31.6324 14.0338 31.8074C18.2436 32.3149 22.4822 31.1241 25.8119 28.4986C29.1415 25.8731 31.288 22.0292 31.7764 17.8171C31.8529 17.149 31.8861 16.4767 31.8758 15.8043C30.5123 14.9796 28.9466 14.5495 27.3532 14.5618C27.0416 14.564 26.7304 14.5847 26.4213 14.624" fill="white"/>
<path d="M39.1567 12.4993C39.039 12.3074 38.9016 12.1284 38.7467 11.9651C35.7619 8.96062 31.7 7.27409 27.465 7.28092H27.3035C18.5129 7.32193 11.4065 14.4561 11.3998 23.2467C11.3944 23.317 11.3944 23.3877 11.3998 23.458V43.2382C11.3998 44.9194 10.0369 46.2823 8.35568 46.2823C6.67449 46.2823 5.31161 44.9194 5.31161 43.2382V33.0623C5.31161 33.0002 5.31161 32.9256 5.31161 32.8635V16.2143C5.27628 10.325 9.97217 5.49631 15.8602 5.3675H16.1584C16.4815 5.3675 16.8045 5.3675 17.1276 5.3675C18.4369 5.54457 19.7013 5.96604 20.855 6.60998C22.9046 5.79968 25.0871 5.37833 27.291 5.3675H27.8377L27.6638 5.18113C25.0856 2.31976 21.5506 0.499236 17.724 0.0621238C17.2642 0 16.73 0 16.2081 0H15.7733C7.74773 0.0928177 1.0344 6.12047 0.0807859 14.0897C0.0623217 14.2548 0.0623217 14.4215 0.0807859 14.5867C0.0807859 15.1209 0.00623727 15.6676 0.00623727 16.2143V30.2046C-0.000577155 30.2707 -0.000577155 30.3373 0.00623727 30.4034V43.2382C-0.112203 46.3182 1.46344 49.2164 4.11283 50.7916C6.76222 52.3668 10.061 52.3668 12.7104 50.7916C15.3597 49.2164 16.9354 46.3182 16.817 43.2382V23.4952C16.7823 17.5726 21.5304 12.7302 27.4526 12.6484C31.5904 12.6583 35.3441 15.0755 37.0652 18.8384C38.7863 22.6013 38.1601 27.0217 35.4615 30.1586C32.763 33.2954 28.4857 34.5748 24.5079 33.4351C23.0806 33.0336 21.5981 33.8653 21.1967 35.2926C20.7953 36.7199 21.6269 38.2023 23.0542 38.6038C29.9108 40.5524 37.2281 37.716 40.98 31.6552C44.7319 25.5944 44.0079 17.7801 39.2064 12.5117" fill="white"/>
</g>
<defs>
<clipPath id="clip0_43_149">
<rect width="160.939" height="53.11" fill="white"/>
</clipPath>
</defs>
</svg>
