<svg width="129" height="41" viewBox="0 0 129 41" fill="none" xmlns="http://www.w3.org/2000/svg">
<rect x="0.823242" y="0.722168" width="128" height="40" rx="20" fill="#F9F9F9"/>
<rect x="1.32324" y="1.22217" width="127" height="39" rx="19.5" stroke="#777777" stroke-opacity="0.2"/>
<path d="M27.6162 31.1224C29.21 30.8959 30.6072 29.2325 31.4863 26.7759C30.2154 26.4913 28.9184 26.3385 27.6162 26.3203V31.1224Z" fill="#EA6212"/>
<path d="M30.1632 30.7316C30.2574 30.7043 30.3513 30.6768 30.4444 30.6466C30.5229 30.6213 30.6004 30.5941 30.6779 30.567C30.7696 30.5353 30.8609 30.5028 30.9518 30.4682C31.0293 30.4387 31.106 30.4075 31.183 30.3762C31.2717 30.3389 31.3603 30.3018 31.448 30.2645C31.5245 30.2309 31.6006 30.1956 31.6766 30.1601C31.7626 30.1195 31.8483 30.0783 31.9332 30.0353C32.0078 29.9973 32.0822 29.9586 32.1567 29.9188C32.2402 29.874 32.3232 29.8284 32.4055 29.7814C32.4801 29.7392 32.552 29.6969 32.6245 29.6532C32.7053 29.6036 32.7857 29.5539 32.8655 29.5043C32.937 29.4588 33.0083 29.4126 33.0787 29.3649C33.1572 29.312 33.2347 29.2569 33.3118 29.2018C33.3811 29.1522 33.4501 29.1027 33.5177 29.0528C33.5923 28.9954 33.6687 28.9359 33.7434 28.8762C33.8098 28.8233 33.876 28.7708 33.9413 28.7164C34.0157 28.6545 34.087 28.5905 34.1592 28.5265C34.2225 28.4703 34.2861 28.4146 34.348 28.357C34.4191 28.2906 34.4884 28.2219 34.5577 28.1537C34.6177 28.0944 34.6784 28.036 34.7372 27.9752C34.7481 27.964 34.7585 27.9518 34.7697 27.9401C33.9573 27.5205 33.1016 27.1912 32.2175 26.958C31.7577 28.4243 30.9394 29.7531 29.8369 30.8236C29.8671 30.8158 29.8973 30.8094 29.9275 30.8016C30.0071 30.7792 30.0854 30.7547 30.1632 30.7316Z" fill="#EA6212"/>
<path d="M37.6655 21.0947H33.1993C33.1824 22.8385 32.9294 24.572 32.4473 26.248C33.4305 26.5106 34.3793 26.8882 35.2742 27.3729C36.7433 25.6021 37.5843 23.3944 37.6655 21.0947V21.0947Z" fill="#EA6212"/>
<path d="M27.6162 20.3498H32.4536C32.4346 18.6676 32.1878 16.9958 31.7202 15.3799C30.3733 15.6871 28.9976 15.8511 27.6162 15.8693V20.3498Z" fill="#EA6212"/>
<path d="M27.6162 10.3223V15.1243C28.9184 15.106 30.2154 14.9534 31.4863 14.6687C30.6072 12.2121 29.21 10.5487 27.6162 10.3223Z" fill="#EA6212"/>
<path d="M27.6162 25.5752C28.9976 25.5936 30.3733 25.7576 31.7202 26.0648C32.1878 24.4489 32.4346 22.7769 32.4536 21.0947H27.6162V25.5752Z" fill="#EA6212"/>
<path d="M35.2742 14.0718C34.3793 14.5565 33.4305 14.934 32.4473 15.1967C32.9294 16.8727 33.1824 18.6061 33.1993 20.3499H37.6655C37.5842 18.0505 36.7432 15.8427 35.2742 14.0718Z" fill="#EA6212"/>
<path d="M34.7707 13.5066C34.7598 13.4955 34.7494 13.4835 34.7387 13.472C34.6798 13.4113 34.6186 13.3527 34.5586 13.2936C34.4895 13.2254 34.4206 13.1565 34.3493 13.0903C34.2876 13.0328 34.2238 12.9784 34.1605 12.9211C34.0883 12.8571 34.0161 12.7925 33.9419 12.7307C33.8775 12.6763 33.8115 12.6243 33.746 12.5721C33.6714 12.5117 33.5951 12.4517 33.5183 12.394C33.451 12.3433 33.3828 12.2942 33.3142 12.2451C33.2364 12.1891 33.1582 12.1332 33.0789 12.0799C33.0092 12.033 32.9385 11.9872 32.8677 11.9423C32.7872 11.8904 32.7068 11.8397 32.6247 11.7906C32.5529 11.7475 32.4803 11.7049 32.4076 11.6636C32.3243 11.616 32.2408 11.5698 32.1566 11.5247C32.082 11.4874 32.0076 11.4468 31.9331 11.4095C31.8474 11.3663 31.761 11.3246 31.6724 11.2837C31.5979 11.2482 31.5222 11.2137 31.4455 11.18C31.3573 11.1409 31.2681 11.1056 31.1792 11.0683C31.1025 11.0371 31.0261 11.0061 30.9486 10.9767C30.8582 10.9421 30.7665 10.9097 30.6749 10.8781C30.5974 10.8508 30.5199 10.8237 30.4413 10.7983C30.3482 10.7681 30.2551 10.7406 30.1594 10.713C30.0819 10.6902 30.0041 10.6671 29.9257 10.6464C29.8957 10.6382 29.8652 10.6318 29.835 10.624C30.9375 11.6945 31.7556 13.0231 32.2155 14.4896C33.1005 14.2564 33.9575 13.9269 34.7707 13.5066Z" fill="#EA6212"/>
<path d="M16.8232 20.3499H21.2894C21.3063 18.6061 21.5593 16.8727 22.0412 15.1967C21.0582 14.9342 20.1094 14.5567 19.2145 14.0718C17.7454 15.8425 16.9044 18.0505 16.8232 20.3499Z" fill="#EA6212"/>
<path d="M26.8721 31.1224V26.3203C25.5699 26.3387 24.2729 26.4913 23.002 26.7759C23.881 29.2325 25.2783 30.8959 26.8721 31.1224Z" fill="#EA6212"/>
<path d="M26.8715 21.0947H22.0342C22.0531 22.7769 22.2997 24.4489 22.7675 26.0648C24.1145 25.7575 25.49 25.5934 26.8715 25.5752V21.0947Z" fill="#EA6212"/>
<path d="M26.8721 10.3223C25.2783 10.5487 23.881 12.2121 23.002 14.6687C24.2729 14.9535 25.5699 15.1061 26.8721 15.1243V10.3223Z" fill="#EA6212"/>
<path d="M26.8715 15.8693C25.4902 15.8511 24.1145 15.6871 22.7675 15.3799C22.2997 16.9958 22.0531 18.6676 22.0342 20.3498H26.8715V15.8693Z" fill="#EA6212"/>
<path d="M24.6505 10.6235C24.6203 10.6314 24.5901 10.6377 24.5599 10.6455C24.481 10.6666 24.4031 10.6901 24.3246 10.7128C24.2311 10.7401 24.1383 10.7676 24.0445 10.7974C23.9654 10.8231 23.8875 10.8503 23.8097 10.8774C23.7186 10.9096 23.6273 10.9416 23.537 10.9758C23.4592 11.0057 23.3824 11.0366 23.3053 11.0682C23.2168 11.1055 23.128 11.1428 23.0405 11.1799C22.9638 11.2135 22.8879 11.2488 22.8119 11.2843C22.7259 11.3248 22.6402 11.3661 22.5553 11.4091C22.4807 11.4471 22.4061 11.486 22.3318 11.5256C22.2483 11.5704 22.1655 11.6162 22.0833 11.6631C22.0087 11.7048 21.9354 11.7475 21.8636 11.7912C21.7827 11.8399 21.7026 11.8903 21.623 11.9401C21.5513 11.986 21.4802 12.0322 21.4098 12.0798C21.3313 12.1327 21.2538 12.1878 21.1767 12.243C21.1074 12.2926 21.0384 12.3421 20.9706 12.3921C20.8944 12.4494 20.8216 12.509 20.7449 12.5685C20.6787 12.6214 20.6119 12.674 20.5472 12.7287C20.4726 12.7902 20.4019 12.8539 20.33 12.9175C20.2664 12.9743 20.2022 13.0294 20.14 13.0881C20.0692 13.1541 20.0003 13.2227 19.9312 13.2907C19.8712 13.35 19.8101 13.4086 19.7511 13.4695C19.7404 13.4808 19.73 13.4932 19.7188 13.5046C20.531 13.9244 21.3869 14.2538 22.271 14.4869C22.7308 13.0214 23.5485 11.6935 24.6505 10.6235Z" fill="#EA6212"/>
<path d="M19.9297 28.1509C19.999 28.2191 20.0679 28.288 20.139 28.3544C20.2009 28.4117 20.2645 28.466 20.328 28.5233C20.4002 28.5875 20.4724 28.6519 20.5466 28.7138C20.611 28.7678 20.6766 28.82 20.7425 28.8724C20.817 28.9327 20.8914 28.9928 20.9704 29.0508C21.0375 29.1012 21.1057 29.1499 21.1739 29.1999C21.2517 29.2557 21.3303 29.3116 21.4096 29.3652C21.4793 29.4122 21.55 29.458 21.6208 29.5031C21.7013 29.5547 21.7817 29.6055 21.8637 29.6546C21.9356 29.6979 22.0082 29.7403 22.0809 29.7817C22.1642 29.8294 22.2477 29.8756 22.3319 29.9205C22.4063 29.9578 22.4808 29.9983 22.5554 30.0356C22.6411 30.0789 22.7275 30.1206 22.816 30.1617C22.8906 30.1968 22.9663 30.2313 23.043 30.2652C23.1312 30.3043 23.2202 30.3395 23.3093 30.3768C23.386 30.4081 23.4624 30.439 23.5399 30.4685C23.6303 30.5032 23.722 30.5356 23.8136 30.5672C23.8911 30.5943 23.9686 30.6216 24.0472 30.6469C24.1403 30.6771 24.2334 30.7047 24.3291 30.7322C24.4065 30.7549 24.4844 30.778 24.5626 30.799C24.5928 30.8071 24.6233 30.8135 24.6535 30.8213C23.551 29.7506 22.7329 28.422 22.273 26.9556C21.3889 27.1889 20.533 27.5183 19.7207 27.9382C19.7316 27.9493 19.742 27.9613 19.7529 27.9728C19.8087 28.0332 19.8689 28.0917 19.9297 28.1509Z" fill="#EA6212"/>
<path d="M19.2145 27.3729C20.1094 26.8882 21.0582 26.5106 22.0412 26.248C21.5593 24.572 21.3063 22.8385 21.2894 21.0947H16.8232C16.9045 23.3942 17.7454 25.602 19.2145 27.3729Z" fill="#EA6212"/>
<path fill-rule="evenodd" clip-rule="evenodd" d="M67.4476 29.4494C67.1042 29.6099 66.7346 29.6902 66.3388 29.6902C65.9506 29.6902 65.5996 29.6081 65.286 29.4438C64.9724 29.2795 64.7148 29.0481 64.5132 28.7494L64.4684 29.5222H63.0236V21.167H64.5916V24.359C64.8007 24.0753 65.0639 23.8513 65.3812 23.687C65.6986 23.5227 66.0476 23.4406 66.4284 23.4406C66.8167 23.4406 67.1751 23.519 67.5036 23.6758C67.8322 23.8326 68.1196 24.051 68.366 24.331C68.6124 24.611 68.8047 24.9377 68.9428 25.311C69.081 25.6843 69.15 26.0913 69.15 26.5318C69.15 26.9798 69.0791 27.3942 68.9372 27.775C68.7954 28.1558 68.5975 28.4899 68.3436 28.7774C68.0898 29.0649 67.7911 29.2889 67.4476 29.4494ZM50.6812 23.8214L49.1244 29.5222H47.4892L45.1484 21.5702H46.8956L48.3516 27.3158L49.9308 21.5702H51.4652L53.0444 27.3158L54.4892 21.5702H56.1916L53.8508 29.5222H52.238L50.6812 23.8214ZM60.3804 29.4942C60.022 29.6249 59.6412 29.6902 59.238 29.6902C58.7975 29.6902 58.3924 29.6137 58.0228 29.4606C57.6532 29.3075 57.334 29.091 57.0652 28.811C56.7964 28.531 56.5874 28.1987 56.438 27.8142C56.2887 27.4297 56.214 27.0097 56.214 26.5542C56.214 26.1137 56.2887 25.703 56.438 25.3222C56.5874 24.9414 56.7946 24.611 57.0596 24.331C57.3247 24.051 57.6364 23.8326 57.9948 23.6758C58.3532 23.519 58.7415 23.4406 59.1596 23.4406C59.5927 23.4406 59.9866 23.5153 60.3412 23.6646C60.6959 23.8139 61.0002 24.0267 61.254 24.303C61.5079 24.5793 61.7039 24.9078 61.842 25.2886C61.9802 25.6694 62.0492 26.095 62.0492 26.5654V26.9574H57.8044C57.8716 27.3979 58.0322 27.7433 58.286 27.9934C58.5399 28.2435 58.861 28.3686 59.2492 28.3686C59.518 28.3686 59.7626 28.3051 59.9828 28.1782C60.2031 28.0513 60.3842 27.8683 60.526 27.6294L61.926 28.0774C61.7916 28.4134 61.59 28.7009 61.3212 28.9398C61.0524 29.1787 60.7388 29.3635 60.3804 29.4942ZM60.4364 25.9046H57.8268C57.9015 25.5163 58.0564 25.2102 58.2916 24.9862C58.5268 24.7622 58.8162 24.6502 59.1596 24.6502C59.4956 24.6502 59.7775 24.7622 60.0052 24.9862C60.233 25.2102 60.3767 25.5163 60.4364 25.9046ZM66.0588 28.279C65.7751 28.279 65.5212 28.2043 65.2972 28.055C65.0732 27.9057 64.8959 27.7022 64.7652 27.4446C64.6346 27.187 64.5692 26.8939 64.5692 26.5654C64.5692 26.2369 64.6346 25.9438 64.7652 25.6862C64.8959 25.4286 65.0732 25.2251 65.2972 25.0758C65.5212 24.9265 65.7751 24.8518 66.0588 24.8518C66.3426 24.8518 66.5964 24.9265 66.8204 25.0758C67.0444 25.2251 67.2218 25.4286 67.3524 25.6862C67.4831 25.9438 67.5484 26.2369 67.5484 26.5654C67.5484 26.8939 67.4831 27.187 67.3524 27.4446C67.2218 27.7022 67.0444 27.9057 66.8204 28.055C66.5964 28.2043 66.3426 28.279 66.0588 28.279ZM77.102 29.2422C76.669 29.4289 76.1575 29.5222 75.5676 29.5222H72.622V21.5702H75.5116C76.0492 21.5702 76.514 21.6542 76.906 21.8222C77.298 21.9902 77.6004 22.2291 77.8132 22.539C78.026 22.8489 78.1324 23.2129 78.1324 23.631C78.1324 24.0118 78.0503 24.3459 77.886 24.6334C77.7218 24.9209 77.4903 25.1467 77.1916 25.311C77.5948 25.4678 77.9084 25.7161 78.1324 26.0558C78.3564 26.3955 78.4684 26.7969 78.4684 27.2598C78.4684 27.7227 78.349 28.1222 78.11 28.4582C77.8711 28.7942 77.5351 29.0555 77.102 29.2422ZM75.3324 24.7734H74.2348V22.9478H75.3324C75.6983 22.9478 75.9802 23.0262 76.178 23.183C76.3759 23.3398 76.4748 23.5675 76.4748 23.8662C76.4748 24.1649 76.3759 24.3907 76.178 24.5438C75.9802 24.6969 75.6983 24.7734 75.3324 24.7734ZM74.2348 28.1446H75.4892C75.9074 28.1446 76.2303 28.055 76.458 27.8758C76.6858 27.6966 76.7996 27.439 76.7996 27.103C76.7996 26.767 76.6858 26.5094 76.458 26.3302C76.2303 26.151 75.9074 26.0614 75.4892 26.0614H74.2348V28.1446ZM81.0332 29.5222V26.6214C81.0332 26.1361 81.149 25.7609 81.3804 25.4958C81.6119 25.2307 81.9442 25.0982 82.3772 25.0982C82.4668 25.0982 82.5546 25.1038 82.6404 25.115C82.7263 25.1262 82.8103 25.1467 82.8924 25.1766L83.0604 23.631C82.9783 23.6011 82.885 23.5769 82.7804 23.5582C82.6759 23.5395 82.5714 23.5302 82.4668 23.5302C82.1234 23.5302 81.8247 23.6142 81.5708 23.7822C81.317 23.9502 81.1154 24.191 80.966 24.5046L80.91 23.6086H79.4652V29.5222H81.0332ZM87.8372 29.455C87.4602 29.6118 87.0476 29.6902 86.5996 29.6902C86.1591 29.6902 85.7522 29.6118 85.3788 29.455C85.0055 29.2982 84.6807 29.0798 84.4044 28.7998C84.1282 28.5198 83.9135 28.1894 83.7604 27.8086C83.6074 27.4278 83.5308 27.0134 83.5308 26.5654C83.5308 26.1174 83.6092 25.7049 83.766 25.3278C83.9228 24.9507 84.1412 24.6203 84.4212 24.3366C84.7012 24.0529 85.0298 23.8326 85.4068 23.6758C85.7839 23.519 86.1964 23.4406 86.6444 23.4406C87.085 23.4406 87.4919 23.519 87.8652 23.6758C88.2386 23.8326 88.5634 24.051 88.8396 24.331C89.1159 24.611 89.3306 24.9395 89.4836 25.3166C89.6367 25.6937 89.7132 26.1062 89.7132 26.5542C89.7132 27.0022 89.6348 27.4166 89.478 27.7974C89.3212 28.1782 89.1028 28.5105 88.8228 28.7942C88.5428 29.0779 88.2143 29.2982 87.8372 29.455ZM86.622 28.279C86.3383 28.279 86.0844 28.2043 85.8604 28.055C85.6364 27.9057 85.4591 27.7022 85.3284 27.4446C85.1978 27.187 85.1324 26.8939 85.1324 26.5654C85.1324 26.2369 85.1978 25.9438 85.3284 25.6862C85.4591 25.4286 85.6364 25.2251 85.8604 25.0758C86.0844 24.9265 86.3383 24.8518 86.622 24.8518C86.9058 24.8518 87.1596 24.9265 87.3836 25.0758C87.6076 25.2251 87.785 25.4286 87.9156 25.6862C88.0463 25.9438 88.1116 26.2369 88.1116 26.5654C88.1116 26.8939 88.0463 27.187 87.9156 27.4446C87.785 27.7022 87.6076 27.9057 87.3836 28.055C87.1596 28.2043 86.9058 28.279 86.622 28.279ZM94.63 25.5238L93.4428 29.5222H92.0204L90.0604 23.6086H91.6732L92.782 27.607L93.9804 23.6086H95.3356L96.534 27.6182L97.6652 23.6086H99.222L97.262 29.5222H95.8172L94.63 25.5238ZM102.1 29.6902C102.451 29.6902 102.772 29.6417 103.064 29.5446C103.355 29.4475 103.609 29.3094 103.825 29.1302C104.042 28.951 104.208 28.7419 104.324 28.503C104.439 28.2641 104.497 27.999 104.497 27.7078C104.497 27.2299 104.329 26.8361 103.993 26.5262C103.657 26.2163 103.172 26.0054 102.537 25.8934L102.224 25.8374C101.873 25.7777 101.624 25.6974 101.479 25.5966C101.333 25.4958 101.26 25.3707 101.26 25.2214C101.26 25.0497 101.335 24.9078 101.484 24.7958C101.634 24.6838 101.824 24.6278 102.056 24.6278C102.28 24.6278 102.476 24.6913 102.644 24.8182C102.812 24.9451 102.933 25.1206 103.008 25.3446L104.408 25.0534C104.326 24.7174 104.176 24.4299 103.96 24.191C103.743 23.9521 103.472 23.7673 103.148 23.6366C102.823 23.5059 102.463 23.4406 102.067 23.4406C101.619 23.4406 101.223 23.5227 100.88 23.687C100.536 23.8513 100.267 24.0771 100.073 24.3646C99.8791 24.6521 99.782 24.9825 99.782 25.3558C99.782 25.8262 99.9482 26.2145 100.28 26.5206C100.613 26.8267 101.1 27.0358 101.742 27.1478L102.056 27.2038C102.392 27.2635 102.632 27.3475 102.778 27.4558C102.924 27.5641 102.996 27.7003 102.996 27.8646C102.996 28.0587 102.914 28.2118 102.75 28.3238C102.586 28.4358 102.377 28.4918 102.123 28.4918C101.854 28.4918 101.623 28.4246 101.428 28.2902C101.234 28.1558 101.1 27.9729 101.025 27.7414L99.614 28.0438C99.7036 28.3798 99.866 28.671 100.101 28.9174C100.336 29.1638 100.624 29.3542 100.964 29.4886C101.303 29.623 101.682 29.6902 102.1 29.6902ZM109.414 29.4942C109.056 29.6249 108.675 29.6902 108.272 29.6902C107.831 29.6902 107.426 29.6137 107.056 29.4606C106.687 29.3075 106.368 29.091 106.099 28.811C105.83 28.531 105.621 28.1987 105.472 27.8142C105.322 27.4297 105.248 27.0097 105.248 26.5542C105.248 26.1137 105.322 25.703 105.472 25.3222C105.621 24.9414 105.828 24.611 106.093 24.331C106.358 24.051 106.67 23.8326 107.028 23.6758C107.387 23.519 107.775 23.4406 108.193 23.4406C108.626 23.4406 109.02 23.5153 109.375 23.6646C109.73 23.8139 110.034 24.0267 110.288 24.303C110.542 24.5793 110.738 24.9078 110.876 25.2886C111.014 25.6694 111.083 26.095 111.083 26.5654V26.9574H106.838C106.905 27.3979 107.066 27.7433 107.32 27.9934C107.574 28.2435 107.895 28.3686 108.283 28.3686C108.552 28.3686 108.796 28.3051 109.016 28.1782C109.237 28.0513 109.418 27.8683 109.56 27.6294L110.96 28.0774C110.825 28.4134 110.624 28.7009 110.355 28.9398C110.086 29.1787 109.772 29.3635 109.414 29.4942ZM109.47 25.9046H106.86C106.935 25.5163 107.09 25.2102 107.325 24.9862C107.56 24.7622 107.85 24.6502 108.193 24.6502C108.529 24.6502 108.811 24.7622 109.039 24.9862C109.267 25.2102 109.41 25.5163 109.47 25.9046ZM113.625 26.6214V29.5222H112.057V23.6086H113.502L113.558 24.5046C113.707 24.191 113.909 23.9502 114.163 23.7822C114.417 23.6142 114.715 23.5302 115.059 23.5302C115.163 23.5302 115.268 23.5395 115.372 23.5582C115.477 23.5769 115.57 23.6011 115.652 23.631L115.484 25.1766C115.402 25.1467 115.318 25.1262 115.232 25.115C115.147 25.1038 115.059 25.0982 114.969 25.0982C114.536 25.0982 114.204 25.2307 113.972 25.4958C113.741 25.7609 113.625 26.1361 113.625 26.6214Z" fill="#6E7883"/>
<path fill-rule="evenodd" clip-rule="evenodd" d="M48.5352 15.9142C48.2579 16.0262 47.9485 16.0822 47.6072 16.0822C47.2659 16.0822 46.9579 16.0275 46.6832 15.9182C46.4085 15.8089 46.1725 15.6502 45.9752 15.4422C45.7779 15.2342 45.6272 14.9849 45.5232 14.6942C45.4192 14.4035 45.3672 14.0795 45.3672 13.7222V10.2422H46.0392V13.6982C46.0392 14.0609 46.1032 14.3742 46.2312 14.6382C46.3592 14.9022 46.5405 15.1062 46.7752 15.2502C47.0099 15.3942 47.2899 15.4662 47.6152 15.4662C47.9405 15.4662 48.2205 15.3942 48.4552 15.2502C48.6899 15.1062 48.8712 14.9022 48.9992 14.6382C49.1272 14.3742 49.1912 14.0609 49.1912 13.6982V10.2422H49.8632V13.7222C49.8632 14.0795 49.8099 14.4022 49.7032 14.6902C49.5965 14.9782 49.4445 15.2262 49.2472 15.4342C49.0499 15.6422 48.8125 15.8022 48.5352 15.9142ZM52.8912 15.9462C52.7019 16.0102 52.4952 16.0422 52.2712 16.0422C52.0312 16.0422 51.8059 16.0022 51.5952 15.9222C51.3845 15.8422 51.2019 15.7275 51.0472 15.5782C50.8925 15.4289 50.7752 15.2529 50.6952 15.0502L51.2712 14.8422C51.3779 15.0449 51.5165 15.2022 51.6872 15.3142C51.8579 15.4262 52.0525 15.4822 52.2712 15.4822C52.4472 15.4822 52.6019 15.4529 52.7352 15.3942C52.8685 15.3355 52.9725 15.2542 53.0472 15.1502C53.1219 15.0462 53.1592 14.9302 53.1592 14.8022C53.1592 14.4555 52.9085 14.2315 52.4072 14.1302L52.0952 14.0662C51.6579 13.9809 51.3352 13.8409 51.1272 13.6462C50.9192 13.4515 50.8152 13.2049 50.8152 12.9062C50.8152 12.6662 50.8765 12.4529 50.9992 12.2662C51.1219 12.0795 51.2939 11.9342 51.5152 11.8302C51.7365 11.7262 51.9885 11.6742 52.2712 11.6742C52.5059 11.6742 52.7219 11.7129 52.9192 11.7902C53.1165 11.8675 53.2859 11.9809 53.4272 12.1302C53.5685 12.2795 53.6765 12.4555 53.7512 12.6582L53.1752 12.8502C53.0899 12.6529 52.9685 12.4995 52.8112 12.3902C52.6539 12.2809 52.4712 12.2262 52.2632 12.2262C52.1032 12.2262 51.9632 12.2529 51.8432 12.3062C51.7232 12.3595 51.6285 12.4315 51.5592 12.5222C51.4899 12.6129 51.4552 12.7195 51.4552 12.8422C51.4552 13.0129 51.5205 13.1489 51.6512 13.2502C51.7819 13.3515 51.9939 13.4315 52.2872 13.4902L52.5992 13.5542C52.9939 13.6342 53.2952 13.7742 53.5032 13.9742C53.7112 14.1742 53.8152 14.4289 53.8152 14.7382C53.8152 14.9302 53.7765 15.1049 53.6992 15.2622C53.6219 15.4195 53.5152 15.5569 53.3792 15.6742C53.2432 15.7915 53.0805 15.8822 52.8912 15.9462ZM56.5352 16.0422C56.7859 16.0422 57.0219 16.0035 57.2432 15.9262C57.4645 15.8489 57.6605 15.7382 57.8312 15.5942C58.0019 15.4502 58.1405 15.2769 58.2472 15.0742L57.7032 14.8262C57.5645 15.0395 57.3979 15.2009 57.2032 15.3102C57.0085 15.4195 56.7805 15.4742 56.5192 15.4742C56.2525 15.4742 56.0179 15.4129 55.8152 15.2902C55.6125 15.1675 55.4512 14.9942 55.3312 14.7702C55.2112 14.5462 55.1405 14.2849 55.1192 13.9862H58.3272V13.7222C58.3272 13.4289 58.2805 13.1569 58.1872 12.9062C58.0939 12.6555 57.9619 12.4395 57.7912 12.2582C57.6205 12.0769 57.4192 11.9355 57.1872 11.8342C56.9552 11.7329 56.7032 11.6822 56.4312 11.6822C56.1485 11.6822 55.8872 11.7369 55.6472 11.8462C55.4072 11.9555 55.1979 12.1089 55.0192 12.3062C54.8405 12.5035 54.7019 12.7342 54.6032 12.9982C54.5045 13.2622 54.4552 13.5515 54.4552 13.8662C54.4552 14.1862 54.5059 14.4782 54.6072 14.7422C54.7085 15.0062 54.8525 15.2355 55.0392 15.4302C55.2259 15.6249 55.4459 15.7755 55.6992 15.8822C55.9525 15.9889 56.2312 16.0422 56.5352 16.0422ZM55.1512 13.4902H57.6552C57.6339 13.2395 57.5672 13.0195 57.4552 12.8302C57.3432 12.6409 57.1992 12.4929 57.0232 12.3862C56.8472 12.2795 56.6499 12.2262 56.4312 12.2262C56.2125 12.2262 56.0139 12.2795 55.8352 12.3862C55.6565 12.4929 55.5072 12.6409 55.3872 12.8302C55.2672 13.0195 55.1885 13.2395 55.1512 13.4902ZM62.8232 16.0422C63.1165 16.0422 63.3885 15.9875 63.6392 15.8782C63.8899 15.7689 64.1072 15.6169 64.2912 15.4222C64.4752 15.2275 64.6192 14.9969 64.7232 14.7302C64.8272 14.4635 64.8792 14.1729 64.8792 13.8582C64.8792 13.5435 64.8285 13.2529 64.7272 12.9862C64.6259 12.7195 64.4832 12.4889 64.2992 12.2942C64.1152 12.0995 63.8992 11.9475 63.6512 11.8382C63.4032 11.7289 63.1325 11.6742 62.8392 11.6742C62.5459 11.6742 62.2739 11.7289 62.0232 11.8382C61.7725 11.9475 61.5552 12.0995 61.3712 12.2942C61.1872 12.4889 61.0432 12.7195 60.9392 12.9862C60.8352 13.2529 60.7832 13.5435 60.7832 13.8582C60.7832 14.1729 60.8339 14.4635 60.9352 14.7302C61.0365 14.9969 61.1792 15.2275 61.3632 15.4222C61.5472 15.6169 61.7632 15.7689 62.0112 15.8782C62.2592 15.9875 62.5299 16.0422 62.8232 16.0422ZM62.2752 15.3382C62.4432 15.4182 62.6285 15.4582 62.8312 15.4582C63.0339 15.4582 63.2192 15.4182 63.3872 15.3382C63.5552 15.2582 63.7019 15.1475 63.8272 15.0062C63.9525 14.8649 64.0499 14.6969 64.1192 14.5022C64.1885 14.3075 64.2232 14.0929 64.2232 13.8582C64.2232 13.6235 64.1885 13.4089 64.1192 13.2142C64.0499 13.0195 63.9525 12.8515 63.8272 12.7102C63.7019 12.5689 63.5552 12.4582 63.3872 12.3782C63.2192 12.2982 63.0339 12.2582 62.8312 12.2582C62.6285 12.2582 62.4432 12.2982 62.2752 12.3782C62.1072 12.4582 61.9605 12.5689 61.8352 12.7102C61.7099 12.8515 61.6125 13.0195 61.5432 13.2142C61.4739 13.4089 61.4392 13.6235 61.4392 13.8582C61.4392 14.0929 61.4739 14.3075 61.5432 14.5022C61.6125 14.6969 61.7099 14.8649 61.8352 15.0062C61.9605 15.1475 62.1072 15.2582 62.2752 15.3382ZM66.4312 15.9222V13.4742C66.4312 13.2395 66.4819 13.0302 66.5832 12.8462C66.6845 12.6622 66.8245 12.5182 67.0032 12.4142C67.1819 12.3102 67.3859 12.2582 67.6152 12.2582C67.9459 12.2582 68.2005 12.3702 68.3792 12.5942C68.5579 12.8182 68.6472 13.1355 68.6472 13.5462V15.9222H69.2872V13.5062C69.2872 13.1329 69.2245 12.8089 69.0992 12.5342C68.9739 12.2595 68.7939 12.0475 68.5592 11.8982C68.3245 11.7489 68.0499 11.6742 67.7352 11.6742C67.4312 11.6742 67.1632 11.7449 66.9312 11.8862C66.6992 12.0275 66.5219 12.2155 66.3992 12.4502L66.3672 11.7942H65.7912V15.9222H66.4312ZM73.2392 17.3742C73.0259 17.5475 72.7725 17.6342 72.4792 17.6342C72.3672 17.6342 72.2632 17.6222 72.1672 17.5982C72.0712 17.5742 71.9725 17.5355 71.8712 17.4822L72.0552 16.9702C72.1085 17.0022 72.1685 17.0262 72.2352 17.0422C72.3019 17.0582 72.3725 17.0662 72.4472 17.0662C72.6125 17.0662 72.7579 17.0142 72.8832 16.9102C73.0085 16.8062 73.1165 16.6422 73.2072 16.4182L73.4232 15.8822L71.7112 11.7942H72.4152L73.7352 15.1862L74.9272 11.7942H75.6072L73.7672 16.5702C73.6285 16.9329 73.4525 17.2009 73.2392 17.3742ZM78.0472 16.0422C78.3405 16.0422 78.6125 15.9875 78.8632 15.8782C79.1139 15.7689 79.3312 15.6169 79.5152 15.4222C79.6992 15.2275 79.8432 14.9969 79.9472 14.7302C80.0512 14.4635 80.1032 14.1729 80.1032 13.8582C80.1032 13.5435 80.0525 13.2529 79.9512 12.9862C79.8499 12.7195 79.7072 12.4889 79.5232 12.2942C79.3392 12.0995 79.1232 11.9475 78.8752 11.8382C78.6272 11.7289 78.3565 11.6742 78.0632 11.6742C77.7699 11.6742 77.4979 11.7289 77.2472 11.8382C76.9965 11.9475 76.7792 12.0995 76.5952 12.2942C76.4112 12.4889 76.2672 12.7195 76.1632 12.9862C76.0592 13.2529 76.0072 13.5435 76.0072 13.8582C76.0072 14.1729 76.0579 14.4635 76.1592 14.7302C76.2605 14.9969 76.4032 15.2275 76.5872 15.4222C76.7712 15.6169 76.9872 15.7689 77.2352 15.8782C77.4832 15.9875 77.7539 16.0422 78.0472 16.0422ZM77.4992 15.3382C77.6672 15.4182 77.8525 15.4582 78.0552 15.4582C78.2579 15.4582 78.4432 15.4182 78.6112 15.3382C78.7792 15.2582 78.9259 15.1475 79.0512 15.0062C79.1765 14.8649 79.2739 14.6969 79.3432 14.5022C79.4125 14.3075 79.4472 14.0929 79.4472 13.8582C79.4472 13.6235 79.4125 13.4089 79.3432 13.2142C79.2739 13.0195 79.1765 12.8515 79.0512 12.7102C78.9259 12.5689 78.7792 12.4582 78.6112 12.3782C78.4432 12.2982 78.2579 12.2582 78.0552 12.2582C77.8525 12.2582 77.6672 12.2982 77.4992 12.3782C77.3312 12.4582 77.1845 12.5689 77.0592 12.7102C76.9339 12.8515 76.8365 13.0195 76.7672 13.2142C76.6979 13.4089 76.6632 13.6235 76.6632 13.8582C76.6632 14.0929 76.6979 14.3075 76.7672 14.5022C76.8365 14.6969 76.9339 14.8649 77.0592 15.0062C77.1845 15.1475 77.3312 15.2582 77.4992 15.3382ZM82.6952 16.0422C83.0472 16.0422 83.3539 15.9635 83.6152 15.8062C83.8765 15.6489 84.0792 15.4262 84.2232 15.1382C84.3672 14.8502 84.4392 14.5142 84.4392 14.1302V11.7942H83.7992V14.1382C83.7992 14.4102 83.7552 14.6449 83.6672 14.8422C83.5792 15.0395 83.4539 15.1915 83.2912 15.2982C83.1285 15.4049 82.9352 15.4582 82.7112 15.4582C82.4872 15.4582 82.2939 15.4049 82.1312 15.2982C81.9685 15.1915 81.8432 15.0395 81.7552 14.8422C81.6672 14.6449 81.6232 14.4102 81.6232 14.1382V11.7942H80.9832V14.1302C80.9832 14.5249 81.0525 14.8649 81.1912 15.1502C81.3299 15.4355 81.5272 15.6555 81.7832 15.8102C82.0392 15.9649 82.3432 16.0422 82.6952 16.0422ZM86.3072 13.0062C86.2139 13.2115 86.1672 13.4529 86.1672 13.7302V15.9222H85.5272V11.7942H86.1032L86.1432 12.5622C86.2445 12.3062 86.3965 12.1049 86.5992 11.9582C86.8019 11.8115 87.0392 11.7382 87.3112 11.7382C87.4019 11.7382 87.4832 11.7449 87.5552 11.7582C87.6272 11.7715 87.6899 11.7889 87.7432 11.8102L87.6632 12.4182C87.6045 12.3969 87.5432 12.3822 87.4792 12.3742C87.4152 12.3662 87.3512 12.3622 87.2872 12.3622C87.0632 12.3622 86.8672 12.4182 86.6992 12.5302C86.5312 12.6422 86.4005 12.8009 86.3072 13.0062Z" fill="#6E7883"/>
</svg>
