<svg width="23" height="22" viewBox="0 0 23 22" fill="none" xmlns="http://www.w3.org/2000/svg">
<path fill-rule="evenodd" clip-rule="evenodd" d="M11.2773 0H11.2828C17.3479 0 22.28 4.93488 22.28 11C22.28 17.0651 17.3479 22 11.2828 22C9.04565 22 6.97078 21.3345 5.2314 20.1822L1.00328 21.5339L2.37415 17.4474C1.05553 15.6365 0.280029 13.4062 0.280029 11C0.280029 4.9335 5.21215 0 11.2773 0ZM15.5247 17.0858C16.3648 16.9042 17.418 16.2827 17.6834 15.5334C17.9488 14.7826 17.9488 14.1432 17.8718 14.0071C17.8096 13.8991 17.6626 13.8283 17.4431 13.7227C17.386 13.6951 17.3239 13.6653 17.2572 13.6318C16.934 13.4709 15.3624 12.694 15.0654 12.5909C14.7739 12.4809 14.4962 12.5194 14.2762 12.8301C14.2343 12.8887 14.1926 12.9474 14.151 13.0058C13.8856 13.3791 13.6296 13.7391 13.4168 13.9686C13.2229 14.1749 12.9067 14.201 12.6413 14.091C12.6123 14.0789 12.5792 14.0655 12.542 14.0505C12.1219 13.8808 11.1899 13.5044 10.0618 12.5001C9.11028 11.6531 8.46403 10.5985 8.27703 10.2822C8.09343 9.965 8.2518 9.77897 8.39816 9.60704C8.40087 9.60385 8.40358 9.60067 8.40628 9.5975C8.50065 9.48074 8.59222 9.38352 8.68425 9.28581C8.75046 9.21552 8.8169 9.14499 8.88478 9.06675C8.89486 9.05513 8.90466 9.04386 8.91421 9.03289C9.05835 8.86715 9.14419 8.76846 9.2409 8.56213C9.3509 8.349 9.27253 8.129 9.19415 7.96675C9.14023 7.85312 8.80712 7.0449 8.52116 6.35108C8.39879 6.05418 8.28506 5.77823 8.20553 5.58663C7.9924 5.0765 7.83015 5.05725 7.50703 5.0435C7.49713 5.043 7.48713 5.0425 7.47702 5.04199C7.37489 5.03682 7.2624 5.03113 7.13853 5.03113C6.71778 5.03113 6.27915 5.15488 6.01378 5.42575C6.00451 5.43522 5.99484 5.44505 5.98481 5.45525C5.64531 5.80053 4.88903 6.56967 4.88903 8.10287C4.88903 9.63904 5.979 11.1257 6.18067 11.4008C6.18623 11.4084 6.19111 11.415 6.19528 11.4207C6.20741 11.4367 6.23029 11.4698 6.26357 11.518C6.67536 12.1143 8.68105 15.0189 11.6719 16.258C14.1992 17.3057 14.9499 17.2081 15.5247 17.0858Z" fill="#F4A11D"/>
</svg>
