<svg width="23" height="23" viewBox="0 0 23 23" fill="none" xmlns="http://www.w3.org/2000/svg">
<path fill-rule="evenodd" clip-rule="evenodd" d="M11.2775 0.722168H11.283C17.3481 0.722168 22.2803 5.65704 22.2803 11.7222C22.2803 17.7873 17.3481 22.7222 11.283 22.7222C9.0459 22.7222 6.97102 22.0567 5.23165 20.9044L1.00352 22.256L2.3744 18.1695C1.05577 16.3587 0.280273 14.1284 0.280273 11.7222C0.280273 5.65567 5.2124 0.722168 11.2775 0.722168ZM15.5249 17.8079C16.365 17.6264 17.4183 17.0049 17.6836 16.2555C17.949 15.5048 17.949 14.8654 17.872 14.7293C17.8098 14.6213 17.6628 14.5505 17.4433 14.4448C17.3862 14.4173 17.3241 14.3874 17.2574 14.3539C16.9343 14.193 15.3626 13.4162 15.0656 13.313C14.7741 13.203 14.4964 13.2415 14.2764 13.5523C14.2346 13.6109 14.1928 13.6696 14.1513 13.728C13.8859 14.1013 13.6299 14.4613 13.417 14.6908C13.2231 14.897 12.9069 14.9232 12.6415 14.8132C12.6126 14.8011 12.5794 14.7877 12.5423 14.7727C12.1221 14.603 11.1901 14.2266 10.062 13.2223C9.11052 12.3753 8.46427 11.3207 8.27727 11.0044C8.09367 10.6872 8.25204 10.5011 8.39841 10.3292C8.40112 10.326 8.40382 10.3228 8.40652 10.3197C8.50089 10.2029 8.59247 10.1057 8.6845 10.008C8.7507 9.93769 8.81714 9.86716 8.88502 9.78892C8.8951 9.7773 8.9049 9.76603 8.91445 9.75505C9.0586 9.58932 9.14443 9.49063 9.24115 9.28429C9.35115 9.07117 9.27277 8.85117 9.1944 8.68892C9.14047 8.57529 8.80736 7.76707 8.5214 7.07325C8.39903 6.77635 8.2853 6.5004 8.20577 6.30879C7.99265 5.79867 7.8304 5.77942 7.50727 5.76567C7.49737 5.76517 7.48737 5.76467 7.47727 5.76416C7.37513 5.75899 7.26265 5.75329 7.13877 5.75329C6.71802 5.75329 6.2794 5.87704 6.01402 6.14792C6.00475 6.15739 5.99508 6.16722 5.98505 6.17742C5.64555 6.5227 4.88927 7.29184 4.88927 8.82504C4.88927 10.3612 5.97925 11.8479 6.18092 12.123C6.18647 12.1305 6.19136 12.1372 6.19552 12.1429C6.20766 12.1589 6.23053 12.192 6.26382 12.2402C6.6756 12.8365 8.68129 15.7411 11.6721 16.9802C14.1994 18.0279 14.9501 17.9303 15.5249 17.8079Z" fill="#EA6212"/>
</svg>
