<svg width="25" height="25" viewBox="0 0 25 25" fill="none" xmlns="http://www.w3.org/2000/svg">
<circle cx="12.5" cy="12.5" r="12.5" fill="#F5BD00"/>
<path d="M15.156 12.0825C15.0823 11.946 14.9423 11.8609 14.79 11.8609H12.4185V7.17834C12.4185 6.9419 12.2311 6.75 12.0001 6.75C11.7691 6.75 11.5817 6.9419 11.5817 7.17834V11.8609H9.21018C9.05732 11.8609 8.9173 11.946 8.84422 12.0825C8.77002 12.219 8.77504 12.3858 8.85593 12.5177L11.6458 17.0501C11.7228 17.1746 11.8562 17.25 12.0001 17.25C12.144 17.25 12.2774 17.1746 12.3543 17.0501L15.1443 12.5177C15.1867 12.448 15.2084 12.3687 15.2084 12.2893C15.2084 12.2185 15.1906 12.1471 15.156 12.0825Z" fill="#1E1E1E"/>
</svg>
