<svg width="32" height="22" viewBox="0 0 32 22" fill="none" xmlns="http://www.w3.org/2000/svg">
<path fill-rule="evenodd" clip-rule="evenodd" d="M28.2847 0.672769C29.6306 1.03524 30.6919 2.09636 31.054 3.44247C31.7272 5.90111 31.7013 11.0259 31.7013 11.0259C31.7013 11.0259 31.7013 16.1246 31.0544 18.5834C30.6919 19.9293 29.6308 20.9905 28.2847 21.3527C25.8259 22 15.9908 22 15.9908 22C15.9908 22 6.18114 22 3.69661 21.327C2.3505 20.9646 1.28957 19.9034 0.927099 18.5575C0.280029 16.1246 0.280029 11 0.280029 11C0.280029 11 0.280029 5.90111 0.927099 3.44247C1.28918 2.09655 2.37639 1.00934 3.69642 0.647262C6.15525 0 15.9904 0 15.9904 0C15.9904 0 25.8259 0 28.2847 0.672769ZM21.0377 10.9998L12.859 6.28923V15.7103L21.0377 10.9998Z" fill="#F4A11D"/>
</svg>
