<svg width="32" height="22" viewBox="0 0 32 22" fill="none" xmlns="http://www.w3.org/2000/svg">
<path fill-rule="evenodd" clip-rule="evenodd" d="M28.0047 0.672769C29.3506 1.03524 30.4119 2.09636 30.774 3.44247C31.4471 5.90111 31.4213 11.0259 31.4213 11.0259C31.4213 11.0259 31.4213 16.1246 30.7744 18.5834C30.4119 19.9293 29.3508 20.9905 28.0047 21.3527C25.5458 22 15.7107 22 15.7107 22C15.7107 22 5.90111 22 3.41658 21.327C2.07047 20.9646 1.00954 19.9034 0.64707 18.5575C0 16.1246 0 11 0 11C0 11 0 5.90111 0.64707 3.44247C1.00915 2.09655 2.09636 1.00934 3.41639 0.647262C5.87522 0 15.7103 0 15.7103 0C15.7103 0 25.5458 0 28.0047 0.672769ZM20.7576 10.9998L12.5789 6.28923V15.7103L20.7576 10.9998Z" fill="#E63E32"/>
</svg>
