<svg width="25" height="18" viewBox="0 0 25 18" fill="none" xmlns="http://www.w3.org/2000/svg">
<path fill-rule="evenodd" clip-rule="evenodd" d="M21.9202 1.24203C22.9603 1.52212 23.7804 2.34208 24.0602 3.38226C24.5803 5.28212 24.5603 9.24217 24.5603 9.24217C24.5603 9.24217 24.5603 13.1821 24.0605 15.0821C23.7804 16.1221 22.9604 16.9421 21.9202 17.222C20.0202 17.7222 12.4204 17.7222 12.4204 17.7222C12.4204 17.7222 4.84022 17.7222 2.92036 17.2022C1.88018 16.9221 1.06037 16.1021 0.780282 15.0621C0.280273 13.1821 0.280273 9.22217 0.280273 9.22217C0.280273 9.22217 0.280273 5.28212 0.780282 3.38226C1.06007 2.34223 1.90019 1.50212 2.92021 1.22232C4.82022 0.722168 12.4201 0.722168 12.4201 0.722168C12.4201 0.722168 20.0202 0.722168 21.9202 1.24203ZM16.3203 9.22217L10.0004 5.58221V12.8621L16.3203 9.22217Z" fill="#EA6212"/>
</svg>
